<?xml version="1.0" standalone="no"?>
<!DOCTYPE svg PUBLIC "-//W3C//DTD SVG 20010904//EN"
 "http://www.w3.org/TR/2001/REC-SVG-20010904/DTD/svg10.dtd">
<svg version="1.0" xmlns="http://www.w3.org/2000/svg"
 width="960.000000pt" height="640.000000pt" viewBox="0 0 960.000000 640.000000"
 preserveAspectRatio="xMidYMid meet">

<g transform="translate(0.000000,640.000000) scale(0.100000,-0.100000)"
fill="#000000" stroke="none">
<path d="M4204 5875 c-8 -20 13 -45 37 -45 13 0 19 7 19 24 0 34 -45 50 -56
21z"/>
<path d="M4215 5757 c-8 -43 3 -103 16 -90 13 13 14 102 1 115 -7 7 -13 0 -17
-25z"/>
<path d="M4213 5619 c-7 -7 -9 -31 -6 -63 6 -57 -4 -73 -61 -91 -23 -7 -38
-23 -58 -64 -15 -29 -31 -58 -37 -65 -5 -6 -12 -28 -16 -49 -4 -21 -16 -44
-27 -52 -20 -13 -20 -15 -4 -55 15 -39 15 -140 0 -193 -3 -9 -7 -35 -9 -58 -3
-22 -18 -66 -34 -97 -16 -31 -32 -67 -36 -80 -3 -12 -15 -26 -25 -32 -12 -7
-20 -27 -25 -62 -4 -29 -21 -79 -37 -111 -31 -62 -28 -79 12 -90 15 -4 20 0
20 14 0 22 94 215 118 242 22 25 49 21 54 -8 4 -21 1 -25 -18 -25 -26 0 -43
-35 -25 -53 15 -15 13 -48 -4 -71 -8 -11 -15 -15 -15 -9 0 17 -30 44 -41 38
-4 -3 -15 -20 -22 -38 -34 -79 -42 -125 -41 -260 0 -109 -3 -137 -13 -133 -9
4 -13 -5 -13 -32 0 -21 -7 -47 -15 -60 -9 -12 -38 -65 -64 -119 -41 -83 -49
-107 -50 -159 -1 -68 7 -80 57 -90 27 -6 32 -4 32 14 0 31 27 87 54 113 14 13
26 32 26 41 0 10 27 45 61 79 58 59 62 61 97 54 20 -5 60 -9 87 -11 49 -2 116
-13 205 -33 25 -5 82 -14 128 -20 45 -6 99 -18 119 -28 20 -9 49 -16 64 -15
20 2 29 -3 34 -19 11 -32 -9 -45 -48 -32 -49 18 -198 44 -209 37 -6 -4 -8 -43
-6 -94 1 -49 0 -92 -4 -96 -9 -8 -9 -9 -11 101 -2 64 -5 80 -17 80 -15 0 -17
-12 -19 -117 -1 -27 -5 -48 -10 -48 -5 0 -7 18 -4 41 4 29 2 44 -8 51 -11 7
-11 11 -1 15 6 2 12 18 12 35 0 27 -3 30 -25 26 -19 -4 -25 -1 -25 13 0 13
-10 20 -35 24 -19 3 -52 8 -72 11 -20 3 -75 10 -121 14 l-85 9 -33 -32 c-19
-17 -34 -36 -34 -42 0 -5 -9 -21 -20 -35 -16 -21 -20 -41 -20 -122 0 -84 -3
-101 -20 -118 -23 -23 -23 -21 -20 57 2 53 -6 68 -26 49 -12 -12 -15 -130 -19
-758 -3 -484 -8 -744 -15 -746 -5 -2 -10 -10 -10 -18 0 -8 6 -11 17 -7 14 5
13 1 -5 -24 -12 -17 -22 -39 -22 -48 0 -9 -4 -24 -9 -34 -5 -9 -12 -75 -15
-146 -3 -70 -8 -130 -11 -133 -3 -3 -5 -13 -5 -23 0 -10 -12 -26 -26 -35 -24
-16 -24 -18 -7 -27 29 -16 30 -22 32 -153 1 -96 -1 -124 -11 -124 -7 0 -24 -9
-38 -20 -25 -20 -66 -28 -55 -11 3 5 1 12 -4 15 -12 8 -161 -17 -161 -26 0 -5
11 -6 24 -2 31 7 45 -24 20 -43 -23 -17 -34 -16 -34 1 0 18 -23 27 -41 15 -20
-12 -29 -11 -29 4 0 7 -15 20 -32 29 -31 14 -33 18 -31 64 2 80 14 134 29 134
20 0 17 12 -11 43 -22 22 -25 33 -19 62 3 20 2 48 -4 63 -13 33 -22 471 -10
478 12 8 48 85 48 105 0 9 -7 22 -15 29 -23 19 -19 65 7 82 20 13 21 17 9 32
-7 9 -19 16 -26 16 -18 0 -13 45 5 46 34 2 41 4 36 12 -3 5 22 14 55 21 39 9
56 17 47 22 -7 4 -23 6 -35 3 -16 -4 -25 -1 -29 10 -3 9 -14 16 -23 16 -10 0
-20 3 -23 6 -10 9 4 44 17 44 7 0 20 11 29 25 16 24 15 25 -3 25 -11 0 -32
-12 -46 -27 -20 -22 -25 -24 -25 -10 0 9 4 17 9 17 4 0 6 11 4 25 -6 27 -39
43 -56 26 -6 -6 -24 -11 -39 -11 -19 0 -28 -5 -28 -16 0 -11 -6 -15 -18 -12
-11 3 -29 0 -41 -7 l-23 -12 32 -26 c17 -15 38 -27 46 -27 8 0 14 -4 14 -9 0
-15 -25 -19 -68 -11 -41 7 -62 -1 -62 -26 0 -6 11 -15 25 -18 33 -8 32 -34 -2
-47 -28 -11 -28 -11 -5 -20 27 -10 27 -18 5 -57 -17 -29 -17 -31 1 -51 l19
-21 37 37 c43 44 58 88 35 97 -11 4 -14 13 -9 33 9 36 17 45 37 38 26 -10 28
-33 10 -108 -9 -40 -16 -80 -15 -89 0 -10 -8 -23 -19 -29 -18 -9 -19 -13 -7
-27 20 -26 38 -60 38 -74 0 -7 7 -25 15 -41 11 -21 14 -75 15 -237 0 -195 -1
-210 -19 -219 -10 -6 -21 -7 -25 -4 -3 3 -6 -3 -6 -15 0 -12 -6 -22 -13 -22
-17 0 -39 -37 -27 -45 16 -10 11 -22 -11 -28 -12 -3 -18 -10 -14 -16 3 -6 -1
-11 -9 -11 -19 0 -28 -14 -20 -34 4 -11 13 -14 25 -11 11 4 19 4 19 2 0 -9
-27 -57 -31 -54 -2 1 3 -4 11 -11 13 -11 16 -10 19 5 5 26 32 64 41 58 4 -3 7
-50 6 -104 -2 -96 -3 -101 -31 -127 -21 -19 -33 -24 -43 -17 -18 11 -26 50
-12 58 6 3 10 1 10 -5 0 -6 5 -8 10 -5 6 3 10 15 10 26 0 17 -6 19 -40 17 -32
-3 -40 -7 -46 -28 -11 -36 -10 -55 3 -53 6 1 11 -9 11 -22 0 -38 -13 -30 -53
30 -41 61 -61 80 -50 46 6 -19 4 -21 -19 -15 -34 8 -33 -2 2 -20 22 -12 24
-16 10 -21 -9 -4 -25 -2 -35 3 -22 11 -43 5 -43 -12 0 -9 9 -12 25 -8 41 7 93
-7 120 -34 14 -14 25 -29 25 -33 0 -16 -37 -41 -62 -41 -33 0 -108 40 -122 65
-6 11 -12 22 -13 24 -2 2 -10 -2 -20 -10 -11 -9 -14 -10 -9 -1 4 6 2 12 -3 12
-15 0 -14 -43 1 -58 9 -9 7 -12 -10 -12 -25 0 -29 -15 -7 -24 31 -12 13 -26
-32 -26 -67 0 -95 9 -91 29 3 12 15 16 53 14 40 -2 45 0 25 7 -14 4 -42 11
-62 15 -29 4 -42 13 -53 35 -18 34 -23 35 -69 16 -20 -8 -39 -10 -47 -5 -11 6
-10 9 4 15 9 3 17 10 17 15 0 6 -8 6 -19 0 -10 -6 -21 -7 -25 -3 -4 3 -4 -1 0
-11 4 -12 1 -17 -10 -17 -9 0 -16 7 -16 15 0 23 -64 49 -89 36 -11 -6 -24 -11
-29 -11 -17 0 -1 39 19 45 10 4 19 11 19 16 0 5 4 9 9 9 5 0 7 -8 4 -19 -3
-14 2 -20 22 -23 21 -4 25 -2 20 11 -12 29 -10 35 9 39 23 5 38 -16 31 -45 -7
-30 11 -30 19 -1 9 35 7 70 -4 63 -5 -3 -21 5 -34 18 -16 16 -28 21 -34 15
-13 -13 -32 -2 -32 18 0 10 -12 14 -39 14 -21 0 -44 6 -50 14 -7 8 -21 12 -32
9 -14 -4 -17 -9 -9 -18 7 -8 7 -14 1 -17 -5 -1 -13 -18 -16 -37 -8 -44 -12
-51 -30 -44 -8 3 -23 2 -33 -3 -9 -4 -19 -8 -22 -9 -3 -1 -18 -7 -33 -13 -16
-7 -32 -12 -37 -12 -5 0 -14 -8 -19 -18 -9 -15 -10 -15 -11 0 0 9 -6 18 -12
21 -10 4 -10 7 0 18 15 16 16 29 1 29 -14 0 -35 -25 -51 -60 -9 -21 -12 -22
-15 -7 -3 12 -11 16 -23 12 -10 -3 -21 -1 -25 5 -4 6 -20 0 -42 -17 -30 -23
-46 -28 -94 -28 -31 1 -64 6 -72 14 -10 7 -25 10 -38 6 -33 -11 -69 13 -69 47
0 17 -5 28 -14 28 -8 0 -20 2 -28 5 -7 3 -19 1 -27 -4 -12 -8 -11 -12 4 -28
13 -13 20 -14 23 -5 2 6 11 12 20 12 12 0 13 -3 5 -11 -7 -7 -9 -25 -6 -40 3
-19 1 -29 -6 -29 -7 0 -9 5 -6 10 3 6 -1 13 -9 16 -9 3 -16 12 -16 19 0 8 -18
12 -55 12 -62 0 -70 4 -61 30 6 15 9 15 17 3 8 -11 12 -12 16 -2 2 6 16 12 29
12 13 0 24 4 24 9 0 14 -31 22 -44 12 -12 -10 -66 -12 -66 -2 0 3 -17 6 -39 6
l-38 1 29 -31 c16 -17 27 -37 24 -47 -2 -10 0 -21 5 -24 18 -11 9 -32 -11 -27
-11 3 -20 8 -20 12 0 10 -60 34 -86 34 -13 0 -29 6 -35 13 -9 11 -5 14 22 15
34 0 34 0 12 16 -13 8 -23 24 -23 34 0 25 12 24 28 -1 13 -21 42 -28 42 -10 0
6 -4 10 -10 10 -5 0 -10 4 -10 10 0 5 18 13 40 16 38 6 39 8 25 24 -20 22 -20
61 0 54 8 -4 15 -12 15 -20 0 -8 3 -14 8 -14 4 0 7 22 7 50 0 51 -4 55 -48 51
-9 -1 -17 3 -17 9 0 7 6 10 14 7 23 -9 26 4 5 26 -11 12 -17 27 -15 34 8 19
-4 43 -21 43 -8 0 -24 6 -36 13 -12 6 -38 12 -57 12 -27 0 -37 5 -45 22 -5 13
-16 23 -23 23 -9 0 -12 6 -8 16 5 13 2 15 -14 11 -13 -3 -23 0 -26 8 -5 12
-15 13 -107 6 -13 -1 -17 -6 -13 -19 6 -18 -21 -56 -44 -64 -8 -2 -9 -16 -5
-41 4 -20 11 -35 15 -32 4 2 5 -7 2 -20 -2 -14 -10 -25 -18 -25 -20 0 -24 -13
-15 -53 6 -25 5 -36 -3 -34 -6 1 -11 -10 -11 -25 0 -35 -11 -44 -24 -20 -7 14
-8 29 -2 45 18 47 -42 90 -77 55 -9 -9 -12 -6 -12 14 0 14 7 28 15 32 8 3 15
12 15 21 0 9 9 15 26 15 19 0 25 4 22 20 -2 10 6 26 17 33 16 13 17 17 6 31
-11 13 -11 17 3 22 10 4 15 13 11 21 -3 10 -1 13 9 10 8 -3 17 -1 19 6 6 17
-14 57 -27 57 -6 0 -19 17 -29 37 -10 21 -16 28 -13 15 4 -19 2 -21 -10 -11
-16 13 -19 39 -4 39 6 0 10 9 10 19 0 14 6 19 20 16 11 -2 22 1 26 6 4 6 14 2
26 -10 10 -12 16 -26 13 -31 -4 -6 7 -10 24 -10 17 0 31 -4 31 -10 0 -5 -9
-10 -20 -10 -22 0 -27 -15 -7 -22 6 -2 25 -2 42 1 36 7 47 40 16 48 -19 5 -20
7 -5 18 15 10 13 13 -15 24 -17 7 -38 11 -46 7 -9 -3 -13 -2 -10 4 3 5 1 17
-4 27 -5 10 -17 35 -26 56 -9 20 -22 37 -30 37 -20 0 -19 9 2 33 13 15 15 21
6 24 -7 3 -13 10 -13 17 0 21 -54 13 -62 -9 -5 -16 -6 -14 -7 10 -1 29 0 30
50 32 51 2 76 12 52 20 -7 3 -13 13 -13 24 0 26 -36 25 -43 -2 -4 -17 -12 -20
-39 -17 -26 2 -33 -1 -36 -17 -9 -62 -7 -60 -71 -57 -48 3 -59 7 -54 19 3 8 0
19 -8 23 -10 7 -6 12 16 20 34 13 59 20 94 25 27 4 49 21 29 23 -7 0 -26 5
-43 10 -22 8 -25 11 -10 11 36 3 -22 41 -61 41 -19 0 -34 4 -34 8 0 14 -52 34
-59 24 -18 -27 -107 -20 -149 11 -8 7 -17 6 -24 -1 -7 -7 -19 -7 -34 -2 -13 5
-34 6 -45 1 -12 -4 -33 -6 -46 -3 -19 3 -23 11 -23 37 0 26 5 35 23 41 12 5
26 7 30 6 5 -1 6 2 2 8 -10 16 11 12 25 -5 7 -8 19 -15 26 -15 25 0 15 16 -21
33 -35 16 -50 56 -22 58 6 0 -4 8 -23 17 -19 8 -39 15 -43 14 -4 -1 -16 2 -25
7 -14 7 -16 21 -14 80 l4 71 63 -5 c59 -5 63 -4 58 14 -3 11 -14 27 -24 37
-10 9 -19 22 -19 28 0 21 -82 76 -104 70 -12 -3 -34 0 -49 5 -24 9 -26 14 -17
30 8 16 6 22 -10 31 -11 6 -20 20 -20 32 0 17 3 19 12 10 19 -19 29 -14 22 12
-4 19 -1 26 17 31 14 5 25 3 27 -3 4 -12 70 -5 88 10 6 4 12 32 13 61 0 28 5
53 11 55 14 5 12 41 -3 55 -21 20 -74 47 -80 41 -10 -10 -47 7 -47 21 0 7 -6
16 -12 18 -7 3 -2 6 11 6 14 1 33 -6 43 -16 17 -15 18 -15 18 0 0 10 5 17 11
17 20 0 5 65 -23 94 -28 30 -29 50 -3 39 9 -3 15 1 15 11 0 9 -7 16 -15 16 -8
0 -15 5 -15 10 0 6 -7 10 -15 10 -8 0 -15 -5 -15 -11 0 -5 -4 -8 -9 -4 -5 3
-12 1 -16 -5 -3 -5 0 -10 7 -11 7 0 4 -4 -7 -8 -25 -10 -38 -4 -31 15 3 8 1
14 -4 14 -6 0 -10 5 -10 11 0 6 8 8 19 4 14 -4 20 1 25 20 8 32 19 32 41 -1 9
-14 22 -23 30 -21 7 3 17 1 23 -5 6 -6 12 -1 16 16 5 19 13 25 29 24 12 0 35
4 51 11 35 14 36 13 25 -18 -8 -20 -14 -22 -39 -18 -38 8 -43 -3 -26 -52 11
-34 11 -41 0 -41 -10 0 -11 -6 -4 -24 5 -13 7 -26 4 -29 -2 -2 3 -10 12 -18
16 -13 17 -11 11 24 -5 32 -3 37 14 37 10 0 19 -5 19 -11 0 -7 12 -9 35 -5 33
7 48 -5 25 -19 -17 -10 -11 -35 14 -60 20 -20 31 -23 63 -18 21 3 42 9 47 14
5 4 23 6 40 3 l31 -4 -30 14 c-16 9 -40 15 -51 16 -12 0 -32 9 -45 21 l-24 20
23 -6 c17 -5 22 -2 22 14 0 22 17 37 40 33 10 -2 15 6 15 23 0 14 -4 25 -8 25
-14 0 -3 45 11 46 6 1 17 2 22 3 6 0 10 8 10 16 0 9 6 12 15 9 9 -4 18 1 22
12 3 11 10 21 14 24 4 3 10 30 13 60 3 30 3 47 0 38 -7 -22 -37 -23 -54 -3 -7
8 -19 15 -26 15 -19 0 -17 20 4 37 15 13 14 13 -14 8 -24 -5 -33 -2 -38 11 -4
9 -4 19 -1 22 3 3 5 1 5 -5 0 -5 14 -8 30 -5 36 5 60 -12 60 -44 0 -24 20 -45
20 -22 1 17 35 58 49 58 6 0 11 16 11 35 0 28 -4 35 -20 35 -13 0 -22 9 -26
25 -4 18 -13 25 -30 25 -13 0 -35 11 -49 26 -24 24 -25 26 -8 49 21 29 26 30
43 10 11 -13 60 -22 60 -10 0 2 -6 17 -12 32 -16 36 -47 62 -73 63 -13 0 -25
11 -33 30 -8 17 -21 30 -31 30 -9 0 -24 13 -33 28 -9 15 -29 40 -44 55 -15 15
-23 27 -18 27 16 1 -25 21 -72 35 -41 12 -48 12 -62 -2 -11 -10 -17 -12 -20
-4 -2 6 -20 11 -41 11 -20 0 -42 5 -48 11 -7 7 -25 12 -40 13 -23 1 -28 6 -29
26 -1 14 -2 30 -4 35 -6 25 1 44 15 39 9 -4 15 0 15 9 0 38 123 54 133 17 3
-11 11 -20 17 -20 7 0 10 7 6 16 -5 12 -2 15 10 10 8 -3 20 -6 25 -6 32 0 -21
-59 -53 -60 -10 0 -18 -4 -18 -8 0 -4 15 -6 33 -4 22 2 43 -4 70 -22 20 -14
37 -22 37 -19 0 4 5 2 11 -4 7 -7 24 -10 39 -7 17 4 31 0 39 -10 17 -20 32
-21 25 -1 -8 19 5 19 30 0 11 -8 26 -15 34 -15 12 0 11 5 -3 27 -12 18 -14 28
-7 31 21 7 13 21 -22 37 -23 11 -33 22 -29 31 5 13 -12 19 -44 15 -25 -3 -122
74 -109 87 3 3 24 0 47 -7 30 -9 39 -16 35 -28 -4 -11 -2 -14 9 -9 8 3 26 1
40 -4 44 -17 44 26 -1 50 -17 9 -24 22 -24 42 0 21 -5 28 -19 28 -13 0 -23 11
-31 35 -7 21 -18 35 -28 35 -9 0 -32 11 -51 24 -20 14 -48 27 -63 30 -16 2
-45 21 -65 40 -28 26 -44 34 -60 30 -14 -4 -23 -2 -23 5 0 6 -7 11 -15 11 -19
0 -19 24 -1 40 24 19 7 40 -33 40 -41 0 -85 38 -75 64 3 7 -2 16 -11 20 -9 3
-18 -1 -22 -10 -5 -13 -10 -10 -29 13 l-23 28 0 -1082 c0 -926 2 -1083 14
-1083 7 0 16 4 20 10 3 5 12 7 20 3 9 -3 15 1 15 11 0 9 4 16 9 16 17 0 19
-28 5 -49 -14 -19 -13 -21 0 -21 9 0 16 7 16 15 0 8 7 15 15 15 8 0 15 -7 15
-15 0 -8 -5 -15 -11 -15 -8 0 -8 -4 1 -15 6 -8 8 -20 4 -27 -6 -10 -4 -10 9 0
14 12 20 9 47 -20 l31 -33 -4 28 c-4 27 6 37 18 17 4 -7 13 -7 25 0 15 8 21 6
30 -10 11 -20 9 -21 -24 -14 -28 5 -36 3 -36 -9 0 -8 -9 -17 -20 -20 -30 -8
-25 -21 32 -78 49 -49 51 -52 23 -45 -52 12 -95 15 -95 7 0 -5 11 -12 25 -15
31 -8 50 -41 50 -86 0 -31 3 -35 27 -35 15 1 30 -5 32 -12 3 -8 -2 -13 -12
-13 -10 0 -31 -13 -47 -30 -32 -33 -36 -31 55 -36 25 -1 48 -3 53 -4 4 -2 13
-3 20 -4 6 -1 11 -8 9 -17 -1 -12 5 -15 27 -11 19 3 30 -1 34 -12 8 -19 -11
-32 -26 -17 -6 6 -21 11 -34 11 -20 0 -22 -3 -12 -27 8 -21 7 -28 -6 -35 -8
-5 -13 -13 -10 -19 4 -5 -1 -9 -10 -9 -9 0 -13 4 -10 10 3 5 1 19 -5 30 -9 16
-8 18 5 14 8 -4 15 -1 15 5 0 6 -8 11 -18 11 -11 0 -28 8 -40 18 -14 13 -36
18 -78 17 l-59 0 -2 -37 c-2 -20 1 -39 7 -43 5 -3 10 -11 10 -17 0 -7 -4 -7
-14 1 -10 8 -16 8 -25 -2 -14 -18 -59 -10 -71 13 -7 13 -4 20 15 28 25 11 33
36 16 46 -4 3 -16 -3 -26 -14 -21 -23 -41 -26 -48 -7 -3 6 -5 -102 -6 -240
l-1 -253 25 0 c15 0 24 -4 20 -10 -4 -6 -10 -8 -15 -5 -12 7 -30 -28 -29 -57
0 -21 1 -21 8 -4 7 18 8 18 14 3 8 -22 -3 -106 -14 -113 -5 -3 -9 -111 -9
-240 l0 -234 25 0 c16 0 28 7 31 18 3 9 10 25 15 34 12 24 11 28 -5 22 -8 -3
-23 -1 -33 5 -14 8 -9 10 28 11 39 0 48 3 52 21 4 16 11 20 26 16 12 -3 19 -1
16 3 -3 5 -1 11 4 14 5 4 12 2 16 -4 10 -16 25 -11 25 9 0 38 -96 36 -102 -3
-2 -13 -11 -22 -24 -24 -17 -2 -22 3 -26 29 -4 25 -1 33 14 37 11 2 18 13 18
28 0 19 5 24 25 24 25 0 65 -21 93 -47 7 -7 20 -13 28 -13 9 0 14 -11 14 -36
0 -28 -5 -37 -20 -41 -19 -5 -19 -6 -4 -18 24 -17 11 -31 -38 -40 -38 -7 -40
-8 -18 -14 14 -4 26 -14 28 -23 5 -24 -26 -78 -43 -78 -8 0 -15 -4 -15 -10 0
-6 -28 -10 -65 -10 -64 0 -65 -1 -65 -26 0 -25 2 -26 37 -20 21 3 108 8 193
11 189 7 220 12 220 30 0 11 -13 15 -50 15 -27 0 -50 5 -50 10 0 6 11 10 24
10 14 0 28 4 31 10 3 6 -1 7 -10 4 -8 -4 -22 -1 -29 5 -9 8 -28 10 -51 5 -34
-6 -37 -5 -33 17 2 16 10 24 23 24 14 0 19 6 18 20 -1 10 7 31 18 46 23 32 24
39 5 39 -44 0 -10 54 39 63 17 3 48 10 70 16 65 17 93 -26 51 -79 -19 -24 -13
-43 15 -47 22 -3 28 2 35 28 13 44 29 36 28 -14 -2 -39 -32 -158 -33 -129 -1
10 -4 10 -16 -2 -24 -24 -18 -43 16 -50 63 -12 85 -8 98 22 8 15 17 35 22 45
6 10 5 17 -1 17 -13 0 -1 112 14 127 9 10 17 1 36 -40 14 -28 34 -60 45 -69
17 -15 18 -19 5 -28 -8 -5 -20 -8 -27 -6 -6 3 -14 -6 -17 -20 -5 -20 -12 -24
-34 -22 -19 2 -27 -2 -27 -12 0 -12 12 -14 63 -12 l63 3 -3 -32 -3 -33 -70 4
c-92 5 -195 4 -329 -4 -60 -3 -171 -7 -247 -9 l-139 -2 0 -42 0 -43 41 0 c36
0 41 2 36 20 -3 13 1 23 11 29 10 5 100 10 202 12 l185 4 3 -32 c2 -18 9 -33
15 -33 33 1 54 14 63 41 l9 30 110 2 110 2 3 -32 c2 -19 9 -33 16 -33 15 0 27
46 26 99 0 18 4 39 11 47 7 9 9 31 5 63 -6 43 -4 49 13 54 31 8 40 -10 25 -51
-18 -51 -17 -62 6 -62 18 0 20 7 21 73 1 39 4 62 6 50 2 -13 9 -23 14 -23 6 0
7 9 4 21 -5 14 -4 19 4 15 7 -4 9 -1 5 7 -3 8 -1 18 4 21 6 3 17 -14 25 -39
15 -44 15 -45 -6 -41 -15 2 -25 -5 -34 -22 -33 -62 -2 -79 123 -67 53 5 77 11
83 23 5 9 13 13 17 9 5 -5 2 -12 -5 -16 -9 -6 -10 -11 -2 -15 16 -10 392 -10
415 -1 11 5 43 9 70 9 28 1 54 5 59 11 4 7 10 7 15 0 4 -5 54 -11 112 -12 58
-2 128 -7 155 -12 28 -5 79 -9 115 -8 36 1 68 -1 71 -6 7 -10 100 -12 205 -4
l82 5 9 -31 c7 -25 15 -33 36 -35 15 -2 27 -8 27 -14 0 -6 -9 -8 -20 -5 -11 3
-20 2 -20 -3 0 -11 93 -23 190 -24 126 -1 272 8 252 15 -15 6 -15 8 -2 13 18
8 174 27 239 29 39 2 45 5 53 30 15 43 31 33 23 -16 -8 -50 -26 -67 -74 -68
-20 0 -29 -3 -21 -6 50 -16 60 -27 60 -64 0 -21 -5 -41 -11 -45 -7 -4 -75 -10
-153 -14 -100 -6 -169 -15 -236 -33 -95 -26 -183 -56 -166 -57 6 0 5 -5 -2
-12 -18 -18 -15 -27 14 -38 14 -6 23 -14 20 -18 -3 -5 3 -14 13 -21 10 -8 16
-21 14 -31 -3 -10 2 -20 11 -23 11 -4 13 -1 10 11 -5 15 -4 15 6 -1 6 -10 23
-31 38 -47 27 -29 112 -128 197 -229 25 -30 45 -58 45 -62 0 -4 -9 -9 -20 -11
-20 -3 -19 -5 9 -38 34 -40 51 -36 24 7 -17 28 -17 28 2 14 27 -20 114 -114
115 -123 0 -5 1297 -8 2883 -7 1996 0 2874 4 2857 11 -14 5 -33 14 -42 19 -10
5 -35 9 -57 9 -21 0 -52 7 -67 15 -16 8 -43 15 -61 15 -17 0 -35 5 -38 10 -3
6 -19 10 -35 10 -16 0 -32 5 -35 10 -3 6 -18 10 -32 10 -15 0 -40 4 -57 9 -73
22 -129 35 -246 57 -19 4 -39 10 -45 14 -5 5 -28 9 -50 11 -22 1 -49 7 -60 13
-30 15 -106 35 -138 36 -16 0 -86 14 -155 30 -70 17 -149 36 -177 42 -27 6
-99 24 -160 40 -60 17 -126 33 -145 38 -19 4 -52 15 -72 24 -21 9 -46 16 -57
16 -20 0 -267 69 -336 95 -39 14 -39 14 -10 15 17 0 92 -9 167 -20 75 -11 144
-17 151 -14 8 3 18 1 22 -5 3 -6 25 -11 49 -11 24 0 56 -4 72 -9 16 -5 56 -12
89 -15 33 -3 73 -10 88 -15 16 -6 42 -11 58 -11 17 0 38 -4 47 -9 16 -9 69
-15 215 -27 33 -2 68 -9 78 -15 11 -5 23 -8 27 -5 5 3 28 0 53 -6 24 -6 64
-12 89 -14 25 -1 46 -4 48 -5 3 -2 41 -5 117 -9 33 -2 68 -7 78 -12 10 -5 57
-11 105 -14 48 -2 107 -7 132 -10 25 -3 97 -10 160 -15 158 -12 371 -39 392
-50 10 -5 62 -12 115 -16 54 -3 103 -10 110 -15 6 -5 35 -9 65 -8 29 1 71 -3
93 -9 22 -5 73 -12 113 -16 l72 -7 0 32 c0 20 -7 38 -17 46 -17 13 -17 13 0
14 15 0 17 14 17 159 l0 159 -37 13 c-22 7 -61 9 -100 6 -47 -5 -63 -3 -63 6
0 20 22 37 50 38 35 1 -65 29 -106 29 -20 0 -34 6 -38 16 -19 51 15 87 57 59
15 -10 35 -13 55 -9 27 5 32 2 47 -26 16 -31 17 -31 36 -14 17 16 22 16 30 4
7 -11 11 -12 17 -3 4 6 16 11 27 10 18 -2 20 5 23 71 3 64 1 72 -15 72 -10 0
-118 2 -240 5 -122 2 -229 2 -238 -1 -8 -3 -15 -17 -15 -30 0 -31 76 -84 122
-84 21 0 40 -7 51 -20 33 -39 23 -43 -93 -38 -104 5 -154 -4 -93 -18 15 -3 35
-8 43 -12 8 -3 26 -7 40 -8 102 -11 130 -17 130 -27 0 -13 -80 -15 -118 -3
-11 4 -58 9 -104 11 -46 2 -92 7 -101 11 -10 3 -28 2 -40 -3 -15 -7 -32 -6
-56 4 -18 8 -61 14 -95 13 -33 0 -83 2 -111 5 -98 10 -150 12 -171 4 -13 -4
-26 -3 -33 4 -11 11 -65 15 -224 16 -38 1 -74 4 -80 8 -7 4 -48 8 -92 9 -146
1 -176 4 -170 14 7 12 73 12 133 1 26 -5 45 -5 48 1 4 6 19 8 34 5 35 -8 70 2
70 18 0 15 99 31 125 21 8 -3 27 -1 42 5 17 6 30 6 36 0 6 -6 24 -1 49 15 43
28 58 25 58 -12 0 -19 5 -24 27 -24 25 0 25 -1 9 -19 -16 -18 -15 -19 21 -26
21 -5 90 -9 153 -10 63 -1 141 -8 172 -14 56 -12 98 -8 98 9 0 4 -20 12 -46
16 -62 12 -51 30 16 27 40 -2 49 0 35 6 -11 5 -37 10 -57 10 -20 1 -39 5 -42
10 -3 5 -26 6 -51 3 -44 -4 -45 -4 -43 22 3 30 12 32 51 11 33 -17 55 -11 63
19 6 24 56 48 81 39 8 -3 19 0 23 7 7 11 14 11 34 2 23 -10 29 -9 47 9 20 20
28 21 270 17 l249 -5 0 34 c0 33 0 33 -49 33 -30 0 -51 5 -54 13 -4 10 -6 10
-6 0 -1 -14 -31 -18 -31 -5 0 4 -127 6 -282 4 -164 -2 -293 0 -308 6 -29 11
75 20 305 26 77 2 141 4 143 5 7 3 -4 127 -12 133 -6 4 -5 12 2 21 9 11 10 42
2 132 -6 65 -12 120 -14 124 -2 3 -7 52 -10 107 -4 56 -13 136 -21 179 -20
103 -19 138 3 152 17 10 19 7 20 -46 1 -31 6 -99 12 -151 27 -237 31 -277 36
-310 3 -19 6 -51 5 -70 0 -19 4 -45 10 -57 9 -16 8 -28 -4 -51 -13 -27 -13
-32 2 -47 15 -15 14 -17 -4 -31 -19 -15 -19 -15 9 -12 26 3 30 -1 40 -37 l12
-40 84 0 c47 0 91 1 98 3 8 3 12 33 12 104 l0 99 -29 12 c-32 14 -29 32 4 32
20 0 20 8 23 707 2 691 2 707 -17 713 -20 6 -97 0 -123 -10 -8 -3 -21 1 -28
10 -14 17 -32 19 -58 6 -80 -39 -92 -43 -121 -36 -38 8 -46 19 -25 36 13 10
16 9 20 -8 4 -14 12 -19 25 -16 10 3 19 10 19 17 0 6 9 17 20 24 12 7 20 8 20
2 0 -5 5 -10 10 -10 6 0 10 6 10 14 0 26 40 30 65 6 24 -23 45 -20 45 6 0 8 6
14 14 14 7 0 25 9 39 20 14 11 29 20 34 19 4 -1 18 2 31 6 20 7 22 14 22 76
l0 69 -27 -17 c-16 -10 -33 -24 -39 -32 -8 -11 -35 -15 -100 -15 -77 -1 -93 2
-120 21 -17 12 -34 20 -37 16 -7 -6 -74 -21 -131 -29 -55 -7 -76 -21 -76 -48
0 -24 -26 -54 -37 -43 -3 4 2 9 11 13 23 9 20 19 -9 32 -33 15 -87 6 -155 -28
-23 -11 -25 -40 -3 -40 11 0 39 -10 64 -22 l44 -22 -27 -10 c-14 -5 -29 -18
-32 -28 -4 -16 -13 -19 -53 -18 -26 2 -61 -3 -78 -10 -18 -7 -49 -9 -77 -6
-28 4 -49 2 -53 -4 -4 -6 5 -10 20 -10 15 0 24 -4 20 -10 -3 -5 -21 -9 -38 -7
-28 2 -32 -1 -35 -25 -4 -33 -17 -37 -25 -8 -7 26 -35 36 -60 21 -15 -10 -21
-10 -27 -1 -5 8 -19 10 -39 5 -31 -7 -53 -25 -30 -25 6 0 0 -9 -14 -20 -14
-11 -34 -20 -45 -20 -32 0 -37 -21 -11 -41 l24 -19 -35 0 c-49 0 -80 -10 -80
-25 0 -8 -22 -15 -60 -19 -33 -4 -60 -11 -60 -16 0 -14 -28 -12 -32 2 -6 17
-30 -1 -26 -20 4 -18 -24 -34 -107 -62 -48 -17 -50 -19 -50 -54 0 -22 4 -35
11 -32 8 3 8 -2 0 -20 -6 -13 -19 -24 -28 -24 -11 0 -18 -8 -18 -20 0 -11 6
-20 14 -20 24 0 29 -20 10 -35 -18 -13 -18 -14 -2 -20 9 -4 21 -4 26 -1 11 7
38 -22 29 -31 -4 -3 -31 -5 -62 -5 -48 0 -55 -2 -55 -19 0 -10 4 -19 8 -19 18
0 7 -33 -20 -61 -28 -28 -29 -29 -8 -29 19 0 21 -4 17 -26 -4 -25 -4 -25 44
-19 41 6 49 4 49 -9 0 -9 -4 -16 -10 -16 -5 0 -10 5 -10 10 0 17 -17 11 -47
-17 -16 -16 -28 -37 -28 -48 0 -26 37 -32 59 -10 17 18 36 12 36 -11 0 -18 15
-18 34 2 19 19 45 15 60 -9 15 -23 -9 -39 -46 -31 -20 4 -28 2 -28 -9 0 -18
75 -87 95 -87 8 0 15 -7 15 -15 0 -20 49 -20 57 1 3 9 -7 33 -25 57 l-30 42
28 32 c16 18 46 37 69 43 22 6 46 16 53 23 21 20 67 41 74 34 4 -4 -1 -10 -11
-13 -15 -6 -15 -8 6 -19 22 -13 22 -13 -20 -33 -23 -12 -48 -19 -55 -16 -8 3
-16 -2 -19 -10 -4 -9 -12 -16 -19 -16 -7 0 -21 -12 -32 -26 -18 -25 -18 -26 3
-45 11 -10 30 -19 43 -19 19 0 20 2 8 10 -13 8 -13 10 2 10 9 0 19 -4 22 -9 6
-9 -18 -34 -26 -26 -2 2 -21 -13 -42 -35 -21 -22 -44 -40 -52 -40 -8 0 -14 -7
-14 -16 0 -11 6 -15 20 -11 16 4 20 0 20 -17 0 -12 5 -27 10 -32 6 -6 12 -26
14 -45 1 -19 10 -48 19 -66 23 -44 22 -69 -5 -76 -15 -4 -28 0 -41 13 -10 11
-27 20 -37 20 -17 0 -13 -7 20 -41 47 -48 49 -59 15 -59 -20 0 -25 5 -25 24 0
29 -19 44 -30 26 -5 -8 -19 -14 -32 -15 -12 -1 -31 -5 -40 -10 -14 -5 -18 -2
-18 14 0 14 -6 21 -19 21 -29 0 -35 -18 -15 -41 15 -16 16 -24 6 -39 -7 -12
-8 -21 -2 -25 6 -3 10 -13 10 -21 0 -18 -44 -18 -60 0 -6 8 -18 12 -27 9 -11
-4 -14 -1 -11 13 4 19 10 21 40 9 26 -10 27 25 1 67 -13 21 -23 51 -23 67 0
16 -5 33 -10 36 -6 4 -8 25 -5 51 3 29 1 44 -6 44 -8 0 -10 12 -6 35 4 26 2
35 -8 35 -7 0 -16 -10 -18 -22 -4 -23 -4 -23 -6 1 -1 16 -5 21 -16 17 -10 -3
-15 1 -15 11 0 24 -17 4 -26 -30 -5 -23 -3 -29 15 -34 11 -3 21 -12 21 -19 0
-8 9 -14 19 -14 32 0 33 -28 1 -45 -16 -8 -32 -20 -35 -25 -7 -11 32 -49 51
-50 15 0 24 -60 12 -83 -7 -14 -16 -16 -46 -11 -45 8 -51 12 -32 24 26 16 3
22 -87 24 -48 0 -93 5 -100 9 -6 4 -17 5 -25 3 -7 -3 -40 -7 -72 -10 -92 -9
-127 -17 -133 -32 -3 -8 -20 -14 -40 -14 -26 0 -36 5 -40 20 -3 11 -14 20 -24
20 -11 0 -21 0 -24 0 -14 0 -8 -14 10 -24 51 -28 45 -46 -14 -46 -48 0 -50 1
-45 26 4 20 0 27 -17 31 -12 4 -29 22 -39 45 -10 23 -21 35 -24 29 -4 -6 -18
-11 -31 -11 -18 0 -23 4 -18 16 6 15 4 15 -18 1 -13 -8 -40 -18 -61 -21 l-36
-7 1 41 c2 41 9 45 75 43 7 -1 10 6 8 16 -4 10 4 22 22 32 28 16 29 15 39 -10
6 -14 14 -36 18 -48 3 -13 11 -23 16 -23 12 0 12 17 -1 40 -7 13 -6 21 5 30 8
7 15 19 15 26 0 10 7 13 25 8 38 -9 33 25 -10 70 -19 21 -35 42 -35 47 0 5 -7
9 -15 9 -8 0 -15 5 -15 10 0 6 -4 10 -9 10 -6 0 -7 -16 -4 -35 3 -21 1 -35 -5
-35 -5 0 -13 -16 -16 -35 -5 -26 -12 -35 -26 -35 -21 0 -27 15 -9 25 16 10 5
30 -17 30 -27 0 -31 35 -4 42 21 6 20 7 -11 35 -18 17 -38 27 -47 23 -12 -4
-14 1 -9 30 5 28 2 35 -11 37 -9 0 -24 2 -32 2 -8 1 -14 7 -13 14 3 13 -41 27
-56 18 -6 -4 -8 -13 -5 -20 3 -9 -3 -17 -16 -21 -22 -7 -60 23 -73 56 -4 11
-23 19 -56 24 -52 7 -65 19 -32 30 19 6 39 1 78 -17 17 -8 26 -8 38 2 14 12
14 14 -2 25 -10 7 -37 16 -60 20 -44 7 -53 21 -31 43 10 10 10 14 1 20 -9 6
-7 13 8 25 26 23 15 39 -25 36 -17 -2 -37 0 -44 5 -17 10 -32 -1 -25 -19 3 -8
1 -15 -5 -15 -5 0 -12 9 -15 20 -5 21 -31 27 -42 10 -7 -12 -72 -14 -77 -2 -6
16 -112 52 -150 52 -22 0 -49 5 -61 11 -11 7 -50 13 -86 14 -37 0 -76 7 -88
13 -33 18 -139 16 -147 -3 -3 -9 -18 -15 -40 -15 -20 0 -44 -8 -57 -20 l-24
-21 53 3 c58 3 70 -8 19 -17 -39 -8 -69 -3 -122 19 -57 24 -148 13 -176 -22
-34 -44 -53 -52 -89 -42 -45 13 -83 3 -77 -21 5 -18 -11 -29 -44 -29 -10 0
-19 -7 -19 -15 0 -8 4 -15 10 -15 5 0 7 -7 4 -15 -4 -9 -19 -15 -40 -15 -27 0
-34 -4 -34 -20 0 -11 -6 -20 -13 -20 -18 0 -53 -39 -62 -69 -6 -21 -9 -22 -17
-8 -5 10 -21 17 -35 17 -21 0 -24 -4 -20 -21 6 -22 -1 -22 -45 -4 -13 5 -18 2
-18 -9 0 -19 -11 -21 -29 -4 -11 11 -12 8 -6 -17 10 -43 24 -58 41 -44 17 14
17 11 3 -30 -12 -34 -39 -42 -39 -11 0 10 -10 25 -22 31 -51 26 -78 61 -80
103 -1 37 -2 38 -5 9 -4 -32 -5 -32 -28 -17 -27 18 -41 60 -25 80 9 10 8 19
-4 36 -20 29 -20 52 0 73 15 14 19 15 31 2 8 -8 17 -33 20 -55 l6 -41 22 32
c16 24 20 39 14 60 -6 20 -4 30 6 33 10 4 11 13 3 37 -5 18 -11 44 -13 58 -4
24 -1 27 35 33 41 6 48 14 29 33 -8 8 -5 14 10 22 12 7 21 18 21 26 0 16 -35
29 -51 19 -8 -5 -8 -1 0 14 8 15 8 23 0 27 -6 5 -4 11 7 19 13 10 14 15 5 21
-7 4 -18 2 -24 -4 -15 -15 -27 -14 -27 4 0 8 5 15 11 15 5 0 7 5 3 11 -3 6
-17 8 -32 4 -16 -4 -28 -1 -33 7 -6 9 -12 9 -26 -4 -19 -16 -42 -13 -55 6 -4
6 -8 -1 -8 -16 0 -15 -4 -30 -10 -33 -5 -3 -10 -22 -10 -42 0 -30 -2 -34 -15
-23 -12 10 -19 7 -38 -14 -33 -35 -44 -33 -51 12 -3 20 -8 375 -11 787 -3 413
-8 775 -11 807 -4 40 -2 59 8 65 20 12 68 80 68 95 0 8 5 19 11 25 12 12 8
132 -5 136 -6 1 -14 -14 -19 -33 -18 -74 -61 -75 -72 -1 -10 59 -27 125 -36
136 -5 5 -9 41 -9 80 -1 38 -6 90 -12 115 -6 25 -12 80 -13 122 -3 72 -2 79
26 114 29 37 30 54 2 54 -10 0 -14 6 -10 19 3 12 -3 27 -14 37 -10 9 -16 21
-13 26 3 5 1 14 -4 21 -5 7 -13 30 -16 51 -5 26 -10 35 -16 27 -10 -17 -16 -6
-25 47 -8 50 -25 44 -30 -10 -2 -28 -6 -33 -26 -30 -13 1 -27 6 -31 10 -18 18
-26 314 -9 320 17 6 13 43 -6 58 -10 7 -18 16 -18 21 -3 43 -98 193 -124 193
-40 0 -56 25 -56 91 0 62 -10 80 -32 58z m-23 -334 c7 -8 8 -15 2 -15 -5 0
-15 7 -22 15 -7 8 -8 15 -2 15 5 0 15 -7 22 -15z m-50 -4 c0 -5 -7 -14 -15
-21 -16 -14 -18 -10 -9 14 6 17 24 22 24 7z m-94 -220 c-1 -44 -4 -77 -8 -74
-11 6 -10 153 0 153 5 0 8 -36 8 -79z m184 -20 c0 -30 -11 -51 -26 -51 -11 0
-13 7 -8 28 9 34 13 42 25 42 5 0 9 -9 9 -19z m-55 -1 c3 -6 -4 -10 -17 -10
-18 0 -20 2 -8 10 19 12 18 12 25 0z m-79 -157 c-10 -10 -19 5 -10 18 6 11 8
11 12 0 2 -7 1 -15 -2 -18z m414 -74 c0 -10 -36 -7 -46 4 -4 3 -4 14 0 23 6
15 8 15 26 -1 11 -10 20 -22 20 -26z m-203 15 c-3 -3 -12 -4 -19 -1 -8 3 -5 6
6 6 11 1 17 -2 13 -5z m-4267 -48 c0 -11 -19 -15 -25 -6 -3 5 1 10 9 10 9 0
16 -2 16 -4z m33 -33 c-7 -2 -19 -2 -25 0 -7 3 -2 5 12 5 14 0 19 -2 13 -5z
m4211 -25 c-3 -4 -23 -8 -44 -8 -21 0 -41 4 -44 8 -3 5 17 8 44 8 27 0 47 -3
44 -8z m-177 -4 c-3 -3 -12 -4 -19 -1 -8 3 -5 6 6 6 11 1 17 -2 13 -5z m219
-3 c-3 -4 18 -11 46 -14 28 -4 55 -12 59 -19 13 -20 -18 -22 -46 -4 -13 9 -46
16 -72 17 l-48 1 30 13 c36 17 38 17 31 6z m-4168 -23 c-6 -18 -28 -21 -28 -4
0 9 7 16 16 16 9 0 14 -5 12 -12z m3959 -10 c-3 -8 -6 -5 -6 6 -1 11 2 17 5
13 3 -3 4 -12 1 -19z m51 1 c3 -12 2 -12 -6 0 -8 11 -10 11 -15 0 -4 -10 -6
-8 -6 4 -1 21 21 18 27 -4z m25 -29 c-30 -32 -38 -38 -27 -17 13 22 37 47 46
47 6 0 -3 -13 -19 -30z m338 20 c17 0 18 -8 16 -99 -1 -55 -7 -104 -11 -108
-5 -4 -6 0 -3 9 3 10 2 20 -3 23 -6 4 -10 19 -10 35 0 16 -8 35 -17 42 -10 7
-29 26 -43 42 -25 28 -25 28 -2 22 16 -6 22 -3 22 8 0 9 -5 15 -11 14 -6 -2
-14 3 -17 11 -4 11 2 13 28 8 18 -4 41 -7 51 -7z m-4347 -26 c22 -8 20 -34 -1
-34 -10 0 -28 -3 -40 -6 -16 -5 -23 -2 -23 8 0 12 17 25 47 37 1 1 8 -2 17 -5z
m4134 -16 c-5 -15 -23 -11 -26 6 -2 11 2 14 13 10 9 -4 14 -11 13 -16z m79
-21 c-7 -21 -32 -13 -35 11 -3 21 -1 22 18 12 12 -6 19 -17 17 -23z m-142 -7
c-5 -8 -11 -8 -17 -2 -6 6 -7 16 -3 22 5 8 11 8 17 2 6 -6 7 -16 3 -22z
m-3997 -5 c4 -9 24 -24 43 -34 18 -10 34 -25 34 -32 0 -10 10 -13 32 -11 28 3
31 1 26 -18 -7 -27 -46 -53 -70 -47 -15 3 -14 6 7 15 18 8 20 11 8 11 -10 1
-18 7 -19 14 0 10 -2 10 -6 0 -2 -7 -18 -13 -34 -13 -16 0 -29 -5 -29 -11 0
-6 -7 -17 -15 -25 -8 -9 -15 -24 -15 -34 0 -25 -40 -34 -56 -12 -19 25 -17 42
5 42 27 0 35 17 14 29 -10 5 -14 13 -10 17 4 5 17 3 27 -4 11 -7 25 -12 32
-12 8 0 5 5 -4 11 -10 5 -18 21 -18 35 0 14 -4 34 -10 44 -5 10 -7 26 -4 34 8
20 50 21 62 1z m4186 -37 c-6 -10 -44 9 -44 22 0 4 6 10 13 13 14 5 39 -22 31
-35z m-4041 15 c11 -6 -12 -33 -28 -33 -16 0 -47 35 -39 43 7 6 50 0 67 -10z
m3979 -12 c4 -12 12 -19 18 -16 5 3 10 2 10 -3 0 -12 -98 -20 -113 -9 -9 5 -6
12 7 22 11 8 14 15 8 15 -7 0 -12 4 -12 10 0 5 17 8 37 6 27 -3 39 -9 45 -25z
m-154 1 c2 -7 -3 -12 -12 -12 -9 0 -16 7 -16 16 0 17 22 14 28 -4z m52 -2 c0
-5 -4 -10 -10 -10 -5 0 -10 5 -10 10 0 6 5 10 10 10 6 0 10 -4 10 -10z m-317
-40 c3 -10 2 -20 -2 -22 -11 -5 -41 -65 -41 -82 0 -17 -15 -22 -24 -7 -3 5 1
14 9 21 8 7 15 21 15 31 0 11 5 19 10 19 6 0 10 14 10 30 0 34 15 40 23 10z
m32 -10 c-4 -12 -2 -20 5 -20 6 0 8 -4 5 -10 -3 -5 -1 -10 5 -10 8 0 10 -13 5
-41 -6 -35 -4 -41 14 -46 21 -5 23 -25 6 -53 -12 -20 -7 -53 11 -63 22 -13 18
-40 -6 -34 -11 3 -22 1 -25 -4 -9 -13 -44 27 -51 58 -11 55 -14 59 -24 43 -5
-9 -5 -20 2 -28 18 -21 -11 -35 -30 -15 -14 13 -12 21 11 66 19 38 27 46 27
30 0 -13 5 -23 10 -23 13 0 13 37 -1 45 -7 5 -3 14 11 27 16 15 20 27 15 49
-4 16 -4 33 0 39 11 17 17 11 10 -10z m-3862 -24 c35 -25 34 -33 -3 -41 -35
-8 -51 0 -43 20 3 8 1 15 -4 15 -4 0 -14 9 -21 20 -12 19 -11 20 15 14 16 -4
40 -16 56 -28z m4347 14 c0 -5 -2 -10 -4 -10 -3 0 -8 5 -11 10 -3 6 -1 10 4
10 6 0 11 -4 11 -10z m-366 -85 c-2 -11 0 -33 4 -50 9 -29 9 -29 17 18 5 32
12 47 22 47 9 0 13 -6 9 -15 -5 -15 28 -45 51 -45 7 0 35 -14 64 -31 44 -25
62 -30 117 -30 76 0 90 11 118 94 9 27 18 46 20 44 3 -2 7 -48 10 -101 5 -91
4 -97 -13 -92 -36 10 -173 36 -193 36 -38 0 -20 -18 30 -31 28 -7 50 -16 50
-19 0 -4 19 -6 43 -6 40 1 42 0 39 -27 -2 -22 2 -30 17 -34 12 -3 18 -9 15
-14 -10 -16 -47 -9 -72 14 -17 15 -26 18 -29 10 -6 -18 -32 -16 -39 2 -4 8
-14 15 -23 15 -9 0 -22 5 -29 12 -9 9 -18 9 -37 0 -36 -17 -55 -15 -56 6 0 11
-2 13 -6 4 -3 -9 -10 -4 -19 14 -17 33 -11 62 9 46 7 -6 23 -9 35 -5 16 4 28
-1 38 -13 14 -18 15 -18 8 6 -8 32 -2 28 -64 40 -78 15 -90 13 -90 -11 0 -16
-5 -20 -20 -16 -13 3 -20 0 -20 -10 0 -8 9 -17 20 -20 11 -3 20 -9 20 -14 0
-5 5 -9 10 -9 6 0 10 6 10 14 0 8 5 18 10 21 12 7 13 -15 1 -33 -5 -9 -19 -11
-43 -7 -30 6 -36 11 -46 51 -7 27 -18 44 -27 44 -18 0 -20 31 -3 48 9 9 9 15
0 24 -7 7 -12 19 -12 28 0 12 2 12 9 2 7 -11 10 -10 15 3 3 9 6 27 6 39 0 13
3 26 7 30 10 10 23 -53 17 -79z m179 70 c10 -1 23 -7 29 -13 9 -9 4 -10 -20
-8 -36 5 -52 13 -52 27 0 6 6 7 12 3 7 -5 21 -9 31 -9z m131 -12 c4 -9 0 -23
-9 -32 -13 -14 -15 -14 -15 2 0 10 -4 16 -9 13 -11 -7 -41 3 -41 14 0 8 21 14
56 19 7 0 15 -7 18 -16z m-344 -17 c0 -3 -4 -8 -10 -11 -5 -3 -10 -1 -10 4 0
6 5 11 10 11 6 0 10 -2 10 -4z m398 -15 c3 -8 -1 -12 -9 -9 -7 2 -15 10 -17
17 -3 8 1 12 9 9 7 -2 15 -10 17 -17z m-218 -16 c0 -8 -4 -15 -10 -15 -5 0
-10 7 -10 15 0 8 5 15 10 15 6 0 10 -7 10 -15z m180 -42 c0 -13 -3 -13 -15 -3
-8 7 -12 16 -9 21 8 13 24 1 24 -18z m-123 -9 c-9 -9 -28 6 -21 18 4 6 10 6
17 -1 6 -6 8 -13 4 -17z m73 -5 c0 -5 -7 -9 -15 -9 -15 0 -20 12 -9 23 8 8 24
-1 24 -14z m-4330 -40 c7 -11 9 -23 6 -26 -8 -9 -47 28 -40 38 9 15 23 10 34
-12z m106 -4 c-3 -9 -10 -13 -16 -10 -6 4 -5 11 3 20 15 16 22 11 13 -10z
m340 15 c8 0 14 -7 14 -16 0 -12 -6 -15 -22 -10 -13 3 -31 6 -42 6 -15 0 -16
2 -6 15 7 9 20 13 27 10 8 -3 21 -5 29 -5z m3416 -152 c-7 -7 -12 -8 -12 -2 0
6 3 14 7 17 3 4 9 5 12 2 2 -3 -1 -11 -7 -17z m-3682 -48 c0 -11 5 -29 12 -39
16 -26 -5 -51 -43 -51 -16 0 -29 2 -29 4 0 2 -3 11 -6 20 -4 11 -1 16 10 16 9
0 16 7 16 15 0 8 -4 15 -10 15 -17 0 -11 28 8 33 34 9 42 7 42 -13z m30 1 c0
-5 3 -16 6 -25 3 -9 2 -16 -4 -16 -5 0 -12 11 -14 25 -3 14 -1 25 3 25 5 0 9
-4 9 -9z m4365 -81 c3 -5 1 -10 -4 -10 -6 0 -11 5 -11 10 0 6 2 10 4 10 3 0 8
-4 11 -10z m-4405 -41 c0 -5 -7 -9 -15 -9 -15 0 -20 12 -9 23 8 8 24 -1 24
-14z m-130 -58 c0 -40 -16 -56 -39 -42 -10 6 -8 12 4 25 9 9 15 23 12 30 -6
15 1 26 15 26 4 0 8 -18 8 -39z m4463 32 c-7 -2 -19 -2 -25 0 -7 3 -2 5 12 5
14 0 19 -2 13 -5z m-4360 -30 c-7 -2 -21 -2 -30 0 -10 3 -4 5 12 5 17 0 24 -2
18 -5z m367 -14 c0 -11 -27 -12 -34 0 -3 4 -3 11 0 14 8 8 34 -3 34 -14z m-15
-49 c3 -5 -1 -10 -9 -10 -9 0 -16 5 -16 10 0 6 4 10 9 10 6 0 13 -4 16 -10z
m64 -96 c3 -3 0 -9 -6 -15 -7 -7 -23 -6 -52 3 -23 8 -38 18 -34 22 7 7 83 -2
92 -10z m3711 -4 c0 -5 -7 -7 -15 -4 -8 4 -15 8 -15 10 0 2 7 4 15 4 8 0 15
-4 15 -10z m-3935 -49 c-3 -8 0 -18 7 -22 7 -4 9 -12 4 -16 -4 -4 -19 5 -33
22 -15 17 -21 31 -14 33 6 2 11 11 11 20 1 15 3 14 16 -3 8 -11 12 -26 9 -34z
m-185 29 c0 -5 -4 -10 -10 -10 -5 0 -10 5 -10 10 0 6 5 10 10 10 6 0 10 -4 10
-10z m325 -40 c3 -5 1 -10 -4 -10 -6 0 -11 5 -11 10 0 6 2 10 4 10 3 0 8 -4
11 -10z m3795 -29 c0 -12 -20 -25 -27 -18 -7 7 6 27 18 27 5 0 9 -4 9 -9z
m-4113 -73 c10 -15 13 -33 9 -44 -7 -18 -8 -18 -17 -1 -12 21 -29 22 -29 2 0
-8 -4 -15 -10 -15 -5 0 -10 11 -10 25 0 15 -6 25 -14 25 -8 0 -18 4 -21 10 -3
6 1 7 9 4 9 -3 23 1 32 10 20 21 31 18 51 -16z m-137 -34 c0 -8 -5 -12 -10 -9
-6 4 -8 11 -5 16 9 14 15 11 15 -7z m510 -45 c0 -11 -4 -17 -10 -14 -5 3 -10
13 -10 21 0 8 5 14 10 14 6 0 10 -9 10 -21z m-496 -8 c12 -19 -7 -40 -37 -44
-29 -4 -30 -5 -10 -11 32 -11 35 -32 8 -50 -23 -15 -23 -15 -30 35 -5 33 -3
54 5 64 14 17 56 20 64 6z m4306 -65 c24 -11 25 -15 28 -121 2 -93 1 -107 -11
-92 -9 13 -12 44 -10 98 2 73 0 79 -17 79 -15 0 -20 -7 -20 -24 0 -14 5 -28
10 -31 6 -4 7 -12 3 -18 -5 -7 -8 -25 -8 -42 0 -16 -4 -32 -9 -35 -6 -3 -9 29
-9 77 1 60 -2 83 -13 87 -21 8 -23 -3 -20 -98 1 -48 -1 -89 -5 -92 -10 -6 -16
204 -6 222 9 15 40 11 87 -10z m-3813 -32 c-3 -3 -12 -4 -19 -1 -8 3 -5 6 6 6
11 1 17 -2 13 -5z m-127 -25 c0 -5 -7 -9 -15 -9 -15 0 -20 12 -9 23 8 8 24 -1
24 -14z m3399 -20 c-19 -12 -24 -2 -8 17 9 11 14 13 17 4 3 -7 -2 -16 -9 -21z
m30 -114 c1 -90 0 -104 -14 -99 -8 3 -15 1 -15 -6 0 -6 -5 -8 -10 -5 -12 8 -3
171 11 197 20 37 27 15 28 -87z m-3699 51 c0 -3 -4 -8 -10 -11 -5 -3 -10 -1
-10 4 0 6 5 11 10 11 6 0 10 -2 10 -4z m110 -137 c0 -5 -4 -9 -8 -9 -5 0 -9 7
-9 15 0 8 4 12 9 9 4 -3 8 -9 8 -15z m4104 -159 l26 -10 -1 -122 c-1 -92 -3
-115 -10 -93 -5 17 -8 44 -7 60 2 33 -7 55 -24 55 -6 0 -9 -18 -6 -45 3 -42 0
-49 -19 -42 -4 1 -6 21 -4 45 2 33 -1 42 -13 42 -16 0 -21 -29 -17 -87 1 -11
-3 -24 -8 -28 -12 -7 -16 217 -4 228 9 10 58 8 87 -3z m-524 -44 c0 -3 -4 -8
-10 -11 -5 -3 -10 -1 -10 4 0 6 5 11 10 11 6 0 10 -2 10 -4z m-3700 -46 c0
-21 -25 -4 -28 20 -4 21 -2 22 12 7 9 -8 16 -21 16 -27z m3707 -82 c0 -67 -4
-98 -15 -110 -26 -31 -33 -9 -27 90 6 102 9 112 29 112 11 0 14 -22 13 -92z
m-3625 -17 c-5 -25 9 -51 29 -51 11 0 17 5 14 10 -12 20 41 9 59 -12 15 -18
16 -20 2 -15 -9 4 -16 1 -16 -4 0 -6 -9 -9 -20 -6 -13 3 -20 0 -20 -9 0 -8
-10 -14 -26 -14 -20 0 -25 4 -20 16 5 12 2 15 -11 10 -9 -4 -20 -1 -25 6 -4 8
-8 -5 -8 -32 0 -31 -3 -40 -9 -31 -5 8 -17 16 -26 17 -21 3 -43 22 -50 43 -2
9 -17 24 -32 33 -21 13 -24 18 -10 18 10 0 28 -6 40 -13 28 -17 39 -16 62 7
18 18 18 19 -1 33 -17 13 -15 14 26 11 31 -2 44 -7 42 -17z m-117 -1 c3 -5 1
-10 -4 -10 -6 0 -11 5 -11 10 0 6 2 10 4 10 3 0 8 -4 11 -10z m9105 -55 c-14
-16 -50 -21 -50 -6 0 11 18 19 44 20 15 1 16 -2 6 -14z m206 4 c11 -18 -13
-26 -78 -27 -50 -1 -58 1 -48 13 18 22 114 33 126 14z m-183 -56 c-7 -17 -24
-17 -48 1 -18 13 -17 14 17 13 25 -1 34 -5 31 -14z m-108 -3 c-3 -5 -13 -10
-21 -10 -8 0 -12 5 -9 10 3 6 13 10 21 10 8 0 12 -4 9 -10z m-29 -56 c-26 -18
-86 -19 -86 0 0 17 22 26 48 19 11 -2 23 1 27 7 5 9 10 9 19 0 8 -8 6 -15 -8
-26z m64 -34 c0 -13 -7 -20 -20 -20 -11 0 -20 -4 -20 -10 0 -5 -7 -10 -15 -10
-9 0 -15 9 -15 21 0 17 4 20 24 15 16 -4 26 -1 30 9 8 21 16 19 16 -5z m-8955
-30 c20 17 32 5 15 -15 -18 -21 -47 -19 -53 6 -4 16 -3 18 9 8 11 -9 17 -9 29
1z m3065 -40 c0 -5 -4 -10 -10 -10 -5 0 -10 5 -10 10 0 6 5 10 10 10 6 0 10
-4 10 -10z m-3030 -15 c0 -8 -2 -15 -4 -15 -2 0 -6 7 -10 15 -3 8 -1 15 4 15
6 0 10 -7 10 -15z m4117 -5 c36 -13 62 -57 38 -66 -15 -6 -125 2 -132 10 -8 7
21 45 42 55 11 5 20 10 21 10 1 1 15 -4 31 -9z m-4053 -35 c19 -28 20 -35 6
-35 -15 0 -50 33 -50 47 0 22 27 14 44 -12z m3536 -54 c0 -26 -16 -51 -32 -51
-12 0 -9 65 4 78 16 16 28 5 28 -27z m4730 30 c0 -16 -51 -44 -62 -33 -7 7 -1
15 18 26 34 18 44 19 44 7z m-4206 -37 l46 -7 0 -103 c0 -63 -4 -104 -10 -104
-5 0 -10 17 -10 38 0 21 -6 44 -12 51 -10 11 -10 14 0 18 6 3 12 18 12 34 0
24 -4 29 -25 29 -27 0 -31 -10 -15 -41 9 -16 7 -19 -12 -19 -19 0 -23 5 -23
33 0 25 -4 32 -20 32 -16 0 -21 -8 -23 -37 -2 -24 1 -38 9 -38 8 0 8 -4 1 -13
-6 -7 -12 -30 -15 -52 -2 -22 -4 11 -5 73 l-2 112 29 0 c15 0 49 -3 75 -6z
m4406 -45 c0 -6 -4 -7 -10 -4 -5 3 -10 11 -10 16 0 6 5 7 10 4 6 -3 10 -11 10
-16z m-4920 -22 c0 -7 -6 -22 -14 -33 -12 -17 -12 -22 0 -38 12 -17 11 -21 -4
-32 -9 -7 -20 -14 -24 -14 -10 0 -7 91 4 113 10 20 38 23 38 4z m4977 -3 c-3
-3 -12 -4 -19 -1 -8 3 -5 6 6 6 11 1 17 -2 13 -5z m-477 -68 c-8 -8 -15 -6
-25 8 -20 26 -7 41 16 20 14 -13 16 -21 9 -28z m288 23 c-2 -6 -8 -10 -13 -10
-5 0 -11 4 -13 10 -2 6 4 11 13 11 9 0 15 -5 13 -11z m-8298 -9 c0 -5 -4 -10
-10 -10 -5 0 -10 5 -10 10 0 6 5 10 10 10 6 0 10 -4 10 -10z m83 -36 c-3 -8
-9 -14 -14 -14 -5 0 -12 0 -16 0 -9 0 -13 41 -6 53 8 13 42 -24 36 -39z m-149
21 c-4 -8 -10 -12 -15 -9 -14 8 -10 24 6 24 9 0 12 -6 9 -15z m8051 -25 c-10
-16 -58 -21 -66 -8 -6 9 -1 15 14 19 26 6 59 0 52 -11z m1105 10 c0 -5 -7 -10
-15 -10 -8 0 -15 5 -15 10 0 6 7 10 15 10 8 0 15 -4 15 -10z m-8862 -22 c16
-16 15 -28 -2 -28 -17 0 -38 24 -29 33 9 10 17 9 31 -5z m8815 -19 c5 -3 2 -9
-7 -12 -12 -5 -16 0 -16 15 0 12 3 17 8 12 4 -5 11 -12 15 -15z m-8875 -30
c-14 -9 23 -29 52 -29 12 0 19 4 15 9 -3 6 3 15 14 20 26 14 31 14 31 -4 0 -7
8 -18 17 -24 14 -8 15 -12 4 -25 -16 -19 -41 -21 -41 -4 0 6 -3 8 -7 4 -10
-10 -13 -36 -3 -36 4 0 11 -8 14 -17 5 -11 -3 -25 -25 -44 -32 -27 -33 -27
-63 -12 l-31 17 24 6 c14 3 26 11 28 17 4 11 -34 29 -51 24 -5 -1 3 14 18 33
24 32 25 36 8 36 -10 0 -24 11 -30 25 -16 34 -16 35 12 22 14 -7 20 -15 14
-18z m-58 1 c0 -5 -4 -10 -10 -10 -5 0 -10 5 -10 10 0 6 5 10 10 10 6 0 10 -4
10 -10z m8577 4 c-3 -3 -12 -4 -19 -1 -8 3 -5 6 6 6 11 1 17 -2 13 -5z m-4730
-36 c-3 -8 -6 -5 -6 6 -1 11 2 17 5 13 3 -3 4 -12 1 -19z m563 13 c0 -5 3 -16
6 -25 4 -11 1 -16 -10 -16 -9 0 -16 4 -16 9 0 5 -3 16 -6 25 -4 11 -1 16 10
16 9 0 16 -4 16 -9z m4164 -17 c8 -22 -23 -29 -42 -10 -14 14 -15 18 -3 25 18
11 38 4 45 -15z m354 -12 c2 -19 -1 -32 -8 -32 -6 0 -8 -4 -5 -10 3 -5 2 -10
-4 -10 -6 0 -10 20 -9 45 1 52 21 57 26 7z m-481 22 c-3 -3 -12 -4 -19 -1 -8
3 -5 6 6 6 11 1 17 -2 13 -5z m-3972 -35 c-5 -14 0 -20 18 -25 14 -3 27 -14
30 -24 6 -22 0 -30 -24 -30 -9 0 -20 -6 -22 -12 -3 -7 -6 -1 -6 13 -1 14 -4
29 -8 32 -8 9 -13 58 -7 69 10 15 25 -3 19 -23z m3930 11 c-3 -5 -18 -10 -33
-10 -21 0 -24 2 -12 10 20 13 53 13 45 0z m305 -10 c0 -5 -5 -10 -11 -10 -5 0
-7 5 -4 10 3 6 8 10 11 10 2 0 4 -4 4 -10z m-8980 -15 c0 -8 -4 -15 -10 -15
-5 0 -7 7 -4 15 4 8 8 15 10 15 2 0 4 -7 4 -15z m90 -4 c0 -5 -7 -11 -15 -15
-15 -5 -20 5 -8 17 9 10 23 9 23 -2z m550 -39 l0 -27 -24 25 c-27 28 -25 41 4
33 14 -4 20 -14 20 -31z m74 -2 c8 0 19 -14 25 -31 10 -28 9 -31 -19 -40 -36
-13 -41 -26 -47 -118 -4 -64 -3 -73 11 -68 17 7 76 -11 76 -23 0 -12 -28 -20
-47 -13 -10 3 -15 3 -11 -2 10 -10 -10 -35 -27 -35 -10 0 -13 36 -11 168 3
169 11 228 27 184 5 -12 15 -22 23 -22z m3029 25 c8 -8 18 -11 21 -7 4 3 9 -4
13 -16 6 -25 23 -30 23 -7 0 22 36 18 59 -6 20 -22 41 -19 41 7 0 10 12 14 41
14 40 0 129 -18 129 -27 0 -17 -24 -43 -40 -43 -24 0 -33 -28 -34 -110 -1 -55
-5 -69 -27 -92 -15 -16 -31 -28 -38 -28 -6 0 -11 -9 -11 -19 0 -13 -8 -19 -22
-20 -13 -1 -53 -4 -90 -7 -62 -5 -67 -4 -73 16 -4 12 -4 68 0 123 6 76 12 105
24 114 14 10 14 12 -4 18 -34 11 -49 21 -52 36 -3 8 1 6 8 -5 9 -15 13 -16 20
-5 13 21 11 51 -3 46 -7 -2 -22 0 -33 6 -19 10 -19 10 0 18 29 11 32 11 48 -6z
m-3143 -35 c10 -18 8 -20 -20 -20 -23 0 -30 4 -30 20 0 13 7 20 20 20 10 0 24
-9 30 -20z m3782 -10 c25 0 28 -3 29 -37 1 -21 3 -30 6 -20 3 13 15 17 49 17
29 0 43 4 42 12 -4 17 43 23 53 6 7 -11 9 -11 9 0 0 8 9 12 23 10 19 -3 23
-11 28 -58 6 -58 12 -58 9 0 -1 42 20 76 44 67 13 -5 15 -16 10 -64 -8 -81 -7
-80 -59 -81 -62 0 -72 -13 -35 -40 33 -25 37 -47 15 -79 -8 -12 -12 -28 -9
-37 4 -11 -2 -19 -21 -26 -32 -12 -75 -3 -75 16 0 8 -7 14 -15 14 -8 0 -15 -7
-15 -15 0 -24 -25 -17 -40 10 -8 14 -24 28 -38 32 -29 7 -42 39 -42 104 0 29
-7 60 -16 75 -16 23 -15 25 4 42 20 18 20 18 -3 29 -19 9 -25 8 -30 -6 -6 -15
-7 -15 -18 0 -7 9 -19 18 -27 22 -8 3 2 6 22 6 20 1 40 6 44 12 4 8 9 8 17 0
6 -6 24 -11 39 -11z m3902 14 c13 -5 14 -9 5 -21 -10 -11 -8 -15 10 -20 21 -5
21 -7 5 -24 -9 -11 -28 -19 -42 -19 -21 0 -24 4 -20 25 4 17 1 25 -8 25 -8 0
-14 5 -14 10 0 9 13 17 47 29 1 1 9 -2 17 -5z m-4074 -19 c0 -9 7 -18 16 -22
11 -4 12 -8 4 -13 -9 -6 -9 -13 0 -30 16 -30 5 -37 -21 -14 l-22 19 7 -29 c6
-24 4 -27 -9 -22 -11 4 -15 2 -12 -6 2 -7 13 -12 25 -10 26 4 36 -12 17 -28
-45 -37 -102 60 -63 108 7 8 7 12 -1 12 -6 0 -11 4 -11 10 0 5 6 7 14 4 9 -3
20 3 28 15 15 25 28 27 28 6z m3660 5 c0 -5 -9 -14 -20 -20 -22 -12 -27 -1 -8
18 14 14 28 16 28 2z m305 -22 c29 -47 26 -53 -27 -53 -31 0 -53 -7 -67 -19
-12 -11 -27 -15 -40 -11 -12 4 -21 2 -21 -4 0 -6 -9 -11 -19 -11 -11 0 -23 -5
-27 -11 -3 -6 -17 -8 -31 -4 -20 5 -24 3 -20 -8 6 -16 -11 -37 -30 -37 -7 0
-13 8 -13 19 0 24 103 92 122 80 10 -6 14 0 18 24 5 29 8 32 47 35 23 2 47 10
53 18 19 22 34 17 55 -18z m335 22 c0 -5 -12 -10 -27 -9 -25 0 -26 1 -8 9 27
12 35 12 35 0z m-8565 -15 c-21 -17 -37 -15 -43 3 -2 8 8 12 30 12 31 -1 32
-1 13 -15z m7998 1 c8 -19 -3 -28 -19 -15 -8 7 -14 7 -19 -1 -3 -5 -12 -10
-18 -10 -12 0 32 39 44 40 4 0 9 -6 12 -14z m1108 -46 c6 0 8 -7 5 -16 -3 -8
1 -26 10 -40 12 -17 13 -24 4 -24 -8 0 -10 -9 -5 -27 13 -51 12 -55 -26 -57
-32 -2 -39 2 -55 28 -9 17 -22 34 -27 37 -6 4 -1 20 12 38 12 17 21 39 20 48
-1 10 4 32 11 48 l12 30 14 -32 c8 -18 19 -33 25 -33z m-9086 20 c-3 -5 -13
-10 -21 -10 -8 0 -12 5 -9 10 3 6 13 10 21 10 8 0 12 -4 9 -10z m4141 -27
c-10 -10 -19 5 -10 18 6 11 8 11 12 0 2 -7 1 -15 -2 -18z m-506 7 c0 -5 -4
-10 -9 -10 -6 0 -13 5 -16 10 -3 6 1 10 9 10 9 0 16 -4 16 -10z m4258 -10 c-7
-11 -16 -16 -21 -11 -12 12 0 31 19 31 12 0 12 -3 2 -20z m-4160 -100 c1 -55
-2 -100 -7 -100 -16 0 -21 30 -21 121 0 67 3 87 13 83 9 -3 13 -34 15 -104z
m-3061 84 c4 -10 0 -20 -10 -26 -9 -4 -19 -24 -23 -43 -8 -47 -29 -63 -52 -41
-10 9 -24 16 -30 16 -7 0 -12 8 -12 19 0 14 10 21 35 25 24 5 40 16 52 36 20
34 31 38 40 14z m-210 -28 c-3 -8 2 -16 15 -19 11 -3 17 -10 13 -16 -9 -16
-32 -13 -39 4 -5 15 2 45 11 45 3 0 3 -6 0 -14z m98 4 c3 -5 2 -10 -4 -10 -5
0 -13 5 -16 10 -3 6 -2 10 4 10 5 0 13 -4 16 -10z m3065 -12 c0 -12 -1 -19 -3
-17 -1 2 -9 12 -16 22 -12 14 -11 17 3 17 10 0 16 -8 16 -22z m2570 -20 c0 -5
-13 -8 -30 -8 -32 0 -37 9 -19 27 9 9 16 9 30 0 11 -7 19 -15 19 -19z m-626 5
c4 -9 1 -20 -6 -25 -20 -12 -28 -10 -28 10 0 33 23 43 34 15z m421 -9 c-25
-27 -60 -29 -60 -4 0 13 31 27 67 29 14 1 13 -4 -7 -25z m1795 22 c0 -3 -4 -8
-10 -11 -5 -3 -10 -1 -10 4 0 6 5 11 10 11 6 0 10 -2 10 -4z m-2276 -15 c3 -5
-4 -11 -16 -14 -25 -7 -33 -3 -23 12 8 13 32 14 39 2z m581 -14 c0 -1 6 -13
13 -26 13 -23 13 -23 -15 -17 -15 4 -29 11 -31 16 -2 5 -10 6 -18 3 -15 -5
-20 18 -7 31 6 6 58 -1 58 -7z m180 4 c8 -14 -13 -24 -33 -16 -14 5 -14 7 -2
15 19 12 27 12 35 1z m-759 -37 c-23 -16 -50 -19 -41 -3 8 12 48 29 55 22 3
-3 -4 -11 -14 -19z m-4846 0 c0 -8 -4 -12 -10 -9 -5 3 -10 10 -10 16 0 5 5 9
10 9 6 0 10 -7 10 -16z m7340 10 c0 -13 -72 -74 -86 -74 -12 0 -12 4 3 25 10
13 23 25 29 25 7 0 14 7 18 15 5 14 36 22 36 9z m-7917 -11 c7 -7 -21 -43 -33
-43 -4 0 -5 11 -2 25 4 24 21 33 35 18z m4242 -3 c3 -5 2 -10 -4 -10 -5 0 -13
5 -16 10 -3 6 -2 10 4 10 5 0 13 -4 16 -10z m-75 -11 c0 -4 -5 -11 -12 -15 -7
-5 -5 -11 7 -21 20 -14 21 -13 -27 -17 -7 -1 -13 7 -13 16 0 9 -4 20 -8 24
-13 14 -7 19 23 20 17 1 30 -2 30 -7z m3800 7 c0 -3 -4 -8 -10 -11 -5 -3 -10
-1 -10 4 0 6 5 11 10 11 6 0 10 -2 10 -4z m-1600 -21 c0 -8 -7 -15 -15 -15 -8
0 -15 7 -15 15 0 8 7 15 15 15 8 0 15 -7 15 -15z m-6580 -15 l20 -20 -20 0
c-11 0 -20 2 -20 4 0 2 -3 11 -6 20 -8 22 2 20 26 -4z m3746 -26 c-15 -14 -16
-13 -16 9 0 30 11 42 23 22 5 -10 3 -21 -7 -31z m2584 25 c0 -12 -29 -38 -42
-39 -5 0 -8 11 -8 25 0 20 5 25 25 25 14 0 25 -5 25 -11z m1840 -9 c0 -5 -7
-10 -16 -10 -8 0 -12 5 -9 10 3 6 10 10 16 10 5 0 9 -4 9 -10z m-8054 -25 c20
-30 14 -40 -17 -30 -17 6 -19 9 -8 16 10 6 11 9 2 9 -7 0 -13 7 -13 15 0 23
18 18 36 -10z m6114 1 c0 -7 7 -19 15 -26 8 -6 13 -21 12 -32 -1 -12 4 -23 11
-25 9 -4 11 2 6 21 -4 19 -2 26 9 26 8 0 17 -7 21 -15 7 -20 46 -20 46 0 0 9
8 19 18 22 9 4 20 11 24 17 4 6 13 4 25 -7 18 -15 21 -15 42 0 19 13 25 13 32
2 5 -8 9 -22 9 -31 0 -16 90 -68 118 -68 20 0 13 -17 -13 -34 -13 -9 -37 -16
-52 -16 -15 0 -37 -7 -47 -15 -11 -8 -27 -15 -35 -15 -9 0 -24 -13 -35 -28
-18 -28 -66 -42 -66 -20 0 25 -32 47 -61 41 -24 -4 -29 -2 -34 19 -8 33 -56
60 -97 55 -18 -2 -25 -2 -15 0 19 5 24 24 5 21 -7 -2 -13 5 -12 15 0 9 1 32 2
50 2 24 8 37 25 45 31 15 47 14 47 -2z m290 -16 c0 -5 -4 -10 -10 -10 -5 0
-10 5 -10 10 0 6 5 10 10 10 6 0 10 -4 10 -10z m-5963 -27 c-3 -3 -11 -2 -17
2 -9 6 -9 10 1 16 14 8 27 -7 16 -18z m3721 10 c2 -8 -6 -13 -22 -13 -25 0
-33 10 -19 24 10 10 36 3 41 -11z m-3173 -4 c10 -16 -1 -22 -26 -14 -17 6 -19
9 -8 16 19 12 26 11 34 -2z m3088 4 c-7 -2 -21 -2 -30 0 -10 3 -4 5 12 5 17 0
24 -2 18 -5z m282 -2 c20 -8 20 -8 -2 -15 -26 -8 -75 3 -67 15 6 11 41 11 69
0z m-4152 -28 c-9 -3 -10 -10 -3 -24 9 -16 7 -19 -13 -19 -41 0 -50 20 -19 46
19 17 29 20 37 13 7 -8 6 -13 -2 -16z m-67 -10 c-10 -21 -12 -22 -24 -5 -12
15 -13 14 -7 -9 5 -19 2 -28 -9 -32 -29 -11 -76 17 -76 46 0 21 5 23 68 23 57
0 58 0 48 -23z m3547 16 c7 0 -10 -7 -37 -15 -33 -11 -52 -12 -59 -5 -7 7 -6
12 4 15 29 10 54 14 67 10 8 -2 19 -4 25 -5z m5515 -7 c2 -7 -3 -12 -12 -12
-9 0 -16 7 -16 16 0 17 22 14 28 -4z m-9218 -12 c0 -5 -4 -10 -10 -10 -5 0
-10 5 -10 10 0 6 5 10 10 10 6 0 10 -4 10 -10z m356 -35 c-1 -33 -26 -33 -26
0 0 15 6 25 14 25 9 0 13 -10 12 -25z m4854 -27 c0 -3 -9 -4 -20 -1 -16 4 -18
8 -9 20 10 11 14 11 20 1 5 -7 9 -16 9 -20z m-4480 1 c0 -5 -4 -9 -10 -9 -5 0
-10 7 -10 16 0 8 5 12 10 9 6 -3 10 -10 10 -16z m297 -1 c-3 -8 -6 -5 -6 6 -1
11 2 17 5 13 3 -3 4 -12 1 -19z m-522 -18 c0 -8 -11 -17 -25 -20 -19 -5 -24
-12 -22 -30 1 -13 -3 -27 -9 -31 -8 -4 -4 -9 10 -14 11 -3 21 -13 21 -21 0
-16 -36 -19 -45 -3 -4 6 -14 8 -22 5 -12 -5 -14 -1 -9 14 3 11 9 30 13 42 4
14 3 19 -5 14 -17 -10 -3 25 20 50 15 17 26 20 46 15 15 -4 27 -14 27 -21z
m3380 14 c38 -25 46 -69 44 -231 -2 -156 -7 -183 -39 -183 -16 0 -20 7 -20 30
0 17 -4 30 -10 30 -5 0 -10 -9 -10 -19 0 -19 -25 -35 -41 -26 -4 3 -4 16 1 29
5 13 4 29 -1 37 -11 17 -9 298 3 305 4 3 8 14 8 25 0 24 31 25 65 3z m477 4
c76 0 87 -2 91 -19 7 -25 -5 -31 -40 -19 -16 6 -97 9 -183 8 l-155 -3 3 -25
c1 -14 4 -43 6 -65 2 -21 8 -41 14 -43 13 -4 5 -60 -11 -79 -13 -18 -15 -106
-3 -116 11 -7 -18 -37 -36 -37 -11 0 -10 328 1 335 5 3 7 21 4 41 l-6 35 114
-7 c63 -3 153 -6 201 -6z m-4148 -15 c5 -3 1 -10 -8 -15 -11 -6 -22 -6 -31 2
-8 6 -18 9 -24 6 -5 -3 -12 1 -15 10 -5 14 -1 15 31 9 21 -4 42 -9 47 -12z
m786 2 c0 -8 -4 -15 -9 -15 -13 0 -22 16 -14 24 11 11 23 6 23 -9z m74 0 c-7
-16 -24 -21 -24 -6 0 8 7 13 27 20 1 1 0 -6 -3 -14z m111 -12 c10 4 15 1 15
-10 0 -9 -3 -13 -7 -10 -3 4 -13 1 -21 -5 -18 -15 -92 -17 -92 -2 0 15 22 41
40 47 8 2 23 -2 32 -11 10 -8 24 -12 33 -9z m3440 7 c3 -6 0 -13 -8 -16 -23
-8 -25 -404 -2 -404 19 0 20 -29 0 -36 -8 -4 -26 1 -39 10 -15 9 -26 11 -28 5
-2 -7 -18 -7 -48 0 -28 6 -49 6 -55 0 -14 -14 -35 -11 -35 6 0 12 15 15 73 17
99 2 100 2 104 14 2 6 -10 9 -30 6 -22 -2 -38 2 -46 12 -15 18 -48 21 -71 6
-9 -6 -17 -5 -22 3 -13 20 -10 325 3 333 7 4 16 0 20 -9 11 -19 49 -11 49 11
0 32 31 52 81 52 26 0 51 -5 54 -10z m-3705 -15 c-11 -13 -10 -18 4 -28 16
-12 16 -14 2 -26 -15 -13 -36 -8 -36 9 0 20 20 60 31 60 8 0 8 -5 -1 -15z
m2770 11 c0 -11 -19 -15 -25 -6 -3 5 1 10 9 10 9 0 16 -2 16 -4z m1346 -30
c-4 -23 -3 -35 5 -38 8 -3 9 -9 4 -18 -6 -10 -11 -10 -21 4 -7 10 -10 24 -8
30 3 9 -4 11 -27 8 -29 -4 -30 -3 -19 18 8 15 18 20 31 17 10 -3 22 -1 25 4
11 19 16 8 10 -25z m-258 0 c3 -12 -1 -17 -10 -14 -7 3 -15 13 -16 22 -3 12 1
17 10 14 7 -3 15 -13 16 -22z m389 -16 c18 0 13 -20 -10 -34 -23 -15 -49 10
-27 25 12 8 12 12 2 16 -10 4 -10 8 0 21 12 14 13 13 16 -6 2 -12 10 -22 19
-22z m-4587 21 c0 -5 -12 -16 -26 -26 -25 -16 -25 -16 -15 3 9 17 19 25 39 31
1 1 2 -3 2 -8z m5930 -17 c0 -21 3 -25 18 -19 9 5 26 8 37 8 11 1 25 6 30 13
20 23 52 22 81 -3 15 -13 34 -21 41 -18 17 6 65 -24 57 -36 -3 -5 -12 -9 -21
-9 -9 0 -25 -8 -35 -17 -17 -15 -20 -15 -39 5 -21 24 -53 30 -46 10 2 -7 0
-23 -4 -36 -10 -26 8 -52 36 -52 14 0 15 -7 9 -47 -7 -49 -14 -69 -14 -40 0
10 -8 17 -18 17 -9 0 -23 9 -30 21 -7 12 -16 18 -19 15 -14 -14 -32 17 -26 45
5 27 3 29 -24 29 -16 0 -34 5 -40 11 -8 8 -13 5 -18 -10 -4 -15 -15 -21 -35
-21 -16 0 -31 -4 -35 -9 -3 -5 -18 -8 -33 -6 -15 2 -30 4 -34 4 -13 1 -9 36 8
59 8 12 10 22 5 22 -6 0 -11 7 -11 16 0 12 6 15 23 11 74 -17 83 -17 102 -1
14 11 16 18 8 21 -22 8 -15 43 7 43 15 0 20 -7 20 -26z m-2519 -73 c6 -217 5
-242 -17 -262 l-22 -20 -5 23 c-10 44 -5 311 7 324 17 20 36 -12 37 -65z
m-2761 27 c0 -6 -6 -8 -14 -5 -7 3 -19 0 -25 -6 -7 -7 -7 -2 1 15 10 20 16 24
25 16 7 -6 13 -15 13 -20z m2452 -123 c-1 -82 -4 -151 -7 -154 -17 -16 -22 31
-18 162 4 102 9 147 17 144 8 -3 10 -50 8 -152z m2568 134 c0 -6 -4 -7 -10 -4
-5 3 -10 11 -10 16 0 6 5 7 10 4 6 -3 10 -11 10 -16z m-1425 -9 c3 -5 1 -10
-4 -10 -6 0 -11 5 -11 10 0 6 2 10 4 10 3 0 8 -4 11 -10z m4095 0 c11 -7 12
-12 3 -21 -15 -15 -43 -5 -43 16 0 17 18 19 40 5z m-8590 -34 c0 -3 -6 -6 -14
-6 -15 0 -28 24 -19 34 6 5 33 -18 33 -28z m722 20 c10 -10 19 -11 32 -4 25
14 41 4 44 -25 3 -37 -12 -41 -45 -13 -16 13 -39 26 -52 28 -14 1 -26 9 -29
16 -5 17 33 16 50 -2z m3695 -18 c-3 -8 -6 -5 -6 6 -1 11 2 17 5 13 3 -3 4
-12 1 -19z m3527 6 c3 -9 3 -20 0 -26 -4 -6 -3 -13 2 -17 5 -3 19 -20 31 -38
19 -27 20 -32 7 -37 -32 -12 -46 -7 -39 14 9 27 -11 50 -41 50 -29 0 -32 26
-5 35 12 4 18 12 14 21 -3 8 1 14 10 14 8 0 18 -7 21 -16z m-3144 -24 c16 -16
36 -27 44 -24 9 3 13 -4 14 -23 0 -15 3 -41 7 -56 7 -27 6 -28 -13 -16 -16 10
-23 10 -35 0 -13 -10 -18 -9 -27 8 -14 27 -25 26 -52 -4 -24 -27 -61 -37 -38
-10 7 8 9 22 6 31 -8 21 20 54 46 54 19 0 25 25 8 35 -13 8 -13 35 0 35 5 0
23 -13 40 -30z m2920 20 c0 -5 -2 -10 -4 -10 -3 0 -8 5 -11 10 -3 6 -1 10 4
10 6 0 11 -4 11 -10z m-7917 -156 c-21 -19 -45 -34 -53 -34 -13 -1 -13 -2 1
-13 13 -10 14 -17 6 -37 -10 -24 -11 -24 -14 -4 -3 17 -9 20 -31 16 -25 -5
-26 -4 -9 12 9 10 17 28 17 42 0 15 6 24 16 24 26 0 44 26 44 63 0 23 -6 37
-16 41 -15 6 -15 8 1 26 18 20 19 19 48 -41 l29 -61 -39 -34z m5831 139 c7
-17 -18 -52 -29 -41 -8 8 5 58 15 58 4 0 11 -8 14 -17z m3036 7 c0 -5 -4 -10
-10 -10 -5 0 -10 5 -10 10 0 6 5 10 10 10 6 0 10 -4 10 -10z m-4640 -121 c3
-63 3 -134 0 -158 -5 -41 -6 -43 -20 -26 -11 13 -15 47 -16 129 -2 128 4 178
20 173 7 -2 13 -46 16 -118z m1710 112 c0 -6 -4 -13 -10 -16 -5 -3 -10 1 -10
9 0 9 5 16 10 16 6 0 10 -4 10 -9z m2100 -6 c7 -9 8 -15 2 -15 -5 0 -12 7 -16
15 -3 8 -4 15 -2 15 2 0 9 -7 16 -15z m-7722 -18 c2 -10 -3 -17 -12 -17 -10 0
-16 9 -16 21 0 24 23 21 28 -4z m4602 2 c0 -11 -4 -18 -10 -14 -5 3 -7 12 -3
20 7 21 13 19 13 -6z m3414 11 c14 -5 26 -16 26 -24 0 -16 -27 -29 -42 -20 -6
4 -17 -1 -24 -11 -15 -20 -44 -14 -44 9 0 8 12 24 26 35 31 24 26 24 58 11z
m-7924 -29 c0 -6 -4 -13 -10 -16 -5 -3 -10 1 -10 9 0 9 5 16 10 16 6 0 10 -4
10 -9z m2587 -23 c-3 -8 -6 -5 -6 6 -1 11 2 17 5 13 3 -3 4 -12 1 -19z m2868
2 c0 -22 -29 -18 -33 3 -3 14 1 18 15 15 10 -2 18 -10 18 -18z m2368 14 c3 -3
3 -12 0 -20 -4 -11 -9 -12 -19 -3 -8 6 -11 15 -8 20 6 10 18 12 27 3z m-7153
-16 c0 -6 -3 -8 -7 -5 -3 4 -11 2 -18 -3 -8 -6 -18 -5 -31 5 -18 13 -16 14 19
15 22 0 37 -5 37 -12z m-417 -28 c6 -22 -8 -37 -18 -20 -4 6 -16 8 -27 4 -17
-5 -18 -3 -9 15 15 27 47 27 54 1z m-878 -14 c11 -8 16 -20 12 -29 -3 -8 1
-21 9 -27 23 -20 16 -31 -11 -18 -14 6 -25 15 -25 19 0 4 -11 10 -24 13 -19 5
-22 11 -18 31 5 28 28 33 57 11z m545 5 c0 -5 -7 -14 -15 -21 -8 -7 -15 -10
-15 -7 0 3 -3 12 -6 21 -4 12 0 16 15 16 12 0 21 -4 21 -9z m1744 3 c24 -9 19
-24 -8 -24 -28 0 -43 16 -24 23 7 3 14 6 15 6 1 1 8 -2 17 -5z m929 -36 c4
-29 2 -38 -9 -38 -15 0 -18 20 -8 58 8 28 10 26 17 -20z m2574 15 c-3 -3 -11
-2 -17 2 -9 6 -9 10 1 16 14 8 27 -7 16 -18z m1014 12 c0 -6 -10 -12 -22 -13
-19 -3 -20 -2 -8 12 15 16 31 17 30 1z m-6001 -15 c0 -11 -6 -20 -14 -20 -9 0
-12 7 -9 20 3 11 9 20 14 20 5 0 9 -9 9 -20z m5027 14 c-3 -3 -12 -4 -19 -1
-8 3 -5 6 6 6 11 1 17 -2 13 -5z m-4661 -56 c10 -10 -33 -51 -45 -43 -6 3 -9
10 -7 14 3 4 0 13 -5 21 -8 13 -10 13 -18 0 -6 -8 -14 -11 -18 -6 -4 5 -2 11
5 13 6 3 12 11 12 18 0 10 7 10 35 1 19 -7 37 -15 41 -18z m5688 9 c9 -15 7
-21 -9 -33 -11 -8 -20 -22 -20 -32 0 -22 -38 -19 -71 7 -26 21 -21 36 7 20 13
-7 19 -6 19 1 0 20 34 60 49 57 8 -1 19 -10 25 -20z m-6356 -4 c-4 -22 -58
-31 -58 -10 0 20 10 27 37 27 18 0 24 -5 21 -17z m232 -9 c0 -8 -4 -14 -10
-14 -5 0 -10 9 -10 21 0 11 5 17 10 14 6 -3 10 -13 10 -21z m-190 -8 c0 -7 -9
-16 -19 -19 -17 -4 -20 4 -12 31 3 9 31 -1 31 -12z m3110 -6 c0 -5 -4 -10 -10
-10 -5 0 -10 5 -10 10 0 6 5 10 10 10 6 0 10 -4 10 -10z m2100 0 c0 -5 -2 -10
-4 -10 -3 0 -8 5 -11 10 -3 6 -1 10 4 10 6 0 11 -4 11 -10z m930 -11 c0 -18
-2 -19 -15 -5 -8 8 -15 17 -15 20 0 3 7 6 15 6 9 0 15 -9 15 -21z m-6010 7 c0
-3 -4 -8 -10 -11 -5 -3 -10 -1 -10 4 0 6 5 11 10 11 6 0 10 -2 10 -4z m2621
-16 c14 0 19 -7 19 -25 0 -22 4 -25 36 -25 29 0 33 -2 22 -12 -7 -7 -30 -14
-51 -15 -37 -2 -38 -1 -32 28 4 18 3 29 -4 29 -6 0 -12 -8 -12 -17 -1 -17 -2
-17 -6 0 -2 9 -11 17 -19 17 -19 0 -18 10 4 26 9 7 19 8 20 3 2 -5 12 -9 23
-9z m1720 -35 c-4 -55 -14 -67 -45 -56 -12 5 -25 7 -31 5 -6 -2 -11 20 -13 52
l-2 55 47 -3 48 -3 -4 -50z m-5001 24 c0 -11 -28 -24 -36 -17 -2 3 -2 12 2 21
6 16 34 12 34 -4z m1060 11 c0 -5 -5 -10 -11 -10 -5 0 -7 5 -4 10 3 6 8 10 11
10 2 0 4 -4 4 -10z m2404 -5 c-4 -8 -10 -15 -15 -15 -4 0 -6 7 -3 15 4 8 10
15 15 15 4 0 6 -7 3 -15z m2320 -1 c8 -20 -1 -34 -20 -34 -8 0 -14 10 -14 25
0 28 24 34 34 9z m3281 -4 c3 -5 -1 -10 -9 -10 -9 0 -16 5 -16 10 0 6 4 10 9
10 6 0 13 -4 16 -10z m-6782 -14 c8 -19 -20 -43 -34 -29 -12 12 -1 43 16 43 7
0 15 -6 18 -14z m1364 -8 c-3 -8 -6 -5 -6 6 -1 11 2 17 5 13 3 -3 4 -12 1 -19z
m-1417 3 c0 -12 -20 -27 -47 -35 -27 -9 -30 5 -7 28 16 17 54 22 54 7z m4620
0 c0 -6 -4 -13 -10 -16 -5 -3 -10 1 -10 9 0 9 5 16 10 16 6 0 10 -4 10 -9z
m80 -17 c0 -8 -4 -12 -10 -9 -5 3 -10 10 -10 16 0 5 5 9 10 9 6 0 10 -7 10
-16z m-4900 -3 c0 -6 -5 -13 -10 -16 -6 -4 -8 -16 -4 -27 4 -15 2 -19 -7 -16
-19 6 -24 49 -7 59 17 11 28 11 28 0z m6120 -18 c0 -20 -54 -13 -58 8 -2 12 4
15 28 11 17 -2 30 -10 30 -19z m-7466 -24 c-4 -13 -7 -26 -7 -29 1 -3 -9 -6
-23 -5 -13 0 -24 3 -24 8 0 4 0 12 0 17 0 6 9 10 20 10 14 0 20 7 20 22 0 16
3 19 11 11 7 -7 8 -20 3 -34z m1376 31 c0 -5 -2 -10 -4 -10 -3 0 -8 5 -11 10
-3 6 -1 10 4 10 6 0 11 -4 11 -10z m1020 1 c0 -5 -6 -14 -14 -21 -12 -9 -15
-8 -13 9 1 20 27 31 27 12z m-2280 -21 c0 -11 -6 -20 -14 -20 -8 0 -17 -10
-19 -22 -3 -17 -5 -14 -6 10 -1 22 3 32 14 32 8 0 15 5 15 10 0 6 2 10 5 10 3
0 5 -9 5 -20z m630 10 c0 -6 -7 -13 -16 -17 -8 -3 -20 -17 -26 -32 -6 -15 -12
-21 -15 -13 -8 20 20 72 39 72 10 0 18 -5 18 -10z m6257 -42 c3 -24 7 -89 9
-145 5 -94 7 -103 25 -103 14 0 19 7 19 29 0 17 4 32 9 35 10 7 21 -17 21 -45
0 -16 8 -19 48 -21 26 0 58 -2 72 -3 14 -1 88 -5 165 -9 205 -10 376 -27 405
-41 14 -6 45 -11 70 -10 25 0 78 2 118 3 67 2 73 4 82 27 5 14 12 25 14 25 3
0 3 -6 0 -14 -7 -17 22 -46 46 -46 10 0 22 -5 26 -11 8 -13 -663 -4 -771 10
-76 11 -256 18 -625 25 -129 3 -239 5 -243 6 -5 0 -5 5 -2 10 4 6 -34 10 -107
10 -62 0 -120 5 -128 10 -10 7 13 10 75 11 50 0 112 4 139 7 l49 7 29 75 c16
41 37 94 48 118 l20 42 185 0 185 0 0 27 c0 40 13 19 17 -29z m692 28 c5 -4
13 -31 16 -61 4 -32 12 -53 19 -52 14 3 15 -35 1 -45 -18 -13 -102 -9 -114 6
-8 10 -9 16 -1 21 5 3 10 17 10 29 0 16 7 26 23 30 l22 7 -22 16 c-21 14 -30
43 -18 55 7 6 50 2 64 -6z m-4399 -6 c0 -5 7 -10 15 -10 8 0 15 5 15 10 0 6
14 10 30 10 22 0 30 -5 30 -18 0 -16 -8 -18 -67 -16 -43 2 -76 -2 -95 -12 -27
-14 -28 -14 -28 9 0 13 3 27 7 30 10 11 93 8 93 -3z m3468 3 c-10 -2 -26 -2
-35 0 -10 3 -2 5 17 5 19 0 27 -2 18 -5z m1268 -35 c4 -13 0 -24 -13 -33 -10
-8 -14 -17 -9 -22 5 -4 11 -3 13 3 3 8 14 8 41 -2 20 -7 48 -13 61 -14 19 0
22 4 18 20 -3 11 1 27 9 34 8 9 11 22 7 33 -7 17 -6 17 11 1 9 -10 26 -18 37
-18 16 0 18 -3 9 -19 -8 -16 -6 -22 7 -30 15 -8 16 -13 5 -33 -18 -33 -40 -45
-111 -59 -57 -12 -62 -12 -76 7 -8 10 -15 29 -15 42 0 12 -4 22 -9 22 -5 0 -9
-6 -8 -12 1 -34 -4 -48 -17 -48 -8 0 -16 8 -18 17 -3 15 -4 15 -19 1 -10 -11
-21 -13 -31 -7 -10 6 -27 5 -43 -1 -35 -13 -75 -3 -75 20 0 24 16 33 60 37 19
1 39 9 44 17 9 12 12 12 21 -1 15 -20 65 -10 65 12 0 8 8 15 18 15 16 1 16 1
0 14 -10 7 -18 21 -18 31 0 14 3 15 15 5 8 -6 17 -21 21 -32z m-8766 1 c0 -5
-7 -9 -15 -9 -9 0 -15 9 -15 21 0 18 2 19 15 9 8 -7 15 -16 15 -21z m877 9
c-3 -8 -6 -5 -6 6 -1 11 2 17 5 13 3 -3 4 -12 1 -19z m2951 3 c6 -17 22 -13
23 7 1 11 4 8 8 -8 9 -30 2 -62 -10 -54 -5 3 -7 10 -4 15 4 5 0 9 -7 9 -7 0
-23 3 -35 6 -19 5 -23 2 -23 -15 0 -12 -6 -21 -15 -21 -15 0 -20 34 -9 64 7
18 66 15 72 -3z m4834 7 c7 -18 -2 -39 -13 -32 -12 7 -12 44 0 44 5 0 11 -6
13 -12z m417 3 c11 -7 9 -10 -8 -16 -22 -7 -41 0 -41 16 0 11 30 12 49 0z
m-6861 -19 c2 -7 -6 -12 -17 -12 -21 0 -27 11 -14 24 9 9 26 2 31 -12z m1462
-1 c12 -23 3 -51 -16 -51 -14 0 -20 51 -7 63 9 10 11 9 23 -12z m3280 4 c0
-24 -36 -37 -51 -19 -10 13 -10 17 2 25 22 14 49 11 49 -6z m-3462 -35 c4 0
15 7 25 14 9 7 28 11 41 9 13 -3 27 0 30 6 11 17 26 13 26 -7 0 -21 -62 -61
-68 -44 -5 17 -27 15 -42 -3 -14 -17 -60 -20 -60 -4 0 6 8 24 18 41 15 27 17
28 20 9 2 -12 6 -21 10 -21z m-104 15 c-4 -8 -10 -15 -15 -15 -4 0 -6 7 -3 15
4 8 10 15 15 15 4 0 6 -7 3 -15z m4604 2 c7 -8 7 -18 2 -27 -10 -17 -15 -13
-24 18 -8 24 5 30 22 9z m136 -10 c-2 -7 -13 -18 -24 -25 -17 -10 -18 -9 -13
6 9 23 26 41 35 36 4 -3 5 -10 2 -17z m-6037 7 c-3 -3 -12 -4 -19 -1 -8 3 -5
6 6 6 11 1 17 -2 13 -5z m518 -15 c0 -8 -11 -14 -27 -14 -34 -1 -44 -11 -30
-28 9 -10 8 -18 -3 -33 -8 -10 -15 -29 -15 -41 0 -30 -16 -38 -23 -12 -4 15
-11 20 -22 15 -17 -6 -54 28 -55 50 0 6 -9 19 -20 29 -35 32 -25 45 30 42 52
-2 57 -6 39 -24 -7 -7 -9 -23 -5 -38 7 -26 8 -27 26 -10 11 10 20 31 20 46 0
25 3 28 30 24 17 -2 30 1 30 7 0 5 6 8 13 6 6 -3 12 -11 12 -19z m715 11 c0
-5 -4 -10 -10 -10 -5 0 -10 5 -10 10 0 6 5 10 10 10 6 0 10 -4 10 -10z m1610
-24 c0 -14 -4 -27 -9 -31 -12 -7 -25 31 -16 45 11 18 25 10 25 -14z m1930 9
c0 -8 -7 -15 -15 -15 -16 0 -20 12 -8 23 11 12 23 8 23 -8z m-6126 -11 c9 -24
7 -74 -3 -74 -10 0 -51 65 -51 81 0 16 47 10 54 -7z m1041 -14 c-5 -8 -11 -8
-17 -2 -6 6 -7 16 -3 22 5 8 11 8 17 2 6 -6 7 -16 3 -22z m2445 20 c0 -5 -7
-10 -15 -10 -8 0 -15 5 -15 10 0 6 7 10 15 10 8 0 15 -4 15 -10z m4340 6 c0
-3 -4 -8 -10 -11 -5 -3 -10 -1 -10 4 0 6 5 11 10 11 6 0 10 -2 10 -4z m477
-28 c-3 -7 -5 -2 -5 12 0 14 2 19 5 13 2 -7 2 -19 0 -25z m-6824 2 c3 -11 1
-22 -3 -25 -13 -8 -40 6 -40 19 0 31 35 35 43 6z m4717 10 c0 -5 -14 -10 -31
-10 -17 0 -28 4 -24 10 3 6 17 10 31 10 13 0 24 -4 24 -10z m-1535 -10 c3 -5
-3 -10 -14 -10 -11 0 -23 5 -26 10 -3 6 3 10 14 10 11 0 23 -4 26 -10z m598
-10 c-3 -12 -8 -19 -11 -16 -5 6 5 36 12 36 2 0 2 -9 -1 -20z m97 11 c0 -12
-20 -25 -27 -18 -7 7 6 27 18 27 5 0 9 -4 9 -9z m-2670 -11 c0 -5 -4 -10 -10
-10 -5 0 -10 5 -10 10 0 6 5 10 10 10 6 0 10 -4 10 -10z m2718 -4 c-10 -7 -15
-16 -12 -19 3 -3 -6 -13 -20 -22 -14 -10 -26 -26 -26 -36 0 -23 -18 -35 -25
-16 -9 22 12 65 34 72 12 3 21 13 21 21 0 8 9 14 23 14 20 -1 21 -2 5 -14z
m-5002 -23 c-10 -10 -19 5 -10 18 6 11 8 11 12 0 2 -7 1 -15 -2 -18z m5829 17
c3 -5 -1 -10 -9 -10 -9 0 -16 5 -16 10 0 6 4 10 9 10 6 0 13 -4 16 -10z m1205
-15 c11 -10 20 -21 20 -25 0 -11 -114 -20 -124 -10 -6 6 -18 10 -28 10 -12 0
-15 5 -11 16 5 13 7 13 14 2 7 -10 9 -8 9 6 0 12 5 16 15 12 8 -3 15 -1 15 3
0 16 69 5 90 -14z m-7330 -5 c0 -13 -5 -18 -14 -14 -8 3 -12 12 -9 20 8 21 23
17 23 -6z m170 12 c0 -5 -3 -12 -7 -16 -5 -4 -9 -12 -9 -17 -3 -22 -5 -23 -14
-9 -17 26 -12 50 10 50 11 0 20 -4 20 -8z m4464 -8 c3 -8 2 -12 -4 -9 -6 3
-10 10 -10 16 0 14 7 11 14 -7z m1346 -28 c0 -10 14 -16 38 -19 32 -4 31 -4
-8 -3 -34 1 -46 5 -48 19 -2 9 1 17 7 17 6 0 11 -6 11 -14z m-5693 -21 c-13
-27 -27 -33 -27 -12 0 14 19 37 31 37 4 0 2 -11 -4 -25z m4569 -36 c69 -9 94
-18 94 -35 0 -16 27 -19 32 -3 2 7 25 1 62 -15 43 -19 75 -26 123 -26 44 0 62
-3 57 -11 -4 -8 3 -9 27 -3 38 9 501 7 647 -2 153 -10 163 -22 22 -25 -69 -2
-145 -4 -170 -6 -260 -16 -660 -5 -684 18 -15 14 -60 11 -92 -6 -25 -13 -30
-13 -46 2 -17 16 -114 15 -320 -3 -46 -4 -68 -2 -68 5 0 11 20 17 85 25 22 2
60 9 85 15 25 5 74 11 110 12 36 1 56 3 45 6 -11 2 -27 7 -35 10 -8 3 -46 5
-83 5 -78 -1 -122 11 -110 30 4 7 6 21 5 31 -3 18 13 24 23 7 3 -5 13 -6 21
-3 9 3 20 0 25 -8 7 -12 12 -12 30 -1 18 12 23 12 30 0 7 -10 11 -7 16 12 l7
25 6 -25 c5 -21 13 -26 56 -31z m1074 41 c11 -7 9 -11 -12 -19 -14 -5 -29 -14
-32 -19 -3 -6 -30 -10 -60 -11 -40 0 -56 4 -60 15 -11 28 5 37 59 31 28 -3 58
-1 66 4 17 11 21 11 39 -1z m340 -4 c14 -2 -20 -3 -75 -4 -55 0 -90 3 -77 6
21 7 94 5 152 -2z m-6060 -11 c0 -8 -6 -15 -14 -15 -8 0 -16 -6 -19 -12 -3 -9
-7 -7 -12 6 -5 11 -3 21 6 27 21 13 39 11 39 -6z m5158 -22 l-3 -38 -49 0
c-50 0 -74 18 -36 28 12 3 20 13 20 26 0 17 6 21 36 21 35 0 35 -1 32 -37z
m117 27 c34 -13 28 -29 -15 -44 -54 -18 -65 -15 -68 22 -3 30 -1 32 27 32 16
0 42 -5 56 -10z m239 0 c32 -12 25 -40 -10 -40 -19 0 -24 5 -24 25 0 28 0 28
34 15z m-5249 -10 c8 -13 -5 -13 -25 0 -13 8 -13 10 2 10 9 0 20 -4 23 -10z
m145 0 c-20 -13 -60 -13 -60 0 0 6 17 10 38 10 27 0 33 -3 22 -10z m40 0 c0
-5 -4 -10 -10 -10 -5 0 -10 5 -10 10 0 6 5 10 10 10 6 0 10 -4 10 -10z m120 0
c0 -5 -4 -10 -9 -10 -6 0 -13 5 -16 10 -3 6 1 10 9 10 9 0 16 -4 16 -10z
m4760 -11 c0 -11 -4 -17 -10 -14 -5 3 -10 13 -10 21 0 8 5 14 10 14 6 0 10 -9
10 -21z m-3990 -12 c0 -8 -9 -13 -22 -11 -31 3 -30 3 -23 14 9 15 45 12 45 -3z
m-2141 -28 c24 -11 41 -22 39 -23 -1 -2 -27 -6 -57 -9 -42 -5 -52 -4 -43 5 7
7 12 20 12 30 0 22 -3 22 49 -3z m2626 1 c-11 -5 -31 -9 -45 -9 -23 0 -23 1
-5 9 11 5 31 9 45 9 23 0 23 -1 5 -9z m275 -4 c0 -17 -31 -26 -87 -26 -52 0
-56 -17 -7 -26 32 -6 34 -8 21 -21 -9 -9 -41 -17 -78 -20 -35 -2 -92 -6 -126
-9 -53 -5 -63 -3 -63 10 0 9 -5 16 -11 16 -6 0 -9 -9 -6 -19 5 -21 -10 -31
-47 -31 -12 0 -27 -5 -34 -12 -9 -9 -15 -9 -23 -1 -6 6 -18 9 -25 6 -8 -3 -14
0 -14 6 0 6 6 12 13 12 6 1 -1 5 -18 9 l-30 8 27 1 c22 1 27 6 30 33 3 29 7
33 53 45 65 16 65 16 65 -6 0 -14 6 -17 27 -13 18 3 30 -1 40 -13 12 -17 17
-18 65 -6 29 7 60 22 69 34 12 14 34 22 80 27 35 4 67 8 72 9 4 0 7 -5 7 -13z
m50 10 c0 -11 -19 -15 -25 -6 -3 5 1 10 9 10 9 0 16 -2 16 -4z m-2023 -32 c-3
-3 -12 -4 -19 -1 -8 3 -5 6 6 6 11 1 17 -2 13 -5z m3733 -4 c0 -5 -4 -10 -10
-10 -5 0 -10 5 -10 10 0 6 5 10 10 10 6 0 10 -4 10 -10z m-1760 -60 c0 -5 -5
-10 -11 -10 -5 0 -7 5 -4 10 3 6 8 10 11 10 2 0 4 -4 4 -10z m214 -6 c32 -4
52 -10 45 -14 -26 -13 -150 -42 -155 -37 -3 3 -3 20 1 37 6 26 11 31 29 26 12
-3 48 -8 80 -12z m1609 9 c-7 -2 -21 -2 -30 0 -10 3 -4 5 12 5 17 0 24 -2 18
-5z m167 -23 c8 -5 12 -11 9 -14 -9 -9 -99 5 -99 15 0 12 71 11 90 -1z m-2610
-26 c0 -2 -7 -4 -15 -4 -8 0 -15 4 -15 10 0 5 7 7 15 4 8 -4 15 -8 15 -10z
m5755 -24 c3 -5 15 -10 26 -10 17 0 18 -2 7 -14 -17 -16 -98 -18 -98 -2 0 29
51 49 65 26z m-3136 -9 c8 -5 11 -16 8 -24 -9 -23 -160 -19 -165 5 -3 14 7 18
55 21 32 2 65 4 73 5 8 1 21 -2 29 -7z m1291 -1 c0 -5 -17 -10 -37 -10 -28 0
-34 3 -23 10 20 13 60 13 60 0z m174 -9 c2 -3 -16 -4 -40 -2 -24 1 -42 6 -40
10 6 8 74 2 80 -8z m810 -18 c-2 -26 2 -33 16 -33 11 0 21 -4 24 -9 3 -4 17
-6 31 -3 14 2 25 0 25 -7 0 -16 -43 -23 -74 -12 -15 6 -41 11 -57 11 -27 0
-29 3 -29 38 0 46 6 54 40 50 21 -3 25 -8 24 -35z m178 2 c11 -15 -1 -25 -33
-25 -24 0 -29 4 -29 24 0 38 35 39 62 1z m853 25 c3 -5 -1 -10 -10 -10 -9 0
-13 5 -10 10 3 6 8 10 10 10 2 0 7 -4 10 -10z m-3724 -22 c8 -15 -9 -17 -203
-21 -117 -2 -288 -10 -380 -17 -178 -14 -198 -11 -198 31 0 18 16 19 363 21
199 2 372 3 385 3 13 0 28 -7 33 -17z m2544 11 c4 -5 19 -8 33 -4 24 5 27 3
27 -22 1 -38 -16 -47 -38 -20 -10 13 -15 15 -12 6 7 -18 -25 -32 -45 -19 -8 5
-7 11 4 23 20 20 20 28 1 21 -9 -4 -15 0 -15 10 0 18 35 22 45 5z m-3472 -8
c41 -1 46 -12 19 -39 -15 -15 -43 -21 -143 -28 -123 -8 -369 -7 -400 2 -16 4
-17 16 -4 59 2 8 343 12 528 6z m1132 -1 c3 -5 -1 -10 -9 -10 -9 0 -16 5 -16
10 0 6 4 10 9 10 6 0 13 -4 16 -10z m1735 0 c0 -5 -4 -10 -10 -10 -5 0 -10 5
-10 10 0 6 5 10 10 10 6 0 10 -4 10 -10z m1100 -26 c14 -15 10 -16 -42 -12
-66 5 -81 14 -55 33 22 16 72 5 97 -21z m-965 17 c7 -12 -12 -24 -25 -16 -11
7 -4 25 10 25 5 0 11 -4 15 -9z m235 -10 c0 -4 -36 -7 -80 -7 -72 1 -88 4 -76
17 7 7 156 -2 156 -10z m171 -17 c12 -14 8 -15 -41 -10 -30 4 -67 8 -82 9 -58
3 -25 17 41 17 51 0 72 -4 82 -16z m677 -1 c4 -14 -25 -17 -52 -7 -26 10 -18
19 16 19 17 0 33 -6 36 -12z m-1878 -12 c0 -5 3 -16 6 -25 4 -10 1 -16 -7 -16
-24 0 -42 17 -36 34 7 17 37 23 37 7z m2040 -1 c0 -11 -14 -11 -50 0 -22 7
-21 8 13 9 20 1 37 -3 37 -9z m-405 -21 c38 -1 81 -5 95 -9 25 -8 25 -8 -5
-10 -16 -1 -34 -1 -40 0 -5 1 -37 4 -70 6 -78 6 -102 13 -84 25 8 5 18 4 23
-1 6 -6 42 -10 81 -11z m-1535 2 c0 -14 -18 -23 -30 -16 -6 4 -8 11 -5 16 8
12 35 12 35 0z m1705 -21 c3 -5 -3 -10 -14 -10 -11 0 -23 5 -26 10 -3 6 3 10
14 10 11 0 23 -4 26 -10z m812 4 c-3 -3 -12 -4 -19 -1 -8 3 -5 6 6 6 11 1 17
-2 13 -5z m171 -2 c6 -1 12 -6 12 -12 0 -6 -27 -10 -60 -10 -42 0 -60 4 -60
13 0 11 53 15 108 9z m519 -104 l28 -12 -40 -6 c-47 -7 -56 -4 -48 15 6 18 23
19 60 3z m-5342 -32 c105 -32 105 -35 5 -35 -64 0 -118 6 -165 19 -38 11 -73
20 -77 20 -5 0 -8 5 -8 11 0 17 173 6 245 -15z m2843 -3 c-10 -2 -26 -2 -35 0
-10 3 -2 5 17 5 19 0 27 -2 18 -5z m-138 -37 c0 -11 -19 -15 -25 -6 -3 5 1 10
9 10 9 0 16 -2 16 -4z m443 -3 c-7 -2 -19 -2 -25 0 -7 3 -2 5 12 5 14 0 19 -2
13 -5z m187 -13 c14 0 32 -5 40 -11 11 -8 2 -9 -33 -5 -56 7 -70 13 -61 28 4
6 10 6 17 -1 6 -6 22 -11 37 -11z m218 -28 c2 -7 -2 -10 -12 -6 -9 3 -16 11
-16 16 0 13 23 5 28 -10z m229 -40 c-28 -5 -72 8 -61 18 17 16 49 16 65 1 15
-15 14 -16 -4 -19z m255 -12 l22 -20 -35 0 c-19 0 -45 3 -58 7 l-23 6 23 13
c33 18 46 17 71 -6z m208 -22 c8 -1 23 -7 34 -14 16 -11 12 -12 -33 -9 -28 2
-56 7 -61 10 -18 11 1 27 24 20 11 -3 28 -7 36 -7z m268 -23 c1 -1 -1 -10 -4
-19 -5 -12 -13 -16 -28 -12 -11 3 -31 6 -43 6 -31 0 -29 14 5 27 22 9 58 8 70
-2z m62 -20 c39 -20 38 -28 -2 -20 -42 9 -50 14 -43 26 8 12 11 12 45 -6z
m304 -30 c3 -8 12 -12 21 -9 9 4 15 1 15 -8 0 -10 -9 -13 -30 -10 -21 3 -30
10 -30 23 0 23 15 25 24 4z m-121 -12 c-7 -2 -19 -2 -25 0 -7 3 -2 5 12 5 14
0 19 -2 13 -5z m387 -7 c0 -15 19 -22 98 -32 29 -4 55 -11 58 -15 7 -12 -62
-11 -106 0 -19 5 -66 12 -105 15 -38 2 -71 5 -73 5 -2 1 0 6 3 11 3 6 24 10
45 10 21 0 42 5 45 10 9 15 35 12 35 -4z m210 -36 c0 -12 70 -13 89 -1 9 6 22
6 32 0 12 -6 20 -5 24 1 8 13 35 -6 35 -25 0 -20 -30 -27 -67 -14 -19 6 -45 8
-59 5 -37 -10 -74 3 -74 25 0 10 5 19 10 19 6 0 10 -4 10 -10z m-3988 -105
c112 -30 235 -64 273 -74 39 -11 104 -28 145 -38 106 -25 106 -37 2 -44 -226
-17 -267 -13 -434 40 -145 47 -236 73 -373 107 -121 31 -114 38 50 52 61 5
116 9 122 10 7 1 104 -23 215 -53z"/>
<path d="M4510 4601 c0 -5 5 -13 10 -16 6 -3 10 -2 10 4 0 5 -4 13 -10 16 -5
3 -10 2 -10 -4z"/>
<path d="M240 4560 c8 -5 22 -9 30 -9 10 0 8 3 -5 9 -27 12 -43 12 -25 0z"/>
<path d="M280 4524 c0 -8 5 -12 10 -9 6 4 8 11 5 16 -9 14 -15 11 -15 -7z"/>
<path d="M4275 4239 c-10 -15 3 -25 16 -12 7 7 7 13 1 17 -6 3 -14 1 -17 -5z"/>
<path d="M4392 4227 c-9 -11 -10 -17 -2 -22 15 -9 23 -1 18 21 -3 15 -4 16
-16 1z"/>
<path d="M4324 3006 c-9 -24 0 -51 19 -54 15 -3 18 2 15 29 -3 35 -24 51 -34
25z"/>
<path d="M4380 2994 c-12 -30 -1 -50 23 -41 10 4 13 14 10 31 -8 37 -21 42
-33 10z"/>
<path d="M9211 1957 c2 -1 11 -8 20 -15 14 -10 18 -10 23 3 4 11 -1 15 -21 15
-14 0 -24 -1 -22 -3z"/>
<path d="M6281 1804 c0 -11 3 -14 6 -6 3 7 2 16 -1 19 -3 4 -6 -2 -5 -13z"/>
<path d="M6470 1775 c-13 -15 -7 -45 9 -45 8 0 20 32 21 53 0 12 -17 8 -30 -8z"/>
<path d="M6245 1770 c-8 -13 -1 -24 14 -19 6 3 7 10 2 18 -6 10 -10 10 -16 1z"/>
<path d="M6574 1752 c-6 -4 -16 -17 -22 -29 -9 -16 -9 -22 2 -26 10 -4 12 0 9
14 -4 13 0 19 11 19 9 0 16 7 16 15 0 17 -1 17 -16 7z"/>
<path d="M6580 1550 c-12 -8 -12 -10 4 -16 11 -4 24 0 34 10 15 15 15 16 -3
16 -11 0 -27 -4 -35 -10z"/>
<path d="M2765 920 c-18 -8 -17 -9 8 -9 15 -1 27 4 27 9 0 12 -8 12 -35 0z"/>
<path d="M280 4370 c0 -5 12 -10 26 -10 14 0 23 4 19 10 -3 6 -15 10 -26 10
-10 0 -19 -4 -19 -10z"/>
<path d="M275 4341 c-7 -12 2 -31 15 -31 9 0 8 26 -2 35 -3 4 -9 2 -13 -4z"/>
<path d="M750 3890 c0 -5 5 -10 10 -10 15 0 63 -110 64 -145 1 -25 -4 -31 -31
-39 -34 -9 -45 -26 -17 -26 13 0 15 -7 10 -30 -4 -23 -1 -33 14 -42 22 -14 27
-43 9 -53 -7 -5 -5 -15 5 -31 23 -34 20 -37 -28 -31 -49 7 -62 1 -43 -21 10
-13 9 -15 -10 -10 -28 7 -32 -16 -6 -31 17 -9 16 -11 -5 -33 l-22 -24 26 -23
c31 -27 27 -45 -11 -49 -29 -4 -62 -28 -51 -39 3 -4 12 -1 18 5 17 17 26 15
38 -9 17 -31 -5 -52 -44 -43 -17 3 -34 12 -38 18 -5 8 -11 7 -20 -2 -15 -15
-49 -15 -83 0 -29 13 -32 23 -7 37 15 9 15 10 -5 11 -12 0 -25 -4 -28 -10 -3
-5 -15 -10 -26 -10 -13 0 -19 -7 -19 -23 0 -13 -5 -28 -11 -34 -9 -9 -8 -16 5
-28 22 -22 20 -52 -4 -60 -38 -12 -23 -34 28 -38 l47 -3 -46 -2 c-37 -2 -48
-6 -56 -25 -9 -19 -6 -28 15 -52 14 -17 30 -28 36 -26 39 13 113 10 143 -6 29
-15 33 -23 33 -56 0 -35 -2 -38 -22 -32 -36 11 -68 34 -68 49 0 25 -27 38 -66
30 -36 -7 -36 -7 -17 -23 11 -9 23 -24 26 -33 4 -11 12 -15 22 -12 10 4 15 0
15 -10 0 -9 5 -16 10 -16 6 0 10 4 10 10 0 5 6 7 14 4 8 -3 12 -12 9 -20 -7
-18 7 -18 42 0 41 22 75 7 91 -39 7 -22 11 -49 8 -61 -4 -14 0 -23 11 -27 13
-6 14 -11 5 -28 -8 -15 -9 -24 -1 -32 7 -7 12 -5 17 6 8 23 30 22 37 -2 6 -25
57 -35 57 -11 0 10 7 23 15 30 14 12 14 15 -2 32 -13 14 -14 21 -5 30 7 7 12
20 12 29 0 10 6 20 13 22 6 3 -5 4 -26 3 -21 -1 -42 -8 -47 -16 -6 -8 -10 -10
-10 -5 0 6 -12 11 -27 10 -14 0 -28 5 -30 11 -5 15 41 34 66 27 12 -3 21 -1
21 6 0 6 -11 13 -25 17 -14 3 -23 9 -20 14 5 7 -28 41 -55 55 -11 6 -10 3 3
-12 9 -11 17 -26 17 -33 0 -27 -48 32 -54 66 -5 24 -12 34 -25 34 -11 0 -21 7
-25 15 -7 19 -2 19 35 -1 17 -8 38 -13 47 -9 13 5 10 9 -15 20 -18 8 -33 19
-33 25 0 6 -11 15 -25 20 -14 5 -25 14 -25 19 0 5 -8 7 -17 5 -10 -2 -29 5
-43 16 l-25 20 61 0 c57 0 62 -2 68 -24 7 -30 29 -38 64 -25 26 11 26 11 6 19
-12 5 -25 13 -28 19 -5 7 -1 8 10 4 13 -5 15 -3 9 7 -6 10 -3 12 14 7 12 -3
34 1 49 9 15 8 33 14 40 14 24 0 11 30 -25 57 -21 15 -40 31 -41 36 -2 4 -11
14 -19 23 -8 8 -12 18 -9 22 4 3 11 1 15 -7 6 -8 19 -10 45 -6 39 8 46 0 19
-22 -16 -13 -16 -14 9 -9 15 4 30 2 33 -4 3 -5 15 -10 27 -10 14 0 18 -5 14
-15 -3 -10 1 -15 13 -15 10 0 24 -7 32 -16 12 -14 14 -14 21 6 6 16 1 28 -22
50 -21 21 -26 30 -15 30 8 0 15 -4 15 -9 0 -5 15 -12 34 -15 19 -4 39 -13 46
-21 13 -16 34 -10 25 6 -4 5 -1 9 4 9 6 0 11 -6 11 -14 0 -17 18 -31 28 -21 3
3 0 10 -7 15 -19 11 -6 44 14 36 20 -7 32 23 14 35 -12 7 -12 9 1 10 8 1 -10
5 -40 8 -42 5 -56 10 -58 24 -3 14 2 18 20 16 40 -4 59 1 53 11 -4 6 -1 17 5
25 10 12 9 15 -8 15 -24 0 -47 34 -38 56 4 10 -3 14 -24 14 -35 0 -38 15 -10
50 17 22 20 22 20 6 0 -14 3 -16 13 -8 7 6 23 9 35 5 12 -3 22 -1 22 5 0 6
-12 12 -27 14 -33 4 -41 24 -14 33 33 10 26 35 -9 32 -27 -2 -30 -5 -25 -24 7
-28 -6 -29 -30 -3 -10 11 -13 20 -7 20 21 0 13 19 -15 35 -16 8 -21 15 -13 14
40 -4 44 1 22 24 -12 13 -22 28 -22 33 0 5 -13 15 -29 22 -18 8 -28 19 -25 27
7 16 -10 50 -42 84 -13 14 -24 29 -24 34 0 10 -61 47 -77 47 -7 0 -13 -4 -13
-10z m100 -70 c0 -5 -7 -10 -15 -10 -8 0 -15 5 -15 10 0 6 7 10 15 10 8 0 15
-4 15 -10z m110 -306 c0 -14 -39 0 -43 16 -5 18 -4 18 19 3 13 -8 24 -17 24
-19z m30 -19 c0 -9 -6 -12 -15 -9 -8 4 -12 10 -9 15 8 14 24 10 24 -6z m-48
-26 c26 -19 28 -23 14 -31 -9 -5 -20 -7 -25 -3 -5 3 -11 -1 -14 -7 -9 -25 -28
8 -21 36 8 31 8 32 46 5z m-78 -5 c29 -11 16 -24 -24 -24 -43 0 -55 16 -17 23
12 2 23 5 24 6 1 0 8 -2 17 -5z m72 -124 c8 0 14 -4 14 -10 0 -5 -4 -10 -8
-10 -12 0 -32 22 -31 35 0 5 3 4 6 -2 2 -7 11 -13 19 -13z m49 -41 c11 -17 -1
-21 -15 -4 -8 9 -8 15 -2 15 6 0 14 -5 17 -11z m-150 -19 c-3 -5 -12 -10 -18
-10 -7 0 -6 4 3 10 19 12 23 12 15 0z m-75 -119 c0 -3 -12 -12 -27 -19 -24
-11 -30 -10 -47 8 l-20 20 26 0 c15 0 30 5 33 10 7 11 35 -5 35 -19z m-245
-11 c3 -5 -1 -10 -10 -10 -9 0 -13 5 -10 10 3 6 8 10 10 10 2 0 7 -4 10 -10z
m275 -10 c0 -5 -4 -10 -10 -10 -5 0 -10 5 -10 10 0 6 5 10 10 10 6 0 10 -4 10
-10z m-80 -74 c0 -3 -4 -8 -10 -11 -5 -3 -10 -1 -10 4 0 6 5 11 10 11 6 0 10
-2 10 -4z m-163 -32 c-3 -3 -12 -4 -19 -1 -8 3 -5 6 6 6 11 1 17 -2 13 -5z
m38 -4 c-3 -5 -10 -10 -16 -10 -5 0 -9 5 -9 10 0 6 7 10 16 10 8 0 12 -4 9
-10z m15 -24 c0 -11 -19 -15 -25 -6 -3 5 1 10 9 10 9 0 16 -2 16 -4z m210
-330 c0 -3 -4 -8 -10 -11 -5 -3 -10 -1 -10 4 0 6 5 11 10 11 6 0 10 -2 10 -4z"/>
<path d="M1060 3410 c0 -5 5 -10 10 -10 6 0 10 5 10 10 0 6 -4 10 -10 10 -5 0
-10 -4 -10 -10z"/>
<path d="M370 3315 c0 -19 24 -30 41 -19 9 5 7 11 -6 21 -24 17 -35 17 -35 -2z"/>
<path d="M432 3260 c0 -14 2 -19 5 -12 2 6 2 18 0 25 -3 6 -5 1 -5 -13z"/>
<path d="M1008 3160 c-16 -18 -16 -20 -1 -29 14 -8 15 -12 4 -25 -7 -9 -20
-16 -27 -16 -8 0 -14 -5 -14 -10 0 -6 7 -10 16 -8 10 2 19 -2 21 -9 5 -13 -70
-28 -87 -18 -6 4 -16 2 -23 -3 -19 -15 -88 -22 -108 -11 -15 7 -17 6 -13 -5 3
-8 -2 -16 -13 -19 -11 -3 -5 -5 13 -6 33 -1 70 -33 59 -50 -3 -7 2 -11 14 -11
12 0 21 -7 21 -15 0 -8 4 -15 9 -15 4 0 6 -10 4 -23 -3 -14 2 -29 11 -36 9 -8
16 -22 16 -32 0 -11 11 -24 25 -31 19 -9 22 -14 14 -24 -6 -8 -15 -11 -20 -9
-4 3 -13 -4 -19 -15 -9 -16 -8 -20 5 -20 19 0 21 -56 3 -63 -10 -3 -10 -7 -1
-17 9 -9 14 -8 22 9 14 25 37 27 50 4 7 -14 12 -15 24 -5 12 10 16 10 20 0 4
-8 6 -7 6 5 1 9 6 17 13 17 9 0 9 3 0 12 -17 17 -15 28 7 28 11 0 23 5 26 11
4 6 19 10 33 9 42 -3 48 0 32 13 -17 14 -50 73 -50 89 0 6 13 7 31 3 21 -5 34
-3 40 6 13 21 -9 49 -39 49 -15 0 -34 4 -42 10 -23 15 11 23 44 10 44 -16 51
-12 62 36 8 35 8 47 -1 51 -7 2 -20 19 -30 37 -16 29 -35 42 -87 59 -9 3 -22
24 -29 46 -14 47 -18 49 -41 21z m90 -130 c3 -21 2 -22 -12 -11 -19 16 -21 44
-3 39 6 -3 14 -15 15 -28z m-223 -70 c3 -5 2 -10 -4 -10 -5 0 -13 5 -16 10 -3
6 -2 10 4 10 5 0 13 -4 16 -10z m150 -80 c3 -5 -1 -10 -9 -10 -8 0 -18 5 -21
10 -3 6 1 10 9 10 8 0 18 -4 21 -10z m65 -54 c7 -33 6 -36 -15 -36 -24 0 -25
7 -16 90 2 15 24 -24 31 -54z"/>
<path d="M1100 3160 c0 -5 5 -10 10 -10 6 0 10 5 10 10 0 6 -4 10 -10 10 -5 0
-10 -4 -10 -10z"/>
<path d="M885 3100 c21 -24 26 -25 19 -6 -3 8 -13 17 -22 21 -13 5 -13 2 3
-15z"/>
<path d="M930 3100 c0 -6 7 -10 15 -10 8 0 15 2 15 4 0 2 -7 6 -15 10 -8 3
-15 1 -15 -4z"/>
<path d="M243 2984 c-4 -11 -2 -19 6 -22 7 -2 23 -16 36 -30 13 -14 27 -23 31
-20 7 8 -17 78 -27 78 -4 0 -14 3 -23 6 -10 4 -18 -1 -23 -12z"/>
<path d="M385 2980 c-3 -5 1 -10 10 -10 9 0 13 5 10 10 -3 6 -8 10 -10 10 -2
0 -7 -4 -10 -10z"/>
<path d="M315 2971 c-7 -12 4 -18 29 -17 11 1 21 7 23 14 5 14 -43 17 -52 3z"/>
<path d="M575 2800 c-3 -5 -2 -10 4 -10 5 0 13 5 16 10 3 6 2 10 -4 10 -5 0
-13 -4 -16 -10z"/>
<path d="M1179 2788 c0 -7 -2 -23 -3 -35 -2 -16 3 -23 15 -23 26 0 40 31 24
53 -14 20 -35 23 -36 5z"/>
<path d="M8843 2715 c-7 -19 -5 -20 25 -29 18 -6 22 -3 22 12 0 11 -7 23 -16
26 -22 8 -24 8 -31 -9z"/>
<path d="M0 2640 c0 -5 7 -7 15 -4 19 8 19 14 0 14 -8 0 -15 -4 -15 -10z"/>
<path d="M100 2621 c0 -19 5 -31 13 -31 17 0 16 52 0 58 -9 2 -13 -7 -13 -27z"/>
<path d="M725 2630 c-3 -5 -1 -10 4 -10 6 0 11 5 11 10 0 6 -2 10 -4 10 -3 0
-8 -4 -11 -10z"/>
<path d="M0 2607 c0 -9 6 -18 13 -20 10 -4 10 -6 0 -6 -7 -1 -13 -13 -13 -28
1 -26 1 -27 15 -9 12 16 26 18 89 17 42 -1 77 3 81 9 4 6 -16 10 -56 10 -45 0
-71 6 -95 21 -28 17 -34 18 -34 6z"/>
<path d="M415 2540 c3 -5 13 -10 21 -10 8 0 12 5 9 10 -3 6 -13 10 -21 10 -8
0 -12 -4 -9 -10z"/>
<path d="M690 2527 c0 -8 9 -22 20 -32 11 -10 18 -20 15 -23 -2 -3 0 -13 6
-23 10 -20 39 -15 39 7 0 8 5 14 10 14 6 0 10 -7 10 -15 0 -18 36 -20 46 -4 8
13 -36 50 -48 43 -5 -3 -20 -7 -34 -10 -18 -3 -25 -1 -21 8 6 18 -11 48 -28
48 -8 0 -15 -6 -15 -13z m70 -67 c0 -5 -4 -10 -10 -10 -5 0 -10 5 -10 10 0 6
5 10 10 10 6 0 10 -4 10 -10z"/>
<path d="M3394 2522 c-18 -30 -6 -51 29 -50 18 0 39 -1 47 -3 11 -3 14 3 11
26 -4 36 2 31 -42 38 -26 4 -38 1 -45 -11z"/>
<path d="M490 2439 c0 -5 5 -7 10 -4 6 3 10 8 10 11 0 2 -4 4 -10 4 -5 0 -10
-5 -10 -11z"/>
<path d="M520 2438 c0 -10 3 -19 8 -19 42 -7 62 -6 62 1 0 13 -29 20 -36 9 -3
-6 -11 -3 -20 8 -12 17 -13 17 -14 1z"/>
<path d="M632 2443 c-20 -8 6 -33 34 -33 17 0 24 6 24 20 0 20 -26 26 -58 13z"/>
<path d="M3450 2391 c0 -5 5 -13 10 -16 6 -3 10 -2 10 4 0 5 -4 13 -10 16 -5
3 -10 2 -10 -4z"/>
<path d="M96 2352 c-3 -6 -1 -14 5 -17 15 -10 25 3 12 16 -7 7 -13 7 -17 1z"/>
<path d="M0 2310 c0 -25 4 -30 24 -30 13 0 26 7 30 15 3 8 0 15 -7 15 -9 0 -8
3 1 9 11 7 10 10 -3 15 -34 13 -45 7 -45 -24z"/>
<path d="M138 2313 c7 -3 16 -2 19 1 4 3 -2 6 -13 5 -11 0 -14 -3 -6 -6z"/>
<path d="M1064 2255 c-9 -22 -5 -23 44 -13 51 11 50 13 -1 22 -29 5 -39 4 -43
-9z"/>
<path d="M825 2251 c-3 -6 -11 -9 -16 -6 -5 4 -9 1 -9 -4 0 -13 10 -14 30 -1
8 5 12 12 8 15 -3 4 -9 1 -13 -4z"/>
<path d="M1126 2202 c-3 -5 4 -23 14 -40 22 -36 56 -45 47 -12 -3 13 0 20 10
20 12 0 12 2 1 13 -17 17 -65 30 -72 19z"/>
<path d="M1230 2175 c-10 -13 -9 -15 9 -15 11 0 21 4 21 9 0 18 -18 21 -30 6z"/>
<path d="M1012 2162 l-23 -7 21 -22 c24 -26 32 -29 24 -9 -3 7 2 21 11 30 18
17 9 19 -33 8z"/>
<path d="M1083 2145 c-7 -8 -13 -19 -13 -25 0 -6 -7 -13 -16 -17 -12 -4 -13
-8 -3 -14 13 -8 69 41 69 61 0 15 -23 12 -37 -5z"/>
<path d="M1220 2086 c0 -9 5 -16 10 -16 6 0 10 4 10 9 0 6 -4 13 -10 16 -5 3
-10 -1 -10 -9z"/>
<path d="M1148 2053 c-10 -2 -18 -11 -18 -19 0 -11 7 -13 28 -8 36 9 43 14 37
25 -6 9 -18 10 -47 2z"/>
<path d="M7807 2031 c-14 -29 -14 -29 16 -35 20 -4 33 -2 39 6 4 7 3 15 -2 16
-6 2 -10 12 -10 23 0 29 -27 23 -43 -10z"/>
<path d="M1300 2019 c0 -5 5 -7 10 -4 6 3 10 8 10 11 0 2 -4 4 -10 4 -5 0 -10
-5 -10 -11z"/>
<path d="M1235 2010 c-3 -5 1 -10 9 -10 9 0 16 5 16 10 0 6 -4 10 -9 10 -6 0
-13 -4 -16 -10z"/>
<path d="M1325 1980 c-4 -6 -11 -8 -16 -5 -5 4 -9 1 -9 -4 0 -6 4 -11 9 -11 5
0 16 -3 24 -6 9 -3 16 3 20 15 5 22 -16 30 -28 11z"/>
<path d="M994 1950 c1 -30 21 -59 32 -47 6 6 -22 77 -30 77 -2 0 -3 -13 -2
-30z"/>
<path d="M1407 1937 l-28 -22 46 -1 c46 -2 57 10 33 34 -16 16 -19 15 -51 -11z"/>
<path d="M6710 1910 c0 -5 5 -10 11 -10 5 0 7 5 4 10 -3 6 -8 10 -11 10 -2 0
-4 -4 -4 -10z"/>
<path d="M1360 1880 c0 -5 5 -10 10 -10 6 0 10 5 10 10 0 6 -4 10 -10 10 -5 0
-10 -4 -10 -10z"/>
<path d="M1351 1817 c-6 -6 -11 -16 -11 -23 0 -7 -6 -15 -12 -17 -8 -3 -5 -6
5 -6 26 -1 57 17 57 33 0 19 -25 27 -39 13z"/>
<path d="M4941 1794 c0 -11 3 -14 6 -6 3 7 2 16 -1 19 -3 4 -6 -2 -5 -13z"/>
<path d="M1397 1783 c-4 -3 -7 -11 -7 -17 0 -6 5 -5 12 2 6 6 9 14 7 17 -3 3
-9 2 -12 -2z"/>
<path d="M7007 1689 c-14 -8 -16 -14 -6 -25 15 -18 35 -18 43 1 3 8 13 15 23
16 16 0 16 1 -2 9 -27 12 -37 11 -58 -1z"/>
<path d="M8008 1631 c-27 -9 -48 -22 -48 -28 0 -16 6 -16 30 -3 16 9 21 6 26
-15 7 -30 24 -23 24 10 0 17 6 25 22 27 17 2 19 5 7 14 -10 8 -27 7 -61 -5z"/>
<path d="M7939 1573 c-8 -59 -7 -64 9 -61 20 4 24 59 4 66 -6 2 -13 0 -13 -5z"/>
<path d="M8050 1525 c0 -8 7 -15 15 -15 8 0 15 7 15 15 0 8 -7 15 -15 15 -8 0
-15 -7 -15 -15z"/>
<path d="M2040 1483 c0 -4 -12 -14 -27 -20 -16 -7 -33 -21 -40 -32 -10 -16 -9
-20 9 -24 15 -4 19 -2 15 12 -3 14 1 17 20 13 13 -2 23 -1 22 4 -5 26 2 35 22
29 15 -5 20 -3 17 6 -5 15 -38 26 -38 12z"/>
<path d="M7060 1440 c0 -5 5 -10 10 -10 6 0 10 5 10 10 0 6 -4 10 -10 10 -5 0
-10 -4 -10 -10z"/>
<path d="M3058 1413 c6 -2 18 -2 25 0 6 3 1 5 -13 5 -14 0 -19 -2 -12 -5z"/>
<path d="M7161 1406 c2 -2 14 -9 26 -15 19 -10 22 -9 17 4 -4 8 -15 15 -27 15
-11 0 -18 -2 -16 -4z"/>
<path d="M1936 1375 c-3 -8 -3 -15 0 -15 3 0 12 7 20 15 13 13 13 15 1 15 -8
0 -17 -7 -21 -15z"/>
<path d="M1815 1350 c28 -12 65 -12 65 0 0 6 -19 10 -42 9 -33 0 -38 -2 -23
-9z"/>
<path d="M8020 1351 c0 -5 5 -13 10 -16 6 -3 10 -2 10 4 0 5 -4 13 -10 16 -5
3 -10 2 -10 -4z"/>
<path d="M7822 1295 c0 -16 2 -22 5 -12 2 9 2 23 0 30 -3 6 -5 -1 -5 -18z"/>
<path d="M560 1160 c0 -5 5 -10 10 -10 6 0 10 5 10 10 0 6 -4 10 -10 10 -5 0
-10 -4 -10 -10z"/>
<path d="M392 1133 c7 -8 13 -22 14 -30 4 -25 14 -27 29 -7 25 33 19 49 -20
50 -30 1 -33 -1 -23 -13z"/>
<path d="M520 1095 c-10 -12 -10 -15 4 -15 9 0 16 7 16 15 0 8 -2 15 -4 15 -2
0 -9 -7 -16 -15z"/>
<path d="M34 1038 c-4 -6 1 -17 11 -25 23 -16 35 -17 35 -2 0 5 -4 7 -10 4 -5
-3 -10 -2 -10 3 0 14 59 21 63 8 3 -6 8 -8 12 -4 4 4 4 11 0 17 -8 15 -92 14
-101 -1z"/>
<path d="M9530 981 c0 -5 16 -9 35 -8 19 1 35 5 35 9 0 4 -16 8 -35 8 -19 0
-35 -4 -35 -9z"/>
<path d="M1621 925 c-19 -11 -80 -13 -277 -11 -230 3 -293 -1 -267 -17 5 -3
74 -8 154 -11 79 -2 163 -10 187 -18 41 -12 42 -14 42 -55 l0 -43 40 0 c38 0
40 1 30 21 -9 17 -8 25 7 42 10 12 22 25 27 29 11 7 -7 12 -99 26 l-60 9 100
4 c55 2 117 3 138 4 28 0 37 4 37 18 0 20 -24 21 -59 2z"/>
<path d="M1715 910 c-3 -5 3 -10 15 -10 12 0 18 5 15 10 -3 6 -10 10 -15 10
-5 0 -12 -4 -15 -10z"/>
<path d="M1780 903 c0 -40 61 -61 74 -26 7 16 -8 33 -31 33 -6 0 -18 3 -27 6
-11 4 -16 0 -16 -13z"/>
<path d="M1913 913 c-22 -8 -14 -23 12 -23 15 0 24 -5 23 -12 -4 -16 95 -22
211 -13 61 5 80 10 68 17 -10 5 -22 6 -28 3 -6 -4 -19 1 -30 11 -18 16 -19 16
-19 -2 0 -16 -2 -17 -10 -4 -10 16 -60 22 -60 7 0 -5 -18 -7 -40 -4 -24 3 -41
1 -44 -7 -3 -8 -7 -8 -13 0 -8 10 -48 35 -55 33 -2 0 -9 -3 -15 -6z"/>
<path d="M1020 900 c-24 -8 -23 -8 8 -9 20 -1 31 3 27 9 -3 6 -7 10 -8 9 -1
-1 -13 -5 -27 -9z"/>
<path d="M2370 890 c0 -5 9 -10 20 -10 11 0 19 -3 18 -7 -2 -5 2 -9 7 -11 6
-1 11 6 13 18 3 16 -2 20 -27 20 -17 0 -31 -4 -31 -10z"/>
<path d="M1620 869 c-29 -4 -35 -7 -17 -7 28 -2 28 -4 26 -49 -2 -33 0 -48 9
-47 7 1 23 2 37 3 21 1 24 5 19 29 -6 30 15 56 51 64 34 7 -77 13 -125 7z"/>
<path d="M2450 866 c0 -9 5 -16 10 -16 6 0 10 4 10 9 0 6 -4 13 -10 16 -5 3
-10 -1 -10 -9z"/>
<path d="M2350 859 c0 -5 5 -7 10 -4 6 3 10 8 10 11 0 2 -4 4 -10 4 -5 0 -10
-5 -10 -11z"/>
<path d="M2960 860 c0 -5 5 -10 11 -10 5 0 7 5 4 10 -3 6 -8 10 -11 10 -2 0
-4 -4 -4 -10z"/>
<path d="M668 775 c-7 -8 -128 -17 -238 -20 -178 -3 -180 -3 -180 -22 0 -15
-2 -16 -10 -3 -7 12 -34 15 -125 15 l-115 0 0 -51 0 -51 119 -13 c96 -10 165
-10 362 0 134 6 247 14 250 15 3 2 134 11 290 20 157 8 323 20 370 25 46 5 89
10 94 10 6 0 3 4 -4 9 -8 5 -22 6 -30 2 -9 -5 -56 -4 -106 0 -49 4 -124 10
-167 12 -42 3 -82 9 -90 13 -15 10 -29 12 -117 16 -40 2 -66 8 -69 16 -4 14
-53 16 -68 3 -5 -5 -30 -6 -59 -1 -59 10 -100 12 -107 5z"/>
<path d="M2176 762 c-69 -13 -90 -14 -94 -4 -2 7 -10 12 -18 12 -9 0 -12 -4
-9 -10 3 -5 -3 -10 -13 -10 -11 0 -22 -7 -26 -15 -7 -20 39 -20 170 0 54 8
141 15 192 15 56 0 92 4 92 10 0 6 -17 10 -37 10 -21 0 -67 1 -103 4 -37 2
-103 -3 -154 -12z"/>
<path d="M8215 739 c4 -6 13 -8 21 -5 7 3 16 1 19 -5 7 -11 25 -3 25 12 0 5
-16 9 -36 9 -22 0 -33 -4 -29 -11z"/>
<path d="M8461 730 c-10 -5 -8 -9 4 -14 23 -8 35 -8 35 3 0 13 -25 20 -39 11z"/>
<path d="M9018 693 c7 -3 16 -2 19 1 4 3 -2 6 -13 5 -11 0 -14 -3 -6 -6z"/>
<path d="M9485 680 c3 -5 13 -10 21 -10 8 0 14 5 14 10 0 6 -9 10 -21 10 -11
0 -17 -4 -14 -10z"/>
<path d="M1378 595 c-2 -2 -34 -5 -73 -8 -62 -4 -107 -15 -138 -34 -6 -4 -8 0
-4 10 9 24 -10 31 -35 13 -25 -18 -42 -21 -33 -6 3 6 0 10 -7 10 -7 0 -19 -9
-26 -20 -12 -20 -32 -19 -32 1 0 6 5 7 12 3 7 -5 8 -3 3 6 -10 16 -127 9 -133
-8 -2 -7 -8 -12 -13 -12 -6 0 -7 5 -4 10 4 6 -13 10 -44 10 -28 0 -51 -3 -51
-7 0 -5 -24 -8 -52 -9 -132 -2 -164 -5 -140 -14 12 -5 22 -16 22 -25 0 -17 31
-20 47 -4 14 14 56 2 50 -14 -2 -7 -21 -11 -43 -10 -26 2 -34 0 -25 -6 11 -7
10 -11 -7 -20 -21 -11 -42 2 -22 14 6 4 8 11 5 16 -8 11 -52 12 -59 0 -3 -4
-26 -14 -51 -21 -25 -7 -48 -16 -50 -21 -3 -4 -24 -10 -48 -14 -38 -7 -111
-31 -162 -55 -39 -18 -151 -44 -207 -48 l-58 -4 0 -40 c0 -33 2 -38 14 -29 13
11 46 6 46 -8 -1 -3 -7 -17 -14 -30 -8 -15 -16 -20 -20 -12 -10 15 -26 14 -26
-2 0 -7 10 -18 21 -26 17 -10 23 -10 29 0 5 6 15 9 23 6 8 -3 20 0 26 6 8 8
11 7 11 -6 0 -10 -8 -17 -20 -17 -11 0 -20 -5 -20 -11 0 -7 -14 -10 -35 -7
-28 3 -35 1 -35 -13 0 -10 6 -20 13 -23 9 -5 9 -7 0 -12 -7 -3 -13 -17 -13
-30 0 -19 5 -24 24 -24 13 0 29 6 35 14 7 8 21 12 31 9 11 -3 20 -1 20 5 0 11
45 22 58 13 13 -9 24 -43 11 -35 -6 3 -22 1 -35 -7 -17 -9 -28 -9 -35 -2 -7 7
-22 4 -47 -9 -20 -10 -42 -16 -49 -13 -7 2 -13 -2 -13 -9 0 -10 31 -14 135
-15 117 -2 135 0 135 13 0 9 -6 16 -14 16 -9 0 -12 7 -9 19 6 22 29 34 46 24
6 -4 8 0 4 10 -9 25 18 41 37 22 9 -9 21 -13 28 -9 9 6 9 3 -1 -9 -8 -10 -9
-17 -3 -17 6 0 18 -13 28 -28 11 -19 24 -28 38 -27 11 2 20 8 19 14 -3 11 9
15 34 12 7 -1 13 6 13 15 0 10 -5 14 -14 11 -9 -4 -17 2 -21 15 -8 24 -22 13
-27 -22 l-4 -25 -8 27 c-6 20 -4 32 7 43 20 19 23 19 47 -5 11 -11 26 -20 34
-20 9 0 12 -7 9 -20 -3 -11 -9 -20 -13 -20 -4 0 -10 -9 -13 -20 -5 -21 16 -29
28 -10 8 13 45 13 45 1 0 -5 124 -10 293 -10 281 -2 294 -1 317 19 13 11 29
20 37 20 7 0 13 8 13 17 0 9 7 25 17 35 18 20 10 39 -9 20 -14 -14 -38 -16
-38 -3 0 4 13 25 29 45 17 21 27 44 24 52 -4 10 0 12 11 8 24 -9 66 33 66 66
0 14 5 31 12 38 14 14 11 17 -21 27 -21 6 -23 5 -18 -14 3 -11 1 -24 -4 -27
-5 -3 -9 0 -9 7 0 7 -3 9 -7 5 -5 -4 0 -14 10 -21 10 -7 14 -15 10 -18 -15
-10 -34 9 -35 34 -2 31 -16 49 -39 49 -24 0 -25 16 -2 24 11 5 22 1 29 -9 8
-10 14 -12 19 -6 4 7 22 9 44 5 21 -3 47 -1 58 4 11 6 25 7 33 2 12 -7 11 -12
-4 -29 -22 -24 -10 -27 18 -6 11 9 16 20 12 31 -4 12 -2 15 9 11 8 -4 17 -2
20 3 4 6 2 10 -4 10 -6 0 -8 6 -5 14 8 21 -17 32 -31 13 -21 -29 -37 -21 -30
16 9 41 14 46 28 26 15 -20 45 -31 52 -19 3 5 13 6 21 3 16 -6 34 12 34 35 0
18 -17 15 -38 -8 -16 -17 -21 -18 -30 -7 -9 10 -7 19 9 35 23 25 69 30 69 7 0
-27 18 -16 25 15 9 41 8 44 -23 53 -28 8 -148 17 -154 12z m90 -29 c-10 -7
-18 -17 -18 -21 0 -18 -53 -56 -69 -50 -14 6 -13 9 6 17 13 6 25 18 28 28 3 9
17 21 33 27 37 15 40 15 20 -1z m-458 -21 c-7 -8 -17 -15 -22 -15 -6 0 -5 7 2
15 7 8 17 15 22 15 6 0 5 -7 -2 -15z m350 -31 c0 -8 -9 -14 -21 -14 -23 0 -58
-36 -59 -60 0 -9 -6 -4 -13 10 -10 20 -21 25 -48 25 -31 0 -35 3 -31 23 4 22
42 33 42 11 0 -7 7 -8 18 -4 9 4 27 7 38 7 12 -1 27 5 34 13 13 16 40 9 40
-11z m-470 -4 c0 -5 -4 -10 -10 -10 -5 0 -10 5 -10 10 0 6 5 10 10 10 6 0 10
-4 10 -10z m244 -25 c-5 -12 -10 -13 -20 -4 -19 15 -18 19 6 19 13 0 18 -5 14
-15z m-56 -17 c5 -24 -24 -23 -37 1 -9 15 -7 18 12 17 12 -1 23 -9 25 -18z
m-508 -20 c-25 -9 -36 -5 -26 10 3 6 16 8 28 4 l22 -5 -24 -9z m378 6 c14 -15
14 -16 -3 -13 -10 2 -20 10 -23 17 -5 17 6 15 26 -4z m400 -14 c7 -11 9 -20 4
-20 -4 0 -13 9 -20 20 -7 11 -9 20 -4 20 4 0 13 -9 20 -20z m-488 0 c0 -5 -4
-10 -9 -10 -6 0 -13 5 -16 10 -3 6 1 10 9 10 9 0 16 -4 16 -10z m-82 -11 c-2
-6 -8 -10 -13 -10 -5 0 -11 4 -13 10 -2 6 4 11 13 11 9 0 15 -5 13 -11z m160
-11 c-3 -7 -13 -15 -24 -17 -16 -3 -17 -1 -5 13 16 19 34 21 29 4z m-290 -15
c2 -8 -6 -13 -22 -13 -25 0 -33 10 -19 24 10 10 36 3 41 -11z m449 3 c0 -8 -6
-12 -14 -9 -7 3 -13 9 -13 14 0 5 6 9 13 9 8 0 14 -6 14 -14z m-419 -26 c-7
-11 -18 -22 -26 -25 -8 -3 -6 4 5 20 21 29 38 34 21 5z m-212 -11 c3 -6 2 -15
-4 -21 -6 -6 -11 -2 -15 11 -5 22 7 29 19 10z m167 -42 c3 -9 13 -17 22 -17 8
0 15 -4 15 -9 0 -6 -9 -9 -20 -8 -11 1 -20 5 -20 11 0 5 -6 14 -14 20 -8 6
-17 22 -21 34 -7 24 -7 24 12 5 11 -11 22 -27 26 -36z m487 43 c0 -5 -4 -10
-10 -10 -5 0 -10 5 -10 10 0 6 5 10 10 10 6 0 10 -4 10 -10z m-140 -10 c0 -5
-6 -10 -14 -10 -8 0 -18 5 -21 10 -3 6 3 10 14 10 12 0 21 -4 21 -10z m66 -14
c14 4 24 2 24 -5 0 -6 -3 -11 -7 -12 -5 0 -23 -2 -40 -3 -35 -4 -43 10 -20 33
10 10 13 9 15 -3 3 -12 10 -14 28 -10z m-146 5 c0 -6 -4 -13 -10 -16 -5 -3
-10 1 -10 9 0 9 5 16 10 16 6 0 10 -4 10 -9z m290 -1 c0 -5 -5 -10 -11 -10 -5
0 -7 5 -4 10 3 6 8 10 11 10 2 0 4 -4 4 -10z m-790 -14 c19 -2 40 -4 45 -5 6
-1 2 -6 -8 -12 -13 -8 -22 -7 -32 1 -10 9 -16 7 -24 -7 -6 -10 -11 -13 -11 -6
0 6 -9 15 -20 18 -11 4 -18 10 -15 15 3 5 11 7 18 5 7 -3 28 -7 47 -9z m724
-7 c-3 -5 -10 -7 -15 -3 -5 3 -7 10 -3 15 3 5 10 7 15 3 5 -3 7 -10 3 -15z
m-819 -10 c4 -11 4 -23 1 -26 -3 -4 -6 1 -6 10 0 21 -29 22 -36 2 -7 -17 -30
-20 -39 -4 -4 6 2 13 14 16 12 3 21 9 21 14 0 18 39 8 45 -12z m521 -6 c-10
-10 -19 5 -10 18 6 11 8 11 12 0 2 -7 1 -15 -2 -18z m122 15 c-3 -7 -11 -13
-18 -13 -7 0 -15 6 -17 13 -3 7 4 12 17 12 13 0 20 -5 18 -12z m-218 -14 c0
-14 -3 -14 -15 -4 -8 7 -15 14 -15 16 0 2 7 4 15 4 8 0 15 -7 15 -16z m-563
-36 c-3 -8 -6 -5 -6 6 -1 11 2 17 5 13 3 -3 4 -12 1 -19z m303 -3 c0 -8 -4
-15 -10 -15 -5 0 -7 7 -4 15 4 8 8 15 10 15 2 0 4 -7 4 -15z m110 11 c0 -11
-19 -15 -25 -6 -3 5 1 10 9 10 9 0 16 -2 16 -4z m333 -17 c-7 -24 14 -41 39
-33 10 3 28 -2 40 -10 21 -15 20 -15 -15 -9 -45 7 -50 -13 -14 -50 22 -21 54
-27 41 -6 -3 5 5 9 18 8 13 0 17 -3 11 -6 -7 -2 -13 -15 -13 -28 0 -15 -7 -25
-22 -28 -29 -8 -40 0 -33 24 5 14 1 19 -14 19 -14 0 -19 5 -15 15 4 8 1 15 -5
15 -6 0 -11 6 -11 14 0 7 -6 26 -14 41 -14 27 -12 55 4 55 5 0 6 -9 3 -21z
m217 11 c0 -5 -2 -10 -4 -10 -3 0 -8 5 -11 10 -3 6 -1 10 4 10 6 0 11 -4 11
-10z m-350 -15 c0 -14 11 -19 38 -16 7 1 12 -2 11 -6 -5 -28 3 -35 31 -31 28
4 30 2 30 -28 0 -40 -9 -66 -21 -58 -5 3 -6 11 -2 17 9 15 16 57 9 57 -3 0
-14 -10 -25 -21 -24 -26 -52 -19 -44 11 4 16 -1 23 -26 33 -33 12 -38 21 -20
33 8 4 7 9 -2 15 -11 7 -10 9 4 9 9 0 17 -7 17 -15z m-650 -8 c0 -16 -47 -43
-57 -33 -4 4 -1 11 7 16 13 9 13 10 0 11 -8 0 -4 5 10 9 36 12 40 11 40 -3z
m95 -7 c-3 -5 3 -10 14 -10 12 0 21 -4 21 -8 0 -4 -15 -6 -34 -4 -25 3 -33 8
-29 18 3 8 12 14 20 14 8 0 11 -4 8 -10z m816 -3 c-1 -12 -15 -9 -19 4 -3 6 1
10 8 8 6 -3 11 -8 11 -12z m-446 -7 c-8 -13 1 -13 26 0 15 8 19 7 19 -5 0 -17
16 -20 25 -5 3 6 11 10 18 10 8 0 8 -3 -1 -12 -27 -27 -7 -68 25 -50 10 6 27
6 45 0 30 -11 35 -22 16 -34 -18 -11 21 -23 57 -17 21 3 26 2 16 -5 -7 -5 -11
-14 -7 -20 10 -17 -12 -24 -36 -11 -15 8 -23 9 -26 1 -2 -6 -10 -8 -18 -5 -9
3 -14 -2 -14 -16 0 -28 -36 -28 -45 -1 -8 26 1 39 24 33 11 -3 21 2 24 11 7
17 -8 30 -23 21 -5 -3 -10 1 -10 10 0 12 -4 14 -19 6 -20 -11 -33 4 -35 39 -1
8 -11 16 -23 18 -18 3 -23 -2 -23 -20 -1 -22 -1 -22 -15 -4 -14 18 -15 18 -40
2 -15 -10 -29 -15 -33 -12 -6 7 18 57 33 68 15 11 47 9 40 -2z m550 1 c3 -5 1
-12 -5 -16 -5 -3 -10 -16 -10 -27 0 -29 -6 -20 -13 20 -5 24 -3 32 8 32 7 0
16 -4 20 -9z m-670 -31 c25 -16 27 -20 10 -20 -20 1 -55 22 -55 34 0 11 14 6
45 -14z m-265 -10 c0 -5 -4 -10 -10 -10 -5 0 -10 5 -10 10 0 6 5 10 10 10 6 0
10 -4 10 -10z m193 -4 c4 -10 1 -13 -9 -9 -15 6 -19 23 -5 23 5 0 11 -7 14
-14z m-118 -15 c-3 -11 0 -21 9 -24 19 -8 56 3 56 16 0 8 3 8 11 0 6 -6 18 -9
25 -6 8 3 14 1 14 -5 0 -6 -6 -12 -12 -15 -9 -3 -7 -10 7 -21 11 -8 15 -16 8
-16 -6 0 -15 5 -19 11 -4 7 -10 7 -16 1 -6 -6 -26 -3 -56 8 -37 14 -48 23 -50
44 -2 19 1 26 13 26 11 0 15 -6 10 -19z m821 -6 c4 -8 3 -23 0 -32 -6 -15 -8
-15 -22 -2 -8 9 -12 23 -8 32 8 21 23 22 30 2z m99 5 c-3 -5 -10 -10 -16 -10
-5 0 -9 5 -9 10 0 6 7 10 16 10 8 0 12 -4 9 -10z m-675 -29 c0 -12 -20 -25
-27 -18 -7 7 6 27 18 27 5 0 9 -4 9 -9z m-280 -21 c0 -5 -9 -10 -20 -10 -11 0
-20 5 -20 10 0 6 9 10 20 10 11 0 20 -4 20 -10z m378 -21 c2 -12 -4 -16 -26
-15 -23 1 -28 5 -24 19 6 22 45 19 50 -4z m266 -20 c-3 -5 -10 -7 -15 -3 -5 3
-7 10 -3 15 3 5 10 7 15 3 5 -3 7 -10 3 -15z m-219 -20 c-4 -5 -13 -9 -22 -9
-13 0 -13 3 -3 15 13 15 35 11 25 -6z m-65 -24 c0 -8 -4 -15 -9 -15 -13 0 -22
16 -14 24 11 11 23 6 23 -9z m182 3 c-9 -9 -15 -9 -24 0 -9 9 -7 12 12 12 19
0 21 -3 12 -12z"/>
<path d="M1625 570 c4 -6 11 -8 16 -5 14 9 11 15 -7 15 -8 0 -12 -5 -9 -10z"/>
<path d="M1590 563 c0 -5 4 -15 10 -23 11 -18 25 -7 17 15 -6 15 -27 21 -27 8z"/>
<path d="M2233 240 c0 -30 2 -43 4 -27 2 15 2 39 0 55 -2 15 -4 2 -4 -28z"/>
<path d="M2471 174 c0 -11 3 -14 6 -6 3 7 2 16 -1 19 -3 4 -6 -2 -5 -13z"/>
<path d="M1447 73 c-12 -12 -7 -22 8 -17 8 4 15 10 15 15 0 11 -14 12 -23 2z"/>
<path d="M2203 45 c0 -22 2 -30 4 -17 2 12 2 30 0 40 -3 9 -5 -1 -4 -23z"/>
<path d="M2231 43 c-1 -24 4 -43 9 -43 12 0 12 24 0 60 -7 21 -8 19 -9 -17z"/>
<path d="M3030 68 c0 -2 11 -19 25 -38 14 -19 25 -27 25 -19 0 8 -4 19 -8 24
-9 13 -42 39 -42 33z"/>
<path d="M1966 34 c-4 -14 -5 -28 -3 -31 3 -2 8 8 11 23 4 14 5 28 3 31 -3 2
-8 -8 -11 -23z"/>
<path d="M1248 43 c7 -3 16 -2 19 1 4 3 -2 6 -13 5 -11 0 -14 -3 -6 -6z"/>
<path d="M2270 30 c0 -5 5 -10 10 -10 6 0 10 5 10 10 0 6 -4 10 -10 10 -5 0
-10 -4 -10 -10z"/>
<path d="M337 24 c-13 -13 -7 -24 14 -24 11 0 19 5 17 12 -5 14 -22 21 -31 12z"/>
<path d="M1995 19 c-4 -6 -5 -12 -2 -15 2 -3 7 2 10 11 7 17 1 20 -8 4z"/>
<path d="M295 10 c-3 -5 1 -10 10 -10 9 0 13 5 10 10 -3 6 -8 10 -10 10 -2 0
-7 -4 -10 -10z"/>
</g>
</svg>
