<?xml version="1.0" standalone="no"?>
<!DOCTYPE svg PUBLIC "-//W3C//DTD SVG 20010904//EN"
 "http://www.w3.org/TR/2001/REC-SVG-20010904/DTD/svg10.dtd">
<svg version="1.0" xmlns="http://www.w3.org/2000/svg"
 width="747.000000pt" height="427.000000pt" viewBox="0 0 747.000000 427.000000"
 preserveAspectRatio="xMidYMid meet">

<g transform="translate(0.000000,427.000000) scale(0.100000,-0.100000)"
fill="#000000" stroke="none">
<path d="M0 4016 l0 -254 28 -10 c19 -6 35 -6 46 0 26 15 65 1 76 -27 6 -15
20 -27 37 -30 64 -14 60 -16 56 39 -5 75 -22 181 -43 266 -10 41 -21 106 -24
143 -4 37 -9 81 -13 97 l-6 30 -78 0 -79 0 0 -254z"/>
<path d="M756 4232 c8 -53 -30 -247 -82 -412 -17 -54 -45 -234 -41 -272 1 -15
15 -37 31 -51 22 -19 28 -31 24 -52 -7 -33 14 -55 51 -55 20 0 38 -12 64 -40
19 -22 45 -40 56 -40 28 0 45 -34 31 -61 -9 -16 -8 -24 4 -38 9 -10 16 -22 16
-28 0 -6 9 -22 21 -37 16 -20 20 -35 15 -59 -4 -18 -8 -59 -9 -92 -2 -52 -5
-60 -22 -61 -11 0 -37 -1 -57 -2 -36 -2 -38 -4 -38 -35 0 -18 -9 -50 -20 -72
-11 -21 -19 -39 -17 -40 1 -1 46 -6 100 -12 96 -10 138 -27 123 -51 -3 -6 -41
-11 -82 -11 -42 0 -79 -3 -82 -6 -3 -3 9 -20 26 -38 18 -18 32 -37 32 -43 0
-6 13 -31 30 -57 26 -42 60 -169 60 -227 0 -21 -47 -50 -110 -69 -25 -7 -57
-22 -72 -32 -14 -11 -40 -22 -57 -25 -17 -4 -31 -10 -31 -15 0 -5 -10 -9 -23
-9 -13 0 -32 -7 -43 -15 -10 -8 -28 -15 -39 -15 -11 0 -29 -6 -40 -14 -35 -23
-75 -29 -82 -10 -3 8 -9 12 -12 7 -7 -10 -71 -37 -121 -52 -69 -20 -251 -18
-272 2 -7 8 -30 16 -51 20 l-37 6 0 -803 0 -803 23 -11 c12 -6 51 -23 87 -38
73 -29 67 -26 278 -118 84 -36 159 -66 167 -66 8 0 17 -4 20 -10 3 -5 24 -14
46 -20 38 -10 232 -95 437 -191 46 -21 90 -39 97 -39 8 0 17 -4 20 -10 4 -7
220 -10 618 -9 517 0 607 2 582 14 -189 83 -253 107 -301 112 -60 6 -66 15
-29 39 32 21 120 13 220 -21 39 -13 100 -27 137 -30 56 -6 75 -13 113 -42 25
-20 45 -39 45 -43 0 -29 77 -30 1402 -28 l1347 3 -16 32 c-8 18 -26 44 -39 58
-13 14 -24 30 -24 34 0 4 -9 18 -20 31 -22 25 -14 40 21 40 9 0 22 7 29 15 7
8 16 13 20 10 4 -2 15 4 25 15 10 11 24 20 32 20 7 0 25 7 39 17 14 9 45 16
69 16 36 0 52 -7 97 -44 29 -24 55 -46 58 -49 3 -3 25 -21 50 -40 43 -33 111
-102 138 -141 12 -18 36 -19 473 -19 401 0 459 2 459 15 0 8 6 16 13 16 6 1
28 3 47 4 19 2 49 6 67 10 26 6 35 3 54 -19 l23 -26 273 0 273 0 0 253 0 252
-73 29 c-39 15 -90 40 -112 54 -85 55 -127 72 -188 77 -103 9 -141 24 -209 80
-34 29 -108 82 -163 119 -55 37 -125 92 -155 121 -61 58 -88 75 -140 86 -59
12 -220 69 -310 109 -47 21 -101 43 -120 49 -19 6 -49 24 -66 39 -85 74 -137
101 -277 143 -37 11 -95 37 -130 59 -34 21 -75 42 -92 46 -16 4 -44 22 -61 40
-27 29 -36 33 -63 28 -31 -6 -31 -6 -21 21 14 36 4 48 -33 41 -29 -6 -29 -5
-14 12 35 39 14 102 -33 102 -17 0 -30 5 -30 11 0 6 -8 8 -19 4 -11 -3 -22 -1
-26 5 -3 5 -15 10 -26 10 -10 0 -19 4 -19 8 0 9 172 32 238 32 35 0 42 3 42
19 0 16 -11 22 -57 31 -113 21 -129 28 -164 73 -32 43 -148 126 -204 147 -16
6 -44 25 -62 42 l-31 30 -22 -22 c-16 -16 -20 -28 -15 -48 5 -22 4 -24 -9 -13
-8 7 -13 22 -10 36 3 18 -1 25 -18 30 -35 10 -88 39 -88 48 0 4 16 5 35 1 20
-3 35 -2 35 3 0 6 25 11 56 12 46 1 59 -2 70 -18 8 -11 28 -22 44 -26 17 -4
30 -10 30 -14 0 -9 63 -46 73 -43 5 1 6 -2 3 -7 -4 -5 -2 -12 4 -16 5 -3 10
-3 11 2 0 4 3 20 5 35 3 19 -2 34 -17 49 -11 11 -18 23 -15 26 7 7 46 -26 46
-39 0 -5 7 -16 15 -24 8 -9 15 -20 15 -25 0 -5 -7 -9 -15 -9 -29 0 -15 -17 44
-54 65 -40 74 -42 90 -23 8 10 6 19 -9 35 -29 31 -25 42 11 32 43 -13 66 -36
66 -66 0 -23 32 -64 49 -64 13 0 54 -51 54 -66 0 -9 5 -14 12 -12 8 3 11 23 9
59 -4 91 -82 196 -159 216 -18 4 -29 -1 -46 -21 -15 -19 -27 -24 -43 -20 -13
4 -23 8 -23 10 0 3 11 27 25 55 14 27 23 53 21 58 -3 4 -28 3 -57 -3 -44 -9
-53 -8 -64 7 -9 12 -27 17 -67 17 -36 0 -60 5 -67 14 -7 8 -30 17 -52 21 -38
7 -40 9 -38 38 4 56 -1 88 -11 82 -6 -3 -10 -1 -10 4 0 17 -51 12 -100 -10
-24 -11 -55 -19 -69 -17 -13 2 -26 -3 -28 -10 -3 -7 1 -10 11 -6 24 9 20 -3
-13 -36 -29 -30 -50 -35 -86 -20 -18 7 -18 9 10 20 17 6 41 25 53 41 l24 29
-24 20 c-17 15 -36 19 -73 18 -27 0 -60 2 -72 6 -16 5 -23 3 -23 -6 0 -28 17
-40 47 -34 35 8 50 -13 33 -45 -6 -11 -10 -27 -8 -37 2 -13 -3 -16 -22 -14
-42 5 -80 24 -80 39 0 8 -5 11 -11 7 -7 -4 -10 3 -9 17 5 52 0 81 -12 76 -7
-2 -12 -11 -10 -20 1 -8 -2 -18 -8 -22 -5 -3 -10 -15 -10 -26 0 -24 -5 -24
-55 0 -85 40 -168 61 -206 52 -52 -12 -74 -31 -74 -65 0 -30 18 -46 30 -27 3
6 0 12 -7 12 -7 1 1 4 17 8 21 4 31 13 33 28 5 33 48 39 72 11 11 -13 19 -17
20 -10 0 18 23 15 47 -8 12 -10 34 -22 49 -26 l27 -7 -53 -48 c-29 -26 -50
-51 -47 -56 3 -4 31 -21 63 -38 31 -16 59 -38 62 -47 6 -25 21 -22 34 7 6 14
15 25 20 25 5 0 7 9 3 19 -9 29 9 33 39 10 22 -17 26 -18 26 -5 0 23 49 44 60
27 4 -8 6 -21 5 -30 -2 -9 -4 -21 -4 -28 -1 -9 -9 -9 -32 -1 -27 9 -33 8 -43
-8 -19 -32 -25 -74 -11 -74 7 0 18 -7 25 -15 16 -20 34 -19 26 1 -4 12 0 15
17 12 17 -2 24 -12 31 -47 8 -38 14 -46 47 -59 48 -19 53 -32 24 -68 -25 -31
-23 -32 -40 22 -4 12 -14 15 -40 12 -19 -2 -35 0 -35 5 0 5 -9 7 -21 4 -15 -4
-22 1 -29 19 -9 23 -30 34 -30 15 0 -5 -9 -11 -20 -14 -11 -3 -20 -9 -20 -14
0 -9 65 -34 97 -36 11 -1 19 -6 16 -10 -2 -4 6 -6 19 -4 12 2 17 2 11 0 -18
-6 -16 -22 2 -29 8 -4 15 -12 15 -19 0 -23 -90 -5 -139 29 -61 42 -82 67 -69
84 8 9 4 12 -14 12 -13 0 -33 7 -44 15 -10 8 -29 15 -42 15 -13 0 -30 7 -38
15 -8 8 -21 12 -29 9 -11 -5 -11 1 1 41 12 40 12 49 0 61 -23 22 -44 17 -61
-16 -18 -34 -22 -36 -53 -14 -26 18 -29 44 -4 44 14 0 15 2 2 10 -20 13 -43
13 -35 0 6 -10 -17 -14 -27 -4 -11 10 4 45 23 55 11 5 18 6 17 2 -3 -8 5 -13
23 -13 5 0 7 4 4 10 -3 5 0 7 9 4 10 -4 20 5 31 26 19 36 13 53 -7 21 -17 -27
-32 -27 -51 3 -23 35 -146 80 -195 72 -27 -5 -33 -4 -22 3 8 6 11 11 5 11 -9
1 42 25 107 51 16 6 25 15 22 20 -3 5 1 6 9 3 8 -3 18 -1 22 5 3 6 16 9 28 6
12 -2 36 1 52 9 l30 13 -27 13 c-16 7 -28 20 -28 28 0 9 -3 12 -6 9 -4 -3 -16
0 -28 8 -22 16 -40 20 -33 8 3 -5 -11 -8 -31 -9 -21 0 -38 -6 -41 -15 -2 -7
-17 -27 -33 -42 -15 -16 -28 -30 -28 -33 0 -2 15 -4 33 -5 l32 -1 -30 -13
c-96 -44 -119 34 -26 86 23 12 41 26 41 31 0 5 -18 -3 -39 -18 -22 -14 -48
-27 -58 -28 -10 -1 -24 -17 -32 -34 -17 -37 -26 -40 -34 -12 -3 11 -1 20 4 20
6 0 17 17 26 38 8 20 22 44 30 54 24 27 -1 29 -51 4 -38 -19 -48 -21 -53 -10
-7 19 -43 18 -43 -1 0 -9 -7 -18 -15 -21 -8 -4 -15 -12 -15 -20 0 -20 -17 -17
-40 6 -24 24 -17 44 12 34 20 -6 41 12 58 52 4 11 26 29 47 39 21 10 40 21 43
24 22 27 93 41 105 21 4 -6 -1 -7 -11 -3 -13 5 -16 3 -11 -10 3 -8 1 -18 -6
-20 -7 -2 -9 -7 -6 -11 4 -4 22 2 40 13 19 12 44 21 57 21 12 0 22 6 22 14 0
7 7 20 16 27 9 7 20 23 24 35 12 31 116 47 142 21 7 -7 25 -21 40 -31 25 -17
27 -22 26 -84 0 -37 -6 -75 -12 -85 -19 -30 4 -52 50 -49 40 3 77 3 117 1 38
-1 101 6 115 14 6 5 12 4 12 -1 0 -5 19 -12 42 -16 23 -4 71 -21 106 -37 35
-17 70 -28 77 -25 8 3 23 -7 34 -22 l19 -26 54 22 c29 12 62 22 72 22 19 0 76
36 76 49 0 7 -176 81 -193 81 -3 0 -35 14 -69 30 -34 17 -70 30 -79 30 -10 0
-42 11 -72 23 -29 13 -69 27 -90 31 -20 4 -104 29 -185 56 -222 74 -503 145
-530 135 -8 -3 -16 3 -19 15 -6 23 -7 24 -33 8 -27 -17 -35 -4 -14 27 13 20
23 25 40 21 18 -5 27 0 40 19 13 19 19 23 25 13 6 -9 12 -8 27 5 10 9 23 17
29 17 6 0 13 7 17 15 3 8 1 15 -4 15 -6 0 -10 -4 -10 -10 0 -5 -11 -10 -25
-10 -31 0 -33 25 -4 40 15 8 24 8 34 0 15 -13 85 11 85 29 0 6 9 11 20 11 37
0 115 32 137 56 25 27 86 34 100 11 12 -21 51 -27 64 -11 15 18 53 18 115 -1
27 -8 86 -15 132 -15 51 0 97 -6 119 -15 26 -11 39 -12 49 -4 16 13 54 2 54
-16 0 -10 9 -11 37 -5 48 11 91 2 104 -22 9 -16 19 -19 62 -16 45 3 52 0 51
-14 -2 -22 0 -22 31 -2 22 14 30 15 57 3 l32 -13 -33 -9 c-27 -7 -31 -10 -20
-23 9 -12 30 -13 101 -9 74 5 94 3 118 -12 17 -9 30 -22 30 -29 0 -7 27 -14
68 -17 55 -5 70 -11 87 -32 16 -19 263 -155 282 -155 1 0 3 7 3 15 0 34 52 9
56 -27 1 -12 3 -26 3 -30 1 -4 8 -5 16 -2 20 8 81 -46 77 -68 -2 -9 -11 -19
-20 -21 -11 -3 -9 -5 7 -6 14 0 33 -9 43 -18 25 -23 48 -3 27 24 -10 12 0 9
33 -10 26 -15 55 -27 66 -27 11 0 32 -13 45 -30 14 -16 30 -30 36 -30 5 0 17
-10 26 -22 8 -13 21 -23 27 -23 7 0 26 -20 42 -45 17 -24 45 -57 63 -73 18
-16 33 -36 33 -46 1 -19 23 -51 36 -51 27 -1 84 -73 84 -105 0 -12 7 -45 15
-73 13 -42 21 -53 43 -58 15 -4 41 -20 58 -35 18 -18 45 -31 66 -34 20 -3 62
-18 94 -35 40 -20 73 -30 104 -30 33 0 67 -11 124 -40 43 -22 87 -40 97 -40
16 0 83 -19 129 -37 8 -3 31 -7 50 -10 19 -2 82 -20 140 -40 58 -20 122 -39
143 -43 l37 -7 0 1283 0 1284 -2176 0 c-1197 0 -2174 -3 -2172 -7 37 -72 40
-88 28 -138 -13 -53 -41 -112 -71 -155 -12 -17 -21 -59 -28 -127 -12 -113 -23
-147 -55 -160 -30 -13 -27 -14 -167 47 -47 21 -83 30 -121 30 -71 0 -100 29
-124 119 -18 73 -11 129 32 259 13 40 24 86 24 102 l0 30 -320 0 -319 0 4 -75
c4 -63 1 -85 -17 -127 -19 -45 -20 -54 -8 -82 7 -17 15 -54 17 -82 4 -46 2
-53 -21 -72 -27 -21 -58 -20 -86 3 -15 12 -86 46 -167 80 -51 21 -87 66 -97
118 -6 33 -3 41 21 66 60 60 90 64 170 21 31 -17 60 -27 64 -23 3 5 20 28 37
52 29 39 30 45 18 70 -7 14 -11 32 -9 39 4 9 -118 12 -586 12 l-591 0 6 -38z
m733 -17 c33 -38 45 -69 39 -106 -3 -23 -6 -24 -68 -21 -94 4 -120 17 -120 57
0 40 9 65 22 65 5 0 21 9 35 20 36 28 57 25 92 -15z m-174 -65 c9 -14 -13 -50
-31 -50 -21 0 -28 26 -12 44 15 18 34 20 43 6z m-135 -395 c0 -39 -33 -79 -79
-96 -35 -14 -45 1 -32 47 13 48 48 83 84 83 24 1 27 -2 27 -34z m599 -310 c6
-3 8 -12 5 -19 -7 -18 14 -30 29 -17 7 5 28 10 47 10 19 0 44 1 55 1 20 1 86
-6 155 -15 19 -3 67 -9 105 -14 270 -35 320 -45 560 -115 50 -14 108 -31 130
-37 83 -23 232 -72 294 -96 45 -18 75 -24 102 -20 37 5 61 -6 71 -32 5 -15
106 -61 133 -61 17 0 29 -8 37 -25 6 -13 28 -36 49 -51 22 -15 39 -31 39 -36
0 -6 -10 -24 -22 -41 l-22 -30 27 -50 c19 -36 24 -54 17 -67 -6 -11 -6 -30 0
-51 6 -19 10 -37 10 -41 0 -18 -30 -6 -61 24 -58 53 -121 55 -191 6 -13 -10
-25 -10 -52 0 -20 7 -82 24 -138 38 -57 13 -150 40 -208 59 -58 18 -132 41
-165 51 -33 9 -71 25 -84 35 -14 12 -32 17 -46 13 -13 -3 -81 8 -151 25 -71
17 -178 40 -239 52 -60 11 -155 32 -209 45 -63 16 -137 27 -205 29 -58 2 -146
9 -196 15 -49 6 -109 13 -132 16 -41 5 -42 5 -31 35 7 22 7 34 0 41 -17 17
-42 -9 -42 -44 l0 -29 -72 6 c-40 3 -83 8 -94 11 -12 3 -36 -1 -52 -10 -17 -9
-33 -12 -37 -7 -9 15 12 57 39 79 25 19 25 21 11 48 -8 16 -15 34 -15 40 0 18
41 65 53 62 7 -1 26 12 44 30 26 27 39 32 77 32 39 0 47 4 62 30 24 40 114 84
159 77 18 -3 37 -2 41 3 20 18 80 16 113 -5z m-574 -135 c3 -5 2 -10 -4 -10
-5 0 -13 5 -16 10 -3 6 -2 10 4 10 5 0 13 -4 16 -10z m-45 -348 c0 -15 -75
-79 -117 -99 -48 -23 -50 -22 -26 13 34 53 143 118 143 86z m393 1 c-7 -2 -19
-2 -25 0 -7 3 -2 5 12 5 14 0 19 -2 13 -5z m237 -58 c0 -2 -9 -9 -20 -15 -22
-12 -44 -5 -35 11 6 9 55 13 55 4z m-540 -55 c13 -9 13 -11 0 -20 -19 -12 -70
-13 -70 0 0 10 29 29 45 30 6 0 17 -5 25 -10z m650 0 c0 -5 -2 -10 -4 -10 -3
0 -8 5 -11 10 -3 6 -1 10 4 10 6 0 11 -4 11 -10z m266 -71 c18 -11 38 -17 46
-14 33 13 63 -80 34 -104 -22 -19 -20 -28 9 -35 53 -14 21 -24 -67 -22 -124 4
-118 2 -118 37 0 27 -3 31 -22 26 -13 -4 -29 0 -40 9 -25 24 -39 9 -32 -35 5
-31 3 -39 -11 -45 -24 -9 -26 -5 -14 35 5 19 10 48 11 65 0 24 6 33 29 41 16
6 32 20 36 30 13 37 24 43 67 37 22 -4 55 -15 72 -25z m507 4 c18 -10 39 -18
47 -19 101 -11 120 -17 120 -35 0 -15 -31 -23 -40 -10 -5 10 -16 10 -46 2 -22
-6 -51 -11 -65 -11 -36 0 -79 36 -79 66 0 29 18 31 63 7z m-748 -7 c18 -13 17
-14 -12 -20 -18 -4 -37 -14 -44 -22 -17 -21 -28 -17 -22 9 12 47 41 60 78 33z
m618 -35 c8 -9 18 -26 21 -38 7 -21 6 -21 -36 -9 -39 12 -74 48 -63 66 7 12
63 -2 78 -19z m-1314 -19 c14 -16 36 -40 48 -55 13 -15 30 -27 39 -27 8 0 30
-11 47 -24 18 -13 70 -42 117 -65 46 -22 79 -41 73 -41 -6 0 -16 -13 -23 -29
-13 -33 -38 -47 -54 -31 -18 18 -39 12 -33 -10 3 -13 0 -20 -9 -20 -8 0 -19 9
-26 20 -30 47 -79 12 -71 -50 5 -33 2 -45 -17 -65 l-22 -23 -24 21 c-13 11
-24 26 -24 32 0 7 -16 32 -35 56 -19 24 -35 51 -35 60 0 19 -20 39 -39 39 -9
0 -25 7 -35 15 -19 15 -19 16 13 76 18 33 30 67 27 76 -4 10 4 18 24 26 22 8
28 16 24 29 -8 26 5 22 35 -10z m470 -8 c-6 -8 -8 -15 -3 -15 5 -1 15 -2 23
-3 20 -2 40 -37 23 -43 -7 -3 -19 -11 -27 -19 -13 -13 -20 -11 -61 16 -25 18
-48 38 -51 46 -12 33 49 61 90 41 15 -7 16 -11 6 -23z m226 -5 c-2 -12 -12
-33 -21 -47 -15 -23 -15 -25 0 -19 9 4 16 3 16 -2 0 -5 -11 -12 -24 -15 -14
-3 -27 -14 -29 -24 -15 -52 -16 -72 -7 -72 5 0 10 -7 10 -15 0 -8 7 -15 15
-15 8 0 15 -8 14 -17 -2 -33 -14 -64 -24 -63 -5 1 -13 -13 -18 -29 -4 -17 -12
-31 -17 -31 -14 0 -12 15 5 57 15 35 21 92 9 80 -4 -3 -15 -2 -25 4 -16 8 -24
4 -44 -18 -20 -24 -22 -30 -10 -39 8 -6 15 -22 15 -34 0 -23 0 -23 21 -4 21
19 22 19 16 -1 -17 -58 -17 -99 -1 -117 16 -17 16 -18 -4 -18 -14 0 -23 -8
-26 -22 -3 -13 -8 -36 -11 -53 -4 -16 -9 -50 -12 -75 -3 -25 -9 -49 -13 -55
-4 -5 -5 -26 -2 -45 l5 -35 13 50 c8 28 14 62 14 78 0 15 5 27 11 27 8 0 10
12 6 34 -4 28 -2 35 14 39 10 3 19 1 19 -4 0 -5 -6 -9 -12 -9 -10 0 -9 -3 1
-9 11 -7 10 -13 -4 -34 -9 -14 -18 -42 -21 -62 -2 -21 -8 -45 -13 -54 -5 -9
-7 -35 -5 -59 4 -43 -17 -102 -36 -102 -6 0 -18 9 -27 20 -10 11 -29 19 -43
19 -15 -1 -19 -3 -8 -6 9 -2 24 -15 32 -29 9 -13 23 -24 31 -24 8 0 15 -7 15
-15 0 -8 -4 -15 -10 -15 -5 0 -12 -17 -16 -37 -4 -21 -11 -46 -16 -56 -6 -12
-4 -22 7 -33 15 -15 17 -39 20 -264 1 -84 -11 -134 -28 -123 -24 15 -47 12
-81 -8 -48 -28 -134 -36 -172 -16 -21 11 -35 12 -47 5 -12 -6 -36 -5 -75 4
-31 7 -66 13 -77 14 -11 1 -30 2 -42 3 -23 1 -72 43 -74 64 -7 59 -5 87 7 87
8 0 14 7 14 15 0 9 -8 14 -22 12 -17 -1 -24 5 -29 28 -4 17 -7 24 -8 16 0 -8
-4 -12 -7 -8 -4 3 -3 14 1 24 10 26 13 171 3 186 -6 9 -8 8 -8 -3 0 -8 -5 -32
-11 -52 -9 -33 -14 -38 -40 -38 -17 0 -28 -4 -24 -10 7 -11 -13 -16 -112 -29
-70 -9 -127 0 -143 21 -8 10 -45 15 -45 5 0 -11 -63 -47 -84 -47 -9 0 -24 11
-31 26 -13 23 -18 24 -54 18 -23 -3 -51 -15 -64 -24 -22 -17 -24 -17 -65 3
-23 11 -49 24 -58 28 -16 7 -64 0 -101 -16 -10 -4 -18 -3 -18 3 0 5 -9 12 -20
15 -15 4 -20 14 -20 36 0 29 2 30 20 19 17 -11 22 -10 30 1 12 20 -3 46 -40
68 -32 18 -39 33 -17 33 7 0 29 14 48 31 19 17 57 42 85 54 27 13 71 37 97 55
77 51 158 92 174 86 8 -3 12 -2 9 2 -3 5 34 16 82 26 110 22 122 23 272 31 70
3 127 11 131 17 4 6 9 7 13 0 3 -5 27 -13 53 -17 27 -4 56 -11 65 -16 20 -11
66 33 95 91 10 19 35 57 56 84 40 53 45 66 22 66 -8 0 -15 5 -15 11 0 6 9 8
21 4 16 -5 31 5 72 51 29 32 82 89 120 127 65 68 78 87 57 87 -16 0 -12 20 6
27 9 3 19 0 24 -6 9 -16 61 8 102 46 14 14 30 23 35 20 4 -3 26 8 48 24 48 34
65 36 60 8z m745 -22 c16 -13 24 -67 9 -67 -5 0 -9 7 -9 15 0 8 -11 22 -25 31
-14 9 -25 20 -25 25 0 13 32 10 50 -4z m230 -28 c0 -6 -7 -17 -15 -25 -8 -9
-15 -29 -15 -45 0 -22 -6 -30 -25 -35 -13 -3 -29 -12 -36 -20 -6 -8 -20 -14
-30 -14 -28 0 -24 42 6 68 14 12 25 26 25 32 0 5 11 12 25 16 13 3 29 12 36
20 14 17 29 18 29 3z m-1864 -46 c-11 -11 -17 4 -9 23 7 18 8 18 11 1 2 -10 1
-21 -2 -24z m1614 22 c0 -8 -7 -15 -15 -15 -26 0 -18 20 13 29 1 1 2 -6 2 -14z
m90 -5 c0 -5 -4 -10 -10 -10 -5 0 -10 5 -10 10 0 6 5 10 10 10 6 0 10 -4 10
-10z m200 -10 c-36 -11 -52 -11 -45 0 3 6 21 10 38 9 31 -1 31 -1 7 -9z m110
-4 c0 -9 -30 -14 -35 -6 -4 6 3 10 14 10 12 0 21 -2 21 -4z m179 -57 c-25 -16
-32 -9 -13 12 12 13 20 16 22 9 3 -7 -2 -16 -9 -21z m246 11 c3 -5 1 -10 -4
-10 -6 0 -11 5 -11 10 0 6 2 10 4 10 3 0 8 -4 11 -10z m1335 -25 c14 -8 21
-14 15 -14 -5 0 -21 6 -35 14 -14 8 -20 14 -15 14 6 0 21 -6 35 -14z m-1610
-17 c0 -19 -62 -68 -85 -68 -13 0 -27 -4 -30 -10 -8 -13 -35 -13 -35 -1 0 5 9
13 20 16 11 3 20 11 20 18 0 24 42 55 76 55 19 0 34 -4 34 -10z m444 -24 c9
-8 16 -26 16 -39 0 -13 3 -30 6 -39 4 -11 -2 -17 -22 -22 -37 -9 -58 18 -49
66 11 55 21 63 49 34z m-1654 -8 c0 -3 -4 -8 -10 -11 -5 -3 -10 -1 -10 4 0 6
5 11 10 11 6 0 10 -2 10 -4z m125 -16 c8 -13 -20 -24 -42 -16 -15 6 -15 8 -3
16 20 13 37 12 45 0z m-95 -22 c0 -13 -23 -5 -28 10 -2 7 2 10 12 6 9 -3 16
-11 16 -16z m1738 -47 c6 -4 5 -10 -3 -18 -18 -16 -35 -1 -28 26 4 15 8 19 13
11 4 -7 12 -15 18 -19z m-1443 -1 c3 -5 1 -10 -4 -10 -6 0 -11 5 -11 10 0 6 2
10 4 10 3 0 8 -4 11 -10z m41 -5 c-11 -8 -22 -12 -25 -9 -6 6 19 24 34 24 6
-1 1 -7 -9 -15z m-101 -37 c14 -6 25 -17 25 -25 0 -7 5 -13 10 -13 6 0 10 -6
10 -12 1 -18 80 -73 81 -56 2 20 2 21 -6 48 -7 23 -7 23 9 7 23 -22 37 -74 30
-104 -6 -23 -7 -23 -25 -7 -18 16 -19 16 -19 0 0 -9 5 -14 10 -11 6 3 10 2 10
-3 0 -5 10 -12 21 -15 14 -4 20 -11 16 -21 -4 -9 1 -17 13 -21 11 -3 28 -17
39 -31 24 -31 46 -32 36 -1 -4 12 -9 40 -10 62 -2 22 -8 55 -14 74 -6 19 -9
36 -7 38 1 2 16 -1 32 -6 16 -6 103 -15 194 -21 91 -6 174 -12 185 -14 72 -11
128 -17 182 -21 62 -4 103 -20 103 -41 0 -6 -13 -29 -28 -50 -16 -21 -31 -47
-35 -57 -4 -9 -15 -20 -24 -24 -10 -4 -21 -11 -25 -17 -5 -8 -14 -7 -28 2 -16
10 -25 10 -35 2 -8 -7 -28 -9 -50 -4 -33 6 -37 4 -48 -25 -10 -27 -16 -31 -49
-31 -20 0 -49 5 -65 11 -15 6 -56 15 -91 20 -34 5 -70 13 -80 18 -79 41 -112
54 -119 47 -4 -4 0 -12 10 -17 9 -6 17 -14 17 -20 0 -5 11 -26 24 -47 21 -31
26 -53 30 -132 2 -52 7 -108 10 -125 15 -95 17 -115 7 -115 -6 0 -11 7 -11 15
0 20 -19 19 -26 0 -7 -18 14 -47 28 -39 7 4 7 -2 2 -17 -5 -13 -9 -40 -10 -59
-2 -54 -4 -64 -10 -57 -3 3 -17 -5 -31 -19 -13 -13 -27 -24 -32 -24 -4 0 -14
-11 -21 -25 -9 -18 -10 -28 -2 -37 17 -21 8 -53 -17 -56 -12 -2 -25 -11 -28
-20 -16 -46 -63 -70 -63 -32 0 13 -7 20 -20 20 -14 0 -20 -7 -20 -21 0 -12
-18 -41 -40 -65 -31 -34 -40 -51 -40 -79 0 -46 -13 -69 -66 -122 -46 -47 -61
-52 -79 -26 -9 12 -29 17 -80 18 -58 2 -71 -1 -93 -22 -17 -16 -32 -21 -45
-17 -32 10 -136 5 -159 -7 -15 -8 -36 -8 -79 1 -32 7 -67 10 -79 7 -35 -9 -31
8 16 59 24 27 54 63 67 81 12 18 41 44 64 59 64 40 77 58 70 98 -3 19 -3 36 1
38 15 7 61 77 68 102 5 22 3 26 -15 26 -28 0 -28 35 -1 50 11 6 20 17 20 24 0
31 42 146 66 182 15 21 31 52 37 68 6 17 23 42 38 57 41 40 46 79 13 118 -15
18 -24 38 -20 47 3 8 2 12 -4 9 -6 -3 -10 0 -10 9 0 8 -6 17 -12 19 -10 4 -10
8 1 15 23 16 65 142 42 128 -8 -5 -8 0 -1 20 6 15 8 29 5 32 -2 3 0 11 6 19 9
10 7 13 -7 13 -18 1 -18 1 0 15 18 14 18 15 2 15 -16 0 -16 1 -1 16 12 12 26
15 57 10 36 -6 40 -5 28 9 -11 13 -9 15 13 15 28 0 44 15 25 23 -7 3 -1 6 14
6 15 1 37 -7 48 -16 11 -10 30 -21 43 -24 15 -4 21 -12 20 -26 -2 -17 4 -20
42 -21 25 0 45 4 45 9 0 5 -6 9 -14 9 -8 0 -21 7 -30 15 -8 9 -30 23 -48 31
-60 28 -83 43 -83 56 0 7 10 13 23 12 26 -1 30 13 5 19 -16 4 -17 5 -1 6 9 0
29 -4 43 -11z m1563 -20 c-2 -6 -10 -14 -16 -16 -7 -2 -10 2 -6 12 7 18 28 22
22 4z m572 -10 c0 -16 -3 -19 -11 -11 -6 6 -8 16 -5 22 11 17 16 13 16 -11z
m-3316 6 c29 -11 16 -24 -24 -24 -31 0 -38 3 -34 15 6 16 31 19 58 9z m776 -4
c0 -5 -4 -10 -10 -10 -5 0 -10 5 -10 10 0 6 5 10 10 10 6 0 10 -4 10 -10z
m490 -11 c0 -6 -4 -7 -10 -4 -5 3 -10 11 -10 16 0 6 5 7 10 4 6 -3 10 -11 10
-16z m2305 -10 c11 -17 -1 -21 -15 -4 -8 9 -8 15 -2 15 6 0 14 -5 17 -11z
m-384 -31 c11 -21 11 -22 -4 -9 -10 7 -17 17 -17 22 0 15 9 10 21 -13z m379
-14 c0 -2 -7 -4 -15 -4 -8 0 -15 4 -15 10 0 5 7 7 15 4 8 -4 15 -8 15 -10z
m-852 -20 c1 -12 -5 -25 -13 -28 -18 -7 -26 5 -19 31 7 27 29 25 32 -3z m1110
-6 c3 -16 -5 -18 -62 -18 -71 0 -86 13 -33 29 48 14 91 9 95 -11z m-3934 -10
c3 -13 6 -37 6 -55 l0 -31 -69 -4 c-86 -4 -101 -1 -101 20 0 11 27 30 73 54
39 20 75 37 78 37 4 1 9 -9 13 -21z m2929 13 c23 -1 22 -21 -2 -21 -27 0 -47
-53 -32 -86 14 -31 15 -104 1 -104 -5 0 -10 8 -10 18 0 10 -4 22 -9 28 -5 5
-11 35 -14 66 -2 31 -10 65 -18 74 -9 12 -10 15 -1 10 7 -4 12 -2 12 6 0 9 10
13 28 12 15 -1 35 -3 45 -3z m-2063 -21 c-8 -5 -17 -7 -19 -4 -3 3 1 9 9 14 8
5 17 7 19 4 3 -3 -1 -9 -9 -14z m1684 -62 c19 -27 21 -64 4 -71 -7 -3 9 -6 36
-6 27 -1 46 -4 43 -8 -4 -3 3 -17 15 -30 21 -22 21 -23 3 -17 -11 5 -25 13
-32 20 -6 6 -23 9 -37 7 -31 -6 -35 -36 -8 -67 16 -20 16 -20 0 -7 -16 12 -18
11 -18 -6 0 -10 5 -24 12 -31 16 -16 4 -25 -21 -17 -12 4 -21 15 -21 26 0 11
-6 19 -12 18 -24 -3 -38 1 -38 11 0 5 13 7 30 4 27 -6 30 -4 28 17 -1 18 -8
24 -27 26 -17 1 -20 -1 -10 -8 11 -7 11 -9 -3 -9 -22 0 -34 20 -18 30 6 4 12
29 12 56 0 31 6 56 15 67 21 22 29 22 47 -5z m159 5 c-18 -6 -16 -33 2 -33 8
0 15 -4 15 -10 0 -5 7 -10 15 -10 8 0 15 -4 15 -10 0 -15 -19 -12 -36 5 -18
17 -34 20 -34 5 0 -5 5 -10 10 -10 6 0 10 -11 10 -25 0 -29 -18 -34 -26 -7 -3
9 -9 24 -13 32 -12 22 34 90 49 73 3 -3 -1 -8 -7 -10z m207 -16 c0 -5 -4 -5
-10 -2 -5 3 -10 14 -10 23 0 15 2 15 10 2 5 -8 10 -19 10 -23z m1438 -49 c7
-7 12 -19 12 -27 0 -11 -4 -10 -20 4 -21 19 -26 35 -12 35 4 0 13 -5 20 -12z
m-3314 -14 c3 -8 2 -12 -4 -9 -6 3 -10 10 -10 16 0 14 7 11 14 -7z m2142 -61
c17 -17 16 -18 -12 -23 -16 -3 -30 -11 -30 -18 -1 -6 -2 -20 -3 -29 -1 -15 -3
-16 -11 -3 -12 19 -2 61 18 78 20 15 17 15 38 -5z m724 -3 c11 -20 -3 -30 -15
-10 -3 5 -12 7 -20 3 -11 -4 -13 -1 -9 11 8 22 31 20 44 -4z m-184 -9 c9 -10
27 -31 40 -45 13 -15 28 -35 34 -47 6 -11 16 -19 23 -17 7 1 23 -4 36 -11 23
-13 23 -13 16 29 -7 40 -6 41 14 31 12 -7 27 -27 35 -46 10 -22 24 -37 41 -41
30 -8 95 -62 95 -80 0 -7 7 -17 16 -22 13 -7 14 -13 5 -31 -12 -22 -12 -22
-43 10 -44 43 -72 52 -108 34 -16 -8 -40 -15 -53 -15 -16 0 -26 -7 -30 -20 -3
-11 -1 -18 4 -14 11 7 11 1 -1 -30 -5 -14 -17 -26 -25 -26 -17 0 -75 39 -75
51 0 4 19 14 43 22 37 12 42 18 40 41 -2 30 -39 69 -55 59 -6 -3 -8 -23 -5
-44 6 -45 -1 -48 -29 -16 -28 31 -45 88 -43 139 1 24 -2 58 -6 76 -9 37 6 43
31 13z m-788 -102 c-1 -17 -8 -29 -16 -29 -10 0 -12 7 -9 22 3 12 2 29 -3 39
-6 10 -7 25 -4 34 9 23 35 -29 32 -66z m-1128 40 c55 -7 97 -16 94 -21 -3 -4
7 -13 23 -19 61 -22 83 -34 80 -44 -6 -17 -70 -14 -84 4 -9 13 -11 13 -10 1 2
-8 6 -20 10 -27 9 -14 84 -15 110 -1 14 7 24 5 37 -7 14 -13 23 -14 39 -6 26
15 28 14 34 -9 3 -12 11 -18 20 -15 8 4 20 -4 29 -18 9 -13 76 -84 150 -158
168 -169 193 -201 179 -228 -6 -11 -13 -47 -16 -80 -5 -50 -3 -61 9 -61 8 0
20 -9 26 -19 13 -26 13 -88 -1 -96 -12 -8 -3 -128 12 -156 5 -10 9 -26 9 -36
0 -11 7 -28 15 -39 12 -16 16 -17 24 -5 6 9 7 -19 4 -75 -4 -76 -9 -96 -35
-139 -16 -27 -33 -71 -37 -97 -15 -91 -64 -133 -121 -103 -17 9 -38 14 -47 11
-17 -7 -53 10 -69 33 -6 8 -10 31 -7 50 4 31 1 39 -26 56 -17 11 -31 23 -31
27 0 4 -14 23 -31 43 -23 26 -37 34 -51 29 -23 -7 -58 21 -58 47 0 10 -8 34
-17 54 -16 34 -16 36 5 65 12 16 22 41 22 55 0 14 5 34 11 44 15 23 4 71 -16
71 -8 0 -15 -4 -15 -9 0 -5 -15 -41 -32 -80 -21 -46 -38 -70 -48 -69 -20 4
-69 78 -70 106 0 12 -7 25 -15 28 -15 6 -22 35 -7 33 23 -4 30 5 30 36 0 40
-24 68 -39 44 -8 -13 -13 -43 -10 -61 0 -5 -6 -8 -14 -8 -21 0 -53 35 -61 67
-4 15 -16 34 -26 43 -10 8 -20 25 -21 37 0 12 -3 20 -5 18 -8 -8 -52 53 -52
71 0 11 7 27 15 37 7 11 11 25 8 33 -3 8 4 32 16 54 21 40 21 40 1 57 -11 10
-20 23 -20 29 0 7 -6 14 -13 17 -9 3 -14 24 -15 56 l-1 51 45 19 c49 22 60 45
17 35 -47 -10 -73 -26 -73 -46 0 -13 -6 -18 -17 -16 -14 2 -19 15 -21 61 -2
42 1 57 10 57 9 0 9 3 2 8 -14 9 -38 127 -30 148 4 10 12 14 24 9 14 -5 15 -4
5 6 -21 21 -15 28 18 19 17 -5 75 -14 129 -21z m665 11 c3 -5 1 -10 -4 -10 -6
0 -11 5 -11 10 0 6 2 10 4 10 3 0 8 -4 11 -10z m628 -25 c-3 -9 -8 -14 -10
-11 -3 3 -2 9 2 15 9 16 15 13 8 -4z m1064 -38 c-3 -8 -1 -20 3 -27 15 -24 0
-30 -28 -12 -14 9 -23 11 -19 5 6 -9 2 -13 -12 -13 -11 0 -23 -5 -26 -10 -4
-6 -10 -8 -15 -5 -18 11 4 37 44 55 50 23 60 24 53 7z m-1582 -7 c3 -6 -1 -7
-9 -4 -18 7 -21 14 -7 14 6 0 13 -4 16 -10z m1048 -20 c3 -14 1 -20 -6 -17 -7
2 -14 14 -15 26 -4 28 13 20 21 -9z m-2783 5 c14 -16 10 -18 -14 -9 -9 3 -16
10 -16 15 0 14 16 11 30 -6z m1930 -1 c24 -12 29 -19 19 -25 -11 -7 -9 -9 6
-9 24 0 97 -43 96 -56 -1 -5 7 -10 16 -10 51 -4 123 -53 123 -82 0 -29 37 33
54 91 15 53 36 77 36 42 0 -8 7 -15 15 -15 20 0 19 -18 -6 -65 -42 -80 -71
-115 -95 -115 -18 0 -22 4 -17 17 5 13 2 15 -18 8 -13 -4 -45 -9 -72 -10 -26
-1 -53 -7 -60 -13 -8 -7 -19 -5 -36 9 -14 12 -18 19 -10 20 8 0 3 6 -11 12
-14 6 -30 18 -35 25 -9 11 -16 11 -37 1 -34 -15 -54 -7 -60 25 -3 14 -1 23 3
20 5 -3 9 4 9 16 0 13 -4 19 -12 14 -8 -5 -8 -3 -2 7 5 8 9 25 9 39 0 19 6 26
30 31 17 4 24 7 18 8 -14 1 -18 31 -5 31 5 0 24 -7 42 -16z m-3550 -133 c0 -6
-4 -13 -10 -16 -5 -3 -10 1 -10 9 0 9 5 16 10 16 6 0 10 -4 10 -9z m3910 -81
c0 -5 -5 -10 -11 -10 -5 0 -7 -4 -4 -10 3 -5 -1 -10 -10 -10 -13 0 -14 4 -5
20 11 21 30 27 30 10z m-350 -10 c0 -5 -2 -10 -4 -10 -3 0 -8 5 -11 10 -3 6
-1 10 4 10 6 0 11 -4 11 -10z m483 -40 c40 -17 87 -37 105 -45 18 -8 37 -15
41 -15 19 0 161 -72 161 -81 0 -6 -13 -24 -30 -40 -29 -30 -29 -31 -13 -56
l17 -26 -28 7 c-16 4 -35 14 -43 22 -9 8 -22 13 -30 10 -8 -3 -23 -6 -34 -6
-10 0 -19 -6 -19 -14 0 -9 20 -19 55 -27 42 -9 55 -16 55 -31 0 -10 6 -18 14
-18 7 0 19 -7 26 -15 7 -8 16 -13 20 -10 5 3 11 1 14 -4 3 -5 -1 -12 -10 -15
-28 -11 -62 -6 -67 8 -5 12 -13 13 -39 5 -18 -5 -45 -9 -60 -9 -22 0 -26 4
-21 18 6 15 5 15 -11 3 -15 -13 -18 -12 -22 6 -7 24 -43 43 -84 43 -31 0 -43
20 -12 20 9 1 2 8 -18 17 -19 9 -39 15 -44 14 -5 -1 -4 5 3 13 10 12 9 14 -7
9 -24 -6 -40 15 -18 23 21 8 20 16 -4 47 -17 21 -25 24 -43 18 -24 -9 -47 -4
-47 10 0 5 7 9 15 9 8 0 15 5 15 11 0 7 -9 9 -23 6 -31 -8 -49 6 -52 41 -2 24
1 29 15 25 13 -3 18 1 17 14 -1 12 5 18 18 18 11 0 20 -7 20 -15 0 -19 20 -40
37 -40 9 1 7 5 -4 14 -27 20 -22 32 20 49 20 9 38 16 40 16 2 1 36 -13 75 -29z
m957 20 c12 -8 10 -10 -10 -11 -34 -2 -54 1 -62 10 -12 11 55 12 72 1z m-1330
-4 c0 -3 -4 -8 -10 -11 -5 -3 -10 -1 -10 4 0 6 5 11 10 11 6 0 10 -2 10 -4z
m-1218 -28 c-7 -7 -12 -8 -12 -2 0 14 12 26 19 19 2 -3 -1 -11 -7 -17z m-1852
-28 c0 -5 7 -10 15 -10 8 0 15 -4 15 -8 0 -4 -12 -7 -27 -6 -16 0 -27 4 -25 7
1 4 2 12 2 17 0 6 5 10 10 10 6 0 10 -4 10 -10z m90 -20 c0 -5 -4 -10 -10 -10
-5 0 -10 5 -10 10 0 6 5 10 10 10 6 0 10 -4 10 -10z m2735 -50 l20 -25 -22 19
c-13 11 -23 24 -23 29 0 6 1 8 3 6 1 -2 11 -15 22 -29z m492 -36 c-3 -3 -12
-4 -19 -1 -8 3 -5 6 6 6 11 1 17 -2 13 -5z m423 -64 c0 -5 -5 -10 -11 -10 -5
0 -7 5 -4 10 3 6 8 10 11 10 2 0 4 -4 4 -10z m-1940 -29 c0 -24 -32 -59 -38
-42 -2 7 -1 23 2 36 7 29 36 34 36 6z m2110 -1 c0 -5 -2 -10 -4 -10 -3 0 -8 5
-11 10 -3 6 -1 10 4 10 6 0 11 -4 11 -10z m-2 -38 c2 -7 -3 -12 -12 -12 -9 0
-16 7 -16 16 0 17 22 14 28 -4z m-158 -42 c0 -5 -2 -10 -4 -10 -3 0 -8 5 -11
10 -3 6 -1 10 4 10 6 0 11 -4 11 -10z m-250 -10 c0 -5 -5 -10 -11 -10 -5 0 -7
5 -4 10 3 6 8 10 11 10 2 0 4 -4 4 -10z m280 -71 c-10 -18 -9 -20 11 -17 28 4
35 -15 14 -36 -21 -21 -26 -20 -65 7 -46 30 -49 46 -9 45 18 -1 35 4 37 10 2
7 8 12 13 12 6 0 5 -9 -1 -21z m-291 -35 c3 -16 1 -17 -13 -5 -19 16 -21 34
-3 29 6 -3 14 -13 16 -24z m-1849 -49 c0 -19 -27 -26 -34 -8 -3 8 -4 19 -1 23
8 13 35 1 35 -15z m3146 1 c11 -8 38 -33 61 -55 25 -25 50 -41 65 -41 29 0 54
-17 124 -84 58 -55 65 -76 39 -126 -20 -38 -51 -39 -68 -2 -14 32 -60 78 -96
96 -17 9 -42 11 -71 7 -39 -5 -45 -9 -48 -32 -2 -18 4 -29 20 -38 13 -6 36
-31 52 -55 16 -24 41 -51 55 -60 14 -10 37 -33 51 -52 14 -19 42 -53 62 -77
38 -43 50 -91 27 -114 -15 -15 -91 2 -136 30 -48 31 -71 57 -103 115 -16 30
-42 58 -72 77 -41 26 -50 38 -64 85 -9 30 -20 65 -25 78 -5 13 -5 22 1 22 6 0
10 32 10 73 0 138 48 201 116 153z m-653 -81 c-4 -15 -56 -12 -61 3 -3 10 5
13 29 10 19 -2 33 -7 32 -13z m80 -22 c-7 -2 -19 -2 -25 0 -7 3 -2 5 12 5 14
0 19 -2 13 -5z m132 -303 c13 -13 28 -33 31 -44 19 -64 46 -104 89 -134 47
-33 47 -34 42 -78 -6 -60 -26 -79 -100 -94 -34 -7 -66 -16 -72 -19 -5 -3 -17
-6 -25 -6 -10 0 -16 -13 -18 -42 -2 -30 -8 -43 -18 -43 -11 0 -13 9 -8 41 5
31 2 46 -13 67 -11 15 -23 39 -27 55 -3 15 -15 36 -26 47 -11 11 -20 22 -20
24 0 2 16 23 35 46 21 25 35 53 35 69 0 34 -35 69 -84 82 -44 12 -43 28 5 46
54 20 144 12 174 -17z m-275 -200 c0 -20 -39 -53 -54 -47 -21 8 -20 34 2 46
22 14 52 14 52 1z m115 -53 c12 -10 14 -16 7 -21 -15 -9 -54 12 -47 25 8 12
18 11 40 -4z m1355 -182 c8 -7 27 -17 43 -20 15 -4 27 -11 27 -16 0 -5 7 -9
15 -9 8 0 24 -9 35 -20 11 -11 23 -20 27 -20 3 0 22 -12 42 -27 20 -16 39 -27
42 -26 4 1 10 -9 13 -23 5 -17 12 -24 21 -20 10 4 15 -1 15 -14 0 -13 7 -20
18 -20 15 0 18 -6 14 -30 -2 -18 -10 -30 -19 -30 -29 0 -53 21 -53 45 0 20 -5
25 -24 25 -13 0 -35 9 -49 20 -14 11 -29 20 -35 20 -26 0 -156 49 -179 68 -15
12 -30 22 -34 22 -4 0 -9 10 -12 23 -2 12 -8 30 -12 39 -15 36 69 46 105 13z"/>
<path d="M2197 3323 c-21 -21 15 -38 45 -22 17 9 18 13 7 20 -17 10 -43 12
-52 2z"/>
<path d="M1430 3295 c-10 -12 -9 -16 4 -21 18 -7 49 13 40 27 -8 14 -30 11
-44 -6z"/>
<path d="M2577 3243 c-4 -3 -7 -12 -7 -20 0 -16 46 -18 56 -2 11 19 -33 39
-49 22z"/>
<path d="M1270 3160 c0 -5 7 -7 15 -4 8 4 15 8 15 10 0 2 -7 4 -15 4 -8 0 -15
-4 -15 -10z"/>
<path d="M3277 3054 c-8 -8 1 -24 14 -24 5 0 9 7 9 15 0 15 -12 20 -23 9z"/>
<path d="M2052 2763 c1 -5 -3 -18 -10 -30 -15 -28 -7 -32 63 -37 30 -2 62 -9
69 -16 11 -8 16 -8 21 1 8 12 -11 29 -32 29 -7 0 -13 9 -13 20 0 13 -10 24
-26 30 -30 12 -75 13 -72 3z"/>
<path d="M890 2005 c7 -8 22 -15 34 -15 21 1 21 1 2 15 -27 21 -53 20 -36 0z"/>
<path d="M1155 1990 c-8 -12 20 -24 35 -15 5 3 10 10 10 16 0 12 -37 12 -45
-1z"/>
<path d="M1751 1924 c0 -11 3 -14 6 -6 3 7 2 16 -1 19 -3 4 -6 -2 -5 -13z"/>
<path d="M1510 1890 c-9 -6 -10 -10 -3 -10 6 0 15 5 18 10 8 12 4 12 -15 0z"/>
<path d="M1388 1843 c-21 -5 -23 -16 -5 -31 14 -12 47 7 47 27 0 11 -11 12
-42 4z"/>
<path d="M205 1790 c-3 -5 -1 -10 4 -10 6 0 11 5 11 10 0 6 -2 10 -4 10 -3 0
-8 -4 -11 -10z"/>
<path d="M380 1790 c0 -5 7 -10 16 -10 8 0 12 5 9 10 -3 6 -10 10 -16 10 -5 0
-9 -4 -9 -10z"/>
<path d="M1680 1680 c0 -5 5 -10 10 -10 6 0 10 5 10 10 0 6 -4 10 -10 10 -5 0
-10 -4 -10 -10z"/>
<path d="M623 1632 c1 -12 6 -18 14 -15 16 6 13 25 -5 31 -6 2 -10 -6 -9 -16z"/>
<path d="M1155 1590 c-3 -5 -1 -10 4 -10 6 0 11 5 11 10 0 6 -2 10 -4 10 -3 0
-8 -4 -11 -10z"/>
<path d="M1187 1560 c-22 -22 -8 -35 35 -32 16 1 28 -3 28 -9 0 -8 4 -8 14 0
13 11 12 16 -6 37 -25 28 -46 30 -71 4z"/>
<path d="M1210 1482 c0 -5 6 -14 13 -20 18 -15 57 -25 57 -14 0 7 -14 16 -62
40 -5 2 -8 -1 -8 -6z"/>
<path d="M3620 2441 c0 -5 7 -11 15 -15 8 -3 15 -1 15 3 0 5 -7 11 -15 15 -8
3 -15 1 -15 -3z"/>
<path d="M2190 2260 c0 -7 24 -20 36 -20 13 0 1 19 -16 23 -11 3 -20 2 -20 -3z"/>
<path d="M2150 2217 c0 -18 21 -37 41 -37 9 0 19 -7 23 -15 3 -8 17 -15 32
-15 22 0 25 2 14 15 -7 8 -18 15 -24 15 -6 0 -28 11 -49 25 -25 17 -37 21 -37
12z"/>
<path d="M2628 2189 c-21 -12 -12 -39 13 -39 16 0 39 26 39 44 0 9 -33 6 -52
-5z"/>
<path d="M2680 2151 c0 -12 40 -41 57 -41 23 0 14 30 -13 40 -32 12 -44 13
-44 1z"/>
<path d="M3022 2111 c-19 -11 -11 -45 11 -49 13 -3 17 3 17 27 0 32 -6 37 -28
22z"/>
<path d="M2430 1941 c0 -12 26 -21 63 -21 l32 0 -29 15 c-32 17 -66 20 -66 6z"/>
<path d="M2150 1685 c-8 -9 -8 -15 -2 -15 12 0 26 19 19 26 -2 2 -10 -2 -17
-11z"/>
<path d="M2341 1651 c-13 -10 -21 -23 -17 -30 9 -14 83 -15 91 0 4 6 20 7 38
3 l32 -7 -32 27 c-36 31 -78 33 -112 7z"/>
<path d="M2238 1643 c7 -3 16 -2 19 1 4 3 -2 6 -13 5 -11 0 -14 -3 -6 -6z"/>
<path d="M2107 1462 c-10 -10 -17 -24 -17 -30 0 -16 26 -15 42 1 7 8 20 12 30
9 11 -3 18 1 18 11 0 8 -10 17 -22 21 -32 8 -33 8 -51 -12z"/>
<path d="M2128 1069 c-10 -5 -18 -16 -18 -24 0 -12 5 -12 25 -3 14 6 25 17 25
25 0 15 -9 16 -32 2z"/>
<path d="M4695 1900 c-3 -5 1 -10 9 -10 9 0 16 5 16 10 0 6 -4 10 -9 10 -6 0
-13 -4 -16 -10z"/>
<path d="M4804 1846 c1 -19 8 -25 29 -28 34 -6 36 14 2 36 -32 21 -33 20 -31
-8z"/>
<path d="M2780 1885 c0 -9 9 -15 21 -15 18 0 19 2 5 15 -8 8 -17 15 -20 15 -3
0 -6 -7 -6 -15z"/>
<path d="M3000 1170 c0 -11 4 -20 9 -20 11 0 22 26 14 34 -12 12 -23 5 -23
-14z"/>
<path d="M3177 873 c-12 -11 -7 -33 7 -33 12 0 26 20 26 36 0 7 -26 5 -33 -3z"/>
<path d="M3816 1796 c3 -9 11 -16 16 -16 13 0 5 23 -10 28 -7 2 -10 -2 -6 -12z"/>
<path d="M4256 1378 c3 -4 16 -8 30 -8 13 0 24 4 24 8 0 5 -13 9 -30 9 -16 0
-27 -4 -24 -9z"/>
<path d="M4240 1350 c0 -6 7 -10 15 -10 8 0 15 2 15 4 0 2 -7 6 -15 10 -8 3
-15 1 -15 -4z"/>
<path d="M5474 894 c3 -9 6 -18 6 -20 0 -2 5 -4 10 -4 6 0 10 9 10 20 0 12 -7
20 -16 20 -11 0 -14 -5 -10 -16z"/>
<path d="M284 3654 c3 -9 6 -18 6 -20 0 -2 12 -4 27 -4 25 0 26 0 8 20 -22 24
-50 27 -41 4z"/>
<path d="M0 3115 c0 -32 1 -32 53 -38 59 -6 129 4 110 16 -17 11 -92 38 -130
47 -32 8 -33 7 -33 -25z"/>
<path d="M4170 3116 c0 -19 -5 -26 -20 -26 -11 0 -20 -5 -20 -11 0 -6 8 -8 18
-5 9 3 30 8 45 12 21 5 27 12 25 28 -2 13 -11 22 -25 24 -19 3 -23 -1 -23 -22z"/>
<path d="M4322 3108 c6 -16 60 -22 118 -12 l45 8 -45 7 c-73 12 -122 11 -118
-3z"/>
<path d="M4530 3096 c0 -2 9 -6 20 -9 11 -3 20 -1 20 4 0 5 -9 9 -20 9 -11 0
-20 -2 -20 -4z"/>
<path d="M260 3051 c0 -17 50 -41 112 -55 79 -18 238 -40 244 -34 4 4 -88 35
-171 57 -22 6 -64 17 -94 26 -62 17 -91 19 -91 6z"/>
<path d="M4055 3050 c3 -5 8 -10 11 -10 2 0 4 5 4 10 0 6 -5 10 -11 10 -5 0
-7 -4 -4 -10z"/>
<path d="M3837 3003 c-10 -10 -8 -23 4 -23 5 0 8 4 4 9 -3 5 5 12 17 14 21 4
21 4 2 6 -11 0 -24 -2 -27 -6z"/>
<path d="M3713 2993 c-15 -5 -17 -23 -4 -23 5 0 11 7 15 15 3 8 4 15 3 14 -1
0 -8 -3 -14 -6z"/>
<path d="M3676 2944 c-8 -21 -4 -25 14 -14 11 7 12 12 4 20 -8 8 -13 7 -18 -6z"/>
<path d="M3807 2953 c-4 -3 -7 -11 -7 -17 0 -6 5 -5 12 2 6 6 9 14 7 17 -3 3
-9 2 -12 -2z"/>
<path d="M5325 2889 c-9 -14 24 -49 45 -49 18 0 30 19 30 46 0 17 -65 20 -75
3z"/>
<path d="M5170 2834 c-11 -12 -10 -18 3 -31 13 -14 21 -14 42 -5 36 17 34 52
-4 52 -16 0 -34 -7 -41 -16z"/>
<path d="M335 2790 c-22 -5 -89 -12 -150 -15 -160 -8 -185 -13 -185 -37 0 -16
5 -19 29 -13 30 6 81 -2 81 -14 0 -4 -23 -22 -51 -41 -71 -46 -79 -73 -21 -73
47 0 122 42 139 77 27 57 176 89 447 96 11 0 16 3 12 8 -4 4 -49 8 -99 8 -51
1 -108 4 -127 7 -19 3 -53 2 -75 -3z"/>
<path d="M3980 2750 c-14 -11 -33 -20 -42 -20 -9 0 -19 -4 -22 -8 -13 -21 68
5 82 26 18 27 14 27 -18 2z"/>
<path d="M5275 2734 c-21 -22 -14 -40 15 -36 28 3 50 20 50 38 0 19 -45 18
-65 -2z"/>
<path d="M5757 2676 c10 -13 19 -23 21 -21 5 5 -22 45 -31 45 -4 0 0 -11 10
-24z"/>
<path d="M5990 2570 c0 -5 5 -10 11 -10 5 0 7 5 4 10 -3 6 -8 10 -11 10 -2 0
-4 -4 -4 -10z"/>
<path d="M3765 2539 c-11 -17 1 -21 15 -4 8 9 8 15 2 15 -6 0 -14 -5 -17 -11z"/>
<path d="M4360 2520 c0 -5 5 -10 10 -10 6 0 10 5 10 10 0 6 -4 10 -10 10 -5 0
-10 -4 -10 -10z"/>
<path d="M5040 2456 c0 -14 36 -26 59 -18 7 2 2 10 -14 18 -34 18 -45 18 -45
0z"/>
<path d="M6090 2442 c0 -21 27 -62 41 -62 10 0 12 40 3 64 -9 22 -44 21 -44
-2z"/>
<path d="M5026 2414 c-6 -16 14 -28 38 -22 10 2 8 7 -9 20 -20 15 -24 16 -29
2z"/>
<path d="M5210 2389 c38 -32 39 -33 60 -19 13 8 13 11 0 23 -8 8 -33 17 -55
20 l-40 6 35 -30z"/>
<path d="M5310 2359 c0 -6 15 -26 33 -44 27 -27 44 -34 93 -40 32 -4 74 -16
92 -26 25 -15 38 -17 53 -9 22 12 26 22 4 14 -8 -3 -27 3 -42 13 -15 10 -46
25 -68 32 -22 8 -66 26 -99 42 -66 33 -66 33 -66 18z"/>
<path d="M4145 2349 c-4 -6 -5 -12 -2 -15 7 -7 37 7 37 17 0 13 -27 11 -35 -2z"/>
<path d="M6217 2303 c-10 -15 3 -70 19 -84 17 -14 34 -3 34 21 0 25 -45 77
-53 63z"/>
<path d="M5690 2185 c0 -3 15 -11 34 -19 19 -8 42 -28 50 -45 19 -35 47 -47
76 -31 35 19 11 38 -113 89 -30 12 -47 14 -47 6z"/>
<path d="M4262 2153 c2 -17 11 -32 26 -38 24 -10 30 -25 10 -25 -9 0 -9 -3 0
-12 10 -10 15 -10 22 2 12 19 13 40 1 40 -5 0 -11 9 -14 19 -2 10 -14 24 -27
31 -20 11 -21 10 -18 -17z"/>
<path d="M4382 2150 c0 -14 2 -19 5 -12 2 6 2 18 0 25 -3 6 -5 1 -5 -13z"/>
<path d="M6071 2124 c0 -11 3 -14 6 -6 3 7 2 16 -1 19 -3 4 -6 -2 -5 -13z"/>
<path d="M5507 2095 c-4 -8 -2 -17 3 -20 6 -4 10 -19 10 -35 0 -20 6 -31 21
-35 28 -9 33 -1 15 27 -18 27 -11 42 23 53 18 5 20 9 10 16 -23 14 -76 11 -82
-6z"/>
<path d="M4440 2059 c0 -5 5 -7 10 -4 6 3 10 8 10 11 0 2 -4 4 -10 4 -5 0 -10
-5 -10 -11z"/>
<path d="M5667 2063 c-4 -3 -7 -11 -7 -17 0 -6 5 -5 12 2 6 6 9 14 7 17 -3 3
-9 2 -12 -2z"/>
<path d="M5783 2038 c-12 -6 -24 -16 -26 -22 -8 -21 12 -56 39 -68 22 -10 32
-9 62 7 49 26 51 48 9 74 -38 23 -52 25 -84 9z"/>
<path d="M6050 2035 c0 -19 27 -26 39 -11 9 11 6 15 -14 18 -16 3 -25 1 -25
-7z"/>
<path d="M5595 2030 c-3 -5 1 -10 10 -10 9 0 13 5 10 10 -3 6 -8 10 -10 10 -2
0 -7 -4 -10 -10z"/>
<path d="M0 220 l0 -220 533 1 c400 0 526 3 507 12 -127 56 -161 70 -200 83
-25 9 -67 26 -95 39 -27 12 -61 26 -75 30 -14 4 -54 21 -90 38 -36 16 -111 47
-168 68 -56 22 -110 43 -120 49 -16 9 -114 50 -239 99 l-53 21 0 -220z"/>
</g>
</svg>
