<?xml version="1.0" standalone="no"?>
<!DOCTYPE svg PUBLIC "-//W3C//DTD SVG 20010904//EN"
 "http://www.w3.org/TR/2001/REC-SVG-20010904/DTD/svg10.dtd">
<svg version="1.0" xmlns="http://www.w3.org/2000/svg"
 width="960.000000pt" height="640.000000pt" viewBox="0 0 960.000000 640.000000"
 preserveAspectRatio="xMidYMid meet">

<g transform="translate(0.000000,640.000000) scale(0.100000,-0.100000)"
fill="#000000" stroke="none">
<path d="M30 6089 c0 -298 1 -310 19 -304 10 3 24 -1 31 -10 7 -8 9 -16 4 -16
-5 -1 -13 -2 -19 -4 -5 -1 -16 -3 -22 -3 -16 -2 -19 -482 -3 -482 6 0 10 -5
10 -11 0 -5 -4 -7 -10 -4 -7 4 -10 -63 -10 -194 0 -127 4 -201 10 -201 6 0 10
-12 10 -26 0 -14 -4 -23 -9 -20 -6 4 -10 -127 -10 -323 -1 -287 0 -329 14
-334 19 -8 20 -27 0 -27 -13 0 -15 -36 -15 -261 0 -188 3 -258 11 -253 10 6
29 -12 29 -28 0 -13 -28 -9 -33 5 -3 6 -6 -372 -6 -841 l-1 -852 189 7 190 6
6 -39 c27 -154 127 -569 144 -602 5 -9 26 -104 47 -210 43 -219 44 -212 -42
-212 -28 0 -74 -4 -103 -10 -80 -15 -90 -7 -116 93 -25 99 -37 117 -75 117
-25 0 -28 -3 -34 -52 -3 -29 -6 -76 -6 -105 0 -28 -5 -55 -10 -58 -6 -4 -47
-10 -91 -15 -44 -4 -85 -12 -90 -17 -5 -5 -8 -169 -7 -401 l3 -392 30 16 c28
15 87 20 158 14 16 -1 34 -11 40 -21 7 -11 20 -19 31 -19 18 0 18 1 3 18 -25
27 -21 34 17 28 24 -4 36 -1 39 8 6 14 136 42 159 33 7 -2 28 2 47 9 26 11 37
11 48 2 10 -8 17 -8 25 0 7 7 25 12 41 12 27 0 29 -3 25 -29 -6 -39 8 -31 15
9 5 21 12 30 27 30 22 0 22 -3 11 -73 -8 -47 -8 -47 21 -47 28 0 28 0 28 64 0
60 1 64 25 68 24 5 25 3 25 -41 0 -63 9 -91 29 -91 14 0 17 10 17 55 -1 61 17
84 67 85 33 0 47 -28 47 -96 l0 -44 41 0 42 0 -7 59 c-5 40 -3 62 5 66 6 4 43
7 83 6 l72 -1 -1 78 c-1 43 -5 83 -9 90 -4 7 -30 12 -63 12 -54 0 -55 -1 -51
-25 3 -14 1 -28 -3 -31 -5 -3 -9 -18 -9 -35 0 -18 -5 -29 -14 -29 -12 0 -13
18 -9 97 3 54 0 132 -5 173 -7 49 -8 78 -1 86 7 9 5 14 -8 17 -14 4 -13 5 5 6
20 1 22 -3 23 -61 1 -35 1 -67 0 -72 -1 -6 1 -21 4 -34 l6 -25 131 7 c73 3
133 7 134 9 1 1 -4 110 -12 242 -17 307 -17 318 -1 313 11 -4 19 -78 43 -430
4 -59 10 -111 13 -116 3 -6 61 -12 129 -14 l123 -3 -6 60 c-3 33 -8 103 -11
155 -2 52 -6 118 -8 145 -12 154 -16 345 -8 345 5 0 9 -29 9 -65 0 -36 5 -75
13 -90 10 -19 11 -31 3 -48 -8 -18 -8 -41 2 -88 8 -35 19 -138 26 -229 6 -91
16 -170 21 -176 12 -16 234 -14 231 2 -1 5 2 27 7 47 5 23 4 39 -2 43 -6 4 -8
22 -5 40 3 20 0 45 -9 63 -11 22 -12 35 -4 57 7 18 8 36 1 53 -18 48 -20 96
-5 116 12 16 16 17 23 6 7 -10 22 -12 65 -7 l56 7 1 -128 c2 -214 14 -265 46
-190 10 21 19 27 43 27 21 0 30 5 30 16 0 11 6 14 20 9 15 -5 20 -2 20 12 0
11 -4 23 -9 28 -5 6 -12 73 -16 150 -3 77 -7 147 -7 155 -2 36 3 70 10 70 7 0
27 -174 31 -265 2 -48 10 -166 17 -232 5 -58 10 -73 23 -74 86 -3 104 -13 95
-51 -3 -18 -7 -70 -8 -115 -1 -70 2 -83 15 -83 21 0 53 -36 44 -49 -10 -18
-49 -5 -62 20 -7 13 -13 18 -13 12 0 -7 -6 -13 -12 -13 -26 0 -41 19 -43 54
-3 42 -12 56 -21 32 -12 -32 -27 -16 -21 24 3 22 1 40 -4 40 -5 0 -9 30 -9 67
0 104 -8 70 -14 -59 -4 -80 -2 -118 6 -120 6 -2 13 -22 17 -43 5 -31 11 -41
28 -43 17 -2 24 -12 29 -38 l6 -34 243 0 c207 0 244 2 249 15 7 19 35 20 42 1
5 -13 75 -15 466 -15 335 -1 465 2 475 10 10 9 20 9 39 0 39 -17 47 -14 39 16
-7 28 -15 110 -18 170 -1 35 23 62 56 63 9 0 17 7 17 15 0 9 9 15 21 15 11 0
19 -3 17 -7 -28 -59 -44 -82 -59 -86 -16 -4 -19 -15 -19 -64 0 -32 3 -75 6
-96 l7 -37 275 0 275 0 -7 46 c-3 26 -6 53 -6 60 0 8 -7 14 -15 14 -8 0 -15 9
-15 20 0 11 3 19 8 19 24 -4 41 3 45 19 4 16 5 16 6 0 0 -10 5 -18 10 -18 5 0
12 -7 15 -16 3 -8 2 -12 -4 -9 -6 3 -10 2 -10 -4 0 -11 28 -41 38 -41 4 0 22
-13 40 -29 21 -19 30 -34 26 -45 -6 -15 28 -16 362 -16 l369 1 -31 27 c-17 15
-46 38 -63 52 -45 35 -54 54 -40 84 10 22 8 31 -12 61 -13 19 -27 35 -31 35
-15 0 -8 28 8 34 23 9 24 8 34 -20 6 -14 19 -28 30 -31 11 -3 20 -10 20 -17 0
-6 26 -22 57 -36 32 -14 92 -42 134 -63 42 -20 81 -37 86 -37 6 0 14 10 20 22
9 21 12 17 31 -35 12 -32 22 -62 22 -67 0 -7 725 -10 2000 -10 l2000 0 0 308
c0 169 -4 313 -8 320 -6 9 -12 5 -20 -13 -7 -14 -12 -32 -12 -40 0 -8 -6 -15
-13 -15 -14 0 -36 44 -56 110 -8 24 -20 39 -41 48 -35 16 -41 36 -64 209 -9
67 -20 132 -25 145 -9 21 -10 19 -13 -17 -1 -22 -3 -114 -3 -205 l0 -165 -30
1 c-28 0 -49 -16 -55 -41 -1 -5 -7 -19 -12 -30 -11 -19 -11 -19 -18 0 -4 11
-11 49 -14 85 -10 92 -14 102 -39 98 -21 -3 -22 -8 -23 -113 -1 -175 3 -163
-50 -171 -59 -8 -72 5 -78 76 -3 30 -12 143 -21 250 -9 107 -18 197 -21 199
-25 25 -6 -371 22 -456 10 -29 14 -56 10 -60 -10 -10 -140 -17 -171 -9 l-26 7
7 127 c6 114 4 134 -15 197 -17 53 -25 114 -32 248 -5 98 -7 182 -4 187 7 11
144 14 169 4 12 -5 16 -22 17 -73 1 -48 3 -59 9 -41 4 14 8 44 9 66 1 26 6 44
15 47 20 8 287 -12 313 -23 16 -7 25 -21 29 -50 8 -51 20 -51 34 0 15 55 35
63 141 56 l89 -6 0 1175 c0 968 -2 1175 -13 1175 -43 0 -411 23 -572 35 -104
8 -248 20 -320 25 -71 6 -332 22 -580 35 -247 14 -463 27 -480 30 -16 3 -163
14 -325 25 -162 11 -356 25 -430 30 -74 5 -187 12 -250 15 -190 10 -735 47
-739 51 -2 2 23 32 56 68 101 107 113 127 116 186 2 43 -1 53 -15 55 -10 2
-20 -1 -24 -6 -12 -20 -23 -8 -14 17 16 41 12 89 -9 108 -19 17 -21 16 -52
-13 -17 -17 -27 -31 -21 -31 21 0 22 -38 2 -84 -28 -66 -27 -90 4 -84 23 5 22
2 -13 -42 -20 -25 -58 -64 -86 -86 -27 -21 -76 -65 -108 -96 -32 -32 -61 -58
-65 -57 -4 0 -20 21 -37 47 -30 46 -31 47 -105 58 -75 11 -104 9 -79 -7 14 -8
-86 -4 -256 9 l-80 7 3 50 c1 28 7 64 12 80 6 17 15 77 20 135 14 151 10 144
89 137 56 -4 87 -15 201 -72 74 -37 147 -79 163 -93 31 -29 33 -28 72 43 27
50 70 94 92 95 6 0 15 4 18 10 4 6 -4 9 -17 7 -14 -1 -22 3 -21 11 2 8 -9 12
-32 12 -19 0 -35 -4 -35 -10 0 -5 -4 -10 -10 -10 -5 0 -10 7 -10 15 0 13 -4
14 -20 5 -20 -11 -20 -10 -3 27 22 50 33 64 44 58 10 -7 28 26 22 43 -9 23
-28 11 -49 -31 -14 -26 -29 -43 -43 -45 -11 -2 -21 -7 -21 -12 0 -4 -7 -10
-15 -14 -12 -4 -14 0 -9 19 4 15 1 32 -6 40 -11 14 -15 13 -27 -5 -20 -29 -33
-25 -33 10 0 23 4 30 20 30 15 0 20 7 20 24 0 31 -16 42 -23 16 -3 -13 -11
-18 -20 -14 -10 3 -18 -2 -21 -14 -5 -14 -13 -18 -26 -15 -12 3 -22 -1 -26
-11 -10 -26 -26 -18 -22 12 2 19 8 26 20 24 10 -1 19 6 23 18 4 14 12 19 22
16 9 -4 17 1 20 14 3 11 12 20 19 20 8 0 14 7 14 16 0 10 6 14 15 10 11 -4 15
2 15 25 0 21 6 32 23 39 25 10 4 13 -31 4 -17 -5 -21 -11 -17 -25 4 -13 1 -19
-9 -19 -9 0 -16 -7 -16 -15 0 -8 -7 -15 -15 -15 -9 0 -18 -7 -21 -15 -10 -25
-24 -17 -24 15 0 20 5 30 15 30 8 0 15 9 15 20 0 14 7 20 21 20 11 0 18 4 14
9 -3 5 1 16 10 24 13 13 12 15 -5 20 -23 6 -30 0 -30 -27 0 -14 -3 -17 -11 -9
-6 6 -9 26 -7 44 3 31 6 34 33 31 17 -1 230 -22 475 -47 245 -24 531 -51 635
-60 105 -9 300 -27 435 -41 422 -43 734 -72 1045 -99 165 -13 343 -29 395 -35
52 -5 167 -17 255 -25 88 -9 198 -20 245 -25 88 -10 573 -50 610 -50 20 0 20
1 20 1035 l0 1035 -2992 0 c-1645 0 -2989 -2 -2987 -4 2 -3 49 -12 104 -21 55
-10 132 -23 170 -30 39 -7 142 -24 230 -39 88 -15 183 -34 211 -42 60 -19 60
-17 70 -178 6 -93 5 -106 -10 -112 -9 -3 -16 -10 -16 -15 0 -4 7 -6 15 -3 18
7 20 -7 3 -24 -16 -16 -28 -15 -28 3 0 13 -7 15 -34 10 -20 -4 -36 -2 -40 4
-11 17 -36 13 -30 -4 8 -20 -13 -19 -73 1 -35 12 -69 15 -125 11 -66 -4 -78
-3 -81 11 -3 11 -5 8 -6 -8 -1 -19 -13 -30 -49 -48 -26 -13 -61 -24 -77 -24
-17 0 -133 14 -260 31 -126 18 -268 38 -315 44 l-85 12 -6 90 c-4 50 -7 145
-8 213 l-1 122 -1560 0 -1560 0 0 -311z m233 -11 c-3 -16 -9 -28 -13 -28 -13
0 -19 54 -7 62 18 11 26 -4 20 -34z m-33 -184 c0 -2 -7 -4 -15 -4 -8 0 -15 4
-15 10 0 5 7 7 15 4 8 -4 15 -8 15 -10z m4261 -10 c12 -14 11 -16 -5 -13 -11
2 -21 10 -24 17 -5 17 13 15 29 -4z m-4371 -45 c0 -20 -15 -26 -25 -9 -9 15 3
43 15 35 5 -3 10 -15 10 -26z m3970 -29 c13 -27 28 -50 33 -50 9 0 7 17 -7 50
-3 8 -2 21 3 29 7 11 20 9 70 -9 33 -13 61 -27 61 -31 0 -5 5 -9 10 -9 6 0 10
7 10 16 0 8 5 12 11 8 7 -4 8 -20 4 -43 -3 -20 -8 -56 -12 -81 -5 -40 -4 -43
11 -31 9 7 17 11 17 7 1 -3 2 -10 3 -15 0 -5 4 -13 9 -17 4 -4 7 -20 7 -34 0
-27 0 -27 -47 -19 -85 15 -138 32 -158 49 -37 32 -96 45 -202 43 -83 -1 -103
2 -103 13 0 28 28 79 58 107 25 24 36 28 61 22 17 -4 31 -10 31 -13 0 -4 -12
-25 -26 -46 -20 -30 -22 -35 -7 -27 10 6 31 24 47 41 17 17 40 30 53 30 21 0
22 3 13 20 -6 11 -8 25 -5 30 13 22 33 8 55 -40z m220 -80 c-7 -16 -16 -30
-21 -30 -12 0 -12 2 7 39 20 40 31 33 14 -9z m84 -2 c6 -30 2 -47 -9 -36 -11
10 -17 68 -7 68 5 0 12 -14 16 -32z m266 8 c0 -3 -4 -8 -10 -11 -5 -3 -10 -1
-10 4 0 6 5 11 10 11 6 0 10 -2 10 -4z m-210 -47 c0 -11 -4 -18 -10 -14 -5 3
-7 12 -3 20 7 21 13 19 13 -6z m-2735 -131 c3 -57 5 -152 3 -213 l-3 -110
-115 -17 c-138 -22 -803 -150 -913 -177 -42 -10 -80 -15 -83 -10 -10 17 -24
176 -24 280 l0 105 48 17 c26 9 101 28 167 42 66 14 158 34 205 45 239 54 329
73 485 105 94 18 182 34 197 34 l26 1 7 -102z m2288 96 c13 -5 13 -9 1 -32
-18 -35 -18 -81 1 -125 18 -43 11 -67 -20 -67 -20 0 -25 6 -30 43 -9 56 -3
103 11 100 20 -4 28 49 9 59 -28 16 -4 35 28 22z m-1568 -41 c6 -25 8 -26 14
-9 12 32 18 1 19 -104 l1 -95 -13 53 c-18 73 -26 75 -26 9 0 -31 -4 -57 -9
-57 -9 0 -22 208 -14 223 8 15 21 6 28 -20z m1985 -5 c0 -5 -4 -8 -10 -8 -5 0
-10 10 -10 23 0 18 2 19 10 7 5 -8 10 -18 10 -22z m-1830 1 c0 -4 -4 -11 -10
-14 -6 -3 -10 -50 -10 -106 0 -59 -4 -99 -10 -99 -6 0 -10 40 -10 100 0 81 -3
101 -16 108 -9 5 -14 14 -11 19 7 11 67 5 67 -8z m1752 -1 c-7 -7 -12 -8 -12
-2 0 14 12 26 19 19 2 -3 -1 -11 -7 -17z m33 -9 c-10 -15 -25 -10 -19 6 4 8
10 12 15 9 5 -3 7 -10 4 -15z m-1585 -130 c0 -60 -4 -109 -9 -109 -9 0 -52
157 -50 187 0 10 8 1 19 -22 l19 -40 0 53 c1 33 5 51 11 47 6 -4 10 -53 10
-116z m110 44 c20 -117 25 -177 12 -169 -7 4 -12 16 -12 27 0 12 -7 19 -20 19
-11 0 -20 -7 -20 -15 0 -8 -4 -15 -10 -15 -5 0 -10 9 -10 20 0 23 20 170 25
188 10 29 24 7 35 -55z m1510 35 c0 -5 -4 -8 -10 -8 -5 0 -10 10 -10 23 0 18
2 19 10 7 5 -8 10 -18 10 -22z m-165 1 c16 -6 14 -8 -12 -8 -37 -1 -63 7 -63
20 0 9 36 3 75 -12z m-1582 -101 c4 -41 2 -68 -3 -68 -6 0 -10 32 -10 72 0 87
5 86 13 -4z m1220 8 c27 -81 43 -89 148 -75 117 16 129 22 129 61 0 55 10 62
76 53 73 -9 94 -26 94 -77 0 -21 5 -38 10 -38 6 0 10 14 10 31 0 26 2 29 14
20 11 -10 16 -8 20 6 7 22 104 49 120 33 7 -7 4 -10 -8 -10 -10 0 -31 -13 -47
-29 -31 -31 -39 -71 -14 -71 17 0 20 16 5 25 -20 12 37 46 65 39 43 -11 43
-21 -1 -121 -20 -44 -84 -93 -123 -93 -17 0 -31 -4 -31 -10 0 -5 -4 -10 -10
-10 -5 0 -10 6 -10 14 0 24 -22 30 -37 11 -7 -11 -13 -29 -13 -41 0 -15 -12
-29 -35 -43 -19 -11 -35 -25 -35 -31 0 -5 -7 -10 -15 -10 -9 0 -27 -11 -41
-25 -18 -19 -31 -24 -50 -19 -13 3 -24 2 -24 -4 0 -5 -38 -22 -84 -37 -88 -29
-142 -29 -165 -1 -18 22 4 65 39 78 30 10 30 11 14 29 -9 11 -30 19 -46 19
-21 0 -28 5 -28 19 0 16 13 21 80 31 51 8 79 17 77 24 -3 10 -77 37 -139 51
-35 7 -35 27 -2 60 17 17 35 25 52 23 14 -2 27 2 29 8 6 18 -53 37 -92 30 -26
-5 -37 -3 -41 7 -6 17 66 137 80 133 6 -1 18 -28 29 -60z m-3793 -162 c0 -8
-4 -12 -10 -9 -5 3 -10 10 -10 16 0 5 5 9 10 9 6 0 10 -7 10 -16z m100 -24 c0
-5 -5 -10 -11 -10 -5 0 -7 5 -4 10 3 6 8 10 11 10 2 0 4 -4 4 -10z m4204 -105
c21 -14 23 -22 20 -67 -2 -28 0 -56 5 -62 5 -6 6 -29 1 -51 -4 -22 -11 -56
-15 -75 l-6 -35 24 38 c13 20 36 51 50 67 26 28 24 43 -1 18 -7 -7 -12 -8 -12
-2 0 12 21 34 31 34 21 0 16 -46 -15 -135 -30 -91 -100 -239 -129 -274 -23
-27 -87 -61 -117 -61 -44 0 -68 -16 -85 -56 -12 -30 -15 -61 -15 -174 0 -8 -3
-103 -7 -210 -3 -107 -5 -210 -5 -227 2 -187 1 -264 -6 -358 l-7 -110 -28 53
c-29 55 -35 60 -55 40 -10 -10 -15 -10 -22 2 -14 22 -12 28 11 35 24 8 25 0
-24 137 -28 80 -35 116 -41 215 -4 65 -16 150 -26 188 -23 83 -48 200 -65 310
l-13 80 29 44 c17 26 29 58 29 77 0 30 5 35 50 56 28 13 50 30 50 38 0 9 12
23 27 31 25 16 28 15 70 -17 25 -19 48 -34 52 -34 8 0 31 45 31 61 0 5 -7 9
-15 7 -8 -2 -32 12 -53 31 l-38 35 20 43 c16 34 30 49 66 65 62 29 204 205
194 241 -7 21 9 22 40 2z m-4049 -65 c3 -5 1 -10 -4 -10 -6 0 -11 5 -11 10 0
6 2 10 4 10 3 0 8 -4 11 -10z m4160 -21 c-4 -5 -13 -9 -22 -9 -13 0 -13 3 -3
15 13 15 35 11 25 -6z m-2368 -171 c14 -17 26 -188 14 -188 -5 0 -11 14 -13
32 -5 49 -28 48 -28 -1 0 -59 -16 -51 -24 12 -11 93 -8 135 12 146 23 14 28
13 39 -1z m-117 -70 c20 -94 24 -138 11 -138 -6 0 -11 7 -11 15 0 22 -31 18
-37 -5 -7 -28 -26 -25 -20 3 3 12 9 54 12 92 4 39 9 73 12 78 11 18 22 3 33
-45z m-1900 -114 c0 -25 0 -25 -25 -7 -24 18 -31 34 -19 46 13 13 44 -14 44
-39z m4405 16 c8 -24 18 -25 39 -4 12 11 21 12 33 5 17 -9 17 -10 1 -16 -10
-4 -18 -13 -18 -21 0 -20 37 -17 49 4 26 45 251 -129 333 -257 54 -86 33 -109
-80 -92 -144 23 -142 22 -158 52 -17 33 -44 38 -51 9 -7 -25 -51 -27 -60 -2
-14 37 -50 43 -55 10 -4 -31 -47 -38 -55 -9 -3 14 -13 21 -29 21 -17 0 -24 6
-24 20 0 23 -9 25 -35 6 -24 -17 -14 -46 14 -39 15 4 21 1 21 -10 0 -24 -19
-31 -39 -13 -24 22 -51 20 -51 -3 0 -27 -21 -37 -35 -18 -7 10 -17 17 -24 17
-6 0 -11 9 -11 20 0 14 6 20 17 18 26 -5 30 32 4 39 -12 3 -21 13 -21 24 0 25
30 25 37 0 4 -18 30 -31 61 -31 17 0 15 29 -3 36 -17 7 -20 34 -4 34 7 0 9 13
5 38 -3 20 -3 31 0 25 3 -7 17 -13 30 -13 15 0 24 -6 24 -15 0 -16 9 -19 34
-9 23 9 20 34 -3 34 -27 0 -68 41 -63 63 2 9 8 17 13 17 5 0 9 8 9 19 0 10 9
21 20 24 11 3 20 12 20 21 0 24 47 21 55 -4z m-755 -80 c0 -12 -36 -31 -43
-23 -4 3 -13 0 -22 -7 -22 -18 -18 0 4 19 21 18 61 25 61 11z m100 -50 c0 -20
-10 -39 -31 -60 -18 -16 -36 -30 -40 -30 -14 0 -10 -98 7 -162 18 -70 14 -89
-15 -81 -12 3 -27 0 -35 -6 -7 -6 -27 -13 -44 -15 -17 -2 -42 -10 -54 -18 -13
-8 -33 -17 -45 -20 -20 -5 -23 -2 -23 26 0 40 23 132 55 217 22 56 32 69 72
95 25 16 62 41 81 57 47 37 72 36 72 -3z m-3516 14 c36 -14 11 -24 -59 -24
-88 0 -101 17 -17 23 31 2 58 4 59 5 1 1 8 -1 17 -4z m3316 -4 c0 -5 -2 -10
-4 -10 -3 0 -8 5 -11 10 -3 6 -1 10 4 10 6 0 11 -4 11 -10z m-3205 -21 c5 -6
3 -9 -5 -9 -27 0 -60 12 -60 21 0 11 50 1 65 -12z m3173 -6 c-2 -11 -12 -18
-26 -17 -16 0 -24 -7 -28 -23 -6 -24 -37 -47 -48 -36 -19 19 1 57 34 65 8 2
18 8 22 13 5 6 8 5 8 -2 0 -7 4 -13 10 -13 5 0 7 7 4 15 -4 10 0 15 11 15 10
0 15 -6 13 -17z m-3498 3 c0 -3 -4 -8 -10 -11 -5 -3 -10 -1 -10 4 0 6 5 11 10
11 6 0 10 -2 10 -4z m4223 -46 c-6 -22 -33 -28 -33 -7 0 17 10 27 26 27 7 0
10 -8 7 -20z m-3898 -69 c3 -5 1 -12 -5 -16 -5 -3 -10 1 -10 9 0 18 6 21 15 7z
m4033 -133 c10 -10 15 -10 21 1 5 7 17 11 27 9 15 -3 19 -12 17 -41 -3 -43 9
-48 26 -11 9 20 9 29 0 41 -10 12 -6 14 30 12 30 -2 45 -9 53 -22 8 -16 12
-17 19 -6 4 7 10 11 14 8 6 -7 -37 -99 -47 -99 -4 0 -8 24 -10 53 l-3 52 -24
-34 c-20 -27 -22 -37 -13 -52 11 -17 7 -18 -48 -18 -33 0 -60 5 -60 10 0 5 -8
4 -19 -2 -31 -20 -52 -5 -45 33 7 36 30 78 42 78 5 0 14 -6 20 -12z m-1175
-123 c15 -180 15 -170 -13 -167 -13 1 -27 6 -31 10 -4 4 -2 44 3 90 11 93 7
112 -22 112 -14 0 -20 7 -20 23 0 32 9 38 45 35 l30 -3 8 -100z m-3113 -41 c0
-8 -4 -12 -10 -9 -5 3 -10 13 -10 21 0 8 5 12 10 9 6 -3 10 -13 10 -21z m279
-56 c0 -39 -3 -48 -9 -33 -12 28 -12 85 0 85 6 0 10 -24 9 -52z m-269 -20 c0
-6 -11 1 -25 16 -14 15 -25 32 -25 39 1 15 50 -40 50 -55z m3370 6 c0 -8 -5
-12 -10 -9 -6 4 -8 11 -5 16 9 14 15 11 15 -7z m-3333 -76 c-3 -8 -6 -5 -6 6
-1 11 2 17 5 13 3 -3 4 -12 1 -19z m3423 3 c5 -11 10 -36 10 -55 0 -32 -3 -36
-25 -36 -32 0 -32 -10 4 -44 39 -38 44 -61 16 -74 -18 -8 -28 -6 -51 14 -16
13 -34 23 -41 24 -7 0 -27 8 -45 18 -18 10 -39 17 -45 15 -39 -13 17 -70 78
-79 50 -8 77 -37 58 -60 -7 -9 -24 -20 -36 -25 -21 -8 -22 -11 -11 -29 22 -34
-1 -55 -56 -53 -45 1 -46 1 -24 -16 29 -24 18 -48 -27 -57 -39 -7 -126 11
-137 29 -6 9 -10 8 -17 -3 -5 -8 -8 -17 -5 -22 7 -11 -19 -48 -33 -48 -7 0
-13 9 -13 20 0 17 -5 19 -25 14 -19 -5 -25 -2 -25 11 0 15 7 17 40 12 22 -3
40 -3 40 -1 0 2 -16 12 -35 21 -34 18 -34 19 -19 41 12 17 19 20 34 12 31 -17
33 -11 6 21 l-26 31 25 20 c15 12 32 17 44 13 25 -8 44 24 35 59 -4 19 1 27
30 46 37 22 44 34 26 45 -5 3 -10 13 -10 21 0 10 7 13 24 8 16 -4 25 -1 29 11
5 12 11 14 26 5 15 -7 32 -7 61 2 35 11 40 17 40 42 0 55 57 88 80 47z m-222
-23 c7 -7 12 -21 12 -31 0 -18 -1 -18 -25 -3 -23 15 -26 15 -31 1 -7 -17 -24
-10 -24 10 0 8 6 12 14 9 7 -3 16 2 19 10 8 19 19 20 35 4z m-3178 -69 c0 -5
-4 -9 -10 -9 -5 0 -10 7 -10 16 0 8 5 12 10 9 6 -3 10 -10 10 -16z m4010 -4
c0 -16 -30 -29 -42 -17 -5 5 -6 16 -3 24 7 19 45 12 45 -7z m110 6 c0 -14 8
-21 28 -23 19 -2 27 -9 27 -23 0 -15 7 -20 25 -20 33 0 36 38 3 43 -33 5 -31
42 1 42 18 0 25 -6 28 -22 5 -34 45 -37 58 -4 9 26 43 36 54 17 11 -18 -6 -41
-30 -41 -17 0 -24 -6 -24 -20 0 -15 7 -20 25 -20 18 0 25 5 25 20 0 16 7 20
31 20 23 0 32 5 36 21 7 25 46 22 51 -3 3 -14 -3 -18 -27 -18 -26 0 -31 -4
-31 -25 0 -18 5 -25 19 -25 19 0 35 -23 24 -34 -15 -14 -43 -5 -43 14 0 16 -7
20 -31 20 -26 0 -30 -3 -27 -22 2 -15 11 -24 26 -26 32 -5 30 -42 -3 -42 -20
0 -25 5 -25 26 0 22 -4 25 -27 22 -20 -2 -29 -9 -31 -25 -3 -19 1 -23 22 -23
21 0 26 -5 26 -25 0 -20 5 -25 26 -25 17 0 28 6 31 20 3 11 9 21 14 21 5 1 14
2 21 3 7 0 15 12 18 26 4 18 13 26 33 28 35 4 33 35 -1 40 -35 5 -26 46 11 50
19 2 27 9 27 23 0 26 40 26 47 -1 3 -11 14 -20 24 -20 12 0 19 7 19 20 0 13 7
20 20 20 15 0 20 -7 20 -25 0 -15 -6 -25 -14 -25 -23 0 -27 -29 -6 -42 11 -7
20 -21 20 -30 0 -11 8 -18 20 -18 13 0 20 7 20 20 0 13 -7 20 -20 20 -14 0
-20 7 -20 24 0 15 7 26 20 29 12 3 20 14 20 26 0 12 6 21 15 21 9 0 15 -9 15
-25 0 -16 -6 -25 -15 -25 -21 0 -19 -40 3 -56 14 -11 15 -16 4 -33 -16 -27 -2
-27 33 1 40 31 134 42 202 22 37 -10 73 -13 116 -8 62 6 64 6 84 -22 11 -16
23 -39 27 -50 4 -12 15 -29 26 -39 42 -38 10 -109 -43 -98 -20 4 -20 3 -4 -7
13 -9 15 -15 7 -30 -6 -11 -16 -17 -23 -14 -7 2 -22 -4 -32 -16 -13 -14 -31
-20 -62 -20 -43 0 -43 0 -41 33 3 28 0 32 -24 35 -22 3 -30 -2 -37 -21 -7 -17
-24 -30 -53 -40 -29 -9 -43 -20 -42 -31 1 -9 -4 -16 -12 -16 -8 0 -14 4 -14 9
0 10 80 97 95 102 16 6 75 82 69 90 -10 17 -71 -14 -111 -56 -24 -25 -52 -45
-62 -45 -10 0 -21 -9 -24 -20 -6 -22 -37 -28 -37 -7 0 22 38 75 67 94 33 21
44 34 37 45 -3 5 -33 -14 -66 -42 -33 -27 -64 -50 -69 -50 -5 0 -18 9 -29 20
-14 14 -28 18 -48 14 -19 -4 -32 -1 -41 10 -18 22 -38 20 -44 -4 -6 -25 7 -34
38 -26 23 6 24 4 19 -24 -6 -26 -4 -30 15 -30 14 0 21 6 21 20 0 13 7 20 20
20 11 0 21 -4 22 -10 4 -29 2 -35 -12 -35 -10 0 -15 -10 -15 -28 1 -24 -2 -27
-21 -23 -18 5 -23 1 -26 -16 -2 -15 -11 -24 -25 -26 -25 -4 -32 -32 -9 -32 26
0 29 -21 5 -46 -19 -20 -21 -27 -11 -49 7 -14 23 -30 37 -35 14 -5 25 -17 25
-27 0 -13 -3 -14 -12 -5 -19 19 -38 14 -38 -9 0 -16 5 -20 28 -17 23 3 27 -1
30 -23 2 -17 11 -29 22 -32 11 -3 24 -16 30 -29 5 -12 15 -30 22 -39 19 -27 2
-46 -58 -64 -32 -9 -80 -25 -108 -36 l-51 -19 0 -172 c0 -190 -3 -203 -74
-292 -35 -43 -32 -61 9 -53 38 8 67 -2 73 -24 6 -21 43 -26 49 -7 4 10 10 10
31 1 20 -10 27 -20 27 -42 0 -32 16 -43 41 -28 11 7 23 5 42 -8 15 -9 27 -21
27 -25 0 -13 -38 -18 -48 -8 -12 12 -42 4 -42 -11 0 -6 9 -15 21 -21 16 -9 24
-8 38 4 10 9 25 14 34 10 11 -4 16 1 19 18 2 17 9 22 26 21 12 -2 22 2 22 8 0
7 10 9 25 5 16 -4 25 -2 25 5 0 6 9 9 20 6 15 -4 20 0 20 13 0 22 -22 39 -28
22 -2 -7 -12 -12 -23 -12 -10 0 -19 -5 -19 -11 0 -6 -9 -8 -21 -4 -13 5 -25 2
-29 -6 -12 -18 -40 6 -40 33 0 15 5 19 20 15 11 -3 23 -1 26 4 3 6 14 7 25 4
11 -4 19 -2 19 4 0 6 9 11 20 11 11 0 20 5 20 11 0 6 7 9 15 6 20 -8 29 11 14
29 -11 14 -13 14 -21 -1 -5 -8 -14 -12 -20 -9 -6 4 -13 3 -17 -2 -3 -5 -16
-15 -29 -22 -27 -15 -52 -2 -52 28 0 13 11 20 40 25 22 4 40 11 40 16 0 5 7 9
15 9 8 0 15 5 15 11 0 6 7 9 15 6 19 -8 30 12 15 26 -10 9 -14 9 -17 0 -3 -7
-13 -13 -24 -13 -10 0 -19 -4 -19 -10 0 -5 -6 -10 -14 -10 -8 0 -16 -6 -19
-12 -3 -9 -10 -8 -26 6 -26 24 -27 46 -1 46 11 0 20 5 20 11 0 6 7 9 15 5 8
-3 19 2 24 12 6 9 11 13 11 8 0 -5 7 -3 15 4 21 18 45 5 45 -24 0 -29 19 -45
30 -26 10 15 30 4 30 -16 0 -20 -24 -44 -44 -44 -9 0 -16 -6 -16 -14 0 -19 23
-33 28 -18 2 7 12 12 23 12 14 0 19 -7 19 -26 0 -19 -4 -25 -15 -20 -9 3 -15
0 -15 -9 0 -8 -9 -15 -20 -15 -11 0 -20 -7 -20 -15 0 -8 7 -15 15 -15 8 0 15
5 15 10 0 6 7 10 15 10 8 0 15 5 15 10 0 16 27 11 34 -6 10 -25 7 -34 -9 -34
-8 0 -15 -7 -15 -16 0 -10 -5 -14 -15 -10 -9 3 -18 -1 -22 -9 -3 -10 -12 -13
-24 -10 -23 8 -26 -17 -5 -34 10 -9 15 -8 19 4 4 8 13 12 22 9 10 -4 15 0 15
10 0 10 8 16 21 16 15 0 19 -4 15 -16 -3 -9 -6 -20 -6 -25 0 -5 -6 -9 -14 -9
-8 0 -16 -7 -20 -15 -3 -8 -12 -12 -21 -9 -8 4 -17 0 -21 -9 -3 -9 -12 -13
-21 -10 -20 8 -34 -16 -26 -44 4 -17 1 -23 -11 -23 -10 0 -21 -12 -27 -27 -5
-16 -31 -44 -57 -63 -61 -44 -111 -98 -124 -132 -5 -16 -15 -28 -22 -28 -12 0
-106 74 -118 94 -10 14 -10 18 1 35 7 11 12 11 32 -2 20 -15 23 -15 34 0 10
14 9 20 -8 34 -19 15 -23 15 -32 2 -10 -13 -15 -13 -34 -2 -18 12 -23 12 -31
-1 -15 -24 -45 1 -45 38 0 42 -16 57 -43 41 -18 -11 -24 -10 -41 5 -14 13 -19
26 -15 42 4 17 1 26 -12 31 -10 4 -19 2 -22 -5 -2 -7 -9 -12 -15 -12 -18 0
-46 31 -40 46 3 8 0 14 -6 14 -6 0 -11 7 -11 16 0 9 -8 23 -17 30 -16 12 -16
13 8 14 15 0 29 -7 33 -15 5 -15 36 -22 36 -8 0 4 -12 18 -26 30 -24 20 -25
23 -9 29 10 4 21 1 26 -7 7 -12 12 -12 29 -1 12 7 30 10 40 7 27 -9 34 12 9
26 -19 9 -25 9 -35 -5 -9 -13 -20 -16 -49 -10 -29 5 -40 2 -60 -16 -23 -22
-29 -22 -137 -15 -62 4 -162 17 -223 30 l-110 22 -3 74 c-2 40 2 102 9 138 15
84 17 123 8 136 -4 6 -9 39 -13 75 -3 36 -3 59 0 53 9 -19 32 -15 44 7 13 24
45 28 36 4 -3 -9 -9 -28 -12 -42 -4 -23 -1 -21 20 13 28 43 22 55 -26 55 -17
0 -29 7 -33 19 -3 10 -15 21 -25 24 -11 3 -20 14 -20 25 0 17 4 18 53 10 120
-20 195 -30 242 -35 28 -2 59 -8 70 -13 41 -17 58 -20 69 -12 6 5 22 12 35 15
18 4 24 1 28 -14 6 -20 17 -21 108 -4 11 2 27 4 34 4 12 1 12 4 3 13 -7 7 -12
18 -12 25 0 19 59 17 66 -2 7 -17 64 -21 64 -5 0 5 -12 13 -27 16 -27 7 -43
20 -43 37 0 4 16 7 35 7 37 0 42 9 23 39 -16 26 -3 51 27 51 16 0 25 6 25 15
0 8 -7 15 -16 15 -8 0 -24 4 -34 10 -26 14 -15 50 16 50 36 0 33 38 -3 42 -20
2 -29 9 -31 25 -3 17 2 22 25 25 39 4 44 35 6 40 -22 2 -29 9 -31 31 -3 23 0
27 22 27 19 0 26 5 26 20 0 15 -7 20 -29 20 -23 0 -30 5 -33 22 -2 14 -12 24
-28 28 l-25 6 23 13 c20 11 25 10 36 -4 15 -21 50 -16 54 7 2 12 -5 19 -23 24
-33 8 -32 47 3 52 14 2 22 10 22 23 0 27 -46 26 -53 -1 -3 -12 -14 -20 -25
-20 -13 0 -22 -9 -26 -25 -5 -20 -13 -25 -36 -25 -24 0 -29 -5 -32 -27 -3 -25
-7 -28 -38 -28 -30 0 -35 3 -35 24 0 18 -7 26 -27 32 -30 8 -38 3 -38 -23 0
-13 -8 -18 -30 -18 -25 0 -30 4 -30 25 0 21 5 25 31 25 26 0 30 3 27 23 -5 34
-45 36 -54 2 -8 -33 -47 -32 -52 2 -2 14 -11 23 -25 25 -16 2 -21 9 -19 26 3
18 -2 22 -22 22 -14 0 -26 3 -26 8 1 30 50 41 50 10 0 -11 7 -18 20 -18 15 0
20 -7 20 -25 0 -21 5 -25 31 -25 26 0 30 3 27 23 -2 14 -11 23 -25 25 -14 2
-20 8 -16 17 3 9 -4 18 -20 24 -19 7 -24 15 -20 30 4 17 1 21 -21 21 -29 0
-36 24 -10 34 26 10 34 7 34 -13 0 -13 8 -21 23 -23 16 -2 21 -9 20 -26 -2
-18 2 -22 27 -22 25 0 30 4 30 25 0 18 -5 25 -20 25 -13 0 -20 7 -20 20 0 15
7 20 25 20 18 0 25 -5 25 -20 0 -16 7 -20 30 -20 23 0 30 4 30 20 0 15 -7 20
-25 20 -20 0 -25 5 -25 25 0 20 -5 25 -25 25 -20 0 -25 5 -25 25 0 20 -5 25
-25 25 -18 0 -25 5 -25 20 0 15 7 20 25 20 18 0 25 -5 25 -19z m-991 -44 c6
-8 8 -17 4 -20 -7 -8 -33 11 -33 24 0 13 16 11 29 -4z m931 -7 c0 -21 -33 -29
-45 -10 -9 15 4 30 26 30 12 0 19 -7 19 -20z m-4036 -73 c5 -22 4 -28 -6 -25
-7 3 -14 13 -15 24 -1 10 -4 35 -8 54 l-6 35 14 -30 c7 -16 17 -43 21 -58z
m3562 38 c4 -8 14 -15 24 -15 35 0 32 -49 -2 -50 -5 0 -8 -9 -8 -20 0 -22 35
-28 43 -7 3 6 6 2 6 -9 1 -12 8 -27 17 -35 11 -9 14 -22 9 -46 -5 -29 -3 -34
20 -43 26 -10 32 -24 14 -35 -5 -4 -9 -17 -7 -28 3 -27 -9 -47 -28 -47 -19 0
-18 40 3 55 22 17 10 49 -16 40 -13 -4 -23 0 -29 11 -12 22 -45 11 -40 -13 2
-12 12 -18 28 -18 31 0 39 -29 12 -46 -28 -17 -17 -52 13 -45 28 7 42 -21 21
-42 -16 -16 -36 -8 -36 14 0 10 -7 13 -24 8 -16 -4 -25 -1 -30 11 -4 12 -13
15 -27 12 -15 -4 -23 0 -26 14 -3 10 -13 19 -23 19 -13 0 -17 6 -13 20 6 23
23 27 23 5 0 -17 2 -18 24 -9 24 9 20 44 -4 44 -13 0 -20 7 -20 19 0 28 19 36
34 15 8 -10 20 -15 29 -11 22 8 10 47 -14 47 -11 0 -19 7 -19 15 0 8 -7 15
-14 15 -18 0 -66 43 -66 59 0 17 20 13 27 -5 3 -8 12 -13 20 -10 9 4 17 -1 20
-14 4 -14 11 -19 23 -15 12 4 19 -1 23 -14 3 -14 11 -18 25 -15 14 4 21 0 25
-16 5 -18 9 -20 25 -11 29 15 18 53 -13 45 -17 -4 -24 0 -28 15 -3 15 -10 19
-22 15 -11 -5 -18 0 -21 14 -4 13 -12 18 -25 15 -15 -4 -19 0 -19 21 0 30 17
34 35 9 17 -23 45 -10 38 17 -4 15 -11 19 -24 15 -15 -5 -19 -1 -19 19 0 29
27 36 36 11z m522 -7 c-2 -17 -9 -22 -23 -20 -26 5 -29 8 -22 27 4 8 16 15 27
15 16 0 21 -5 18 -22z m-110 -5 c-2 -10 -12 -18 -23 -18 -11 0 -21 8 -23 18
-3 13 3 17 23 17 20 0 26 -4 23 -17z m-488 -23 c0 -11 -7 -20 -15 -20 -8 0
-15 9 -15 20 0 11 7 20 15 20 8 0 15 -9 15 -20z m-60 -32 c0 -7 -6 -20 -13
-29 -11 -15 -16 -15 -37 -4 l-23 13 21 6 c12 4 22 12 22 17 0 5 7 9 15 9 8 0
15 -6 15 -12z m-3285 -28 c19 -8 19 -9 -2 -9 -12 -1 -25 4 -28 9 -7 12 2 12
30 0z m3825 -11 c0 -15 -5 -20 -22 -17 -34 5 -37 38 -4 38 20 0 26 -5 26 -21z
m-4005 -39 c3 -5 -1 -10 -9 -10 -9 0 -16 5 -16 10 0 6 4 10 9 10 6 0 13 -4 16
-10z m72 -12 c-3 -8 -6 -5 -6 6 -1 11 2 17 5 13 3 -3 4 -12 1 -19z m1179 -86
c4 -32 18 -58 56 -103 61 -74 55 -92 -8 -23 l-45 49 4 -66 c3 -37 1 -73 -4
-80 -5 -9 -9 19 -9 69 0 91 -6 108 -57 165 -19 22 -32 42 -28 45 4 4 19 -8 34
-25 15 -18 31 -33 34 -33 4 0 8 26 9 58 1 35 3 43 5 22 2 -19 6 -54 9 -78z
m-1310 91 c-10 -11 -36 -12 -36 -2 0 5 10 9 22 9 12 0 18 -3 14 -7z m3531 -25
c-3 -8 -6 -5 -6 6 -1 11 2 17 5 13 3 -3 4 -12 1 -19z m-784 -55 l42 -68 3 63
c3 57 5 62 26 62 22 0 23 -3 30 -132 7 -139 1 -162 -32 -142 -9 6 -33 39 -52
75 l-35 64 -3 -67 c-3 -63 -4 -68 -26 -68 -21 0 -24 5 -29 68 -4 37 -7 100 -7
140 0 66 2 72 20 72 15 0 33 -20 63 -67z m175 43 c5 -23 -10 -38 -30 -31 -17
7 -30 40 -20 50 12 12 47 -1 50 -19z m652 -5 c0 -11 -4 -23 -10 -26 -6 -4 -10
5 -10 19 0 14 5 26 10 26 6 0 10 -9 10 -19z m470 4 c0 -9 -7 -18 -16 -22 -18
-7 -39 11 -30 26 11 17 46 13 46 -4z m-4130 -25 c0 -5 -5 -10 -11 -10 -5 0 -7
5 -4 10 3 6 8 10 11 10 2 0 4 -4 4 -10z m921 -13 c19 -12 45 -43 59 -67 20
-37 24 -58 24 -121 -1 -221 -179 -321 -266 -150 -49 97 -33 245 35 312 54 54
96 61 148 26z m2659 -16 c0 -24 -4 -29 -20 -26 -11 2 -20 -2 -21 -8 0 -7 0
-54 1 -104 l1 -93 -30 0 c-30 0 -31 1 -31 49 0 26 5 63 11 82 13 38 70 128 82
129 4 0 7 -13 7 -29z m590 9 c0 -14 -7 -20 -24 -20 -19 0 -23 4 -19 20 3 11
14 20 24 20 12 0 19 -7 19 -20z m-1162 -113 c3 -108 3 -108 -20 -105 -22 3
-23 7 -26 111 -3 108 -3 108 20 105 22 -3 23 -7 26 -111z m72 64 c0 -21 -6
-44 -14 -50 -11 -10 -17 -3 -30 35 -9 26 -16 49 -16 51 0 2 14 3 30 3 28 0 30
-2 30 -39z m552 7 c-9 -9 -12 -7 -12 12 0 19 3 21 12 12 9 -9 9 -15 0 -24z
m-2103 1 c-19 -12 -49 -11 -49 0 0 10 40 20 54 13 4 -3 2 -8 -5 -13z m2574 -9
c-3 -11 -14 -20 -24 -20 -21 0 -22 1 -13 24 9 25 43 21 37 -4z m117 11 c0 -22
-13 -41 -29 -41 -24 0 -30 8 -24 31 5 19 53 28 53 10z m-583 -93 c-3 -7 -5 -2
-5 12 0 14 2 19 5 13 2 -7 2 -19 0 -25z m1498 20 c-3 -7 -24 -23 -47 -36 l-41
-22 19 22 c37 44 80 66 69 36z m-4908 -30 c-3 -8 -6 -5 -6 6 -1 11 2 17 5 13
3 -3 4 -12 1 -19z m3466 -8 c3 -11 4 -20 2 -20 -2 0 -10 -3 -18 -6 -17 -6 -31
33 -13 40 20 8 24 6 29 -14z m-2358 -20 c-9 -16 -20 -30 -25 -30 -5 0 -1 13 8
30 22 39 37 39 17 0z m2285 -57 c0 -7 -6 -13 -14 -13 -14 0 -28 65 -17 76 6 6
30 -43 31 -63z m130 46 c0 -25 -33 -22 -38 4 -2 12 3 17 17 17 15 0 21 -6 21
-21z m-3510 -123 c0 -2 -30 -14 -67 -26 -38 -13 -77 -30 -88 -40 -21 -18 -59
-40 -70 -40 -4 0 8 14 26 32 40 38 199 97 199 74z m2764 -13 c-4 -10 -8 -30
-8 -45 -1 -41 -16 -46 -16 -5 0 20 -5 39 -10 42 -15 9 -2 25 22 25 15 0 18 -4
12 -17z m576 -32 c0 -9 -11 -28 -25 -41 -23 -22 -25 -22 -26 -4 0 10 -2 28 -4
39 -2 10 1 25 7 32 14 17 48 -1 48 -26z m-1680 14 c0 -9 7 -18 15 -21 17 -7
20 -40 5 -49 -5 -3 -10 -23 -10 -45 0 -39 15 -54 45 -45 8 3 22 7 31 10 13 4
10 11 -16 35 -26 25 -31 35 -26 58 8 33 34 54 61 50 28 -4 32 -38 6 -45 -27
-7 -26 -11 4 -35 55 -43 5 -144 -51 -103 -16 11 -20 10 -32 -6 -7 -10 -17 -19
-22 -19 -21 0 -40 34 -40 73 0 58 -10 71 -39 51 -20 -14 -22 -23 -19 -72 2
-46 0 -57 -13 -60 -20 -4 -29 35 -29 119 l0 58 45 7 c33 5 45 11 45 23 0 10 3
21 7 24 12 13 33 7 33 -8z m1750 -25 c0 -16 5 -30 10 -30 6 0 10 -7 10 -15 0
-21 -17 -19 -30 4 -13 25 -13 71 0 71 6 0 10 -13 10 -30z m-560 -21 c0 -10 -4
-19 -10 -19 -5 0 -10 12 -10 26 0 14 4 23 10 19 6 -3 10 -15 10 -26z m-1620
-24 c0 -20 -5 -24 -22 -22 -33 3 -36 -30 -4 -44 54 -25 54 -129 -1 -150 -31
-12 -63 4 -63 32 0 16 6 19 28 17 21 -2 28 2 30 19 2 14 -3 23 -18 28 -33 10
-53 49 -45 87 10 46 22 58 61 58 30 0 34 -3 34 -25z m264 -7 c10 -13 16 -43
16 -73 0 -63 -20 -95 -60 -95 -39 0 -60 32 -60 91 0 82 66 131 104 77z m-127
-35 c27 -65 6 -153 -38 -153 -13 0 -19 -9 -21 -32 -2 -21 -9 -34 -20 -36 -13
-3 -17 9 -23 70 -10 111 -4 174 17 170 9 -1 19 2 23 8 14 23 46 10 62 -27z
m-277 13 c0 -8 7 -16 15 -20 18 -7 20 -33 3 -38 -18 -6 -11 -90 9 -105 18 -14
10 -43 -11 -43 -22 0 -36 32 -36 82 0 24 -5 49 -11 55 -14 14 -1 83 17 83 8 0
14 -6 14 -14z m-407 -43 c11 -10 -13 -33 -34 -33 -15 0 -19 -7 -19 -31 0 -26
3 -30 22 -27 15 2 24 -3 26 -14 2 -11 -5 -18 -20 -20 -18 -2 -24 -10 -26 -35
-3 -30 -1 -33 26 -33 16 0 32 -3 35 -7 13 -13 -16 -33 -48 -33 -31 0 -32 1
-39 53 -10 88 -7 175 7 180 18 8 63 8 70 0z m344 -23 c15 -29 13 -145 -2 -145
-5 0 -12 28 -15 62 -3 34 -8 65 -13 69 -16 16 -31 -18 -31 -73 -1 -83 -20 -77
-29 9 -8 85 -6 95 25 101 39 8 52 3 65 -23z m2887 5 c3 -8 1 -15 -4 -15 -6 0
-10 7 -10 15 0 8 2 15 4 15 2 0 6 -7 10 -15z m120 9 c18 -7 21 -30 6 -39 -18
-11 -50 6 -50 26 0 19 16 24 44 13z m-3140 -20 c9 -8 16 -30 16 -49 0 -30 -3
-33 -36 -39 -26 -5 -34 -12 -32 -24 3 -12 13 -17 36 -16 21 1 32 -3 32 -12 0
-19 -37 -36 -61 -29 -43 14 -54 122 -17 162 25 27 41 29 62 7z m3286 -4 c0
-16 -7 -20 -30 -20 -23 0 -30 4 -30 20 0 16 7 20 30 20 23 0 30 -4 30 -20z
m126 10 c8 0 14 -9 14 -20 0 -16 -7 -20 -31 -20 -22 0 -32 -5 -36 -20 -4 -14
-14 -20 -34 -20 -22 0 -29 5 -29 20 0 16 7 20 36 20 28 0 35 4 33 18 -3 29 0
34 17 28 9 -3 22 -6 30 -6z m-4301 -10 c3 -5 -1 -10 -9 -10 -9 0 -16 5 -16 10
0 6 4 10 9 10 6 0 13 -4 16 -10z m795 -15 c0 -12 -10 -69 -26 -142 -9 -46 -33
-24 -55 50 -27 89 -27 89 -12 94 8 3 17 -13 24 -41 6 -25 15 -46 19 -46 5 0
11 19 15 43 4 23 9 45 12 50 7 12 23 8 23 -8z m3180 -14 c0 -11 -26 -22 -34
-14 -12 12 -5 23 14 23 11 0 20 -4 20 -9z m140 -16 c0 -10 -10 -15 -30 -15
-20 0 -30 5 -30 15 0 10 10 15 30 15 20 0 30 -5 30 -15z m-202 -35 c4 -12 3
-13 -10 -3 -8 7 -18 10 -21 6 -4 -3 -7 -1 -7 6 0 17 32 10 38 -9z m135 -4 c8
-19 1 -24 -28 -18 -14 2 -25 11 -25 18 0 18 46 18 53 0z m135 -8 c3 -14 -3
-18 -27 -18 -29 0 -41 17 -24 34 13 13 48 1 51 -16z m-2544 -82 c-3 -8 -1 -17
5 -21 14 -8 14 -45 1 -45 -22 0 -25 2 -22 15 1 7 -2 16 -8 20 -5 3 -10 -2 -10
-13 0 -23 -22 -44 -36 -34 -6 4 -16 16 -22 27 -11 20 -11 20 -12 -2 0 -34 -17
-37 -34 -6 l-15 28 -1 -26 c0 -24 -16 -39 -41 -39 -5 0 -9 14 -9 31 0 42 -24
33 -28 -11 -3 -24 -6 -30 -12 -19 -8 11 -12 11 -24 -6 -12 -16 -16 -17 -30 -6
-13 11 -19 9 -39 -13 -32 -34 -37 -33 -37 10 0 32 -2 35 -15 24 -13 -11 -13
-15 -3 -21 10 -6 10 -11 1 -20 -9 -9 -16 -9 -28 1 -13 11 -18 10 -29 -5 -8
-11 -20 -16 -30 -12 -21 8 -22 70 -1 87 8 7 15 19 15 27 0 8 5 11 10 8 6 -3
10 -15 10 -27 0 -17 3 -18 15 -8 8 6 23 9 35 5 12 -4 20 -2 20 6 0 7 10 9 30
6 16 -4 32 -2 35 3 11 17 45 11 46 -7 0 -14 2 -13 9 5 5 12 16 22 25 22 8 0
15 5 15 10 0 6 11 8 28 4 15 -4 32 -7 37 -8 6 0 13 -5 18 -11 5 -7 10 -7 15 0
16 22 53 36 66 25 10 -7 17 -6 26 5 14 17 32 11 24 -9z m-639 -113 c-1 -16 0
-19 2 -8 8 33 25 47 50 40 13 -3 23 -1 23 5 0 5 7 10 16 10 9 0 14 -6 11 -12
-2 -7 0 -21 4 -30 11 -21 1 -48 -18 -48 -10 0 -12 6 -8 20 9 27 -8 25 -20 -2
-8 -18 -18 -23 -45 -23 -28 0 -35 4 -41 25 -7 24 -7 24 -8 -5 l-2 -30 -14 30
-13 30 -1 -27 c-1 -29 -17 -39 -23 -13 -2 11 -7 12 -18 4 -11 -8 -12 -12 -2
-16 19 -8 14 -23 -8 -23 -11 0 -23 7 -27 17 -5 14 -8 13 -15 -6 -8 -23 -28
-20 -28 5 0 16 -9 18 -30 4 -10 -6 -11 -10 -2 -10 6 0 12 -7 12 -16 0 -9 -7
-14 -17 -12 -14 2 -18 13 -18 43 0 34 3 40 23 43 13 2 30 -2 38 -8 11 -10 14
-9 14 4 0 10 5 14 10 11 6 -4 18 -1 26 6 11 9 18 9 26 1 8 -8 15 -7 26 4 8 8
21 13 29 10 7 -3 16 1 20 9 9 24 30 0 28 -32z m-11 -111 c3 -5 8 -28 12 -51 5
-31 3 -41 -6 -39 -6 2 -17 -5 -23 -15 -10 -15 -9 -20 6 -28 11 -7 17 -22 17
-49 l0 -39 -55 3 c-64 3 -78 -7 -38 -26 16 -7 29 -23 31 -34 3 -20 -1 -21 -81
-19 -47 1 -91 6 -98 11 -8 5 -33 9 -57 10 -51 2 -122 31 -122 51 0 10 6 12 20
8 18 -6 19 -3 13 27 -3 18 -10 41 -14 50 -5 9 -9 32 -9 51 0 38 12 47 63 47
18 0 64 7 102 15 39 8 98 16 133 18 35 3 66 7 69 11 9 9 31 7 37 -2z m3743
-38 c5 -16 -49 -35 -64 -23 -18 15 -16 29 5 45 14 10 21 10 36 0 11 -7 21 -17
23 -22z m-4659 -229 c-21 -18 -38 -40 -38 -49 0 -9 -8 -24 -17 -34 -10 -10
-24 -30 -32 -44 -8 -15 -28 -34 -45 -42 -30 -15 -31 -15 -34 10 -5 37 41 128
82 160 78 63 154 62 84 -1z m997 15 c-4 -6 -11 -8 -16 -5 -5 4 -9 -1 -9 -9 0
-9 3 -15 8 -15 20 3 32 -2 27 -12 -4 -6 -13 -8 -20 -5 -7 2 -17 0 -23 -6 -6
-6 -27 -7 -50 -3 -32 5 -39 10 -38 28 1 32 42 36 52 5 7 -23 7 -23 16 5 7 20
16 27 34 27 15 0 23 -4 19 -10z m145 -10 c0 -5 -9 -10 -20 -10 -11 0 -20 5
-20 10 0 6 9 10 20 10 11 0 20 -4 20 -10z m690 -10 c146 -6 353 -15 460 -20
107 -6 308 -15 445 -20 568 -22 800 -33 806 -39 4 -3 10 -20 14 -38 6 -29 3
-33 -31 -49 -29 -14 -40 -15 -55 -6 -10 7 -38 12 -61 12 -24 0 -72 5 -108 10
-36 6 -112 13 -170 16 -58 3 -224 14 -370 25 -146 11 -398 28 -560 39 -162 11
-309 22 -326 25 -49 8 -65 -2 -52 -31 13 -29 0 -48 -25 -38 -19 7 -23 39 -7
49 34 21 -4 33 -125 40 -44 2 -125 7 -180 11 l-100 7 50 13 c28 6 68 10 90 8
22 -2 159 -8 305 -14z m-503 4 c-3 -3 -12 -4 -19 -1 -8 3 -5 6 6 6 11 1 17 -2
13 -5z m-177 -33 c0 -6 -4 -13 -10 -16 -5 -3 -10 1 -10 9 0 9 5 16 10 16 6 0
10 -4 10 -9z m-38 -108 c6 -47 1 -63 -18 -56 -14 5 -20 73 -7 86 14 14 21 6
25 -30z m2916 19 c2 -7 -7 -12 -22 -12 -27 0 -35 15 -13 23 17 7 30 3 35 -11z
m-2625 -94 c4 -51 11 -151 17 -222 6 -71 8 -131 5 -134 -2 -3 -11 1 -19 7 -9
8 -17 42 -21 94 -8 97 -13 346 -6 352 12 13 19 -13 24 -97z m3871 60 c37 -8
59 -21 92 -55 l43 -44 23 35 c43 66 75 76 249 75 85 0 217 -4 294 -10 77 -5
178 -11 225 -13 91 -5 266 -15 800 -46 476 -28 678 -39 815 -45 697 -30 1144
-54 1186 -65 58 -16 122 -71 112 -97 -8 -21 -41 -15 -59 12 -12 18 -25 25 -50
25 -26 0 -32 -3 -27 -16 3 -9 0 -20 -8 -25 -23 -15 -31 -10 -25 15 5 22 2 24
-47 29 -28 3 -87 6 -130 7 -61 1 -78 -2 -83 -14 -9 -24 -44 -20 -44 4 0 17 -7
20 -50 20 -36 0 -52 -5 -59 -17 -9 -17 -11 -16 -31 2 -22 20 7 18 -540 40 -90
4 -167 8 -170 10 -3 2 -95 7 -203 10 -180 7 -197 6 -197 -10 0 -19 -28 -50
-37 -41 -3 3 -6 18 -7 33 -1 28 -2 28 -66 28 l-65 0 0 -45 c0 -25 -4 -51 -8
-57 -11 -18 -44 -16 -50 2 -6 14 -4 28 9 88 6 27 5 27 -48 29 -98 3 -162 5
-298 12 l-136 7 4 -69 c4 -65 3 -70 -18 -77 -12 -4 -26 -3 -31 2 -13 13 -14
112 -1 125 23 23 11 28 -64 28 l-76 0 3 -77 4 -78 -30 0 -30 0 0 65 c1 36 4
73 9 83 7 15 1 17 -69 17 l-77 0 7 -84 c7 -80 6 -84 -14 -91 -11 -3 -25 -4
-30 -1 -15 9 -23 136 -10 152 18 22 1 31 -73 37 -47 3 -69 1 -70 -7 -1 -6 -2
-47 -3 -91 0 -79 0 -80 -25 -80 -24 0 -25 3 -30 69 -4 48 -1 74 9 88 7 11 10
22 7 25 -3 3 -82 9 -175 14 -94 4 -179 13 -189 18 -11 6 -21 8 -24 6 -2 -2
-20 -5 -39 -6 -102 -5 -149 -45 -149 -127 0 -37 -3 -42 -27 -48 -44 -9 -51
-14 -15 -11 42 5 48 -6 20 -33 -21 -20 -30 -21 -96 -16 -41 3 -81 10 -90 15
-15 8 -13 11 11 20 16 6 33 11 38 11 13 0 11 29 -6 88 -21 70 -69 95 -143 76
-21 -6 -23 -12 -21 -61 2 -38 -2 -57 -11 -63 -12 -7 -11 -12 4 -29 20 -22 14
-43 -9 -34 -8 3 -15 16 -15 29 0 14 -7 27 -15 30 -11 5 -15 22 -15 64 0 56 -1
58 -31 64 -17 3 -56 6 -85 6 l-54 0 0 -54 c0 -47 -3 -56 -21 -61 -31 -10 -44
10 -42 64 2 41 -1 50 -17 54 -15 4 -20 14 -20 39 0 19 3 38 8 42 9 11 364 -3
426 -16z m-3603 -24 c4 -16 15 -128 24 -249 8 -121 18 -246 22 -279 5 -53 4
-58 -13 -54 -16 3 -20 16 -26 93 -4 50 -12 142 -18 205 -16 172 -19 321 -6
317 5 -2 13 -17 17 -33z m1506 11 c-7 -16 -3 -20 36 -29 19 -4 26 -3 22 4 -3
6 3 10 14 10 14 0 21 -6 21 -20 0 -16 -7 -20 -37 -20 -61 0 -83 10 -83 34 0
24 8 36 23 36 5 0 7 -7 4 -15z m-959 -33 c0 -9 7 -98 16 -197 9 -99 20 -225
25 -280 5 -55 6 -114 4 -132 -3 -18 0 -61 5 -95 16 -89 26 -244 17 -235 -21
19 -43 150 -44 256 -1 62 -6 122 -12 133 -6 11 -9 31 -6 45 4 21 -3 113 -17
230 -14 109 -25 284 -20 298 8 20 33 2 32 -23z m2576 13 c-4 -8 -11 -15 -16
-15 -6 0 -17 -8 -24 -17 -9 -13 -16 -15 -24 -7 -16 16 -1 46 20 39 10 -3 21
-1 25 5 10 16 25 12 19 -5z m-2305 -81 c1 -28 5 -75 11 -105 13 -76 20 -293 8
-281 -5 5 -11 33 -14 63 -6 70 -21 206 -32 289 -9 63 -9 71 4 108 6 15 7 15
14 -3 5 -11 9 -43 9 -71z m1076 45 c4 -18 2 -36 -6 -45 -19 -23 -32 -1 -23 38
4 18 7 37 6 41 -2 5 2 6 7 3 5 -4 12 -20 16 -37z m485 26 c10 -12 10 -18 0
-30 -19 -23 -43 -19 -35 5 10 30 -14 24 -60 -15 -39 -33 -43 -61 -5 -37 20 12
36 1 25 -18 -9 -14 -72 -13 -81 2 -4 6 14 31 44 60 53 50 89 61 112 33z
m-1309 -37 c1 -13 3 -39 5 -58 2 -19 9 -78 15 -130 18 -168 23 -277 11 -284
-14 -9 -18 9 -31 169 -22 266 -24 325 -12 325 6 0 12 -10 12 -22z m269 -51 c0
-29 7 -115 15 -192 9 -77 20 -196 25 -265 5 -69 15 -171 22 -227 l12 -101 102
-7 c109 -8 124 -5 119 23 -1 9 -6 60 -9 112 -4 52 -11 127 -17 165 -11 82 -27
260 -35 398 -6 85 -4 97 10 97 12 0 16 -11 18 -42 2 -62 4 -92 16 -193 14
-115 31 -309 39 -452 3 -62 9 -113 14 -113 4 0 11 12 17 28 12 34 113 193 136
211 14 12 30 10 113 -13 190 -53 386 -172 366 -222 -4 -12 -3 -15 5 -10 17 10
15 -9 -2 -23 -7 -6 -21 -8 -30 -5 -12 5 -17 2 -14 -8 2 -8 -10 -29 -27 -45
-16 -17 -45 -50 -62 -75 -18 -24 -44 -58 -58 -74 -60 -67 -113 -192 -98 -229
8 -24 17 -18 42 29 14 25 43 56 70 74 44 29 66 27 41 -4 -7 -8 -11 -17 -8 -19
3 -3 21 20 42 50 20 30 42 55 49 55 23 0 37 -42 42 -120 3 -41 9 -109 14 -150
12 -99 3 -114 -35 -58 -48 72 -127 178 -131 174 -2 -2 -6 -25 -8 -52 -6 -61
12 -92 43 -73 16 10 22 10 33 -2 110 -118 119 -130 130 -173 12 -50 13 -61 2
-61 -22 -1 -53 -28 -53 -47 0 -28 -21 -100 -34 -117 -6 -7 -10 -43 -11 -80 l0
-66 -39 -2 c-47 -3 -90 25 -110 70 -8 18 -27 46 -42 62 -46 49 -64 82 -70 129
-4 24 -9 48 -13 52 -12 18 -51 34 -66 28 -8 -3 -15 -1 -15 6 0 6 -4 9 -10 5
-9 -6 -45 63 -52 100 -2 17 2 20 30 17 27 -3 35 2 50 27 9 17 24 31 31 31 23
0 1 15 -51 34 -25 9 -52 24 -58 32 -8 9 -32 14 -71 14 -53 0 -61 3 -93 35 -41
41 -56 44 -56 11 0 -34 23 -84 64 -138 21 -27 41 -69 48 -98 7 -31 14 -46 19
-38 14 23 109 -83 109 -121 0 -7 -8 -7 -26 -1 -14 6 -41 10 -61 10 -20 0 -64
5 -99 12 l-64 11 0 48 c0 57 -17 76 -101 117 -79 38 -88 54 -100 174 -22 217
-36 473 -26 485 6 8 6 39 1 80 -4 38 -9 93 -10 123 -3 103 -24 385 -38 510 -8
69 -12 128 -9 133 11 19 23 -9 23 -56z m390 53 c0 -5 -11 -10 -25 -10 -14 0
-25 5 -25 10 0 6 11 10 25 10 14 0 25 -4 25 -10z m2317 -89 l6 -81 -26 0 c-31
0 -37 15 -37 90 0 41 5 64 16 75 26 25 35 6 41 -84z m-4591 -36 c-3 -8 -10
-15 -16 -15 -12 0 -14 123 -2 134 9 10 26 -99 18 -119z m3010 100 c16 -25 16
-27 -6 -50 -45 -48 -96 -76 -124 -69 -23 5 -46 30 -46 49 0 3 21 26 48 50 57
54 101 61 128 20z m1787 7 c9 -13 12 -147 4 -159 -11 -18 -44 -16 -51 3 -11
28 -6 140 6 152 14 14 34 16 41 4z m-2413 -80 c0 -7 -4 -10 -10 -7 -5 3 -10
16 -10 28 0 18 2 19 10 7 5 -8 10 -21 10 -28z m722 -17 c11 -15 -15 -30 -77
-45 -55 -13 -66 -25 -43 -48 25 -25 -3 -23 -37 2 -51 39 -45 52 28 66 82 15
93 22 72 43 -27 28 -6 41 23 15 15 -13 30 -27 34 -33z m2630 4 c2 -41 0 -53
-15 -61 -27 -14 -47 8 -47 51 0 40 14 61 41 61 13 0 18 -11 21 -51z m176 -1
c-3 -38 -6 -43 -28 -43 -20 0 -26 6 -28 28 -4 33 13 57 40 57 16 0 19 -6 16
-42z m625 -13 c1 -5 -10 -11 -25 -13 -16 -2 -28 1 -28 7 0 20 49 26 53 6z
m-3403 -34 c0 -11 -4 -23 -10 -26 -5 -3 -10 -11 -10 -17 0 -10 16 -8 53 7 38
16 14 -12 -30 -34 -27 -14 -58 -33 -70 -44 -33 -29 -50 -11 -20 22 14 14 34
45 46 69 23 45 41 55 41 23z m-747 -28 c6 -31 -1 -55 -14 -47 -12 7 -12 74 0
74 5 0 11 -12 14 -27z m3607 6 c0 -5 -10 -9 -21 -9 -18 0 -19 2 -9 15 12 15
30 12 30 -6z m1424 5 c9 -3 16 -12 16 -20 0 -16 -28 -18 -50 -4 -13 9 -13 11
0 20 18 12 15 11 34 4z m281 -4 c-3 -5 -10 -10 -16 -10 -5 0 -9 5 -9 10 0 6 7
10 16 10 8 0 12 -4 9 -10z m-3140 -21 c4 -12 3 -25 -2 -30 -16 -16 -43 2 -43
27 0 31 36 33 45 3z m-745 -15 c0 -8 -4 -14 -10 -14 -5 0 -10 9 -10 21 0 11 5
17 10 14 6 -3 10 -13 10 -21z m1800 12 c0 -2 3 -11 6 -20 4 -12 0 -16 -15 -16
-14 0 -21 6 -21 20 0 11 7 20 15 20 8 0 15 -2 15 -4z m-3020 -46 c0 -5 -5 -10
-11 -10 -5 0 -7 5 -4 10 3 6 8 10 11 10 2 0 4 -4 4 -10z m1700 -11 c0 -5 9
-19 20 -31 32 -35 19 -118 -19 -118 -14 0 -14 33 1 48 9 9 8 13 -4 17 -10 4
-14 14 -11 26 3 10 0 25 -6 33 -13 15 -4 49 10 40 5 -3 9 -10 9 -15z m-3070 1
c0 -5 -5 -10 -11 -10 -5 0 -7 5 -4 10 3 6 8 10 11 10 2 0 4 -4 4 -10z m93 -12
c13 1 17 -5 15 -21 -2 -16 -11 -23 -33 -24 -16 -1 -25 0 -18 3 8 4 3 14 -15
30 l-27 25 30 -7 c17 -4 38 -6 48 -6z m1487 -38 c0 -21 -27 -29 -48 -14 -18
12 -20 19 -12 35 10 18 12 18 35 3 14 -9 25 -20 25 -24z m-3838 3 c0 -4 4 -18
9 -30 5 -13 5 -38 2 -55 l-7 -33 -7 40 c-10 49 -11 100 -3 93 3 -4 6 -10 6
-15z m376 -5 c8 -18 11 -19 11 -5 1 20 4 21 105 5 l79 -12 -7 -90 c-3 -50 -10
-140 -15 -201 -6 -60 -19 -231 -30 -380 -25 -324 -29 -355 -47 -355 -8 0 -14
6 -14 14 0 24 -66 -15 -78 -46 -8 -21 -7 -28 2 -28 6 0 17 -28 24 -65 15 -78
15 -98 2 -90 -6 4 -13 -7 -16 -25 -4 -17 -11 -33 -15 -36 -12 -7 -12 -34 0
-34 5 0 11 14 15 32 9 44 14 32 17 -37 1 -33 6 -65 11 -71 5 -7 4 -23 -2 -38
-5 -15 -10 -43 -10 -62 0 -23 -5 -34 -14 -34 -24 0 -31 21 -33 105 -1 44 -5
116 -8 160 -4 44 -8 105 -10 135 -8 116 -8 115 -46 113 -72 -4 -154 -2 -161 5
-4 4 -16 138 -28 297 -11 160 -27 353 -35 430 -7 77 -17 181 -20 232 l-7 92
48 4 c27 2 99 4 160 5 106 2 111 1 122 -20z m3372 11 c12 -9 12 -10 -4 -5 -16
6 -17 4 -6 -9 19 -23 6 -28 -19 -6 -16 14 -18 21 -9 24 19 8 22 8 38 -4z
m1109 -31 c5 -26 12 -34 34 -36 23 -3 27 -8 29 -38 4 -77 4 -78 -22 -84 -24
-6 -25 -9 -26 -91 0 -110 -2 -119 -14 -97 -9 14 -14 146 -8 198 3 36 -3 80
-12 80 -5 0 -10 -20 -10 -44 0 -43 -1 -44 -37 -50 -21 -3 -85 -7 -143 -8
l-105 -3 0 54 c0 41 4 56 18 65 15 9 22 7 37 -12 18 -22 18 -22 15 30 -4 50
-3 51 7 21 12 -37 11 -37 132 -27 l76 7 6 39 c8 44 13 43 23 -4z m-1422 -4
c-9 -9 -28 6 -21 18 4 6 10 6 17 -1 6 -6 8 -13 4 -17z m153 16 c0 -5 -5 -10
-11 -10 -5 0 -7 5 -4 10 3 6 8 10 11 10 2 0 4 -4 4 -10z m-144 -131 c4 -71 3
-91 -6 -83 -6 6 -11 27 -11 45 0 19 -5 47 -11 62 -8 21 -8 34 2 52 7 14 15 23
17 22 2 -2 6 -46 9 -98z m396 82 c22 -26 8 -47 -21 -32 -23 13 -23 13 -15 35
8 21 16 20 36 -3z m2898 10 c6 0 10 -11 11 -23 1 -22 1 -22 8 2 7 24 10 25 81
25 l75 0 -2 -44 c-1 -24 -8 -48 -15 -52 -24 -15 -110 -10 -130 8 -16 14 -18
14 -18 1 0 -22 -21 -28 -96 -28 l-64 0 0 44 c0 24 6 48 13 54 17 14 81 20 137
13z m-2962 -14 c6 -7 9 -23 6 -35 -4 -13 0 -28 10 -37 19 -19 10 -49 -13 -39
-37 15 -49 15 -55 -1 -4 -11 2 -24 16 -37 19 -16 20 -19 5 -14 -10 3 -23 6
-28 6 -5 0 -9 8 -9 17 0 9 -8 25 -17 35 -23 26 -4 45 27 28 18 -10 24 -9 31 1
13 20 11 35 -6 49 -8 7 -15 19 -15 26 0 18 34 18 48 1z m127 -18 c2 -17 0 -18
-13 -5 -8 8 -11 19 -7 26 9 15 18 5 20 -21z m-201 -4 c-6 -16 -24 -21 -24 -7
0 11 11 22 21 22 5 0 6 -7 3 -15z m162 -74 c0 -11 -5 -17 -13 -14 -17 6 -17
20 0 26 6 3 12 6 12 6 1 1 1 -7 1 -18z m-1172 -131 c3 -55 2 -89 -3 -80 -11
20 -23 196 -12 184 5 -5 11 -52 15 -104z m1119 61 c3 -14 0 -17 -14 -14 -22 6
-26 33 -5 33 7 0 16 -8 19 -19z m1587 -30 c0 -22 7 -70 16 -107 8 -37 12 -74
8 -83 -4 -9 -6 -19 -6 -23 4 -18 -21 -6 -55 26 l-38 34 16 34 c23 47 32 94 23
120 -7 22 -7 22 -15 3 -7 -19 -8 -19 -8 2 -1 20 12 29 47 32 8 1 12 -13 12
-38z m-755 -11 c7 -44 -2 -71 -16 -49 -12 19 -11 89 0 89 5 0 12 -18 16 -40z
m-558 14 c8 -21 -13 -42 -28 -27 -13 13 -5 43 11 43 6 0 13 -7 17 -16z m-4070
-16 c-3 -8 -6 -5 -6 6 -1 11 2 17 5 13 3 -3 4 -12 1 -19z m1011 -25 c5 -63
-28 -107 -91 -122 -51 -12 -97 -14 -97 -6 0 20 99 159 118 167 9 4 28 6 42 5
22 -2 25 -7 28 -44z m4073 -14 c6 -58 -4 -99 -17 -66 -3 10 -4 33 -1 52 3 19
1 37 -4 40 -14 9 -11 37 4 33 6 -3 15 -29 18 -59z m-2644 -124 c24 -261 27
-315 15 -315 -5 0 -12 21 -15 48 -2 26 -9 76 -15 112 -15 87 -21 336 -8 313 5
-10 15 -81 23 -158z m-1707 116 c0 -16 -7 -34 -15 -41 -8 -7 -15 -18 -15 -24
0 -6 -9 -22 -19 -35 -15 -19 -30 -24 -80 -28 l-63 -5 13 23 c6 13 21 36 33 50
12 15 28 40 38 57 13 25 24 31 55 34 49 4 53 2 53 -31z m3285 -8 c10 -14 16
-15 28 -5 12 10 16 9 21 -4 5 -13 9 -15 18 -6 18 18 28 15 28 -7 0 -23 -16
-36 -25 -20 -4 5 -14 8 -23 4 -8 -3 -19 0 -23 7 -6 9 -11 9 -22 0 -11 -10 -17
-9 -27 3 -12 14 -8 45 6 45 4 0 12 -8 19 -17z m-1316 -183 c5 -52 12 -149 16
-215 4 -66 9 -129 11 -140 5 -20 5 -20 -10 -1 -11 14 -16 41 -16 87 0 37 -4
78 -9 91 -14 37 -25 295 -12 283 6 -6 15 -53 20 -105z m1347 73 c-10 -10 -19
5 -10 18 6 11 8 11 12 0 2 -7 1 -15 -2 -18z m632 -149 c26 -5 34 -15 49 -52
l17 -47 14 48 13 47 47 1 c26 1 56 0 67 -1 11 -1 43 -5 70 -9 l50 -6 -3 -55
c-3 -50 24 -397 48 -610 5 -47 12 -112 15 -146 l6 -61 -72 -6 c-39 -3 -73 -8
-76 -11 -2 -2 7 -26 20 -53 34 -67 40 -99 26 -140 -15 -45 -45 -56 -103 -39
-25 8 -52 20 -60 27 -7 8 -22 21 -32 29 -99 80 -119 100 -134 134 -14 34 -15
45 -4 75 16 45 18 88 3 93 -10 3 -5 23 23 84 10 22 4 71 -26 204 l-14 65 -1
-45 c-1 -51 -14 -80 -26 -60 -5 9 -9 9 -14 1 -5 -7 -23 7 -49 38 l-42 50 -90
-4 c-120 -5 -124 0 -69 105 49 92 138 197 176 206 24 6 25 10 19 50 -3 24 -8
55 -12 69 -6 25 -6 25 64 25 38 0 83 -3 100 -6z m-3891 -36 c-3 -8 -6 -5 -6 6
-1 11 2 17 5 13 3 -3 4 -12 1 -19z m4637 -20 c17 -133 27 -227 36 -338 6 -69
18 -185 26 -259 8 -73 12 -136 9 -139 -13 -13 -25 25 -25 81 0 32 -5 68 -11
79 -6 12 -11 39 -11 61 1 22 -5 49 -13 60 -8 12 -11 32 -8 53 4 24 1 40 -11
52 -10 12 -18 45 -22 98 -3 43 -9 88 -14 99 -14 34 -20 171 -7 184 25 25 46
12 51 -31z m892 22 c37 0 45 -4 57 -26 l14 -27 6 29 5 29 103 -1 103 -1 12
-46 c6 -26 28 -78 48 -116 49 -94 48 -131 -3 -199 -63 -85 -323 -353 -338
-350 -8 2 -21 19 -28 38 -7 19 -30 75 -50 125 -20 49 -43 119 -51 155 -17 82
-46 332 -42 362 3 26 43 39 92 32 16 -2 48 -4 72 -4z m-261 -10 c3 -5 15 -63
26 -127 22 -133 60 -280 89 -349 18 -40 74 -130 91 -144 29 -24 38 -103 14
-133 -31 -42 -78 -67 -125 -67 l-46 0 -40 70 c-21 38 -45 72 -53 75 -29 11
-34 -13 -17 -81 9 -37 13 -71 9 -75 -5 -5 -54 -12 -111 -15 -82 -6 -102 -4
-107 7 -2 8 -9 100 -14 204 -6 105 -16 261 -22 347 -12 142 -11 163 4 211 17
53 34 70 82 80 41 9 214 7 220 -3z m-945 -70 c0 -5 -2 -10 -4 -10 -3 0 -8 5
-11 10 -3 6 -1 10 4 10 6 0 11 -4 11 -10z m-3749 -93 c-13 -13 -15 1 -4 30 7
17 8 17 11 -1 2 -10 -1 -23 -7 -29z m1365 -134 c-11 -11 -19 6 -11 24 8 17 8
17 12 0 3 -10 2 -21 -1 -24z m1360 -188 c17 -23 24 -45 24 -76 0 -84 26 -132
138 -251 19 -20 32 -40 29 -45 -8 -12 -267 -14 -289 -2 -9 5 -20 26 -23 47
-17 104 -28 143 -43 158 -11 12 -18 45 -23 123 -4 58 -10 142 -14 186 l-7 80
92 -94 c50 -52 102 -109 116 -126z m-2699 149 c1 -21 5 -54 9 -71 8 -40 -12
-45 -26 -7 -15 38 -13 127 3 121 6 -2 13 -21 14 -43z m1343 11 c0 -8 -4 -15
-10 -15 -5 0 -10 7 -10 15 0 8 5 15 10 15 6 0 10 -7 10 -15z m667 -168 c-2 -6
-11 -15 -20 -21 -23 -15 -45 7 -28 28 13 15 54 10 48 -7z m-3167 -34 c0 -25
-2 -44 -4 -42 -8 10 -13 89 -5 89 5 0 9 -21 9 -47z m2010 -153 c5 -73 7 -136
4 -139 -11 -12 -23 19 -27 74 -12 155 -15 219 -9 233 11 30 23 -32 32 -168z
m4383 40 c7 -107 6 -134 -5 -141 -21 -14 -164 -11 -175 4 -16 19 -22 69 -11
96 11 32 159 182 173 178 5 -2 14 -63 18 -137z m-2050 68 c7 -24 -5 -48 -26
-48 -11 0 -30 -11 -42 -24 -12 -13 -36 -27 -53 -31 -17 -3 -36 -13 -43 -21
-16 -19 -32 -18 -117 8 -51 16 -72 27 -69 38 2 11 11 14 32 10 51 -8 129 -4
160 8 17 6 47 14 68 17 22 4 37 11 37 20 0 8 8 19 18 24 23 14 30 13 35 -1z
m-4336 -40 c-3 -8 -6 -5 -6 6 -1 11 2 17 5 13 3 -3 4 -12 1 -19z m2272 -75
c13 -53 18 -197 7 -201 -6 -1 -10 23 -11 53 0 30 -6 60 -13 67 -14 14 -16 118
-2 118 5 0 14 -17 19 -37z m-2259 -13 c0 -5 -2 -10 -4 -10 -3 0 -8 5 -11 10
-3 6 -1 10 4 10 6 0 11 -4 11 -10z m8425 -10 c3 -5 -1 -10 -10 -10 -9 0 -13 5
-10 10 3 6 8 10 10 10 2 0 7 -4 10 -10z m-8428 -42 c-3 -7 -5 -2 -5 12 0 14 2
19 5 13 2 -7 2 -19 0 -25z m6143 -12 c0 -16 -27 -29 -41 -20 -13 8 9 34 27 34
8 0 14 -6 14 -14z m-3617 -18 c10 -40 28 -197 26 -231 -2 -52 13 -190 23 -211
7 -12 6 -22 -1 -29 -22 -22 -34 12 -38 100 -2 48 -10 150 -18 227 -8 76 -15
145 -15 152 0 22 17 16 23 -8z m684 -48 c16 -33 18 -48 10 -58 -8 -11 -12 -10
-19 3 -6 10 -17 14 -29 10 -11 -4 -19 -2 -19 4 0 6 -17 11 -39 11 -72 0 -78
50 -8 68 64 16 80 10 104 -38z m-1191 -157 c5 -81 3 -126 -4 -139 -14 -23 -13
-25 -16 111 -1 50 -8 100 -15 113 -9 17 -9 27 0 44 19 35 28 3 35 -129z
m-2459 75 c-3 -8 -6 -5 -6 6 -1 11 2 17 5 13 3 -3 4 -12 1 -19z m3252 -25 c13
-54 23 -263 13 -263 -5 0 -12 30 -15 68 -13 147 -20 197 -28 208 -9 11 -2 24
12 24 5 0 12 -17 18 -37z m-516 -97 c12 -125 1 -172 -19 -81 -15 66 -15 210 0
195 5 -5 14 -56 19 -114z m718 37 c17 -94 21 -87 -51 -95 -35 -4 -65 -6 -67
-5 -6 6 61 123 79 140 26 22 29 19 39 -40z m-2876 34 c25 -19 34 -157 10 -157
-9 0 -15 9 -15 23 0 12 -7 31 -15 41 -16 21 -21 106 -7 106 5 0 16 -6 27 -13z
m3553 -72 c-3 -3 -9 2 -12 12 -6 14 -5 15 5 6 7 -7 10 -15 7 -18z m-3658 -85
c0 -5 -4 -10 -10 -10 -5 0 -10 5 -10 10 0 6 5 10 10 10 6 0 10 -4 10 -10z
m3705 -1 c11 -17 -1 -21 -15 -4 -8 9 -8 15 -2 15 6 0 14 -5 17 -11z m-1915
-49 c0 -5 -18 -10 -39 -10 -22 0 -43 5 -46 10 -4 6 12 10 39 10 25 0 46 -4 46
-10z m37 -6 c-3 -3 -12 -4 -19 -1 -8 3 -5 6 6 6 11 1 17 -2 13 -5z m1467 -10
c10 -27 7 -56 -6 -52 -7 3 -14 19 -15 36 -1 34 11 43 21 16z m-829 -34 c3 -5
1 -10 -4 -10 -6 0 -11 5 -11 10 0 6 2 10 4 10 3 0 8 -4 11 -10z"/>
<path d="M4136 5761 c-8 -12 3 -41 15 -41 5 0 9 4 9 9 0 5 3 16 6 25 7 17 -20
23 -30 7z"/>
<path d="M2870 5463 c0 -24 5 -43 10 -43 13 0 13 50 0 70 -7 11 -10 4 -10 -27z"/>
<path d="M2102 4858 c4 -43 33 -46 33 -3 0 21 -5 31 -18 33 -15 3 -18 -2 -15
-30z"/>
<path d="M1990 4791 c0 -17 5 -31 10 -31 6 0 10 11 10 24 0 14 -4 28 -10 31
-6 4 -10 -7 -10 -24z"/>
<path d="M4487 4713 c-14 -13 -7 -33 11 -33 24 0 32 8 25 26 -5 15 -25 19 -36
7z"/>
<path d="M4640 4670 c0 -15 5 -20 18 -18 9 2 17 10 17 18 0 8 -8 16 -17 18
-13 2 -18 -3 -18 -18z"/>
<path d="M4535 4670 c-8 -12 20 -24 35 -15 5 3 10 10 10 16 0 12 -37 12 -45
-1z"/>
<path d="M4440 4655 c0 -8 9 -15 20 -15 11 0 20 7 20 15 0 8 -9 15 -20 15 -11
0 -20 -7 -20 -15z"/>
<path d="M4597 4644 c-14 -14 -6 -24 19 -24 16 0 24 5 22 13 -5 14 -31 21 -41
11z"/>
<path d="M4490 4625 c0 -8 9 -15 20 -15 11 0 20 7 20 15 0 8 -9 15 -20 15 -11
0 -20 -7 -20 -15z"/>
<path d="M4540 4596 c0 -11 9 -16 26 -16 31 0 28 23 -4 28 -15 2 -22 -2 -22
-12z"/>
<path d="M4647 4604 c-11 -11 5 -34 24 -34 12 0 19 7 19 20 0 19 -28 28 -43
14z"/>
<path d="M4490 4550 c0 -28 -30 -38 -46 -15 -15 20 -44 14 -44 -11 0 -11 6
-15 19 -11 13 3 21 -1 25 -15 4 -16 10 -19 30 -14 22 5 26 3 26 -14 0 -15 7
-20 25 -20 18 0 25 5 25 19 0 12 9 21 25 25 16 4 22 11 19 21 -9 23 -44 19
-44 -5 0 -25 -45 -28 -54 -4 -8 22 -9 21 19 28 14 4 25 13 25 21 0 9 -10 15
-25 15 -18 0 -25 -5 -25 -20z"/>
<path d="M4600 4550 c0 -13 7 -20 18 -20 24 0 32 8 25 26 -8 22 -43 17 -43 -6z"/>
<path d="M4652 4500 c-7 -11 -17 -19 -24 -17 -6 1 -14 -6 -16 -15 -6 -28 44
-24 51 3 3 12 10 18 16 14 16 -9 31 3 24 20 -8 21 -36 18 -51 -5z"/>
<path d="M4330 4419 c0 -11 5 -17 10 -14 6 3 10 13 10 21 0 8 -4 14 -10 14 -5
0 -10 -9 -10 -21z"/>
<path d="M4466 4323 c-3 -4 -6 -16 -6 -29 0 -17 4 -21 20 -17 23 6 27 38 6 46
-8 3 -17 3 -20 0z"/>
<path d="M4530 4316 c0 -8 -3 -22 -7 -32 -4 -11 -3 -15 4 -11 13 8 23 57 12
57 -5 0 -9 -6 -9 -14z"/>
<path d="M3350 3710 c0 -5 5 -10 11 -10 5 0 7 5 4 10 -3 6 -8 10 -11 10 -2 0
-4 -4 -4 -10z"/>
<path d="M3448 3663 c6 -2 18 -2 25 0 6 3 1 5 -13 5 -14 0 -19 -2 -12 -5z"/>
<path d="M4790 3890 c0 -13 7 -20 20 -20 13 0 20 7 20 20 0 13 -7 20 -20 20
-13 0 -20 -7 -20 -20z"/>
<path d="M4510 3860 c0 -15 7 -20 25 -20 18 0 25 5 25 20 0 15 -7 20 -25 20
-18 0 -25 -5 -25 -20z"/>
<path d="M4847 3863 c-15 -15 -7 -43 13 -43 15 0 20 7 20 25 0 24 -18 34 -33
18z"/>
<path d="M4785 3810 c-9 -15 14 -40 31 -33 22 8 18 43 -5 43 -11 0 -23 -5 -26
-10z"/>
<path d="M4877 3807 c-8 -20 9 -41 27 -34 23 9 21 47 -3 47 -10 0 -21 -6 -24
-13z"/>
<path d="M4497 3773 c-17 -16 -5 -33 23 -33 23 0 30 4 30 20 0 14 -7 20 -23
20 -13 0 -27 -3 -30 -7z"/>
<path d="M4722 3753 c2 -12 12 -18 28 -18 36 0 33 29 -3 33 -23 3 -28 0 -25
-15z"/>
<path d="M4830 3750 c0 -13 7 -20 20 -20 13 0 20 7 20 20 0 13 -7 20 -20 20
-13 0 -20 -7 -20 -20z"/>
<path d="M4426 3725 c-9 -25 -9 -25 25 -25 24 0 30 4 27 18 -4 23 -44 28 -52
7z"/>
<path d="M4551 3722 c-12 -23 -5 -32 26 -32 20 0 24 5 21 22 -4 29 -34 35 -47
10z"/>
<path d="M4672 3708 c2 -15 10 -23 23 -23 13 0 21 8 23 23 3 18 -1 22 -23 22
-22 0 -26 -4 -23 -22z"/>
<path d="M4787 3723 c-15 -15 -7 -43 13 -43 15 0 20 7 20 25 0 24 -18 34 -33
18z"/>
<path d="M4880 3704 c0 -9 5 -14 12 -12 18 6 21 28 4 28 -9 0 -16 -7 -16 -16z"/>
<path d="M4480 3670 c0 -15 7 -20 25 -20 18 0 25 5 25 20 0 15 -7 20 -25 20
-18 0 -25 -5 -25 -20z"/>
<path d="M4602 3663 c2 -11 14 -19 31 -21 22 -3 27 1 27 17 0 17 -6 21 -31 21
-24 0 -30 -4 -27 -17z"/>
<path d="M4537 3620 c-4 -15 1 -22 20 -26 28 -8 48 8 40 30 -9 24 -54 20 -60
-4z"/>
<path d="M4770 3610 c0 -15 7 -20 25 -20 18 0 25 5 25 20 0 15 -7 20 -25 20
-18 0 -25 -5 -25 -20z"/>
<path d="M4830 3561 c0 -16 6 -21 26 -21 33 0 30 33 -4 38 -17 3 -22 -2 -22
-17z"/>
<path d="M4780 3515 c0 -8 9 -15 20 -15 11 0 20 7 20 15 0 8 -9 15 -20 15 -11
0 -20 -7 -20 -15z"/>
<path d="M4790 3420 c0 -13 7 -20 20 -20 13 0 20 7 20 20 0 13 -7 20 -20 20
-13 0 -20 -7 -20 -20z"/>
<path d="M4792 3323 c2 -10 12 -18 23 -18 11 0 21 8 23 18 3 13 -3 17 -23 17
-20 0 -26 -4 -23 -17z"/>
<path d="M4807 3243 c-14 -13 -6 -23 18 -23 16 0 25 6 25 15 0 15 -31 21 -43
8z"/>
<path d="M4872 3188 c7 -19 38 -22 38 -4 0 10 -9 16 -21 16 -12 0 -19 -5 -17
-12z"/>
<path d="M4820 3146 c0 -10 9 -16 21 -16 24 0 21 23 -4 28 -10 2 -17 -3 -17
-12z"/>
<path d="M4938 3154 c-11 -10 3 -34 19 -34 8 0 13 7 11 17 -3 18 -20 27 -30
17z"/>
<path d="M4521 2929 c-13 -17 -21 -31 -19 -32 15 -9 100 -47 104 -47 3 0 4 15
2 32 -2 24 -9 34 -23 36 -42 7 -48 11 -35 27 7 8 8 15 3 15 -5 0 -19 -14 -32
-31z"/>
<path d="M4484 2791 c-27 -17 -31 -24 -33 -69 -2 -80 27 -132 74 -132 33 0 55
36 55 90 0 25 4 50 10 56 12 12 -36 74 -58 74 -9 0 -31 -9 -48 -19z m52 -65
c8 -32 1 -77 -11 -77 -13 -1 -30 64 -22 85 9 23 26 20 33 -8z"/>
<path d="M4172 2778 c-16 -16 -15 -58 2 -58 15 0 26 -42 26 -97 0 -28 3 -34
16 -29 9 3 22 6 31 6 11 0 14 8 9 38 -3 20 -8 63 -11 95 -6 54 -8 57 -34 57
-15 0 -32 -5 -39 -12z"/>
<path d="M4290 2745 c0 -62 13 -85 50 -85 17 0 30 -4 30 -10 0 -5 -16 -10 -35
-10 -39 0 -48 -22 -16 -40 27 -14 84 -13 99 2 16 16 16 85 0 94 -7 4 -28 10
-47 13 -51 9 -51 29 1 33 35 2 43 7 43 23 0 16 -8 20 -62 23 l-63 4 0 -47z"/>
<path d="M4175 2557 c-20 -16 -11 -42 12 -33 8 3 27 -1 43 -9 45 -23 47 -18
10 20 -38 40 -39 40 -65 22z"/>
<path d="M4720 2470 c0 -13 28 -25 38 -16 3 4 0 11 -8 16 -20 13 -30 12 -30 0z"/>
<path d="M4655 2460 c3 -5 16 -10 28 -9 21 0 21 1 2 9 -28 12 -37 12 -30 0z"/>
<path d="M4700 2416 c0 -14 29 -31 38 -21 6 6 -18 35 -29 35 -5 0 -9 -6 -9
-14z"/>
<path d="M4839 2409 c13 -11 26 -17 29 -14 8 8 -20 35 -37 35 -12 -1 -11 -5 8
-21z"/>
<path d="M4774 2405 c11 -8 22 -12 25 -9 6 6 -19 24 -34 24 -5 -1 -1 -7 9 -15z"/>
<path d="M4632 2398 c5 -15 37 -18 41 -3 1 6 -9 12 -22 13 -16 3 -22 -1 -19
-10z"/>
<path d="M4585 2380 c4 -6 11 -8 16 -5 14 9 11 15 -7 15 -8 0 -12 -5 -9 -10z"/>
<path d="M4864 2366 c-4 -11 0 -24 9 -34 15 -14 17 -14 23 2 4 11 0 24 -9 34
-15 14 -17 14 -23 -2z"/>
<path d="M4800 2357 c0 -18 28 -42 37 -33 9 8 -9 38 -25 44 -7 2 -12 -3 -12
-11z"/>
<path d="M4670 2346 c0 -16 27 -29 35 -16 3 5 -4 14 -15 20 -16 8 -20 8 -20
-4z"/>
<path d="M4740 2340 c12 -22 25 -26 36 -9 7 12 -12 29 -34 29 -10 0 -10 -5 -2
-20z"/>
<path d="M5112 2343 c4 -21 33 -25 33 -3 0 8 -8 16 -18 18 -14 3 -18 -1 -15
-15z"/>
<path d="M4540 2335 c0 -8 9 -15 20 -15 24 0 27 15 4 24 -22 9 -24 8 -24 -9z"/>
<path d="M4602 2338 c7 -19 38 -22 38 -4 0 10 -9 16 -21 16 -12 0 -19 -5 -17
-12z"/>
<path d="M5064 2335 c-9 -23 14 -45 26 -25 5 8 8 19 7 24 -6 17 -27 18 -33 1z"/>
<path d="M4764 2285 c-7 -16 24 -47 38 -39 14 9 8 29 -12 42 -17 10 -21 10
-26 -3z"/>
<path d="M4630 2275 c0 -19 24 -30 41 -19 9 5 7 11 -6 21 -24 17 -35 17 -35
-2z"/>
<path d="M4697 2284 c-9 -10 12 -34 30 -34 19 0 12 34 -8 38 -8 1 -18 0 -22
-4z"/>
<path d="M4825 2281 c-3 -2 2 -13 11 -23 13 -13 20 -15 30 -7 9 7 19 7 33 0
11 -6 22 -11 25 -11 9 0 7 40 -1 41 -23 4 -94 5 -98 0z"/>
<path d="M4724 2209 c-10 -17 23 -46 38 -31 8 8 8 15 -2 27 -15 18 -26 19 -36
4z"/>
<path d="M4787 2206 c-3 -8 2 -21 12 -30 17 -16 19 -16 25 0 6 16 -9 44 -24
44 -4 0 -10 -6 -13 -14z"/>
<path d="M4847 2206 c-8 -21 30 -53 45 -38 9 9 7 16 -7 32 -21 24 -31 25 -38
6z"/>
<path d="M3851 3581 c-17 -11 -7 -41 13 -41 19 0 28 14 20 34 -7 18 -13 19
-33 7z"/>
<path d="M999 3563 c-18 -21 -24 -176 -10 -231 9 -30 17 -42 31 -42 29 0 43
59 38 160 -7 114 -27 153 -59 113z m35 -64 c17 -87 0 -188 -25 -148 -10 16
-12 163 -2 172 13 14 21 6 27 -24z"/>
<path d="M891 3543 c-5 -10 -9 -66 -9 -125 -1 -86 3 -111 16 -128 15 -19 19
-19 37 -6 16 12 20 25 18 73 0 32 -1 84 -2 117 0 59 -12 86 -37 86 -7 0 -17
-8 -23 -17z m34 -56 c0 -39 -19 -38 -23 2 -3 24 0 32 10 29 7 -3 13 -17 13
-31z m10 -137 c-8 -31 -11 -34 -24 -25 -12 7 -15 68 -4 79 13 13 34 -28 28
-54z"/>
<path d="M1797 3184 c-18 -19 -3 -84 20 -84 10 0 13 11 11 42 -3 39 -16 57
-31 42z"/>
<path d="M1664 3146 c-8 -21 -1 -59 12 -63 16 -5 25 23 18 53 -7 27 -22 32
-30 10z"/>
<path d="M1207 3093 c-13 -12 -7 -23 13 -23 11 0 20 7 20 15 0 15 -21 21 -33
8z"/>
<path d="M1930 2916 c0 -8 5 -18 10 -21 6 -3 10 3 10 14 0 12 -4 21 -10 21 -5
0 -10 -6 -10 -14z"/>
<path d="M1820 2890 c0 -11 4 -20 9 -20 5 0 7 9 4 20 -3 11 -7 20 -9 20 -2 0
-4 -9 -4 -20z"/>
<path d="M1710 2881 c0 -12 5 -21 10 -21 6 0 10 6 10 14 0 8 -4 18 -10 21 -5
3 -10 -3 -10 -14z"/>
<path d="M1651 2864 c0 -11 3 -14 6 -6 3 7 2 16 -1 19 -3 4 -6 -2 -5 -13z"/>
<path d="M1531 2844 c0 -11 3 -14 6 -6 3 7 2 16 -1 19 -3 4 -6 -2 -5 -13z"/>
<path d="M1390 2825 c0 -8 5 -15 10 -15 6 0 10 7 10 15 0 8 -4 15 -10 15 -5 0
-10 -7 -10 -15z"/>
<path d="M1159 2628 c-1 -2 -3 -14 -4 -28 -1 -14 -4 -41 -6 -60 -4 -32 -2 -35
23 -38 l28 -3 -3 65 c-2 55 -5 66 -19 66 -10 0 -19 -1 -19 -2z"/>
<path d="M1222 2588 c6 -18 28 -21 28 -4 0 9 -7 16 -16 16 -9 0 -14 -5 -12
-12z"/>
<path d="M1029 2550 c-7 -35 -4 -48 7 -38 3 4 4 21 2 40 l-3 33 -6 -35z"/>
<path d="M1250 2546 c0 -9 9 -20 20 -26 16 -8 20 -8 20 4 0 9 -9 20 -20 26
-16 8 -20 8 -20 -4z"/>
<path d="M1316 2551 c-7 -11 18 -33 27 -24 4 3 7 12 7 20 0 15 -26 18 -34 4z"/>
<path d="M1222 2520 c0 -14 2 -19 5 -12 2 6 2 18 0 25 -3 6 -5 1 -5 -13z"/>
<path d="M3711 1073 c-1 -34 4 -65 9 -68 18 -11 21 20 6 76 l-15 54 0 -62z"/>
<path d="M4483 2157 c-42 -32 -52 -47 -32 -47 19 0 100 61 94 71 -9 14 -16 11
-62 -24z"/>
<path d="M962 1035 c-1 -27 3 -68 7 -90 8 -37 9 -35 9 25 0 36 -4 76 -8 90 -6
20 -8 15 -8 -25z"/>
<path d="M901 724 c0 -11 3 -14 6 -6 3 7 2 16 -1 19 -3 4 -6 -2 -5 -13z"/>
<path d="M901 464 c0 -11 3 -14 6 -6 3 7 2 16 -1 19 -3 4 -6 -2 -5 -13z"/>
<path d="M927 465 c-4 -8 -2 -17 3 -20 6 -4 10 3 10 14 0 25 -6 27 -13 6z"/>
<path d="M5595 4590 c3 -5 8 -10 11 -10 2 0 4 5 4 10 0 6 -5 10 -11 10 -5 0
-7 -4 -4 -10z"/>
<path d="M5550 4560 c0 -19 -5 -30 -14 -30 -16 0 -29 -27 -20 -41 10 -16 24
-10 24 11 0 13 7 20 18 20 14 0 18 8 18 35 0 22 -5 35 -13 35 -8 0 -13 -12
-13 -30z"/>
<path d="M5622 4558 c-7 -7 -12 -24 -12 -39 0 -15 -4 -29 -9 -31 -4 -1 -12
-13 -15 -25 -6 -17 -3 -23 8 -23 10 0 16 9 16 25 0 19 5 25 17 23 12 -2 19 6
23 27 7 40 24 38 28 -3 4 -35 22 -34 22 1 0 14 -11 29 -29 40 -35 20 -34 20
-49 5z"/>
<path d="M5538 4425 c-3 -14 -1 -28 3 -31 15 -9 29 6 29 32 0 32 -26 31 -32
-1z"/>
<path d="M5761 4411 c-6 -10 -8 -21 -4 -24 7 -8 33 18 33 32 0 18 -18 13 -29
-8z"/>
<path d="M5790 4330 l-25 -20 35 10 c19 6 36 10 38 10 2 0 0 5 -3 10 -9 14
-16 12 -45 -10z"/>
<path d="M5838 4253 c7 -3 16 -2 19 1 4 3 -2 6 -13 5 -11 0 -14 -3 -6 -6z"/>
<path d="M236 1401 c-4 -7 -5 -15 -2 -18 9 -9 19 4 14 18 -4 11 -6 11 -12 0z"/>
<path d="M8942 1095 c0 -16 2 -22 5 -12 2 9 2 23 0 30 -3 6 -5 -1 -5 -18z"/>
<path d="M9525 863 c7 -149 15 -190 36 -177 12 7 11 143 -2 223 -15 100 -18
111 -30 111 -7 0 -9 -48 -4 -157z"/>
<path d="M1944 784 c3 -9 6 -21 6 -27 0 -8 3 -8 10 -1 12 12 3 44 -12 44 -6 0
-7 -7 -4 -16z"/>
<path d="M1960 735 c-6 -29 -1 -145 7 -159 6 -11 8 7 5 50 -3 48 -1 65 7 60 6
-4 11 -1 11 8 0 9 -4 16 -9 16 -5 0 -12 8 -14 18 -3 9 -6 13 -7 7z"/>
<path d="M1966 532 c-7 -12 13 -145 24 -156 5 -5 15 -6 24 -3 18 7 13 57 -11
125 -15 41 -26 51 -37 34z"/>
<path d="M2216 501 c-8 -13 3 -79 14 -86 8 -5 5 83 -3 91 -3 3 -8 1 -11 -5z"/>
<path d="M1110 335 c0 -8 4 -15 10 -15 5 0 7 7 4 15 -4 8 -8 15 -10 15 -2 0
-4 -7 -4 -15z"/>
<path d="M1673 329 c-6 -6 -56 -9 -132 -7 l-121 3 0 -50 c1 -48 20 -92 33 -78
4 3 7 1 7 -5 0 -5 -4 -12 -10 -14 -16 -5 -17 -53 0 -54 8 0 33 -4 55 -9 l40
-9 -45 -5 -45 -6 -3 -47 -3 -48 115 0 116 0 0 39 c0 43 22 74 45 65 10 -4 15
-21 15 -55 l0 -49 110 0 110 0 0 31 c0 17 5 39 10 50 8 15 7 19 -5 19 -8 0
-15 5 -15 10 0 6 -7 10 -15 10 -16 0 -15 3 24 46 14 15 9 105 -8 132 -6 9 -38
13 -112 14 -57 0 -110 5 -116 11 -10 7 -13 3 -13 -16 0 -14 6 -28 13 -30 9 -4
9 -8 -1 -15 -8 -5 -13 -25 -12 -48 5 -80 -32 -116 -59 -58 -6 14 -16 22 -21
19 -6 -3 -10 1 -10 10 0 9 4 14 10 10 5 -3 20 -3 32 0 22 6 23 9 18 65 -4 37
-2 61 5 64 5 2 7 6 4 9 -3 4 -10 2 -16 -4z m247 -179 c0 -5 -5 -10 -11 -10 -5
0 -7 5 -4 10 3 6 8 10 11 10 2 0 4 -4 4 -10z"/>
<path d="M1980 301 c0 -17 4 -31 9 -31 5 0 9 -13 9 -28 -1 -32 19 -75 31 -67
5 2 5 22 1 44 -8 42 -10 41 77 53 7 1 14 7 17 15 5 11 -7 12 -59 7 -55 -6 -65
-4 -65 9 0 9 -4 19 -10 22 -6 4 -10 -7 -10 -24z"/>
<path d="M2265 293 c8 -32 22 -50 32 -40 4 4 1 13 -5 19 -7 7 -12 20 -12 30 0
10 -5 18 -11 18 -7 0 -9 -10 -4 -27z"/>
<path d="M1398 168 c-3 -7 1 -19 8 -26 11 -10 14 -10 14 0 0 7 -4 19 -9 26 -7
11 -9 11 -13 0z"/>
<path d="M2166 102 c-2 -4 -37 -7 -76 -6 l-71 2 3 -47 3 -46 113 -3 112 -3 0
39 c0 22 -6 44 -12 49 -19 15 -66 24 -72 15z"/>
<path d="M1157 93 c-4 -3 -7 -26 -7 -50 l0 -43 120 0 120 0 0 34 c0 65 -1 66
-119 66 -59 0 -111 -3 -114 -7z"/>
<path d="M534 24 c3 -9 6 -18 6 -20 0 -2 5 -4 10 -4 6 0 10 9 10 20 0 12 -7
20 -16 20 -11 0 -14 -5 -10 -16z"/>
<path d="M590 20 c0 -11 5 -20 10 -20 6 0 10 9 10 20 0 11 -4 20 -10 20 -5 0
-10 -9 -10 -20z"/>
<path d="M670 15 c0 -8 7 -15 15 -15 8 0 15 7 15 15 0 8 -7 15 -15 15 -8 0
-15 -7 -15 -15z"/>
<path d="M5325 10 c-3 -5 1 -10 9 -10 9 0 16 5 16 10 0 6 -4 10 -9 10 -6 0
-13 -4 -16 -10z"/>
</g>
</svg>
