<?xml version="1.0" standalone="no"?>
<!DOCTYPE svg PUBLIC "-//W3C//DTD SVG 20010904//EN"
 "http://www.w3.org/TR/2001/REC-SVG-20010904/DTD/svg10.dtd">
<svg version="1.0" xmlns="http://www.w3.org/2000/svg"
 width="1705.000000pt" height="952.000000pt" viewBox="0 0 1705.000000 952.000000"
 preserveAspectRatio="xMidYMid meet">

<g transform="translate(0.000000,952.000000) scale(0.100000,-0.100000)"
fill="#000000" stroke="none">
<path d="M3549 8559 c-8 -11 -20 -17 -29 -13 -8 3 -28 7 -45 9 -16 2 -24 1
-17 -2 6 -2 12 -11 12 -18 0 -7 -6 -16 -12 -18 -7 -3 -3 -6 9 -6 12 -1 24 -5
28 -11 9 -15 -32 -50 -60 -50 -25 0 -33 14 -15 25 18 11 11 45 -9 45 -22 0
-43 -22 -39 -41 2 -7 -1 -13 -7 -14 -5 0 -20 -10 -32 -22 -17 -17 -29 -21 -57
-16 -34 5 -36 4 -36 -21 0 -15 -10 -37 -23 -49 -21 -21 -38 -51 -51 -91 -4
-10 1 -30 10 -44 15 -22 15 -27 2 -36 -8 -6 -15 -18 -16 -26 -1 -8 -5 -41 -8
-72 -4 -40 -3 -63 6 -73 7 -8 10 -21 7 -29 -3 -8 1 -17 9 -20 12 -4 14 -14 9
-36 -4 -19 -2 -36 5 -45 10 -12 9 -15 -5 -15 -14 0 -15 -3 -5 -15 10 -12 16
-13 26 -4 9 7 14 8 14 1 0 -5 9 -12 20 -15 26 -7 26 -31 -1 -55 -17 -16 -18
-20 -5 -25 10 -4 28 9 52 39 24 29 44 44 54 41 13 -3 16 2 15 24 -1 22 3 29
17 29 15 0 18 5 13 19 -3 11 -1 28 5 38 14 22 -4 78 -21 67 -8 -4 -7 -9 2 -15
7 -4 10 -11 7 -14 -4 -4 -11 -5 -15 -2 -12 8 -7 148 5 156 5 3 12 17 13 31 3
20 11 26 41 31 20 3 44 11 52 18 13 11 50 18 123 23 7 1 14 7 17 13 2 7 31 16
63 20 32 4 72 12 88 19 17 7 72 13 123 14 52 1 103 7 115 14 34 18 203 19 262
1 28 -9 55 -20 62 -25 14 -11 53 -1 53 13 0 5 -6 9 -12 8 -31 -4 -48 2 -48 16
0 8 -5 15 -11 15 -6 0 -22 9 -37 20 -21 17 -34 19 -71 14 -25 -3 -50 -7 -56
-8 -5 0 -9 10 -7 24 3 24 2 25 -13 5 -15 -19 -16 -19 -22 4 -5 19 -11 22 -36
18 -17 -2 -46 4 -69 15 -21 10 -43 16 -49 13 -5 -4 -16 -2 -23 4 -7 6 -21 9
-30 5 -10 -4 -16 -1 -16 9 0 8 10 18 23 22 l22 8 -24 4 c-13 3 -33 13 -44 24
-12 10 -27 19 -34 19 -8 0 -25 8 -39 17 -22 14 -27 14 -35 2 -5 -8 -6 -21 -4
-29 2 -8 1 -21 -4 -29 -12 -18 -71 -5 -71 16 0 9 6 13 15 10 8 -4 17 -2 20 2
9 16 -20 28 -81 34 -52 4 -63 2 -75 -14z m58 -83 c1 -15 -1 -26 -4 -22 -3 3
-13 -3 -20 -14 -15 -22 -33 -18 -33 6 0 8 9 14 20 14 21 0 27 15 10 25 -16 10
-11 27 7 23 11 -2 18 -14 20 -32z m233 2 c0 -24 -16 -39 -33 -32 -10 3 -24 1
-32 -6 -15 -12 -55 -5 -55 11 0 5 11 9 25 9 16 0 25 6 25 15 0 10 11 15 35 15
21 0 35 -5 35 -12z m-210 -48 c0 -5 -5 -10 -11 -10 -5 0 -7 5 -4 10 3 6 8 10
11 10 2 0 4 -4 4 -10z m-250 -10 c0 -5 -5 -10 -11 -10 -5 0 -7 5 -4 10 3 6 8
10 11 10 2 0 4 -4 4 -10z m-105 -20 c3 -5 1 -10 -4 -10 -6 0 -11 5 -11 10 0 6
2 10 4 10 3 0 8 -4 11 -10z"/>
<path d="M4370 8270 c0 -5 5 -10 10 -10 6 0 10 5 10 10 0 6 -4 10 -10 10 -5 0
-10 -4 -10 -10z"/>
<path d="M13526 8172 c-4 -7 -4 -12 1 -12 4 0 2 -4 -6 -9 -11 -7 -10 -12 6
-28 16 -16 18 -23 8 -36 -15 -21 -24 -21 -47 0 -10 9 -21 13 -26 8 -4 -4 -2
-10 5 -12 17 -6 -4 -49 -31 -61 -21 -9 -82 11 -98 32 -9 13 -101 0 -137 -19
-19 -9 -31 -23 -31 -35 0 -21 -34 -29 -45 -10 -12 19 -71 11 -96 -13 -38 -37
-59 -66 -59 -81 0 -33 -13 -46 -45 -46 -49 0 -65 -9 -65 -36 0 -27 -15 -32
-24 -9 -3 8 -16 15 -28 15 -18 0 -23 -6 -25 -30 -2 -28 0 -30 32 -30 23 0 35
-5 35 -14 0 -17 -24 -27 -45 -20 -9 4 -26 -5 -42 -20 -42 -42 -52 -32 -28 27
5 13 2 17 -14 17 -12 0 -21 -6 -21 -14 0 -8 -9 -18 -20 -21 -11 -3 -20 -11
-20 -16 0 -6 -7 -6 -17 -1 -22 12 -74 -5 -55 -17 9 -6 7 -12 -7 -25 -15 -14
-18 -23 -11 -36 7 -13 2 -28 -21 -60 -45 -62 -64 -111 -47 -121 10 -7 9 -12
-6 -26 -17 -17 -18 -17 -12 4 4 12 2 24 -4 28 -6 4 -10 -5 -10 -22 -1 -25 -2
-26 -11 -9 -10 17 -13 16 -40 -14 -16 -17 -26 -36 -23 -42 4 -6 -1 -6 -14 1
-11 6 -28 8 -36 5 -11 -4 -16 -1 -16 10 0 9 -8 16 -20 16 -11 0 -20 -7 -20
-15 0 -8 7 -15 15 -15 9 0 26 -10 38 -21 13 -13 16 -20 7 -17 -8 3 -28 1 -44
-3 -19 -6 -34 -5 -43 3 -7 6 -17 8 -20 4 -12 -12 -13 -70 -1 -99 9 -24 8 -31
-11 -51 -25 -26 -27 -46 -5 -46 8 0 12 5 9 10 -3 6 2 13 12 17 10 4 24 13 31
20 18 17 37 6 21 -13 -9 -11 -9 -17 1 -29 7 -8 9 -15 4 -15 -5 0 -3 -4 4 -9
11 -7 12 -12 1 -29 -7 -11 -18 -18 -25 -15 -18 7 -26 -14 -11 -28 14 -14 11
-58 -4 -60 -5 -1 -13 -2 -19 -3 -21 -2 -13 -21 13 -34 28 -14 34 -26 17 -37
-5 -3 -10 -15 -10 -27 0 -12 -8 -22 -21 -25 -11 -3 -18 -11 -15 -18 2 -7 -5
-16 -17 -20 -14 -4 -17 -8 -9 -12 6 -2 12 -11 12 -19 0 -8 5 -14 11 -14 6 0 8
-9 4 -20 -9 -30 19 -68 58 -78 l32 -10 -46 -13 c-32 -8 -45 -17 -42 -26 3 -7
14 -13 24 -13 10 0 19 -7 19 -15 0 -20 41 -36 58 -23 7 6 11 17 10 26 -2 8 3
17 11 20 14 5 14 2 -6 -44 -2 -6 3 -18 11 -27 9 -9 16 -20 16 -25 0 -6 6 -13
13 -16 9 -3 7 -9 -6 -19 -17 -14 -16 -16 10 -37 26 -20 26 -22 9 -32 -15 -8
-16 -12 -5 -19 8 -5 19 -9 24 -9 6 0 3 5 -5 10 -10 6 -11 10 -3 10 7 0 19 -13
28 -30 16 -30 9 -40 -13 -18 -9 9 -12 9 -12 -3 0 -25 31 -46 79 -53 l44 -7 -6
35 c-4 26 -2 34 7 30 26 -10 34 23 38 144 3 76 9 127 16 134 7 7 12 20 12 29
0 9 11 24 25 33 28 19 33 36 9 36 -12 0 -14 5 -9 18 4 9 8 25 10 36 1 10 10
25 20 33 14 10 20 26 20 58 0 32 4 44 13 40 6 -2 12 0 12 5 0 6 -4 10 -9 10
-5 0 -11 13 -14 29 -6 31 12 79 38 101 8 7 17 28 21 47 4 19 13 37 20 40 21 8
17 22 -5 16 -13 -3 -23 2 -31 16 -10 20 -9 21 13 16 17 -5 26 -2 30 9 8 20 27
21 27 1 0 -8 14 -24 30 -37 36 -26 37 -36 8 -47 -12 -4 -17 -10 -11 -14 5 -3
22 1 37 9 36 18 36 18 36 -5 0 -25 41 -32 80 -13 33 16 46 12 37 -13 -4 -8
-17 -15 -30 -15 -13 0 -32 -9 -41 -19 -10 -11 -28 -22 -40 -25 -12 -3 -29 -17
-36 -32 -8 -14 -27 -32 -43 -41 -28 -14 -28 -15 -11 -34 9 -10 23 -19 31 -19
7 0 13 -4 13 -10 0 -5 -7 -10 -15 -10 -8 0 -14 -4 -12 -9 1 -6 -7 -24 -18 -40
-14 -22 -28 -31 -50 -32 -17 -1 -22 -3 -12 -6 20 -5 22 -19 3 -26 -7 -3 -16
-17 -18 -31 -4 -19 1 -29 18 -41 26 -17 50 -11 78 17 24 26 33 15 12 -16 -23
-36 -20 -44 13 -40 43 5 45 -18 6 -69 -19 -25 -31 -47 -28 -51 14 -13 11 -56
-3 -56 -8 0 -14 -6 -14 -12 0 -16 15 -40 24 -39 25 3 36 -1 36 -15 0 -8 -4
-13 -9 -9 -5 3 -12 1 -16 -5 -4 -6 4 -10 19 -10 30 0 38 -19 18 -43 -8 -9 -12
-20 -8 -25 12 -11 37 30 30 50 -3 11 0 18 8 18 23 0 40 -17 36 -36 -4 -20 40
-64 62 -64 7 0 28 11 46 25 37 28 56 32 48 10 -4 -8 -15 -15 -26 -15 -14 0
-18 -5 -13 -19 3 -11 -1 -26 -12 -36 -9 -10 -18 -23 -19 -29 -1 -7 -16 -36
-34 -65 -30 -49 -32 -57 -26 -112 4 -42 2 -59 -6 -59 -9 0 -8 -4 1 -12 11 -10
14 -10 18 0 6 17 30 15 37 -3 3 -8 1 -15 -4 -15 -6 0 -10 -5 -10 -12 0 -6 -10
-22 -21 -35 -24 -24 -25 -23 29 -39 6 -2 12 -12 12 -23 0 -11 -6 -22 -12 -24
-8 -4 -7 -6 4 -6 18 -1 37 -63 21 -68 -5 -2 -8 -17 -5 -33 4 -29 4 -29 -32
-19 -20 6 -41 7 -46 4 -6 -4 -8 -28 -5 -56 2 -27 3 -49 0 -49 -2 0 -21 11 -41
25 -47 32 -67 29 -74 -10 -5 -27 -6 -28 -14 -10 -7 17 -10 13 -22 -27 -11 -37
-20 -49 -40 -54 -19 -5 -22 -9 -14 -19 16 -19 15 -96 -1 -109 -11 -8 -13 -38
-12 -121 2 -60 -2 -131 -8 -156 -6 -25 -12 -86 -15 -135 -3 -49 -7 -102 -9
-119 -2 -16 -6 -52 -9 -80 -7 -56 -26 -125 -35 -125 -19 1 -108 79 -148 130
-43 55 -63 72 -63 52 0 -4 5 -13 12 -20 8 -8 8 -12 1 -12 -6 0 -16 7 -23 15
-18 22 -25 19 -46 -20 -10 -20 -31 -41 -46 -48 -16 -6 -28 -20 -28 -30 0 -14
-4 -16 -18 -8 -22 12 -38 3 -43 -24 -3 -12 -15 -21 -35 -26 -17 -3 -37 -10
-45 -15 -8 -4 -23 -10 -33 -11 -11 -2 -26 -13 -34 -24 -10 -15 -21 -19 -38
-15 -17 5 -24 2 -24 -9 0 -10 -10 -15 -28 -15 -16 0 -37 -9 -47 -20 -13 -14
-30 -20 -54 -19 -46 1 -85 -8 -89 -21 -3 -8 -35 -9 -99 -4 -68 5 -97 4 -102
-5 -4 -6 -41 -14 -82 -16 -41 -3 -85 -7 -99 -9 -14 -3 -34 -5 -45 -6 -16 -1
-10 -10 30 -46 47 -43 48 -45 20 -38 -16 4 -37 12 -45 19 -18 15 -101 47 -106
42 -3 -2 16 -17 41 -32 33 -21 46 -37 50 -59 7 -38 -26 -149 -58 -196 -27 -42
-94 -89 -125 -90 -12 0 -25 -7 -28 -15 -4 -9 -19 -15 -38 -15 -40 0 -100 36
-92 55 4 11 -2 15 -17 15 -17 0 -27 9 -37 35 -8 19 -19 35 -25 35 -8 0 -22 70
-40 193 -43 303 -45 309 -55 322 -5 7 -7 15 -3 19 12 12 14 369 2 377 -8 4 -6
16 5 37 19 37 20 59 4 66 -9 3 -6 11 10 24 26 23 28 41 7 68 -13 17 -16 17
-26 4 -9 -13 -10 -12 -5 3 3 10 6 23 6 28 0 4 7 6 16 2 15 -5 14 13 -2 65 -5
17 6 15 23 -5 13 -17 14 -16 9 7 -3 14 -6 31 -6 38 0 6 -7 12 -15 12 -8 0 -15
4 -15 9 0 5 8 7 19 4 10 -3 22 0 25 6 4 6 2 11 -3 11 -6 0 -11 19 -11 43 -1
39 -2 41 -15 23 -20 -27 -31 -12 -12 17 11 18 13 34 7 68 -5 24 -5 48 0 53 5
5 6 15 3 22 -3 8 1 14 10 14 8 0 25 9 38 21 13 11 19 18 14 15 -6 -2 -17 -1
-25 4 -12 8 -13 13 -3 29 14 22 5 37 -11 17 -23 -30 -97 -17 -89 15 3 10 1 19
-5 19 -18 0 -31 -25 -28 -53 3 -24 1 -26 -13 -15 -9 7 -19 17 -22 22 -4 5 -13
5 -20 0 -8 -5 -29 -9 -46 -11 -26 -1 -33 2 -33 17 0 27 -21 36 -36 16 -13 -18
-54 -14 -54 5 0 5 -19 9 -41 9 -37 0 -40 2 -28 16 7 8 21 13 30 11 12 -3 20 2
24 14 11 34 35 22 35 -16 0 -19 5 -35 10 -35 6 0 10 21 10 46 0 38 3 44 13 35
15 -12 27 -5 27 15 0 8 -8 10 -22 6 -17 -4 -20 -2 -15 11 4 10 3 17 -1 18 -4
1 -24 2 -45 3 -22 2 -42 8 -47 15 -4 7 -19 11 -36 8 -27 -4 -28 -5 -7 -12 27
-9 21 -25 -8 -25 -15 0 -20 -6 -17 -22 2 -19 8 -22 31 -20 20 3 27 -1 27 -13
0 -11 -5 -15 -15 -12 -8 4 -17 2 -21 -4 -3 -6 -17 2 -33 20 -19 22 -31 27 -42
21 -13 -8 -15 -5 -11 15 3 20 9 24 27 19 18 -4 25 -1 30 16 5 15 2 26 -6 31
-20 12 -23 12 -48 -12 -19 -18 -25 -19 -32 -8 -8 14 9 32 23 23 4 -3 5 2 1 11
-5 14 1 16 37 14 47 -4 61 10 40 36 -16 20 -40 19 -40 0 0 -9 -6 -15 -12 -14
-7 1 -26 -3 -41 -9 -16 -7 -33 -12 -38 -12 -13 0 -7 -44 9 -63 10 -12 10 -16
-2 -20 -18 -7 -26 1 -26 25 0 10 -6 21 -14 24 -8 3 -11 15 -8 30 3 16 10 23
18 20 7 -3 16 -1 19 4 4 6 15 10 25 10 10 0 20 5 22 11 2 6 24 12 48 14 35 2
49 -1 64 -17 20 -21 36 -17 17 5 -6 8 -8 22 -5 32 6 14 3 16 -14 10 -18 -5
-22 -2 -22 14 0 12 5 21 10 21 6 0 10 9 10 20 0 21 54 55 71 45 5 -4 16 -1 24
5 8 6 23 9 35 5 14 -5 20 -2 20 9 0 19 11 21 28 4 8 -8 12 -8 12 -1 0 6 19 24
43 40 23 16 44 35 46 43 7 26 5 96 -3 109 -5 7 -5 15 -2 18 3 3 1 12 -5 19 -6
7 -12 23 -14 36 -9 61 -18 84 -41 105 -14 13 -27 23 -30 23 -3 0 -20 11 -37
24 -28 21 -46 25 -142 29 -113 5 -144 9 -182 21 -12 4 -24 2 -28 -4 -5 -8 -13
-6 -26 6 -12 11 -19 13 -19 5 0 -7 -3 -10 -8 -8 -4 3 -27 6 -52 8 -34 2 -44
-1 -42 -11 5 -20 -26 -40 -59 -40 -16 0 -39 -5 -53 -11 -21 -10 -23 -15 -16
-40 7 -22 5 -31 -7 -38 -12 -6 -14 -17 -9 -45 6 -33 18 -42 49 -37 9 1 2 -165
-8 -190 -7 -19 30 -59 55 -59 20 0 36 -17 26 -27 -4 -4 -12 -1 -18 5 -17 17
-28 15 -28 -4 0 -14 7 -16 40 -11 31 4 38 2 31 -6 -6 -8 -4 -19 7 -32 26 -32
48 -36 73 -14 24 21 43 25 37 8 -2 -6 -8 -10 -13 -10 -6 0 -18 -7 -27 -16 -10
-9 -28 -17 -40 -18 -37 -4 -38 -4 -38 -19 0 -8 8 -13 18 -12 11 1 16 -5 14
-16 -2 -13 4 -18 18 -18 13 0 20 -5 17 -12 -2 -7 -16 -12 -31 -11 -14 1 -26
-2 -26 -7 0 -5 -7 -7 -15 -4 -18 7 -50 -22 -34 -31 6 -4 8 -18 4 -33 -3 -14
-1 -28 5 -32 20 -13 -1 -38 -41 -48 -50 -13 -99 10 -99 46 0 12 -4 22 -9 22
-4 0 -6 -10 -4 -23 7 -36 -32 -49 -75 -25 -42 23 -42 23 -42 -13 0 -28 -3 -31
-24 -25 -15 4 -28 0 -36 -9 -7 -9 -21 -13 -31 -10 -14 5 -17 2 -13 -8 3 -8 -2
-17 -10 -20 -12 -5 -16 0 -16 18 0 13 -5 27 -11 31 -18 11 -32 -13 -33 -53 -1
-21 -7 -44 -13 -51 -7 -7 -13 -21 -13 -30 0 -10 -10 -22 -22 -27 -17 -7 -26
-24 -33 -58 -6 -27 -18 -55 -28 -62 -9 -6 -20 -27 -23 -46 -4 -19 -13 -43 -21
-54 -18 -27 -16 -38 7 -32 24 6 27 -15 5 -33 -10 -9 -14 -30 -12 -83 3 -74
-12 -117 -39 -117 -16 0 -20 -45 -5 -54 5 -3 7 -15 4 -25 -3 -10 0 -22 6 -25
7 -5 9 -22 5 -44 -5 -33 -2 -41 25 -65 36 -31 40 -52 11 -44 -16 4 -20 1 -16
-11 2 -9 7 -73 11 -142 3 -69 8 -165 12 -215 5 -91 5 -353 -1 -413 -2 -18 -6
-35 -10 -39 -3 -3 -6 -17 -6 -31 0 -21 -2 -22 -15 -12 -8 7 -15 18 -15 26 0 7
-6 19 -12 26 -25 27 -66 114 -73 153 -4 22 -9 47 -11 55 -2 9 8 28 21 43 58
62 -45 9 -110 -57 -22 -23 -53 -47 -68 -53 -15 -7 -27 -17 -27 -22 0 -5 -11
-12 -25 -15 -14 -4 -25 -11 -25 -16 0 -6 -6 -10 -14 -10 -8 0 -17 -8 -20 -17
-3 -10 -18 -23 -32 -30 -26 -12 -26 -12 -9 7 25 28 11 25 -54 -12 -88 -50
-186 -120 -183 -130 1 -5 -1 -7 -6 -4 -12 7 -106 -26 -217 -79 -101 -47 -230
-124 -340 -202 -170 -121 -339 -218 -404 -232 -69 -15 -82 -14 -75 4 6 14 41
34 87 49 10 3 16 10 12 15 -3 6 -12 8 -20 4 -8 -3 -15 0 -15 6 0 6 -10 11 -22
11 -12 0 -30 8 -40 17 -15 13 -23 15 -37 6 -15 -9 -24 -6 -54 21 -21 18 -34
35 -31 39 3 3 -7 13 -23 21 -31 17 -58 40 -87 74 -22 25 -6 30 18 6 9 -8 16
-12 16 -7 0 15 -23 33 -42 33 -10 0 -18 7 -18 16 0 8 -5 12 -10 9 -8 -5 -7
-12 2 -23 11 -13 11 -14 -2 -10 -9 3 -15 17 -15 34 0 21 -4 28 -15 26 -8 -2
-16 -8 -18 -13 -5 -14 -24 -11 -20 3 2 6 -5 30 -17 52 -15 29 -31 43 -54 50
-22 6 -62 41 -124 108 -65 70 -107 107 -143 124 -28 13 -55 24 -60 24 -4 0 16
-25 46 -55 54 -55 55 -57 55 -113 -1 -45 -8 -72 -35 -126 -38 -76 -107 -156
-134 -156 -9 0 -15 -4 -11 -9 3 -5 1 -12 -5 -16 -5 -3 -10 0 -10 8 0 8 -13 30
-28 49 l-28 36 -12 -39 c-19 -60 -17 -66 23 -61 19 2 35 0 35 -5 0 -13 -51
-41 -96 -52 -21 -5 -57 -15 -79 -20 -52 -14 -165 -14 -165 -1 0 6 7 10 15 10
8 0 22 11 31 25 23 35 57 41 97 18 l33 -20 31 31 c35 34 58 95 79 204 19 100
17 116 -8 60 -13 -32 -27 -48 -38 -48 -21 0 -60 57 -60 88 0 17 5 20 36 17 25
-2 37 1 41 13 4 9 1 18 -5 20 -7 2 -12 10 -12 19 0 8 -11 29 -24 46 -23 31
-37 73 -37 110 0 13 -6 16 -25 11 -21 -5 -24 -3 -24 19 0 13 -7 31 -16 38 -14
12 -16 27 -10 99 4 47 9 132 12 190 2 58 8 137 14 177 5 40 7 80 4 90 -4 12
-3 14 3 6 6 -8 9 22 10 80 1 205 4 254 12 285 8 27 7 32 -7 32 -26 0 -40 -13
-56 -50 l-15 -35 -1 48 c0 43 2 47 23 47 13 0 32 9 42 20 10 11 13 20 7 20
-16 0 -14 66 3 115 19 52 19 51 -7 60 -14 4 -18 8 -10 12 19 8 14 23 -9 23
-19 0 -21 4 -15 48 13 104 13 162 0 162 -7 0 -15 -6 -18 -12 -4 -7 -4 -3 -2 9
3 19 0 21 -24 17 -19 -4 -29 -1 -33 10 -5 13 -11 15 -26 6 -28 -15 -29 -14
-33 28 -2 26 -9 40 -23 46 -18 8 -21 17 -19 70 1 34 0 55 -3 48 -8 -21 -83 68
-83 99 0 5 8 9 18 9 10 1 3 7 -15 15 -18 8 -33 21 -33 30 0 8 -11 21 -25 27
-14 6 -25 17 -25 25 0 7 -7 13 -15 13 -8 0 -22 11 -30 24 -9 13 -25 26 -36 29
-11 3 -23 15 -26 27 -4 17 -12 21 -29 17 -16 -3 -24 0 -24 9 0 8 -3 14 -7 15
-5 0 -32 2 -62 4 -29 2 -58 8 -64 14 -6 6 -17 7 -26 2 -25 -13 -83 -22 -77
-12 4 5 -10 5 -32 0 -20 -5 -66 -9 -103 -9 -50 0 -78 -6 -120 -27 -29 -15 -58
-33 -62 -40 -4 -7 -17 -13 -27 -13 -10 0 -23 -6 -27 -12 -4 -7 -17 -18 -28
-24 -25 -15 -24 -63 2 -82 24 -18 24 -31 -4 -69 -14 -19 -19 -33 -12 -33 8 0
6 -7 -5 -19 -10 -11 -14 -25 -10 -36 6 -15 4 -17 -12 -11 -31 13 -47 12 -52
-3 -3 -10 0 -12 11 -8 8 3 23 -3 33 -14 10 -11 12 -19 6 -19 -15 0 -52 -36
-52 -51 0 -5 6 -7 13 -4 6 4 3 -1 -7 -9 -11 -9 -16 -16 -12 -16 5 0 3 -6 -3
-14 -7 -8 -8 -17 -3 -20 5 -3 12 -19 14 -34 4 -25 1 -28 -19 -24 -13 2 -23 -1
-23 -7 0 -6 5 -11 10 -11 15 0 12 -66 -3 -79 -8 -6 -17 -8 -20 -5 -3 4 -13 -1
-22 -9 -9 -10 -11 -18 -5 -22 16 -10 12 -25 -6 -25 -10 0 -14 -6 -10 -15 3 -8
-2 -18 -10 -23 -14 -8 -14 -13 -1 -43 8 -19 11 -42 8 -51 -3 -9 -34 -35 -69
-57 -35 -23 -62 -47 -61 -54 1 -6 -3 -25 -9 -40 -7 -16 -12 -41 -12 -57 0 -16
-4 -32 -10 -35 -5 -3 -10 -3 -10 2 0 19 -40 202 -54 246 -10 33 -31 64 -70
103 -31 31 -56 60 -56 64 0 4 -8 10 -17 14 -10 3 -27 11 -38 18 -11 7 -21 14
-23 15 -2 0 -5 9 -6 20 -3 19 -36 32 -36 14 0 -6 -7 -11 -16 -11 -8 0 -24 19
-35 45 -18 41 -36 65 -23 30 3 -8 2 -20 -2 -27 -8 -13 -8 -56 2 -120 10 -66
-13 -42 -37 37 -23 80 -36 98 -51 72 -8 -15 -13 -14 -48 4 -22 12 -40 24 -40
28 0 5 -13 8 -30 9 -32 1 -93 27 -110 47 -12 14 -38 176 -42 265 l-3 55 -33
-69 c-18 -38 -36 -65 -41 -60 -4 5 -13 28 -21 51 -7 23 -18 40 -24 37 -6 -2
-20 3 -31 12 -18 14 -19 16 -3 28 11 8 13 17 7 28 -6 11 -4 20 7 28 10 9 13
22 9 41 -9 42 3 72 26 66 15 -4 19 -1 15 11 -6 19 42 56 112 87 l43 18 -5 82
c-5 82 -29 149 -62 168 -20 11 -17 25 5 32 11 3 27 17 36 32 16 24 16 28 1 62
-12 24 -30 42 -56 55 -48 23 -50 33 -8 44 37 9 50 32 19 32 -16 0 -21 6 -21
25 0 13 6 28 14 32 7 4 19 18 25 31 11 20 10 26 -6 38 -17 14 -16 15 7 10 14
-3 19 -3 13 0 -7 3 -13 13 -14 22 0 11 -2 12 -6 4 -6 -15 -23 -6 -23 13 0 8 6
12 14 9 9 -3 17 3 21 16 9 29 -1 37 -26 22 -30 -19 -52 2 -44 40 4 17 2 28 -4
28 -6 0 -11 -8 -11 -17 0 -14 -3 -14 -19 4 -17 18 -25 19 -72 12 -39 -6 -55
-5 -61 4 -10 15 -10 27 0 27 4 0 13 14 21 32 12 26 12 33 1 36 -7 3 -21 13
-31 23 -22 22 -35 24 -42 7 -3 -7 -6 -1 -6 14 -1 20 6 31 27 42 27 15 27 15 3
16 -18 0 -21 3 -12 13 6 8 8 16 5 20 -3 3 5 3 18 1 20 -5 21 -4 5 6 -13 9 -15
15 -7 25 14 16 4 42 -19 48 -29 7 -34 58 -9 80 16 14 19 20 9 26 -7 5 -10 18
-6 32 4 18 0 31 -18 47 -29 27 -129 53 -170 45 -19 -4 -32 -1 -38 8 -8 12 -10
12 -18 0 -5 -7 -13 -11 -19 -7 -14 9 -114 -13 -132 -29 -8 -8 -27 -17 -43 -20
-15 -4 -30 -11 -33 -16 -3 -5 -13 -9 -22 -9 -29 0 -122 -95 -122 -124 0 -14
-5 -28 -10 -31 -15 -9 -1 -27 16 -21 7 3 16 1 20 -5 3 -6 -3 -13 -15 -16 -31
-8 -25 -23 9 -23 17 0 30 -4 30 -9 0 -5 -8 -7 -18 -5 -14 4 -17 -3 -20 -40 -2
-44 -2 -44 40 -58 35 -12 43 -19 43 -39 0 -22 -3 -23 -45 -20 -25 1 -48 8 -52
14 -5 8 -14 5 -28 -10 -23 -25 -26 -43 -7 -43 9 0 9 -2 -1 -8 -7 -5 -15 -37
-18 -77 -2 -37 -9 -76 -14 -86 -16 -29 -1 -97 22 -105 15 -4 17 -9 9 -17 -9
-9 -14 -8 -21 3 -5 8 -26 15 -49 16 -33 1 -39 -1 -30 -12 9 -11 7 -15 -5 -20
-10 -4 -15 -16 -14 -33 1 -15 -1 -32 -6 -39 -4 -7 1 -24 12 -40 11 -15 17 -32
15 -38 -2 -6 3 -14 12 -18 9 -3 13 -2 10 4 -3 6 1 10 10 10 12 0 14 -4 6 -17
-7 -13 -4 -22 11 -35 12 -10 25 -18 30 -18 5 0 8 -8 6 -17 -2 -13 3 -18 20
-17 25 1 29 -11 8 -23 -12 -7 -12 -14 -1 -47 8 -22 21 -43 29 -48 10 -6 13
-18 9 -43 -3 -19 -2 -42 2 -52 5 -10 7 -23 6 -30 -1 -6 3 -14 7 -17 5 -3 8
-20 6 -38 -3 -19 2 -38 11 -48 9 -10 13 -24 10 -33 -4 -8 -2 -18 4 -21 6 -4 8
-13 4 -21 -3 -9 1 -15 11 -15 8 0 25 -10 36 -22 18 -20 19 -24 5 -34 -20 -15
-19 -19 7 -21 11 -1 24 -7 28 -14 19 -29 -9 -197 -32 -200 -4 -1 -14 -2 -20
-3 -7 0 -14 -11 -16 -24 -2 -13 -14 -27 -27 -32 -13 -5 -26 -14 -30 -19 -3 -6
-17 -11 -30 -11 -17 0 -25 -6 -27 -22 -2 -16 -10 -23 -28 -25 -14 -1 -30 -3
-35 -4 -6 -1 -17 0 -25 4 -8 3 -38 9 -67 15 -46 8 -55 7 -73 -10 -11 -10 -24
-17 -29 -14 -5 3 -11 -1 -14 -9 -4 -8 -32 -31 -64 -52 -32 -21 -63 -44 -69
-52 -6 -8 -16 -11 -22 -7 -6 3 -14 1 -17 -5 -4 -6 -26 -19 -50 -29 -24 -10
-46 -23 -49 -29 -4 -6 -16 -11 -27 -11 -11 0 -17 -4 -14 -10 3 -6 -4 -10 -18
-10 -13 0 -36 -11 -51 -25 -14 -13 -32 -22 -40 -19 -8 3 -17 1 -21 -5 -3 -6
-13 -11 -21 -11 -9 0 -22 -7 -30 -15 -9 -8 -28 -15 -43 -15 -16 0 -37 -10 -51
-25 -14 -15 -35 -25 -51 -25 -15 0 -29 -7 -33 -16 -3 -8 -10 -13 -15 -10 -14
9 -141 -54 -141 -71 0 -8 -4 -12 -9 -8 -6 3 -25 -8 -44 -25 -19 -16 -39 -30
-43 -30 -5 0 -20 -9 -34 -20 -14 -11 -33 -20 -43 -20 -9 0 -16 -5 -15 -12 2
-6 -6 -14 -17 -16 -25 -5 -76 -48 -68 -56 3 -3 -3 -9 -13 -13 -10 -4 -27 -17
-37 -30 -10 -13 -25 -23 -33 -23 -8 0 -14 -6 -14 -13 0 -7 -12 -13 -28 -12
-21 0 -28 -5 -30 -22 -2 -13 -8 -24 -13 -24 -5 -1 -14 -2 -21 -3 -7 0 -18 -12
-25 -26 -10 -19 -13 -21 -13 -7 0 10 -5 15 -11 12 -6 -4 -8 -9 -5 -12 3 -3 -6
-19 -19 -35 -14 -16 -25 -33 -25 -37 0 -4 -11 -13 -25 -19 -20 -9 -25 -19 -25
-46 0 -25 -5 -35 -17 -38 -12 -2 -18 -15 -20 -41 -1 -21 -7 -45 -14 -53 -9
-11 -8 -14 5 -14 21 0 20 -16 -1 -32 -12 -8 -19 -29 -21 -58 -2 -24 -8 -47
-14 -51 -7 -4 -8 -14 -3 -25 9 -23 7 -61 -5 -89 -4 -11 -11 -28 -14 -38 -3
-10 -11 -15 -17 -11 -8 4 -8 1 -1 -12 7 -14 5 -29 -8 -57 -10 -20 -16 -46 -13
-56 3 -11 -2 -32 -10 -48 -38 -70 -49 -104 -38 -117 8 -10 7 -17 -5 -26 -8 -8
-13 -22 -11 -31 3 -10 0 -20 -6 -22 -6 -2 -16 -25 -23 -53 -7 -27 -19 -74 -27
-104 -20 -74 -48 -195 -51 -223 -2 -12 -6 -29 -9 -37 -4 -8 -8 -28 -11 -45 -2
-16 -5 -31 -6 -32 -4 -4 -10 -65 -10 -95 -1 -16 -5 -28 -10 -28 -6 0 -10 -12
-10 -26 0 -14 -7 -32 -15 -41 -11 -11 -13 -19 -5 -28 8 -9 6 -14 -5 -18 -8 -4
-12 -13 -9 -21 3 -8 1 -17 -5 -21 -6 -3 -11 -15 -11 -26 0 -11 -5 -30 -12 -42
-6 -12 -13 -33 -14 -47 -2 -13 -10 -29 -18 -35 -14 -11 -16 -21 -15 -107 0
-25 -4 -49 -10 -52 -5 -3 -7 -15 -4 -26 3 -11 -2 -31 -11 -45 -9 -14 -14 -30
-11 -35 3 -6 8 -47 11 -92 3 -46 9 -85 13 -88 5 -3 11 -15 15 -27 4 -13 13
-23 21 -23 7 0 16 -7 19 -15 3 -9 19 -21 36 -26 16 -6 30 -15 30 -19 0 -5 13
-11 29 -15 16 -3 32 -12 35 -20 3 -8 23 -24 46 -35 23 -11 44 -29 47 -38 4 -9
15 -25 24 -36 10 -10 15 -24 13 -30 -3 -7 2 -19 10 -26 10 -8 14 -21 10 -36
-4 -14 -1 -31 7 -41 8 -8 15 -30 16 -47 10 -140 14 -170 24 -182 6 -8 9 -20 6
-29 -4 -8 -2 -17 4 -21 6 -3 6 -10 1 -17 -12 -16 -21 -67 -12 -67 14 0 19 -29
10 -59 -5 -17 -5 -31 -1 -31 4 0 7 -17 8 -38 0 -20 1 -46 1 -57 4 -63 0 -115
-9 -121 -8 -4 -7 -9 2 -15 18 -11 19 -76 2 -90 -15 -13 -18 -63 -3 -54 13 8
13 -1 -1 -26 -6 -13 -7 -25 -1 -32 5 -7 8 -61 7 -120 -1 -59 2 -110 7 -113 5
-3 6 -19 3 -35 -4 -16 -3 -34 2 -41 11 -18 13 -67 2 -73 -11 -8 1 -104 18
-137 9 -18 11 -42 7 -69 -5 -29 -3 -43 6 -49 8 -5 16 -33 20 -63 6 -60 3 -80
-11 -71 -5 3 -9 -2 -9 -10 0 -9 5 -16 10 -16 6 0 10 -6 10 -13 0 -8 9 -22 20
-32 11 -10 20 -25 20 -33 0 -9 6 -12 17 -8 22 9 33 -11 33 -62 0 -29 5 -44 16
-49 8 -3 13 -12 10 -20 -4 -9 6 -19 29 -29 22 -9 37 -23 41 -38 3 -14 12 -27
20 -30 8 -3 14 -16 13 -28 0 -34 21 -142 29 -148 13 -9 32 -60 32 -85 l0 -25
6480 0 c5928 0 6481 1 6487 16 3 9 0 20 -8 25 -12 8 -11 12 5 24 14 11 16 15
5 15 -12 0 -12 2 0 9 12 7 12 13 3 24 -7 7 -9 17 -6 20 3 3 8 23 11 43 3 21
12 44 19 52 11 11 12 17 3 28 -6 8 -8 25 -5 40 4 14 2 32 -4 39 -7 9 -6 16 4
24 8 7 12 19 9 27 -3 8 -1 14 5 14 5 0 8 39 7 94 -1 52 1 100 5 107 5 8 1 22
-9 36 -21 25 -17 73 5 73 16 0 19 16 5 24 -14 9 -20 59 -10 78 7 14 6 18 -5
18 -8 0 -18 -5 -21 -10 -4 -6 -11 -8 -16 -4 -6 4 -4 13 6 24 20 22 10 53 -16
45 -11 -4 -19 -2 -19 5 0 7 9 14 20 17 21 6 28 23 9 23 -7 0 -9 9 -5 24 3 14
-4 51 -18 90 -23 63 -24 97 -4 123 5 6 8 37 7 70 0 32 2 73 6 91 6 25 3 36 -9
45 -13 9 -14 19 -7 42 4 17 7 57 6 88 -2 32 1 60 6 63 5 3 9 16 9 30 0 13 5
24 11 24 7 0 9 11 6 30 -4 19 -1 34 8 44 17 17 20 30 5 21 -6 -4 -10 8 -10 29
0 24 4 35 13 33 8 -1 13 16 15 53 2 30 7 59 13 65 5 5 9 25 10 45 1 49 14 85
27 83 18 -4 14 28 -5 49 -13 14 -14 21 -5 30 7 7 12 22 12 35 0 13 5 23 10 23
6 0 10 6 10 13 0 7 11 23 24 34 16 14 23 28 19 41 -3 13 5 27 25 44 21 17 27
29 20 36 -7 7 -7 16 0 29 12 21 5 37 -18 46 -12 4 -11 6 3 6 9 1 17 6 17 12 0
6 -9 9 -20 6 -24 -6 -25 -3 -4 18 12 11 13 19 5 29 -6 7 -8 16 -4 19 3 4 -3
18 -16 30 -12 13 -19 31 -16 39 8 21 -12 68 -30 68 -9 0 -15 9 -15 26 0 14 -4
23 -9 20 -4 -3 -16 0 -26 7 -15 12 -16 15 -2 29 17 16 5 38 -20 38 -17 0 -17
22 0 39 10 11 8 12 -10 6 -18 -5 -23 -2 -23 13 0 11 -6 25 -13 31 -8 6 -12 23
-9 41 3 22 -1 35 -14 44 -11 8 -19 29 -21 51 -1 20 -8 44 -15 52 -7 9 -12 24
-10 34 2 10 -2 27 -8 39 -6 11 -7 20 -2 20 13 0 2 52 -15 72 -8 9 -10 18 -5
22 5 3 12 15 15 27 5 17 2 20 -14 16 -16 -4 -17 -2 -8 14 11 22 -4 81 -30 112
-13 15 -13 20 -1 27 11 7 11 11 1 24 -15 17 -32 86 -22 86 3 0 7 23 8 50 2 28
-2 50 -7 50 -14 0 -12 28 3 33 9 3 9 9 0 25 -7 12 -10 28 -7 35 3 8 -6 27 -20
42 -14 15 -26 36 -26 46 0 10 -4 21 -10 24 -5 3 -7 19 -3 35 3 19 1 30 -5 30
-6 0 -9 7 -5 16 3 9 2 19 -3 23 -9 6 -27 36 -58 96 -9 17 -31 40 -50 53 -24
17 -32 29 -29 42 4 14 -2 23 -18 29 -36 15 -59 36 -59 54 0 10 -10 17 -27 19
-16 2 -28 9 -29 18 -2 29 -4 31 -23 21 -14 -8 -21 -5 -31 14 -7 14 -19 25 -27
25 -7 0 -18 11 -24 24 -7 15 -17 22 -26 19 -8 -3 -23 3 -33 13 -26 26 -42 39
-60 47 -8 4 -33 18 -55 32 -22 13 -50 24 -62 25 -13 0 -23 4 -23 8 0 4 -25 19
-56 32 -31 14 -60 33 -65 43 -5 9 -15 17 -21 17 -11 0 -88 79 -88 91 0 3 -13
20 -30 37 -16 18 -30 39 -30 47 0 9 -9 35 -20 57 -11 23 -18 44 -15 46 2 3 -1
14 -8 26 -9 15 -12 124 -13 406 -1 375 -2 412 -17 427 -4 4 -4 40 -1 81 6 63
5 74 -7 66 -8 -5 -18 -9 -24 -9 -18 -1 -65 -28 -65 -37 0 -4 -7 -8 -16 -8 -9
0 -22 -7 -29 -17 -7 -9 -17 -13 -23 -9 -14 8 -16 66 -3 66 5 0 7 9 4 19 -3 12
4 28 17 41 23 23 41 20 21 -4 -8 -10 -9 -16 -1 -21 5 -3 10 -1 10 5 0 6 11 15
24 20 20 7 24 14 20 35 -4 22 -2 25 18 20 14 -3 34 2 51 13 23 16 25 21 14 31
-8 6 -12 22 -9 36 3 20 0 25 -17 25 -12 0 -21 -6 -20 -12 3 -28 -2 -38 -21
-38 -10 0 -23 -7 -28 -17 -6 -9 -16 -14 -25 -10 -13 5 -16 17 -13 56 3 34 -1
54 -10 61 -7 7 -10 18 -7 26 3 7 -2 17 -11 20 -9 3 -16 15 -16 27 0 11 -6 28
-13 36 -16 19 -58 121 -50 121 3 0 12 -8 19 -17 8 -11 13 -13 14 -5 0 6 6 12
14 12 8 0 18 4 21 10 4 6 -1 7 -10 3 -16 -6 -35 11 -35 32 0 6 4 4 8 -3 6 -9
12 -5 20 13 11 23 16 26 44 20 17 -4 40 -17 49 -29 10 -11 21 -18 25 -14 4 4
1 14 -6 23 -7 9 -10 18 -6 22 3 4 12 -2 20 -12 15 -21 46 -14 46 9 0 10 6 13
18 9 14 -6 15 -4 4 9 -7 9 -22 13 -38 10 -24 -4 -25 -3 -22 34 2 31 7 38 21
36 14 -2 17 4 17 35 0 21 -7 47 -15 57 -21 27 -19 39 5 33 11 -3 27 1 34 9 19
19 57 4 74 -27 7 -13 14 -58 16 -99 4 -93 19 -134 46 -127 15 4 19 -1 22 -26
4 -38 33 -49 43 -18 3 12 15 21 25 21 10 0 31 11 47 24 15 12 38 28 50 35 20
10 21 14 11 31 -10 15 -10 22 0 32 6 6 12 20 12 30 0 10 14 25 30 33 17 9 28
20 25 24 -2 5 2 14 10 21 8 7 15 19 15 26 0 8 8 14 18 14 9 0 23 9 30 20 7 11
22 20 35 21 21 0 21 1 -3 10 -20 8 -22 12 -10 19 12 8 11 10 -5 11 -11 1 -24
3 -30 4 -5 2 -14 3 -19 4 -15 2 16 31 34 31 10 0 23 7 30 15 7 8 21 15 31 15
20 0 38 42 20 48 -16 5 -14 16 10 67 12 25 18 49 14 53 -4 4 -10 1 -12 -5 -6
-18 -33 -16 -33 2 0 8 -6 15 -14 15 -7 0 -19 -7 -26 -15 -7 -8 -16 -15 -21
-15 -5 0 -6 7 -3 15 4 8 12 15 20 15 8 0 14 5 14 11 0 6 14 30 30 54 17 24 30
55 30 69 0 14 5 28 10 31 13 8 13 35 1 35 -5 0 -13 -9 -16 -21 -4 -11 -12 -18
-19 -16 -16 6 -37 -28 -30 -46 7 -18 -22 -29 -44 -18 -9 5 -25 12 -34 15 -10
3 -18 10 -18 16 0 14 27 13 32 -2 2 -6 10 -8 16 -4 17 10 -1 41 -24 41 -9 0
-19 5 -21 12 -5 15 26 32 66 35 30 2 45 18 17 18 -7 0 -19 7 -27 16 -10 13
-10 17 2 25 8 5 24 7 36 4 12 -3 25 -1 28 5 3 5 1 10 -5 10 -7 0 -10 6 -7 14
8 19 -16 38 -37 30 -20 -8 -66 3 -66 15 0 5 6 16 13 23 45 46 78 176 42 162
-9 -4 -15 0 -15 10 0 9 -4 16 -10 16 -5 0 -10 7 -10 16 0 20 -24 44 -44 44 -9
0 -16 8 -17 18 -1 9 -2 26 -3 37 -1 11 -3 30 -4 41 -1 13 -11 24 -23 27 -16 4
-19 11 -14 26 5 17 2 21 -15 21 -11 0 -23 7 -26 15 -4 8 -15 15 -25 15 -12 0
-16 5 -13 15 4 8 -1 17 -10 21 -9 3 -16 12 -16 19 0 7 -7 18 -15 25 -8 7 -15
20 -16 29 0 21 -75 81 -100 81 -11 0 -24 11 -31 25 -11 24 -40 39 -69 35 -38
-6 -49 1 -49 28 0 38 -37 80 -79 88 -33 7 -33 7 -15 -15 10 -11 25 -21 34 -21
21 0 42 -37 35 -61 -4 -10 -13 -19 -21 -19 -8 0 -14 -7 -14 -15 0 -8 -7 -15
-15 -15 -8 0 -15 5 -15 10 0 6 -9 10 -20 10 -18 0 -19 3 -8 20 11 17 8 23 -27
54 -35 32 -40 33 -59 20 -26 -18 -40 -18 -33 0 3 8 2 27 -3 43 -5 15 -9 20 -9
11 -1 -26 -22 -22 -47 9 -14 18 -23 23 -28 15z m128 -122 c35 -13 33 -30 -4
-30 -23 0 -30 4 -30 20 0 23 0 23 34 10z m246 -114 c0 -2 3 -11 6 -20 4 -11 1
-16 -10 -16 -9 0 -16 2 -16 4 0 2 -3 11 -6 20 -4 11 -1 16 10 16 9 0 16 -2 16
-4z m-966 -131 c-4 -8 -8 -15 -10 -15 -2 0 -4 7 -4 15 0 8 4 15 10 15 5 0 7
-7 4 -15z m-476 -465 c-14 -21 -43 -27 -53 -10 -4 6 5 10 19 10 14 0 26 5 26
10 0 6 5 10 10 10 6 0 5 -8 -2 -20z m-18 -58 c0 -5 -8 -16 -18 -26 -18 -15
-20 -15 -38 5 -19 22 -19 22 5 14 16 -5 21 -4 17 4 -4 7 1 11 13 11 12 0 21
-4 21 -8z m-8675 -12 c3 -5 1 -10 -4 -10 -6 0 -11 5 -11 10 0 6 2 10 4 10 3 0
8 -4 11 -10z m8540 -60 c3 -5 1 -10 -4 -10 -6 0 -11 5 -11 10 0 6 2 10 4 10 3
0 8 -4 11 -10z m73 -178 c2 -7 -3 -12 -12 -12 -9 0 -16 7 -16 16 0 17 22 14
28 -4z m-78 -72 c0 -5 -5 -10 -11 -10 -5 0 -7 5 -4 10 3 6 8 10 11 10 2 0 4
-4 4 -10z m30 -30 c0 -5 -2 -10 -4 -10 -3 0 -8 5 -11 10 -3 6 -1 10 4 10 6 0
11 -4 11 -10z m17 -56 c-3 -3 -12 -4 -19 -1 -8 3 -5 6 6 6 11 1 17 -2 13 -5z
m-46 -27 c-13 -13 -26 -3 -16 12 3 6 11 8 17 5 6 -4 6 -10 -1 -17z m999 -71
c4 -13 21 -33 36 -45 20 -16 22 -21 10 -21 -10 0 -14 -5 -11 -10 4 -6 15 -8
26 -5 14 5 19 2 19 -10 0 -11 -5 -15 -15 -11 -11 4 -15 -2 -15 -20 0 -20 4
-24 19 -19 15 4 20 -1 24 -27 5 -37 -8 -60 -32 -56 -26 4 -41 -11 -41 -43 0
-21 -5 -29 -18 -29 -10 0 -23 5 -29 11 -8 8 -17 8 -32 0 -53 -28 -61 -31 -71
-31 -14 0 -12 52 4 91 14 34 11 95 -5 105 -15 9 -10 24 7 24 16 0 53 37 54 53
0 14 41 67 51 67 5 0 14 -11 19 -24z m-883 -54 c16 -16 18 -66 2 -56 -17 10
-41 73 -32 86 5 9 8 8 11 -2 3 -8 11 -21 19 -28z m-80 -34 c-3 -7 -5 -2 -5 12
0 14 2 19 5 13 2 -7 2 -19 0 -25z m1507 -15 c-11 -11 -12 -18 -4 -23 8 -5 7
-9 -5 -14 -26 -10 -30 -8 -30 19 0 17 6 25 18 25 9 0 17 5 17 11 0 5 5 7 10 4
6 -4 4 -12 -6 -22z m104 -21 c2 -7 -3 -12 -12 -12 -9 0 -16 7 -16 16 0 17 22
14 28 -4z m-426 -86 c28 -70 28 -70 4 -47 -13 12 -36 26 -52 30 -19 5 -28 14
-26 24 1 8 -2 18 -8 22 -16 10 -12 25 5 19 18 -7 20 12 3 20 -7 3 0 4 16 3 27
-2 33 -9 58 -71z m-2758 -181 c-4 -8 -8 -15 -10 -15 -2 0 -4 7 -4 15 0 8 4 15
10 15 5 0 7 -7 4 -15z m1 -65 c-3 -5 -10 -10 -16 -10 -5 0 -9 5 -9 10 0 6 7
10 16 10 8 0 12 -4 9 -10z m2505 -37 c0 -10 -111 -53 -134 -53 -9 0 -16 -5
-16 -12 0 -6 -2 -9 -5 -6 -9 9 6 36 23 42 9 4 28 13 42 21 26 15 90 21 90 8z
m-2806 -142 c-9 -10 -26 18 -18 30 5 9 9 8 14 -7 4 -10 6 -21 4 -23z m-128
-34 c17 -10 -3 -47 -21 -40 -7 2 -19 -3 -28 -11 -9 -9 -20 -16 -26 -16 -14 0
-14 37 -1 45 8 5 7 11 -1 21 -17 20 -6 26 25 15 22 -9 26 -8 27 7 0 14 2 14 6
2 3 -8 12 -19 19 -23z m2879 3 c-3 -5 -15 -10 -26 -10 -11 0 -17 5 -14 10 3 6
15 10 26 10 11 0 17 -4 14 -10z m-2975 -30 c0 -5 -4 -10 -9 -10 -6 0 -13 5
-16 10 -3 6 1 10 9 10 9 0 16 -4 16 -10z m215 -100 c3 -5 -3 -10 -14 -10 -12
0 -21 5 -21 10 0 6 6 10 14 10 8 0 18 -4 21 -10z m3395 -12 c0 -16 -3 -19 -11
-11 -6 6 -8 16 -5 22 11 17 16 13 16 -11z m-3295 -38 c-3 -5 -11 -10 -16 -10
-6 0 -7 5 -4 10 3 6 11 10 16 10 6 0 7 -4 4 -10z m-155 -30 c11 -11 20 -24 20
-29 0 -18 -32 -42 -50 -36 -9 3 -23 -1 -30 -10 -7 -8 -16 -15 -21 -15 -16 0
-9 29 10 39 10 6 24 24 31 41 15 36 14 36 40 10z m-238 -35 c6 -29 2 -31 -18
-11 -18 18 -18 36 0 36 7 0 16 -11 18 -25z m468 -95 c0 -5 -4 -10 -10 -10 -5
0 -10 5 -10 10 0 6 5 10 10 10 6 0 10 -4 10 -10z m-5080 -10 c0 -5 -2 -10 -4
-10 -3 0 -8 5 -11 10 -3 6 -1 10 4 10 6 0 11 -4 11 -10z m5050 -160 c0 -5 -4
-10 -10 -10 -5 0 -10 5 -10 10 0 6 5 10 10 10 6 0 10 -4 10 -10z m2453 -74 c9
-7 17 -18 17 -25 0 -6 6 -22 14 -34 10 -17 11 -30 2 -60 -7 -21 -16 -34 -20
-30 -5 4 -6 0 -3 -10 4 -11 1 -20 -7 -23 -22 -8 -56 14 -56 37 0 11 -5 29 -11
40 -7 15 -7 24 1 34 8 9 8 15 0 20 -8 5 -8 11 1 21 6 8 8 14 3 14 -5 0 0 7 10
15 24 18 26 18 49 1z m-7684 -267 c-16 -10 -23 -4 -14 10 3 6 11 8 17 5 6 -4
5 -9 -3 -15z m85 -805 c-11 -14 -27 -40 -36 -57 -16 -29 -18 -30 -18 -9 0 30
25 78 47 91 26 14 28 5 7 -25z"/>
<path d="M10370 5850 c0 -5 5 -10 10 -10 6 0 10 5 10 10 0 6 -4 10 -10 10 -5
0 -10 -4 -10 -10z"/>
<path d="M10085 7930 c3 -5 10 -10 16 -10 5 0 9 5 9 10 0 6 -7 10 -16 10 -8 0
-12 -4 -9 -10z"/>
<path d="M12760 7879 c0 -5 5 -7 10 -4 6 3 10 8 10 11 0 2 -4 4 -10 4 -5 0
-10 -5 -10 -11z"/>
<path d="M10083 7858 c2 -7 10 -13 17 -13 7 0 15 6 18 13 2 7 -5 12 -18 12
-13 0 -20 -5 -17 -12z"/>
<path d="M10025 7850 c3 -5 10 -10 16 -10 5 0 9 5 9 10 0 6 -7 10 -16 10 -8 0
-12 -4 -9 -10z"/>
<path d="M9855 7840 c-3 -5 -2 -10 4 -10 5 0 13 5 16 10 3 6 2 10 -4 10 -5 0
-13 -4 -16 -10z"/>
<path d="M10165 7840 c-3 -5 3 -10 15 -10 12 0 18 5 15 10 -3 6 -10 10 -15 10
-5 0 -12 -4 -15 -10z"/>
<path d="M9908 7818 c-2 -15 -11 -24 -27 -26 -18 -3 -22 0 -18 12 4 9 2 16 -3
16 -6 0 -10 -4 -10 -10 0 -5 -6 -10 -14 -10 -8 0 -16 -6 -19 -14 -3 -8 -26
-15 -59 -18 -44 -4 -60 -10 -84 -35 -16 -17 -50 -40 -76 -52 -27 -12 -48 -26
-48 -32 0 -7 -11 -9 -26 -6 -19 3 -24 1 -20 -9 3 -8 -3 -30 -14 -49 -21 -38
-27 -70 -10 -60 6 3 10 1 10 -5 0 -7 8 -24 18 -38 10 -15 19 -37 20 -50 1 -21
0 -21 -24 7 -13 16 -24 38 -24 50 0 19 -19 31 -21 14 -6 -57 -3 -68 31 -103
35 -37 78 -65 86 -57 2 2 -5 12 -16 22 -22 20 -26 35 -10 35 6 0 10 -7 10 -15
0 -8 6 -15 13 -15 7 0 20 -9 30 -20 12 -14 30 -21 55 -21 20 0 60 -1 87 -2 28
-1 59 2 70 7 10 5 34 10 52 11 27 2 33 -2 33 -18 0 -14 5 -17 17 -13 9 4 19 2
22 -3 9 -15 186 -22 261 -10 95 14 125 11 177 -16 72 -39 82 -32 33 24 -17 18
-30 37 -30 42 0 4 -13 10 -30 14 -16 4 -30 11 -30 15 0 5 -6 7 -14 4 -9 -4
-13 3 -12 25 1 29 2 29 23 15 12 -7 31 -14 41 -14 11 0 42 -18 70 -41 28 -22
55 -40 59 -40 4 0 18 -17 30 -37 20 -32 28 -36 24 -10 0 4 6 5 14 2 8 -4 15
-11 15 -18 0 -6 5 -4 9 4 15 26 1 65 -30 82 -16 10 -29 25 -29 37 0 11 -3 27
-6 35 -5 12 -2 15 10 10 14 -6 16 -2 10 22 -4 16 -10 31 -13 34 -4 3 -12 18
-19 33 -9 20 -17 27 -28 23 -14 -5 -15 -1 -10 29 6 28 4 35 -9 35 -8 0 -15 5
-15 11 0 5 -10 9 -22 7 -11 -2 -23 3 -25 10 -3 7 4 12 16 12 12 0 21 5 21 11
0 7 -11 8 -29 4 -27 -6 -30 -4 -33 22 -2 15 -9 29 -15 29 -7 1 -16 3 -20 4 -5
1 -11 2 -15 1 -12 -2 -10 17 2 24 6 3 10 13 10 22 0 12 -3 13 -14 4 -11 -9
-20 -10 -35 -1 -15 8 -21 8 -21 0 0 -7 -8 -9 -20 -5 -11 3 -20 2 -20 -3 0 -14
34 -25 38 -13 2 6 11 11 19 11 13 0 13 -3 3 -15 -10 -12 -9 -20 4 -39 12 -18
12 -26 3 -30 -7 -3 -3 -7 10 -11 12 -4 26 -19 31 -34 6 -14 13 -35 18 -46 6
-16 2 -15 -23 8 -16 15 -32 24 -36 21 -3 -3 -18 7 -33 22 -14 16 -30 28 -35
26 -5 -1 -28 11 -51 28 -22 16 -49 30 -59 30 -10 0 -23 8 -28 18 -6 9 -11 12
-11 5 0 -18 -69 -4 -92 19 -10 10 -25 18 -34 18 -11 0 -15 6 -11 20 3 13 1 18
-6 13 -6 -4 -8 0 -4 10 3 10 2 17 -3 17 -5 0 -10 -10 -12 -22z m-10 -85 c10
-9 5 -11 -23 -6 -23 4 -35 2 -35 -6 0 -6 7 -11 15 -11 8 0 15 -4 15 -10 0 -5
-22 -8 -49 -7 -38 2 -56 -3 -81 -21 -35 -26 -73 -26 -78 0 -2 13 1 16 12 12
12 -5 15 -2 10 10 -4 12 0 16 15 16 12 0 21 5 21 11 0 6 8 8 18 5 10 -4 26 0
35 6 22 17 108 17 125 1z m110 -40 c16 -16 16 -16 -1 -10 -10 4 -23 7 -28 7
-6 0 -7 5 -4 10 9 14 14 13 33 -7z m352 -195 c0 -4 -4 -8 -10 -8 -5 0 -10 4
-10 9 0 5 -3 18 -6 28 -5 16 -4 16 10 -1 9 -11 16 -23 16 -28z m50 -6 c0 -15
-2 -15 -10 -2 -13 20 -13 33 0 25 6 -3 10 -14 10 -23z m-138 -72 c16 -15 18
-20 7 -20 -8 0 -21 6 -28 13 -10 10 -11 8 -5 -8 5 -15 4 -17 -5 -9 -10 9 -6
44 5 44 3 0 14 -9 26 -20z"/>
<path d="M3220 7800 c0 -5 5 -10 10 -10 6 0 10 5 10 10 0 6 -4 10 -10 10 -5 0
-10 -4 -10 -10z"/>
<path d="M10021 7794 c0 -11 3 -14 6 -6 3 7 2 16 -1 19 -3 4 -6 -2 -5 -13z"/>
<path d="M10110 7780 c0 -5 -7 -6 -17 -3 -11 4 -14 3 -9 -6 5 -7 14 -10 21 -7
7 2 23 -2 34 -11 30 -20 38 -10 12 16 -22 22 -41 27 -41 11z"/>
<path d="M9570 7744 c0 -8 5 -12 10 -9 6 3 10 10 10 16 0 5 -4 9 -10 9 -5 0
-10 -7 -10 -16z"/>
<path d="M12655 7740 c-3 -5 -1 -10 4 -10 6 0 11 5 11 10 0 6 -2 10 -4 10 -3
0 -8 -4 -11 -10z"/>
<path d="M9416 7684 c-11 -28 -6 -34 14 -22 24 15 25 24 6 31 -8 3 -17 -1 -20
-9z"/>
<path d="M4496 7649 c7 -12 74 -12 74 0 0 6 -18 9 -40 9 -22 0 -37 -4 -34 -9z"/>
<path d="M9434 7625 c-4 -8 -11 -12 -17 -8 -6 4 -8 -2 -4 -16 3 -14 0 -24 -9
-28 -15 -6 -20 -63 -5 -63 9 0 14 13 36 88 11 40 11 58 -1 27z"/>
<path d="M4445 7611 c-40 -12 -58 -28 -52 -46 6 -13 15 -15 46 -10 38 6 40 5
52 -29 15 -43 30 -42 44 2 6 22 15 32 29 32 18 0 19 2 5 15 -21 21 -99 43
-124 36z"/>
<path d="M9460 7590 c0 -11 2 -20 4 -20 2 0 6 9 9 20 3 11 1 20 -4 20 -5 0 -9
-9 -9 -20z"/>
<path d="M12438 7583 c-30 -5 -36 -17 -15 -30 8 -4 16 -16 20 -25 10 -27 37
-22 37 6 0 13 7 26 15 30 8 3 15 10 15 16 0 10 -20 11 -72 3z"/>
<path d="M9311 7548 c-5 -13 -6 -29 -4 -35 3 -7 -2 -13 -12 -13 -12 0 -15 -7
-12 -29 4 -22 1 -28 -8 -25 -16 6 -29 -12 -15 -21 5 -3 10 -11 10 -17 0 -6 -9
-3 -20 7 -13 12 -24 15 -30 9 -11 -11 28 -74 47 -74 7 0 10 -7 6 -17 -4 -11
-3 -14 5 -9 8 5 10 2 6 -8 -3 -9 -10 -13 -15 -10 -5 3 -24 -3 -41 -13 -18 -10
-34 -19 -36 -19 -1 -1 0 -20 4 -43 7 -42 24 -57 24 -21 0 12 13 25 35 35 48
24 85 74 74 103 -5 12 -12 22 -17 22 -6 0 -8 39 -3 108 1 6 6 12 12 12 6 0 8
-9 4 -20 -3 -11 -2 -20 3 -20 14 0 23 28 11 36 -5 3 -7 14 -4 24 3 10 1 21 -5
25 -8 5 -8 11 1 21 9 10 9 14 0 14 -6 0 -15 -10 -20 -22z"/>
<path d="M10576 7551 c-4 -7 -5 -15 -2 -18 9 -9 19 4 14 18 -4 11 -6 11 -12 0z"/>
<path d="M10567 7513 c-10 -10 -8 -63 2 -63 11 0 21 25 21 51 0 19 -11 25 -23
12z"/>
<path d="M9412 7480 c0 -14 2 -19 5 -12 2 6 2 18 0 25 -3 6 -5 1 -5 -13z"/>
<path d="M9367 7483 c-4 -3 -7 -14 -7 -24 0 -10 -7 -24 -15 -33 -8 -8 -11 -17
-6 -21 5 -3 12 4 16 15 3 11 12 19 18 17 7 -1 13 10 15 26 3 26 -7 35 -21 20z"/>
<path d="M12189 7463 c-12 -15 -12 -16 6 -8 11 4 28 8 37 9 9 0 14 4 12 8 -9
14 -41 9 -55 -9z"/>
<path d="M12270 7450 c0 -5 5 -10 11 -10 5 0 7 5 4 10 -3 6 -8 10 -11 10 -2 0
-4 -4 -4 -10z"/>
<path d="M9424 7411 c6 -32 34 -76 43 -67 2 2 -8 25 -22 52 -25 47 -26 47 -21
15z"/>
<path d="M10740 7415 c-7 -9 -11 -18 -8 -20 3 -3 11 1 18 10 7 9 11 18 8 20
-3 3 -11 -1 -18 -10z"/>
<path d="M10540 7394 c0 -8 5 -12 10 -9 6 4 8 11 5 16 -9 14 -15 11 -15 -7z"/>
<path d="M10580 7402 c0 -4 13 -13 29 -20 17 -7 32 -21 35 -30 2 -9 4 -1 3 18
-2 32 -5 35 -34 37 -18 1 -33 -2 -33 -5z"/>
<path d="M12146 7399 c-12 -39 -15 -68 -7 -73 9 -6 25 73 17 82 -3 3 -8 -1
-10 -9z"/>
<path d="M14433 7350 c-1 -11 2 -20 8 -20 5 0 9 9 9 20 0 11 -4 20 -8 20 -4 0
-8 -9 -9 -20z"/>
<path d="M9226 7333 c-11 -11 -6 -23 9 -23 8 0 15 4 15 9 0 13 -16 22 -24 14z"/>
<path d="M10630 7285 c0 -20 4 -34 9 -31 5 3 9 17 9 31 0 14 -4 28 -9 31 -5 3
-9 -11 -9 -31z"/>
<path d="M6070 7190 c-9 -18 -67 -32 -84 -22 -5 3 -1 11 9 19 14 9 15 13 4 13
-19 -1 -50 -25 -42 -33 3 -4 -2 -7 -13 -7 -11 0 -25 -9 -32 -21 -13 -20 -14
-20 -26 -3 -14 19 -41 10 -32 -11 5 -15 -20 -29 -29 -16 -2 5 -19 8 -37 6 -23
-2 -34 -8 -36 -21 -6 -29 -22 -41 -22 -16 0 27 -4 27 -38 4 -15 -10 -35 -22
-45 -25 -10 -4 -15 -12 -11 -18 4 -8 -1 -9 -15 -4 -16 5 -27 1 -36 -12 -22
-28 -18 -39 22 -58 28 -14 41 -15 55 -6 26 16 51 14 44 -4 -5 -14 4 -15 66
-10 39 2 74 9 77 13 14 20 44 22 56 5 11 -15 30 -18 117 -19 57 0 117 -4 134
-8 25 -5 33 -3 38 10 6 15 8 15 27 -2 19 -17 20 -17 26 4 6 23 23 31 23 11 0
-6 9 -9 19 -6 12 3 29 -4 42 -16 18 -17 35 -21 88 -20 38 0 69 -4 74 -11 5 -8
10 -7 16 3 5 7 14 10 20 6 9 -5 9 -10 0 -21 -9 -11 -9 -14 0 -14 14 0 41 -24
41 -36 0 -4 11 -20 25 -34 28 -29 60 -166 44 -187 -7 -7 -6 -13 0 -17 15 -9 2
-66 -22 -100 l-21 -29 24 6 c17 4 20 3 11 -6 -18 -18 -13 -65 9 -87 12 -12 18
-25 15 -30 -4 -6 3 -27 14 -48 24 -43 42 -110 33 -116 -11 -7 -7 -123 5 -138
6 -7 14 -29 18 -48 4 -19 13 -42 20 -50 7 -8 15 -24 17 -35 3 -21 58 -36 58
-16 0 6 9 11 20 11 11 0 24 8 27 18 4 9 17 25 30 35 17 14 23 29 23 57 0 28 5
39 19 43 13 3 17 11 14 28 -2 13 5 41 15 62 11 20 16 40 11 43 -12 7 -12 84 1
84 20 0 31 38 18 64 -6 14 -15 26 -20 26 -4 0 -7 10 -7 23 1 17 2 18 6 4 5
-20 30 -17 25 3 -1 7 3 19 10 27 10 12 9 17 -4 27 -17 13 -21 77 -5 92 4 4 7
12 7 18 0 6 -5 4 -10 -4 -7 -11 -10 -7 -10 19 0 20 -7 39 -17 47 -10 7 -14 16
-9 21 5 4 11 2 13 -4 7 -20 23 -15 23 7 0 11 -8 24 -17 27 -10 4 -21 11 -26
17 -4 7 -9 2 -13 -12 -5 -16 -11 -21 -25 -17 -12 4 -19 2 -19 -6 0 -10 -3 -10
-12 0 -10 10 -10 15 -1 18 7 2 9 11 6 19 -3 8 -1 14 5 14 6 0 12 -5 14 -12 3
-9 6 -9 11 -1 4 6 0 18 -9 27 -9 10 -13 24 -9 36 4 13 1 22 -9 26 -9 3 -16 13
-16 21 0 8 -5 11 -10 8 -6 -4 -10 -16 -8 -28 2 -17 -3 -23 -24 -25 -28 -3 -39
13 -15 21 9 3 9 7 -2 20 -9 11 -10 17 -2 17 27 0 7 20 -31 30 -35 10 -43 9
-50 -4 -5 -9 -16 -16 -23 -16 -8 0 -15 -7 -15 -15 0 -33 -15 -65 -31 -65 -19
0 -21 31 -4 50 17 19 17 21 2 38 -21 23 -22 42 -2 42 8 0 15 5 15 10 0 14 -13
13 -28 -2 -18 -18 -22 -5 -11 35 5 20 16 37 23 37 8 0 16 6 19 14 4 9 15 12
33 8 19 -3 25 -1 20 7 -4 6 -12 9 -17 6 -5 -4 -9 -2 -9 3 0 14 -94 32 -134 25
-24 -4 -36 -2 -36 6 0 6 -11 11 -25 11 -14 0 -25 5 -25 10 0 6 -7 10 -15 10
-8 0 -15 -4 -15 -10 0 -5 -12 -10 -27 -10 -17 0 -23 3 -16 8 25 16 -2 32 -36
22 -40 -11 -57 -4 -40 16 18 22 2 30 -21 9 -15 -14 -23 -15 -34 -6 -8 7 -17 8
-20 3 -8 -13 -76 20 -71 35 3 8 -8 10 -36 8 -21 -2 -39 1 -39 6 0 5 5 9 10 9
6 0 10 8 10 19 0 26 -57 35 -70 11z m50 -9 c0 -10 -50 -45 -56 -39 -6 6 35 48
46 48 6 0 10 -4 10 -9z m-165 -81 c3 -5 -1 -10 -10 -10 -9 0 -13 5 -10 10 3 6
8 10 10 10 2 0 7 -4 10 -10z m-158 -26 c-9 -9 -28 6 -21 18 4 6 10 6 17 -1 6
-6 8 -13 4 -17z m38 -34 c-3 -5 -12 -10 -18 -10 -7 0 -6 4 3 10 19 12 23 12
15 0z m595 -21 c0 -14 -27 -10 -33 5 -4 10 0 12 14 9 10 -3 19 -9 19 -14z
m155 -19 c-3 -5 -16 -10 -28 -9 -20 1 -20 2 3 9 14 4 26 8 28 9 2 1 0 -3 -3
-9z m45 -23 c-8 -7 -21 -20 -29 -30 -12 -15 -12 -20 5 -33 18 -15 18 -15 0
-10 -15 5 -17 2 -13 -15 6 -21 6 -21 -15 1 -14 14 -17 24 -10 29 6 3 9 15 8
26 -5 28 12 45 43 45 22 -1 24 -3 11 -13z m-220 -17 c0 -12 -40 -33 -48 -25
-4 4 2 13 12 21 23 16 36 18 36 4z m145 -10 c3 -5 1 -10 -4 -10 -6 0 -11 5
-11 10 0 6 2 10 4 10 3 0 8 -4 11 -10z m413 -455 c-3 -13 -2 -23 2 -22 12 3
13 -17 2 -21 -11 -3 -33 53 -25 62 14 14 25 4 21 -19z m-28 -65 c0 -5 -2 -10
-4 -10 -3 0 -8 5 -11 10 -3 6 -1 10 4 10 6 0 11 -4 11 -10z"/>
<path d="M14420 7190 c0 -5 7 -10 15 -10 8 0 15 5 15 10 0 6 -7 10 -15 10 -8
0 -15 -4 -15 -10z"/>
<path d="M5650 7129 c0 -5 5 -7 10 -4 6 3 10 8 10 11 0 2 -4 4 -10 4 -5 0 -10
-5 -10 -11z"/>
<path d="M6415 7130 c-4 -6 5 -10 19 -10 14 0 26 5 26 10 0 6 -9 10 -19 10
-11 0 -23 -4 -26 -10z"/>
<path d="M6550 7093 c0 -5 11 -13 25 -20 29 -13 34 1 6 17 -23 12 -31 13 -31
3z"/>
<path d="M6715 6899 c-4 -6 -5 -12 -2 -15 2 -3 7 2 10 11 7 17 1 20 -8 4z"/>
<path d="M6790 6903 c8 -3 23 -12 33 -21 15 -14 17 -14 17 0 0 9 -10 18 -22
22 -28 7 -49 7 -28 -1z"/>
<path d="M10940 6657 c0 -18 27 -53 35 -46 7 8 -15 59 -27 59 -4 0 -8 -6 -8
-13z"/>
<path d="M9510 6636 c-19 -7 -50 -22 -69 -34 -21 -13 -44 -19 -60 -16 -19 3
-36 -4 -60 -24 l-34 -29 19 -25 c14 -19 27 -25 49 -24 17 1 40 -3 53 -10 l24
-12 -22 -20 c-23 -21 -41 -48 -59 -89 -8 -18 -6 -31 10 -58 23 -39 26 -40 52
-20 13 9 17 20 12 34 -4 15 1 28 19 46 14 14 29 25 33 25 5 0 14 -20 21 -44 6
-24 18 -51 26 -59 19 -19 9 -29 -16 -16 -23 13 -37 4 -20 -13 16 -16 15 -45 0
-51 -15 -5 35 -27 61 -27 10 0 24 -7 31 -15 21 -25 62 -17 110 21 25 20 49 42
53 50 4 8 19 14 32 14 30 0 35 8 41 75 4 40 0 70 -15 115 -12 33 -21 67 -21
75 0 8 -9 20 -19 27 -16 10 -18 15 -8 27 9 12 9 13 0 7 -7 -4 -13 -3 -13 3 0
5 -17 15 -37 22 -21 6 -43 18 -51 25 -7 7 -19 11 -26 8 -8 -3 -17 0 -21 5 -3
6 -10 9 -15 6 -5 -3 -18 -2 -27 4 -12 6 -30 5 -53 -3z m125 -466 c-3 -5 -12
-7 -20 -3 -21 7 -19 13 6 13 11 0 18 -4 14 -10z"/>
<path d="M11036 6584 c-4 -14 -5 -28 -3 -31 3 -2 8 8 11 23 4 14 5 28 3 31 -3
2 -8 -8 -11 -23z"/>
<path d="M9940 6544 c0 -9 40 -23 44 -15 3 5 -5 11 -19 13 -14 3 -25 4 -25 2z"/>
<path d="M10993 6521 c-20 -32 -5 -292 18 -306 10 -7 4 -125 -10 -185 -10 -47
-14 -110 -9 -145 2 -14 -2 -19 -14 -17 -22 3 -23 -14 -4 -34 8 -7 12 -23 9
-34 -3 -11 -1 -20 4 -20 6 0 8 -21 5 -51 -3 -34 -1 -50 5 -46 6 4 13 39 17 79
8 81 13 136 20 188 10 78 15 129 21 205 3 44 11 85 17 92 6 8 11 32 11 56 0
23 3 34 5 24 3 -13 11 -17 30 -15 21 2 27 8 27 28 0 14 5 28 10 33 6 4 5 10
-5 16 -20 14 -30 4 -30 -30 0 -37 -16 -30 -25 12 -6 25 -9 28 -22 18 -12 -10
-16 -10 -23 0 -4 8 -13 10 -19 7 -6 -4 -11 -1 -11 8 0 8 5 18 10 21 15 9 12
52 -4 58 -8 3 -16 18 -18 32 -3 25 -4 25 -15 6z"/>
<path d="M11042 6520 c0 -14 2 -19 5 -12 2 6 2 18 0 25 -3 6 -5 1 -5 -13z"/>
<path d="M6125 6480 c-3 -5 -1 -10 4 -10 6 0 11 5 11 10 0 6 -2 10 -4 10 -3 0
-8 -4 -11 -10z"/>
<path d="M13856 6454 c-8 -22 1 -31 16 -16 9 9 9 15 1 23 -7 7 -12 5 -17 -7z"/>
<path d="M13917 6444 c6 -16 19 -18 27 -5 3 5 -3 11 -13 14 -14 3 -18 1 -14
-9z"/>
<path d="M6220 6426 c0 -2 7 -6 15 -10 8 -3 15 -1 15 4 0 6 -7 10 -15 10 -8 0
-15 -2 -15 -4z"/>
<path d="M6165 6410 c-3 -5 -1 -10 4 -10 6 0 11 5 11 10 0 6 -2 10 -4 10 -3 0
-8 -4 -11 -10z"/>
<path d="M13868 6343 c7 -3 16 -2 19 1 4 3 -2 6 -13 5 -11 0 -14 -3 -6 -6z"/>
<path d="M14205 6310 c-3 -5 -1 -10 4 -10 6 0 11 5 11 10 0 6 -2 10 -4 10 -3
0 -8 -4 -11 -10z"/>
<path d="M5300 6269 c-26 -11 -80 -58 -80 -70 0 -3 13 -9 29 -12 43 -9 47 -34
8 -53 -38 -20 -46 -30 -40 -54 3 -12 12 -17 24 -15 13 3 19 -2 19 -14 0 -22
87 -104 94 -87 2 6 5 4 5 -4 2 -30 21 -39 49 -24 24 12 28 12 33 -4 4 -9 5
-20 2 -24 -2 -5 -2 -8 1 -8 8 0 80 123 97 166 26 67 16 95 -47 133 -30 18 -54
38 -54 46 0 12 -16 18 -87 29 -16 3 -39 0 -53 -5z m0 -222 c0 -23 -5 -19 -31
26 -9 17 -8 17 10 7 12 -6 21 -21 21 -33z"/>
<path d="M12385 6225 c9 -67 27 -85 21 -21 -2 26 -10 53 -16 60 -10 8 -11 0
-5 -39z"/>
<path d="M6992 6240 c0 -14 2 -19 5 -12 2 6 2 18 0 25 -3 6 -5 1 -5 -13z"/>
<path d="M14020 6137 c-37 -89 -99 -270 -94 -278 7 -12 24 -12 24 1 0 6 14 29
31 53 24 33 30 49 25 75 -4 26 1 42 25 74 16 23 29 51 29 63 0 32 -28 40 -40
12z"/>
<path d="M12450 6145 c0 -15 57 -54 72 -49 15 4 18 0 16 -28 -3 -64 2 -88 24
-110 17 -17 19 -23 8 -26 -8 -3 8 -11 35 -18 28 -6 53 -10 56 -8 8 5 -9 86
-19 94 -4 3 -8 14 -9 26 -1 11 -11 42 -23 69 -16 37 -23 46 -32 37 -16 -16
-51 -15 -93 2 -19 8 -35 13 -35 11z"/>
<path d="M11087 6086 c-7 -17 18 -42 27 -27 7 11 -3 41 -14 41 -4 0 -10 -6
-13 -14z"/>
<path d="M13785 6031 c-6 -11 9 -23 19 -14 9 9 7 23 -3 23 -6 0 -12 -4 -16 -9z"/>
<path d="M10500 6020 c0 -5 6 -10 14 -10 8 0 18 5 21 10 3 6 -3 10 -14 10 -12
0 -21 -4 -21 -10z"/>
<path d="M5537 6004 c-4 -4 -7 -14 -7 -23 0 -11 3 -12 11 -4 6 6 10 16 7 23
-2 6 -7 8 -11 4z"/>
<path d="M9715 5980 c-3 -5 -1 -10 4 -10 6 0 11 5 11 10 0 6 -2 10 -4 10 -3 0
-8 -4 -11 -10z"/>
<path d="M9865 5950 c-3 -5 -1 -10 4 -10 6 0 11 5 11 10 0 6 -2 10 -4 10 -3 0
-8 -4 -11 -10z"/>
<path d="M9707 5910 c6 -24 26 -21 31 3 2 11 -3 17 -16 17 -15 0 -19 -5 -15
-20z"/>
<path d="M10645 5871 c-3 -5 -1 -12 5 -16 5 -3 10 1 10 9 0 18 -6 21 -15 7z"/>
<path d="M6950 5805 c-8 -9 -8 -15 -2 -15 12 0 26 19 19 26 -2 2 -10 -2 -17
-11z"/>
<path d="M5465 5750 c3 -5 8 -10 11 -10 2 0 4 5 4 10 0 6 -5 10 -11 10 -5 0
-7 -4 -4 -10z"/>
<path d="M10945 5610 c3 -5 8 -10 11 -10 2 0 4 5 4 10 0 6 -5 10 -11 10 -5 0
-7 -4 -4 -10z"/>
<path d="M6776 4335 c4 -8 8 -15 10 -15 2 0 4 7 4 15 0 8 -4 15 -10 15 -5 0
-7 -7 -4 -15z"/>
<path d="M15095 1080 c-3 -5 -1 -10 4 -10 6 0 11 5 11 10 0 6 -2 10 -4 10 -3
0 -8 -4 -11 -10z"/>
</g>
</svg>
