<?xml version="1.0" standalone="no"?>
<!DOCTYPE svg PUBLIC "-//W3C//DTD SVG 20010904//EN"
 "http://www.w3.org/TR/2001/REC-SVG-20010904/DTD/svg10.dtd">
<svg version="1.0" xmlns="http://www.w3.org/2000/svg"
 width="960.000000pt" height="640.000000pt" viewBox="0 0 960.000000 640.000000"
 preserveAspectRatio="xMidYMid meet">

<g transform="translate(0.000000,640.000000) scale(0.100000,-0.100000)"
fill="#000000" stroke="none">
<path d="M0 3200 l0 -3200 4800 0 4800 0 0 590 c0 359 -4 590 -9 590 -31 0
-64 -24 -78 -57 -13 -31 -16 -72 -14 -216 1 -157 0 -178 -15 -184 -9 -3 -25
-1 -35 5 -10 7 -27 12 -36 13 -10 0 -31 8 -48 18 -28 16 -30 22 -31 77 0 32
-3 68 -6 79 -19 63 -20 78 -7 102 13 23 12 27 -6 37 -11 6 -39 30 -62 54 -37
38 -48 44 -98 49 -30 3 -58 9 -60 13 -8 13 140 20 201 10 36 -6 62 -6 68 0 10
10 -4 17 -99 47 -48 15 -60 23 -58 38 2 11 4 33 6 49 2 15 -2 47 -10 69 -17
49 -40 164 -54 267 -5 41 -14 79 -19 84 -6 6 -10 23 -10 38 0 16 -7 39 -15 51
-8 13 -19 63 -24 113 -6 49 -14 105 -20 124 -9 34 -15 103 -26 290 -3 52 -10
133 -15 180 -20 179 -30 339 -29 435 3 111 -3 165 -21 210 -13 33 -14 236 -3
386 7 81 8 203 3 297 -2 40 8 110 20 131 5 11 10 41 10 68 0 58 9 95 21 87 8
-5 14 64 9 109 -1 10 4 25 11 33 9 11 14 62 16 156 3 133 4 142 28 170 14 16
25 39 25 51 1 75 15 163 26 175 8 7 14 22 14 32 0 10 5 22 10 25 6 3 10 15 10
25 0 11 9 24 20 30 12 7 22 25 26 50 4 22 10 40 14 40 4 0 10 9 13 20 3 11 12
20 19 20 15 0 38 40 38 64 0 8 9 16 20 19 17 4 20 14 22 64 1 32 1 79 -1 105
-1 25 3 63 8 85 11 38 62 103 81 103 5 0 10 5 10 10 0 6 11 16 25 22 14 6 25
19 25 29 0 10 8 25 17 35 14 13 18 36 19 91 2 80 13 103 50 103 l24 0 0 295 0
295 -4800 0 -4800 0 0 -3200z m6508 2613 c2 -8 -6 -13 -22 -13 -25 0 -33 10
-19 24 10 10 36 3 41 -11z m1265 -284 c14 -6 30 -22 36 -36 6 -13 15 -22 20
-19 5 3 12 -2 16 -11 12 -34 5 -305 -20 -695 -13 -216 -31 -508 -40 -648 -15
-269 -39 -631 -55 -865 -5 -77 -10 -172 -10 -212 0 -39 -4 -82 -9 -95 -8 -23
-10 -23 -132 -17 -68 4 -196 8 -284 10 l-160 4 -6 30 c-4 17 -7 22 -8 13 -1
-22 -30 -50 -46 -45 -28 12 -40 -14 -50 -107 -11 -99 -6 -136 19 -136 7 0 17
-7 20 -17 6 -15 8 -14 20 2 12 17 23 18 132 10 65 -4 134 -7 152 -6 52 2 51
-22 -7 -106 -28 -42 -50 -77 -48 -79 5 -5 95 84 114 112 8 13 21 24 28 24 7 0
16 7 19 16 6 14 20 16 107 12 55 -3 104 -9 108 -14 4 -5 4 -56 0 -114 -4 -58
-17 -276 -28 -485 -28 -508 -40 -656 -57 -676 -8 -8 -14 -26 -14 -40 0 -13 -7
-37 -16 -54 -9 -16 -17 -47 -17 -68 -1 -21 -3 -33 -5 -27 -8 23 -22 -3 -22
-40 0 -28 -4 -38 -13 -34 -8 3 -20 -11 -31 -36 -9 -22 -24 -40 -32 -40 -8 0
-14 -5 -14 -12 0 -6 -10 -22 -22 -35 -19 -20 -20 -26 -8 -33 12 -8 12 -14 -3
-44 -13 -29 -22 -36 -46 -36 -22 0 -34 -8 -49 -34 -13 -22 -17 -37 -10 -44 6
-6 4 -15 -6 -25 -9 -9 -16 -20 -16 -25 0 -6 -7 -13 -16 -16 -8 -3 -12 -10 -9
-16 3 -5 3 -15 -1 -22 -5 -8 -11 -6 -20 6 -11 16 -13 16 -19 -3 -5 -16 -15
-21 -43 -21 -35 1 -36 2 -18 15 19 14 18 15 -12 15 -18 0 -31 -3 -29 -8 1 -4
-2 -7 -8 -7 -5 0 -9 4 -7 8 1 5 -7 11 -18 14 -16 4 -20 14 -20 45 0 22 -5 49
-12 61 -6 12 -13 38 -14 58 -1 20 -5 54 -9 77 -6 40 -6 41 92 149 54 60 115
129 135 153 125 152 128 156 128 218 0 20 7 70 15 112 8 41 21 140 30 220 22
194 35 280 47 310 6 14 12 45 13 70 2 25 5 56 6 70 4 24 2 25 -41 22 -25 -2
-49 -7 -54 -12 -7 -7 -6 -10 1 -10 6 0 22 -18 37 -40 l26 -40 -25 -10 c-15 -6
-43 -10 -63 -10 -54 0 -112 -11 -112 -21 0 -5 11 -9 24 -9 28 0 40 -24 26 -50
-6 -10 -10 -28 -10 -39 0 -12 -4 -21 -10 -21 -5 0 -10 -22 -10 -49 0 -27 -4
-61 -10 -75 -5 -14 -12 -62 -15 -107 -3 -45 -9 -87 -14 -93 -4 -6 -11 -28 -14
-49 -3 -21 -17 -51 -31 -68 -14 -17 -26 -35 -26 -39 0 -5 -8 -17 -19 -27 -10
-10 -22 -29 -26 -42 -4 -14 -16 -32 -27 -40 -10 -9 -20 -26 -23 -38 -5 -32
-20 -56 -64 -107 -22 -25 -42 -59 -46 -76 -4 -16 -11 -30 -16 -30 -5 0 -9 -6
-9 -14 0 -16 -54 -66 -111 -102 -22 -14 -43 -33 -47 -44 -9 -23 -76 -70 -102
-70 -10 0 -20 -5 -22 -11 -2 -7 -12 -7 -32 2 -26 12 -30 11 -52 -16 -14 -17
-43 -48 -64 -70 -22 -22 -40 -50 -40 -62 0 -34 -11 -53 -31 -53 -10 0 -19 -5
-19 -11 0 -9 -19 -10 -67 -5 -38 4 -113 11 -168 16 -370 34 -561 66 -528 89
13 9 24 41 14 41 -5 0 -12 11 -15 25 -4 14 -11 25 -16 25 -5 0 -22 19 -36 42
-15 24 -44 58 -65 76 -22 19 -39 38 -39 44 0 15 -62 90 -140 169 -78 79 -94
99 -87 105 3 3 -6 16 -19 29 -13 13 -24 34 -24 46 0 22 1 22 20 4 13 -12 24
-15 30 -9 10 10 -17 72 -63 139 -15 22 -27 45 -27 51 0 14 -43 96 -71 133 -21
29 -34 96 -47 253 -4 48 -10 89 -13 92 -10 11 -18 -248 -12 -385 7 -148 0
-130 110 -306 35 -56 63 -104 63 -107 0 -3 20 -40 45 -82 25 -41 45 -80 45
-85 0 -13 107 -152 202 -261 20 -24 34 -45 32 -47 -8 -8 -185 0 -233 10 -54
11 -155 26 -224 32 -53 5 -77 -9 -77 -45 0 -11 -5 -49 -12 -83 -8 -45 -15 -62
-24 -58 -8 3 -13 12 -12 21 4 48 -2 71 -17 65 -17 -6 -58 25 -50 38 3 4 -9 18
-27 30 -54 37 -68 56 -68 94 0 34 -14 48 -23 22 -2 -6 -2 -2 0 11 2 12 -1 22
-7 22 -5 0 -10 -4 -10 -10 0 -5 -4 -10 -10 -10 -5 0 -10 13 -10 28 0 16 -2 31
-5 34 -3 3 -7 52 -9 109 -3 117 14 190 62 263 15 23 34 54 42 69 8 16 36 47
62 69 32 26 48 48 48 63 0 40 -25 50 -113 47 l-80 -3 7 203 c4 112 11 257 16
323 5 66 14 217 20 335 5 118 13 241 16 274 l6 58 62 -6 c33 -3 135 -8 226
-11 91 -3 195 -8 231 -11 48 -4 68 -2 76 8 17 21 27 204 12 214 -7 4 -76 11
-153 15 -270 16 -438 28 -443 32 -2 3 0 58 6 123 5 66 12 171 16 234 8 172 33
614 50 885 8 132 19 321 25 420 15 256 39 540 51 610 7 43 19 70 40 94 16 19
29 39 29 46 0 7 22 15 53 19 90 12 636 23 1287 25 343 1 627 4 629 7 10 10
741 4 764 -7z m-3853 -418 c17 -32 12 -89 -7 -99 -10 -5 -139 -13 -288 -16
-148 -4 -274 -11 -279 -16 -10 -10 8 -703 19 -720 4 -6 102 -10 281 -10 340 0
314 14 314 -165 0 -119 -1 -125 -23 -140 -19 -12 -34 -13 -86 -4 -34 5 -88 9
-119 9 -31 -1 -106 0 -166 0 -66 1 -112 -2 -119 -9 -8 -8 -16 -6 -29 6 -14 12
-46 17 -145 21 -71 2 -134 9 -140 14 -8 6 -13 33 -13 64 0 56 -34 144 -116
299 -93 176 -213 296 -367 368 -70 33 -279 67 -409 67 -31 0 -59 3 -61 8 -10
16 -17 228 -8 241 10 16 39 19 636 61 443 31 514 34 892 38 211 2 223 1 233
-17z m-309 -187 c168 -2 183 -6 160 -43 -8 -12 -114 -34 -146 -31 -5 1 -55 4
-110 8 -94 7 -100 8 -103 30 -5 30 16 55 37 46 9 -4 82 -9 162 -10z m456 -117
c6 -4 9 -15 6 -25 -6 -25 -101 -44 -134 -27 -14 8 -34 9 -58 4 -20 -5 -99 -9
-177 -9 -105 0 -145 -4 -160 -14 -10 -8 -16 -17 -13 -20 6 -6 152 -8 448 -6
159 1 197 -1 209 -14 31 -30 -15 -60 -88 -56 -80 4 -502 2 -507 -3 -3 -4 -3
-14 1 -23 6 -15 17 -16 94 -9 48 4 101 7 117 6 17 -2 86 -4 155 -5 69 -1 131
-5 138 -9 6 -5 12 -17 12 -28 0 -11 -6 -22 -12 -24 -26 -9 -533 -13 -549 -5
-10 6 -28 5 -46 -2 -43 -16 -83 -4 -83 26 0 36 24 51 64 39 37 -11 66 -1 66
22 0 12 -14 15 -59 15 -62 0 -86 14 -75 44 3 9 9 16 13 17 3 0 16 2 29 3 51 6
54 46 3 46 -16 0 -34 7 -41 15 -21 25 -4 44 42 47 89 6 594 3 605 -5z m-457
-316 c52 -3 126 -2 164 3 41 5 77 4 90 -1 13 -6 64 -6 131 -1 78 7 121 6 148
-2 29 -8 42 -8 53 1 8 7 27 9 49 5 29 -6 35 -11 35 -31 0 -14 -1 -25 -2 -26
-6 -2 -294 -12 -323 -11 -16 0 -75 3 -130 5 -119 5 -97 5 -265 3 -133 -1 -135
-1 -138 22 -3 17 4 26 30 37 18 8 40 11 48 8 8 -4 58 -9 110 -12z m40 -104
c46 8 148 7 232 -5 37 -4 73 -5 79 -1 19 11 253 -1 261 -14 18 -28 3 -42 -47
-45 -110 -6 -197 -2 -211 9 -11 9 -19 8 -35 -7 -14 -13 -25 -15 -35 -8 -10 5
-49 6 -97 2 -48 -4 -103 -2 -133 4 -42 9 -61 8 -97 -5 -36 -12 -54 -13 -79 -5
-55 18 -63 24 -63 49 0 22 5 24 65 29 36 3 78 2 95 -2 16 -5 46 -5 65 -1z
m444 -202 c8 -8 21 -15 28 -15 9 0 9 -3 2 -8 -6 -4 -19 -22 -29 -39 -13 -23
-21 -29 -27 -20 -4 6 -8 -23 -8 -65 0 -45 -4 -78 -10 -78 -6 0 -10 30 -10 69
0 39 -4 73 -10 76 -5 3 -10 26 -10 51 0 42 1 44 29 44 16 0 36 -7 45 -15z
m-17 -147 c-3 -8 -6 -5 -6 6 -1 11 2 17 5 13 3 -3 4 -12 1 -19z m-619 -487
c120 -10 218 -23 224 -29 8 -8 8 -15 -3 -28 -11 -13 -26 -15 -81 -12 -37 3
-71 1 -76 -4 -6 -6 -76 -8 -167 -6 -141 3 -158 5 -171 22 -18 25 -18 41 2 60
19 19 9 19 272 -3z m1535 -597 c32 1 60 -1 63 -6 3 -5 15 -6 26 -2 17 5 19 2
16 -22 l-3 -27 -74 2 c-81 3 -121 14 -121 34 0 18 22 39 30 27 3 -5 32 -8 63
-6z m-103 -8 c0 -8 -4 -17 -9 -21 -12 -7 -24 12 -16 25 9 15 25 12 25 -4z
m405 -12 c70 -7 75 -9 75 -35 0 -26 -40 -26 -47 1 -5 19 -7 19 -18 4 -7 -10
-24 -16 -41 -16 -16 1 -53 2 -82 2 -49 0 -53 2 -50 22 3 25 38 39 78 32 14 -2
52 -6 85 -10z m1839 -85 c8 7 17 8 20 3 10 -17 57 -21 63 -5 5 11 9 11 24 -3
16 -14 21 -15 35 -4 11 10 18 10 22 3 4 -6 18 -13 32 -14 27 -4 36 -25 21 -48
-14 -22 -208 -12 -222 11 -6 9 -11 9 -22 0 -18 -15 -27 -6 -27 28 0 33 9 43
27 29 9 -9 17 -8 27 0z m332 -19 c6 -6 35 -13 64 -15 29 -3 55 -7 57 -9 3 -2
0 -14 -7 -25 -14 -28 -94 -30 -109 -3 -9 16 -10 16 -16 0 -5 -12 -18 -18 -41
-18 -29 0 -34 4 -34 23 0 27 17 47 35 41 7 -3 16 -1 20 5 8 14 18 14 31 1z
m182 -48 c4 -23 -18 -38 -42 -29 -9 4 -12 15 -8 32 6 34 45 32 50 -3z m1592
-1772 c0 -13 -32 -28 -47 -23 -26 9 -13 33 17 33 17 0 30 -4 30 -10z m-3179
-306 c99 -5 139 -15 139 -35 0 -13 -152 -1 -203 17 -21 8 -43 11 -48 8 -5 -3
-9 2 -9 11 0 9 5 13 10 10 6 -4 56 -8 111 -11z m-203 -109 c9 -3 12 -9 6 -15
-5 -5 -41 -5 -87 0 -82 10 -107 18 -88 29 11 7 143 -4 169 -14z m295 -46 c-10
-9 -125 10 -118 20 2 4 32 3 65 -2 34 -6 57 -13 53 -18z m269 -16 c35 -3 58
-11 58 -18 0 -9 -15 -9 -57 -2 -96 15 -104 17 -97 28 3 6 13 8 22 4 8 -3 42
-8 74 -12z m-1212 -1 c0 -12 -23 -32 -37 -32 -7 0 -13 6 -13 14 0 8 -10 17
-22 19 -13 2 -2 5 25 6 26 0 47 -3 47 -7z m675 -62 c3 -5 -3 -10 -14 -10 -12
0 -21 5 -21 10 0 6 6 10 14 10 8 0 18 -4 21 -10z m-170 -47 c33 -4 65 -7 70
-7 6 -1 10 -8 10 -16 0 -15 -23 -16 -175 -9 -48 2 -66 15 -48 37 8 9 24 11 47
8 20 -3 63 -9 96 -13z m381 -17 c10 -8 29 -12 42 -9 15 3 28 -1 40 -16 11 -14
32 -22 60 -25 51 -4 60 -19 14 -23 -29 -2 -59 2 -121 18 -10 3 -17 -6 -21 -26
-6 -35 -30 -43 -62 -21 -12 9 -39 16 -60 16 -44 0 -88 18 -88 36 0 19 52 57
60 44 8 -13 90 -2 90 11 0 14 24 11 46 -5z m-211 -37 c12 -19 -5 -23 -22 -6
-16 16 -16 17 -1 17 9 0 20 -5 23 -11z m565 -48 c0 -17 -15 -19 -35 -5 -18 13
-18 14 8 14 15 0 27 -4 27 -9z m60 -1 c0 -5 -10 -10 -22 -10 -19 0 -20 2 -8
10 19 13 30 13 30 0z m57 -16 c-3 -3 -12 -4 -19 -1 -8 3 -5 6 6 6 11 1 17 -2
13 -5z"/>
<path d="M6433 5473 c-16 -6 -18 -123 -3 -123 6 0 10 6 10 14 0 27 21 28 47 5
l26 -24 -6 25 c-8 32 13 81 33 78 10 -2 17 -19 20 -53 5 -54 14 -52 25 7 4 21
13 42 21 49 8 6 11 15 8 20 -7 12 -71 11 -79 -1 -4 -6 -9 -8 -13 -6 -12 7 -77
14 -89 9z m52 -33 c3 -6 -1 -13 -10 -16 -19 -8 -30 0 -20 15 8 14 22 14 30 1z"/>
<path d="M6170 5450 c-19 -36 -8 -83 22 -97 26 -13 58 -9 58 8 0 5 -13 9 -29
9 -36 0 -47 24 -26 57 11 17 22 22 36 18 13 -4 19 -2 19 9 0 25 -66 21 -80 -4z"/>
<path d="M6283 5463 c-21 -8 -15 -40 12 -61 33 -26 32 -40 -2 -34 -26 4 -27 3
-12 -13 15 -15 20 -16 45 -3 41 19 43 46 5 61 -37 14 -35 33 3 29 18 -2 26 2
26 13 0 10 -10 15 -32 14 -18 0 -39 -3 -45 -6z"/>
<path d="M6378 5438 c0 -18 -2 -46 -3 -61 -1 -16 2 -26 9 -24 14 5 21 117 6
117 -5 0 -11 -15 -12 -32z"/>
<path d="M7824 5445 c4 -24 16 -30 16 -7 0 12 -4 22 -9 22 -5 0 -8 -7 -7 -15z"/>
<path d="M6245 5189 c-126 -15 -188 -45 -278 -132 -61 -58 -96 -122 -138 -247
-34 -101 -35 -110 -10 -141 22 -29 33 -66 57 -182 9 -48 24 -95 31 -105 13
-15 14 -8 9 55 -4 43 -2 83 5 100 6 15 15 64 19 109 5 45 16 96 25 113 22 43
85 70 172 76 37 2 120 9 183 16 101 11 122 10 170 -4 69 -20 82 -41 88 -135 4
-58 9 -76 23 -85 11 -7 19 -17 19 -23 0 -6 6 -17 14 -23 19 -16 24 -49 16
-110 -3 -28 -2 -55 3 -60 5 -5 8 -52 8 -105 0 -95 0 -96 24 -96 32 0 58 50 80
155 19 94 14 140 -17 148 -20 6 -21 10 -15 88 5 62 13 92 32 125 23 39 26 55
27 151 1 99 -1 108 -21 124 -12 10 -39 21 -59 25 -38 7 -86 33 -78 42 3 2 1
13 -5 24 -7 13 -19 19 -37 17 -20 -2 -38 8 -68 38 -56 53 -117 63 -279 42z
m-177 -292 c4 -21 -21 -22 -37 -3 -9 11 -9 15 1 19 20 8 33 2 36 -16z"/>
<path d="M6550 4603 c-71 -13 -178 -46 -200 -62 -27 -19 -49 -104 -36 -138 6
-15 9 -13 21 13 7 17 22 34 34 37 11 3 25 17 31 31 18 48 107 62 154 25 14
-11 34 -19 44 -17 20 4 29 55 13 71 -6 6 -11 19 -11 29 0 18 -4 19 -50 11z"/>
<path d="M5986 4499 c-23 -27 -33 -49 -22 -49 2 0 25 9 51 21 38 17 62 20 116
17 45 -2 69 0 69 7 0 26 -27 35 -106 35 -80 0 -83 -1 -108 -31z"/>
<path d="M6450 4493 c-8 -2 -21 -7 -29 -9 -25 -8 19 -46 46 -39 12 3 32 0 43
-7 18 -11 23 -10 36 6 12 17 12 22 -3 38 -15 17 -59 23 -93 11z"/>
<path d="M6099 4450 c-37 -10 -69 -29 -69 -41 0 -6 6 -6 18 0 9 5 30 7 46 4
20 -4 31 -1 38 11 5 9 13 14 19 11 5 -4 9 -2 9 3 0 14 -31 20 -61 12z"/>
<path d="M6322 4350 c0 -14 2 -19 5 -12 2 6 2 18 0 25 -3 6 -5 1 -5 -13z"/>
<path d="M6366 4241 c-4 -6 -18 -8 -32 -5 -18 5 -30 0 -45 -17 -11 -13 -16
-26 -11 -31 14 -14 89 -13 106 1 19 16 20 22 3 46 -10 12 -16 15 -21 6z"/>
<path d="M6385 4109 c-16 -4 -43 -11 -59 -14 -44 -9 -17 -27 44 -28 40 -2 55
2 65 17 25 33 8 42 -50 25z"/>
<path d="M6562 4059 c-26 -44 -39 -49 -44 -16 -3 18 -7 14 -26 -25 -12 -26
-22 -51 -22 -56 0 -5 -19 -29 -42 -54 -54 -57 -124 -82 -209 -76 -32 2 -59 1
-59 -3 0 -11 45 -37 101 -58 28 -11 58 -29 66 -40 8 -12 19 -21 25 -21 6 0 20
-8 30 -17 16 -14 22 -15 40 -4 11 7 45 16 75 21 62 10 83 23 83 51 0 11 4 19
9 19 6 0 10 8 10 18 0 9 3 76 6 148 4 101 3 133 -7 142 -10 8 -19 2 -36 -29z"/>
<path d="M6158 4068 c17 -8 26 -8 34 0 9 9 4 12 -22 11 -33 0 -34 -1 -12 -11z"/>
<path d="M6617 3781 c-3 -33 -12 -74 -21 -92 -9 -18 -16 -50 -16 -71 0 -34 2
-38 18 -29 23 12 81 124 88 172 5 29 2 41 -15 58 -36 36 -48 27 -54 -38z"/>
<path d="M6075 3400 c-3 -5 -1 -10 4 -10 6 0 11 5 11 10 0 6 -2 10 -4 10 -3 0
-8 -4 -11 -10z"/>
<path d="M6472 3392 c-34 -19 -162 -139 -162 -154 0 -4 -7 -8 -15 -8 -8 0 -15
-4 -15 -10 0 -14 6 -13 48 13 38 24 148 77 158 77 3 0 21 7 40 16 40 19 44 46
12 68 -27 19 -25 19 -66 -2z"/>
<path d="M6600 3029 c-142 -82 -115 -297 42 -340 91 -25 194 36 217 127 13 52
1 122 -29 165 -46 63 -162 88 -230 48z m75 -95 c15 -15 17 -15 36 2 27 24 49
10 67 -45 18 -55 12 -72 -24 -62 -16 4 -45 3 -65 -3 -24 -6 -51 -6 -76 0 -33
8 -38 13 -41 40 -2 16 2 42 7 57 9 22 17 27 45 27 19 0 42 -7 51 -16z"/>
<path d="M7040 2638 c0 -5 -7 -16 -15 -24 -8 -9 -15 -24 -15 -34 0 -13 -5 -17
-19 -13 -24 6 -31 -6 -39 -65 -6 -38 -11 -48 -29 -50 -12 -2 -27 5 -35 17 -8
12 -18 18 -21 15 -4 -4 -13 -1 -22 6 -26 21 -27 -10 -6 -121 18 -89 26 -173
34 -339 1 -19 -2 -50 -7 -69 -6 -24 -5 -32 3 -27 12 7 32 -33 24 -46 -2 -5 0
-8 6 -8 5 0 2 -18 -6 -40 -13 -32 -14 -45 -5 -63 6 -12 16 -34 22 -49 5 -16
14 -28 20 -28 25 0 8 -53 -30 -94 -22 -24 -40 -48 -40 -54 0 -6 -5 -12 -12
-14 -6 -2 -12 -15 -14 -29 -1 -13 -5 -34 -9 -46 -11 -33 9 -29 37 8 13 18 48
55 78 84 l54 53 -14 124 c-18 156 -20 419 -4 523 12 79 26 129 78 272 27 74
27 120 0 120 -8 0 -14 -4 -14 -9z"/>
<path d="M7460 2603 c0 -12 -3 -23 -7 -25 -9 -3 -43 -62 -43 -72 0 -3 9 -1 20
6 10 7 22 10 25 6 8 -7 -14 -56 -43 -95 -27 -37 -23 -41 14 -17 33 22 41 11
22 -30 -20 -42 -11 -62 20 -40 22 15 31 67 13 78 -4 3 -5 24 -1 47 9 49 3 140
-11 154 -5 5 -9 1 -9 -12z"/>
<path d="M5537 2503 c-4 -3 -7 -17 -7 -30 0 -33 24 -24 28 10 3 26 -7 35 -21
20z"/>
<path d="M5532 2368 c-7 -7 -12 -30 -12 -53 0 -23 -7 -50 -15 -61 -8 -10 -15
-31 -15 -46 0 -15 -5 -51 -11 -80 -10 -47 -20 -61 -92 -130 l-80 -77 6 -45 c7
-50 31 -101 72 -156 l26 -35 -7 55 c-5 43 -1 69 16 120 12 36 26 69 31 74 5 6
9 25 9 42 0 34 14 53 23 31 5 -14 -4 -60 -28 -152 -8 -27 -19 -78 -26 -113
-12 -62 -11 -64 13 -89 l25 -24 18 63 c10 35 19 104 21 153 2 50 10 110 19
134 9 27 15 80 16 140 0 53 4 131 8 174 7 80 3 95 -17 75z"/>
<path d="M5040 2306 c0 -9 5 -16 10 -16 6 0 10 4 10 9 0 6 -4 13 -10 16 -5 3
-10 -1 -10 -9z"/>
<path d="M6712 1772 c-7 -5 -16 -26 -19 -47 -6 -37 -5 -38 18 -32 13 4 38 7
55 7 19 0 41 10 58 25 34 31 33 35 -8 35 -19 0 -38 5 -41 10 -7 12 -45 13 -63
2z"/>
<path d="M5534 1483 c14 -47 20 -80 18 -95 -2 -9 2 -19 8 -23 5 -3 10 -19 10
-35 0 -20 8 -35 23 -45 13 -8 29 -33 36 -55 8 -26 18 -40 29 -40 19 -1 45 -32
56 -67 4 -13 12 -23 17 -23 16 0 10 35 -14 81 -32 62 -57 130 -57 158 0 32
-75 131 -99 131 -6 0 -11 7 -11 15 0 8 -5 15 -11 15 -6 0 -8 -8 -5 -17z"/>
<path d="M5286 1403 c-11 -11 -6 -23 9 -23 8 0 15 4 15 9 0 13 -16 22 -24 14z"/>
<path d="M6668 1248 c-14 -18 -32 -46 -41 -63 -8 -16 -38 -52 -66 -80 -56 -54
-66 -75 -23 -49 64 40 172 176 172 218 0 15 -20 3 -42 -26z"/>
<path d="M5830 988 c0 -16 75 -128 96 -145 11 -8 26 -8 52 -1 20 6 56 8 80 5
l44 -5 -33 20 c-26 16 -37 18 -56 9 -51 -23 -67 -14 -64 34 1 15 -7 24 -31 33
-18 6 -38 22 -43 34 -11 25 -45 37 -45 16z"/>
<path d="M2457 4923 c-32 -8 -6 -23 41 -23 57 0 94 9 86 21 -5 9 -94 10 -127
2z"/>
<path d="M6031 371 c-11 -7 -10 -13 7 -31 26 -28 57 -23 57 10 0 19 -6 26 -25
28 -14 1 -31 -2 -39 -7z"/>
</g>
</svg>
